<?xml version="1.0" standalone="no"?>
<!DOCTYPE svg PUBLIC "-//W3C//DTD SVG 1.1//EN" 
"http://www.w3.org/Graphics/SVG/1.1/DTD/svg11.dtd"> 
<svg
  xmlns="http://www.w3.org/2000/svg"
  version="1.1"
  width="11.7in" height="8.267in" viewBox="0 0 117000 82670 "
>
  <title>SVG Picture created as atx-power-brd.svg </title>
  <desc>Picture generated by wxSVG v0101 </desc>
  <g style="fill:black; stroke:black; stroke-width:1">
</g>
<g style="fill:#000000; fill-opacity:0.0; 
  stroke:#000000; stroke-linecap:round; stroke-linejoin:round; stroke-opacity:1.0; stroke-opacity:1.0; stroke-width:150" 
   transform="translate(0 0) scale(1 1)">
<path d="M22436 48685 L70861 48685" /> 
<path d="M70861 38842 L22436 38842" /> 
<path d="M22436 48685 L22436 38842" /> 
<path d="M70861 38842 L70861 48685" /> 
</g>
<g style="fill:#000000; fill-opacity:0.0; 
  stroke:#000000; stroke-linecap:round; stroke-linejoin:round; stroke-opacity:1.0; stroke-opacity:1.0; stroke-width:315" 
   transform="translate(0 0) scale(1 1)">
<path d="M66611 42148 L66611 41448" /> 
</g>
<g style="fill:#000000; fill-opacity:0.0; 
  stroke:#000000; stroke-linecap:round; stroke-linejoin:round; stroke-opacity:1.0; stroke-opacity:1.0; stroke-width:1181" 
   transform="translate(0 0) scale(1 1)">
<path d="M33205 45212 L31675 45212" /> 
<path d="M30311 43848 L30311 41275" /> 
<path d="M31675 45212 L30311 43848" /> 
<path d="M30311 41275 L30311 41448" /> 
<path d="M30311 41448 L30311 41275" /> 
</g>
<g style="fill:#000000; fill-opacity:0.0; 
  stroke:#000000; stroke-linecap:round; stroke-linejoin:round; stroke-opacity:1.0; stroke-opacity:1.0; stroke-width:1575" 
   transform="translate(0 0) scale(1 1)">
<path d="M33205 41275 L30311 41275" /> 
<path d="M30311 41275 L28338 41275" /> 
<path d="M28338 41275 L28311 41248" /> 
<path d="M35205 45212 L35205 46242" /> 
</g>
<g style="fill:#000000; fill-opacity:0.0; 
  stroke:#000000; stroke-linecap:round; stroke-linejoin:round; stroke-opacity:1.0; stroke-opacity:1.0; stroke-width:394" 
   transform="translate(0 0) scale(1 1)">
<path d="M57311 46448 L59492 44267" /> 
</g>
<g style="fill:#000000; fill-opacity:0.0; 
  stroke:#000000; stroke-linecap:round; stroke-linejoin:round; stroke-opacity:1.0; stroke-opacity:1.0; stroke-width:197" 
   transform="translate(0 0) scale(1 1)">
<path d="M57011 46448 L57311 46448" /> 
</g>
<g style="fill:#000000; fill-opacity:0.0; 
  stroke:#000000; stroke-linecap:round; stroke-linejoin:round; stroke-opacity:1.0; stroke-opacity:1.0; stroke-width:1575" 
   transform="translate(0 0) scale(1 1)">
<path d="M37205 41275 L37205 45212" /> 
<path d="M35205 41275 L35205 45212" /> 
</g>
<g style="fill:#000000; fill-opacity:0.0; 
  stroke:#000000; stroke-linecap:round; stroke-linejoin:round; stroke-opacity:1.0; stroke-opacity:1.0; stroke-width:197" 
   transform="translate(0 0) scale(1 1)">
<path d="M59811 39948 L65711 39948" /> 
</g>
<g style="fill:#000000; fill-opacity:0.0; 
  stroke:#000000; stroke-linecap:round; stroke-linejoin:round; stroke-opacity:1.0; stroke-opacity:1.0; stroke-width:1575" 
   transform="translate(0 0) scale(1 1)">
<path d="M28311 43248 L28311 44748" /> 
</g>
<g style="fill:#000000; fill-opacity:0.0; 
  stroke:#000000; stroke-linecap:round; stroke-linejoin:round; stroke-opacity:1.0; stroke-opacity:1.0; stroke-width:197" 
   transform="translate(0 0) scale(1 1)">
<path d="M59492 41209 L59492 40267" /> 
</g>
<g style="fill:#000000; fill-opacity:0.0; 
  stroke:#000000; stroke-linecap:round; stroke-linejoin:round; stroke-opacity:1.0; stroke-opacity:1.0; stroke-width:1575" 
   transform="translate(0 0) scale(1 1)">
<path d="M37205 46854 L37205 45212" /> 
</g>
<g style="fill:#000000; fill-opacity:0.0; 
  stroke:#000000; stroke-linecap:round; stroke-linejoin:round; stroke-opacity:1.0; stroke-opacity:1.0; stroke-width:394" 
   transform="translate(0 0) scale(1 1)">
<path d="M59492 44267 L59492 43374" /> 
</g>
<g style="fill:#000000; fill-opacity:0.0; 
  stroke:#000000; stroke-linecap:round; stroke-linejoin:round; stroke-opacity:1.0; stroke-opacity:1.0; stroke-width:1575" 
   transform="translate(0 0) scale(1 1)">
<path d="M28311 44748 L31111 47548" /> 
</g>
<g style="fill:#000000; fill-opacity:0.0; 
  stroke:#000000; stroke-linecap:round; stroke-linejoin:round; stroke-opacity:1.0; stroke-opacity:1.0; stroke-width:197" 
   transform="translate(0 0) scale(1 1)">
<path d="M59492 40267 L59811 39948" /> 
</g>
<g style="fill:#000000; fill-opacity:0.0; 
  stroke:#000000; stroke-linecap:round; stroke-linejoin:round; stroke-opacity:1.0; stroke-opacity:1.0; stroke-width:315" 
   transform="translate(0 0) scale(1 1)">
<path d="M65711 39948 L66611 40848" /> 
</g>
<g style="fill:#000000; fill-opacity:0.0; 
  stroke:#000000; stroke-linecap:round; stroke-linejoin:round; stroke-opacity:1.0; stroke-opacity:1.0; stroke-width:1575" 
   transform="translate(0 0) scale(1 1)">
<path d="M35205 46242 L36511 47548" /> 
<path d="M36511 47548 L37205 46854" /> 
</g>
<g style="fill:#000000; fill-opacity:0.0; 
  stroke:#000000; stroke-linecap:round; stroke-linejoin:round; stroke-opacity:1.0; stroke-opacity:1.0; stroke-width:492" 
   transform="translate(0 0) scale(1 1)">
<path d="M52879 45916 L54511 47548" /> 
<path d="M54511 47548 L55911 47548" /> 
<path d="M55911 47548 L57011 46448" /> 
<path d="M52879 43374 L52879 45916" /> 
<path d="M56185 43374 L56185 41209" /> 
</g>
<g style="fill:#000000; fill-opacity:0.0; 
  stroke:#000000; stroke-linecap:round; stroke-linejoin:round; stroke-opacity:1.0; stroke-opacity:1.0; stroke-width:1575" 
   transform="translate(0 0) scale(1 1)">
<path d="M31111 47548 L36511 47548" /> 
</g>
<g style="fill:#000000; fill-opacity:0.0; 
  stroke:#000000; stroke-linecap:round; stroke-linejoin:round; stroke-opacity:1.0; stroke-opacity:1.0; stroke-width:492" 
   transform="translate(0 0) scale(1 1)">
<path d="M57650 41209 L57011 41848" /> 
<path d="M57011 45448 L56011 46448" /> 
</g>
<g style="fill:#000000; fill-opacity:0.0; 
  stroke:#000000; stroke-linecap:round; stroke-linejoin:round; stroke-opacity:1.0; stroke-opacity:1.0; stroke-width:236" 
   transform="translate(0 0) scale(1 1)">
<path d="M57011 41848 L57011 45448" /> 
</g>
<g style="fill:#000000; fill-opacity:0.0; 
  stroke:#000000; stroke-linecap:round; stroke-linejoin:round; stroke-opacity:1.0; stroke-opacity:1.0; stroke-width:197" 
   transform="translate(0 0) scale(1 1)">
<path d="M57839 41209 L57650 41209" /> 
<path d="M49572 43374 L49572 43287" /> 
</g>
<g style="fill:#000000; fill-opacity:0.0; 
  stroke:#000000; stroke-linecap:round; stroke-linejoin:round; stroke-opacity:1.0; stroke-opacity:1.0; stroke-width:492" 
   transform="translate(0 0) scale(1 1)">
<path d="M53711 45148 L55011 46448" /> 
</g>
<g style="fill:#000000; fill-opacity:0.0; 
  stroke:#000000; stroke-linecap:round; stroke-linejoin:round; stroke-opacity:1.0; stroke-opacity:1.0; stroke-width:236" 
   transform="translate(0 0) scale(1 1)">
<path d="M53711 42848 L53711 45148" /> 
</g>
<g style="fill:#000000; fill-opacity:0.0; 
  stroke:#000000; stroke-linecap:round; stroke-linejoin:round; stroke-opacity:1.0; stroke-opacity:1.0; stroke-width:492" 
   transform="translate(0 0) scale(1 1)">
<path d="M53111 42148 L53711 42848" /> 
<path d="M50611 42148 L53111 42148" /> 
<path d="M49572 43287 L50611 42148" /> 
<path d="M51226 43374 L51211 46048" /> 
<path d="M66611 44848 L66611 42748" /> 
<path d="M63611 48148 L66611 44848" /> 
<path d="M53311 48148 L63611 48148" /> 
<path d="M51211 46048 L53311 48148" /> 
</g>
<g style="fill:#000000; fill-opacity:0.0; 
  stroke:#000000; stroke-linecap:round; stroke-linejoin:round; stroke-opacity:1.0; stroke-opacity:1.0; stroke-width:100" 
   transform="translate(0 0) scale(1 1)">
<path d="M33861 46498 L33861 46498" /> 
<path d="M33155 46498 L33861 46498" /> 
<path d="M33155 46150 L33155 46498" /> 
<path d="M33155 45262 L33155 46150" /> 
<path d="M33155 45162 L33155 45262" /> 
<path d="M33155 44274 L33155 45162" /> 
<path d="M33155 42213 L33155 44274" /> 
<path d="M33155 41325 L33155 42213" /> 
<path d="M32267 41325 L33155 41325" /> 
<path d="M32205 41387 L32267 41325" /> 
<path d="M32206 41976 L32205 41387" /> 
<path d="M32206 42075 L32206 41976" /> 
<path d="M32244 42166 L32206 42075" /> 
<path d="M32314 42236 L32244 42166" /> 
<path d="M32406 42274 L32314 42236" /> 
<path d="M33093 42275 L32406 42274" /> 
<path d="M33155 42213 L33093 42275" /> 
<path d="M33155 44274 L33155 42213" /> 
<path d="M33093 44212 L33155 44274" /> 
<path d="M32406 44213 L33093 44212" /> 
<path d="M32314 44251 L32406 44213" /> 
<path d="M32244 44321 L32314 44251" /> 
<path d="M32206 44412 L32244 44321" /> 
<path d="M32206 44511 L32206 44412" /> 
<path d="M32205 45100 L32206 44511" /> 
<path d="M32267 45162 L32205 45100" /> 
<path d="M33155 45162 L32267 45162" /> 
<path d="M33155 45262 L33155 45162" /> 
<path d="M32267 45262 L33155 45262" /> 
<path d="M32205 45324 L32267 45262" /> 
<path d="M32206 45913 L32205 45324" /> 
<path d="M32206 46012 L32206 45913" /> 
<path d="M32244 46103 L32206 46012" /> 
<path d="M32314 46173 L32244 46103" /> 
<path d="M32406 46211 L32314 46173" /> 
<path d="M33093 46212 L32406 46211" /> 
<path d="M33155 46150 L33093 46212" /> 
<path d="M33155 46498 L33155 46150" /> 
<path d="M31532 46498 L33155 46498" /> 
<path d="M29461 44427 L31532 46498" /> 
<path d="M29461 40598 L29461 44427" /> 
<path d="M32205 40598 L29461 40598" /> 
<path d="M32205 41163 L32205 40598" /> 
<path d="M32267 41225 L32205 41163" /> 
<path d="M33105 41225 L32267 41225" /> 
<path d="M33155 41225 L33105 41225" /> 
<path d="M33255 41225 L33155 41225" /> 
<path d="M33255 41325 L33255 41225" /> 
<path d="M33255 41375 L33255 41325" /> 
<path d="M33255 42213 L33255 41375" /> 
<path d="M33317 42275 L33255 42213" /> 
<path d="M33861 42274 L33317 42275" /> 
<path d="M33861 44212 L33861 42274" /> 
<path d="M33317 44212 L33861 44212" /> 
<path d="M33255 44274 L33317 44212" /> 
<path d="M33255 45112 L33255 44274" /> 
<path d="M33255 45162 L33255 45112" /> 
<path d="M33255 45262 L33255 45162" /> 
<path d="M33255 45312 L33255 45262" /> 
<path d="M33255 46150 L33255 45312" /> 
<path d="M33317 46212 L33255 46150" /> 
<path d="M33861 46211 L33317 46212" /> 
<path d="M33861 46498 L33861 46211" /> 
</g>
<g style="fill:#000000; fill-opacity:1.0; 
  stroke:#000000; stroke-linecap:round; stroke-linejoin:round; stroke-opacity:1.0; stroke-opacity:1.0; stroke-width:0" 
   transform="translate(0 0) scale(1 1)">
<polygon style="fill-rule:evenodd; " 
points="33155,45162
33155,44274
33155,42213
33155,41325
32267,41325
32205,41387
32206,41976
32206,42075
32244,42166
32314,42236
32406,42274
33093,42275
33155,42213
33155,44274
33093,44212
32406,44213
32314,44251
32244,44321
32206,44412
32206,44511
32205,45100
32267,45162
33155,45162
33155,45262
32267,45262
32205,45324
32206,45913
32206,46012
32244,46103
32314,46173
32406,46211
33093,46212
33155,46150
33155,46498
31532,46498
29461,44427
29461,40598
32205,40598
32205,41163
32267,41225
33105,41225
33155,41225
33255,41225
33255,41325
33255,41375
33255,42213
33317,42275
33861,42274
33861,44212
33317,44212
33255,44274
33255,45112
33255,45162
33255,45262
33255,45312
33255,46150
33317,46212
33861,46211
33861,46498
33861,46498
33155,46498
33155,46150
33155,45262
" /> 
</g>
<g style="fill:#000000; fill-opacity:1.0; 
  stroke:#000000; stroke-linecap:round; stroke-linejoin:round; stroke-opacity:1.0; stroke-opacity:1.0; stroke-width:100" 
   transform="translate(0 0) scale(1 1)">
<path d="M31361 48298 L31361 48298" /> 
<path d="M27661 48298 L31361 48298" /> 
<path d="M27661 44498 L27661 48298" /> 
<path d="M28990 44498 L27661 44498" /> 
<path d="M31361 46869 L28990 44498" /> 
<path d="M31361 48298 L31361 46869" /> 
</g>
<g style="fill:#000000; fill-opacity:1.0; 
  stroke:#000000; stroke-linecap:round; stroke-linejoin:round; stroke-opacity:1.0; stroke-opacity:1.0; stroke-width:0" 
   transform="translate(0 0) scale(1 1)">
<polygon style="fill-rule:evenodd; " 
points="31361,46869
31361,48298
31361,48298
27661,48298
27661,44498
28990,44498
" /> 
</g>
<g style="fill:#000000; fill-opacity:1.0; 
  stroke:#000000; stroke-linecap:round; stroke-linejoin:round; stroke-opacity:1.0; stroke-opacity:1.0; stroke-width:100" 
   transform="translate(0 0) scale(1 1)">
<path d="M70461 42998 L70461 42998" /> 
<path d="M67261 42998 L70461 42998" /> 
<path d="M67261 40998 L67261 42998" /> 
<path d="M65861 40998 L67261 40998" /> 
<path d="M65861 44027 L65861 40998" /> 
<path d="M63619 46269 L65861 44027" /> 
<path d="M63619 43538 L63619 46269" /> 
<path d="M63619 43212 L63619 43538" /> 
<path d="M63619 41373 L63619 43212" /> 
<path d="M63619 41047 L63619 41373" /> 
<path d="M63495 40746 L63619 41047" /> 
<path d="M63264 40515 L63495 40746" /> 
<path d="M62963 40389 L63264 40515" /> 
<path d="M62637 40389 L62963 40389" /> 
<path d="M62336 40513 L62637 40389" /> 
<path d="M62105 40744 L62336 40513" /> 
<path d="M61979 41045 L62105 40744" /> 
<path d="M61979 41371 L61979 41045" /> 
<path d="M62103 41672 L61979 41371" /> 
<path d="M62334 41903 L62103 41672" /> 
<path d="M62635 42029 L62334 41903" /> 
<path d="M62961 42029 L62635 42029" /> 
<path d="M63262 41905 L62961 42029" /> 
<path d="M63493 41674 L63262 41905" /> 
<path d="M63619 41373 L63493 41674" /> 
<path d="M63619 43212 L63619 41373" /> 
<path d="M63495 42911 L63619 43212" /> 
<path d="M63264 42680 L63495 42911" /> 
<path d="M62963 42554 L63264 42680" /> 
<path d="M62637 42554 L62963 42554" /> 
<path d="M62336 42678 L62637 42554" /> 
<path d="M62105 42909 L62336 42678" /> 
<path d="M61979 43210 L62105 42909" /> 
<path d="M61979 43536 L61979 43210" /> 
<path d="M62103 43837 L61979 43536" /> 
<path d="M62334 44068 L62103 43837" /> 
<path d="M62635 44194 L62334 44068" /> 
<path d="M62961 44194 L62635 44194" /> 
<path d="M63262 44070 L62961 44194" /> 
<path d="M63493 43839 L63262 44070" /> 
<path d="M63619 43538 L63493 43839" /> 
<path d="M63619 46269 L63619 43538" /> 
<path d="M62990 46898 L63619 46269" /> 
<path d="M61966 46898 L62990 46898" /> 
<path d="M61966 43538 L61966 46898" /> 
<path d="M61966 43212 L61966 43538" /> 
<path d="M61966 41373 L61966 43212" /> 
<path d="M61966 41047 L61966 41373" /> 
<path d="M61842 40746 L61966 41047" /> 
<path d="M61611 40515 L61842 40746" /> 
<path d="M61310 40389 L61611 40515" /> 
<path d="M60984 40389 L61310 40389" /> 
<path d="M60683 40513 L60984 40389" /> 
<path d="M60452 40744 L60683 40513" /> 
<path d="M60326 41045 L60452 40744" /> 
<path d="M60326 41371 L60326 41045" /> 
<path d="M60450 41672 L60326 41371" /> 
<path d="M60681 41903 L60450 41672" /> 
<path d="M60982 42029 L60681 41903" /> 
<path d="M61308 42029 L60982 42029" /> 
<path d="M61609 41905 L61308 42029" /> 
<path d="M61840 41674 L61609 41905" /> 
<path d="M61966 41373 L61840 41674" /> 
<path d="M61966 43212 L61966 41373" /> 
<path d="M61842 42911 L61966 43212" /> 
<path d="M61611 42680 L61842 42911" /> 
<path d="M61310 42554 L61611 42680" /> 
<path d="M60984 42554 L61310 42554" /> 
<path d="M60683 42678 L60984 42554" /> 
<path d="M60452 42909 L60683 42678" /> 
<path d="M60326 43210 L60452 42909" /> 
<path d="M60326 43536 L60326 43210" /> 
<path d="M60450 43837 L60326 43536" /> 
<path d="M60681 44068 L60450 43837" /> 
<path d="M60982 44194 L60681 44068" /> 
<path d="M61308 44194 L60982 44194" /> 
<path d="M61609 44070 L61308 44194" /> 
<path d="M61840 43839 L61609 44070" /> 
<path d="M61966 43538 L61840 43839" /> 
<path d="M61966 46898 L61966 43538" /> 
<path d="M60299 46898 L61966 46898" /> 
<path d="M60299 43516 L60299 46898" /> 
<path d="M60299 41351 L60299 43516" /> 
<path d="M60292 41032 L60299 41351" /> 
<path d="M60183 40768 L60292 41032" /> 
<path d="M60062 40710 L60183 40768" /> 
<path d="M59991 40781 L60062 40710" /> 
<path d="M59991 40639 L59991 40781" /> 
<path d="M59933 40518 L59991 40639" /> 
<path d="M59634 40402 L59933 40518" /> 
<path d="M59315 40409 L59634 40402" /> 
<path d="M59051 40518 L59315 40409" /> 
<path d="M58993 40639 L59051 40518" /> 
<path d="M59492 41138 L58993 40639" /> 
<path d="M59991 40639 L59492 41138" /> 
<path d="M59991 40781 L59991 40639" /> 
<path d="M59563 41209 L59991 40781" /> 
<path d="M60062 41708 L59563 41209" /> 
<path d="M60183 41650 L60062 41708" /> 
<path d="M60299 41351 L60183 41650" /> 
<path d="M60299 43516 L60299 41351" /> 
<path d="M60292 43197 L60299 43516" /> 
<path d="M60183 42933 L60292 43197" /> 
<path d="M60062 42875 L60183 42933" /> 
<path d="M59991 42946 L60062 42875" /> 
<path d="M59991 42804 L59991 42946" /> 
<path d="M59991 41779 L59991 42804" /> 
<path d="M59492 41280 L59991 41779" /> 
<path d="M59421 41351 L59492 41280" /> 
<path d="M59421 41209 L59421 41351" /> 
<path d="M58922 40710 L59421 41209" /> 
<path d="M58801 40768 L58922 40710" /> 
<path d="M58685 41067 L58801 40768" /> 
<path d="M58692 41386 L58685 41067" /> 
<path d="M58801 41650 L58692 41386" /> 
<path d="M58922 41708 L58801 41650" /> 
<path d="M59421 41209 L58922 41708" /> 
<path d="M59421 41351 L59421 41209" /> 
<path d="M58993 41779 L59421 41351" /> 
<path d="M59051 41900 L58993 41779" /> 
<path d="M59350 42016 L59051 41900" /> 
<path d="M59669 42009 L59350 42016" /> 
<path d="M59933 41900 L59669 42009" /> 
<path d="M59991 41779 L59933 41900" /> 
<path d="M59991 42804 L59991 41779" /> 
<path d="M59933 42683 L59991 42804" /> 
<path d="M59634 42567 L59933 42683" /> 
<path d="M59315 42574 L59634 42567" /> 
<path d="M59051 42683 L59315 42574" /> 
<path d="M58993 42804 L59051 42683" /> 
<path d="M59492 43303 L58993 42804" /> 
<path d="M59991 42804 L59492 43303" /> 
<path d="M59991 42946 L59991 42804" /> 
<path d="M59563 43374 L59991 42946" /> 
<path d="M60062 43873 L59563 43374" /> 
<path d="M60183 43815 L60062 43873" /> 
<path d="M60299 43516 L60183 43815" /> 
<path d="M60299 46898 L60299 43516" /> 
<path d="M59991 46898 L60299 46898" /> 
<path d="M59991 43944 L59991 46898" /> 
<path d="M59492 43445 L59991 43944" /> 
<path d="M59421 43516 L59492 43445" /> 
<path d="M59421 43374 L59421 43516" /> 
<path d="M58922 42875 L59421 43374" /> 
<path d="M58801 42933 L58922 42875" /> 
<path d="M58685 43232 L58801 42933" /> 
<path d="M58692 43551 L58685 43232" /> 
<path d="M58801 43815 L58692 43551" /> 
<path d="M58922 43873 L58801 43815" /> 
<path d="M59421 43374 L58922 43873" /> 
<path d="M59421 43516 L59421 43374" /> 
<path d="M58993 43944 L59421 43516" /> 
<path d="M59051 44065 L58993 43944" /> 
<path d="M59350 44181 L59051 44065" /> 
<path d="M59669 44174 L59350 44181" /> 
<path d="M59933 44065 L59669 44174" /> 
<path d="M59991 43944 L59933 44065" /> 
<path d="M59991 46898 L59991 43944" /> 
<path d="M57554 46898 L59991 46898" /> 
<path d="M57554 46527 L57554 46898" /> 
<path d="M57543 46314 L57554 46527" /> 
<path d="M57483 46167 L57543 46314" /> 
<path d="M57389 46140 L57483 46167" /> 
<path d="M57082 46448 L57389 46140" /> 
<path d="M57389 46756 L57082 46448" /> 
<path d="M57483 46729 L57389 46756" /> 
<path d="M57554 46527 L57483 46729" /> 
<path d="M57554 46898 L57554 46527" /> 
<path d="M57298 46898 L57554 46898" /> 
<path d="M57319 46826 L57298 46898" /> 
<path d="M57046 46554 L57319 46826" /> 
<path d="M57011 46519 L57046 46554" /> 
<path d="M56961 46469 L57011 46519" /> 
<path d="M56961 46427 L56961 46469" /> 
<path d="M57011 46377 L56961 46427" /> 
<path d="M57046 46342 L57011 46377" /> 
<path d="M57319 46070 L57046 46342" /> 
<path d="M57292 45976 L57319 46070" /> 
<path d="M57119 45915 L57292 45976" /> 
<path d="M57299 45736 L57119 45915" /> 
<path d="M57309 45721 L57299 45736" /> 
<path d="M57361 45669 L57309 45721" /> 
<path d="M57361 45643 L57361 45669" /> 
<path d="M57387 45604 L57361 45643" /> 
<path d="M57418 45448 L57387 45604" /> 
<path d="M57387 45293 L57418 45448" /> 
<path d="M57379 45280 L57387 45293" /> 
<path d="M57379 44070 L57379 45280" /> 
<path d="M57675 44194 L57379 44070" /> 
<path d="M58001 44194 L57675 44194" /> 
<path d="M58302 44070 L58001 44194" /> 
<path d="M58533 43839 L58302 44070" /> 
<path d="M58659 43538 L58533 43839" /> 
<path d="M58659 43212 L58659 43538" /> 
<path d="M58535 42911 L58659 43212" /> 
<path d="M58304 42680 L58535 42911" /> 
<path d="M58003 42554 L58304 42680" /> 
<path d="M57677 42554 L58003 42554" /> 
<path d="M57379 42676 L57677 42554" /> 
<path d="M57379 42055 L57379 42676" /> 
<path d="M57485 41949 L57379 42055" /> 
<path d="M57675 42029 L57485 41949" /> 
<path d="M58001 42029 L57675 42029" /> 
<path d="M58302 41905 L58001 42029" /> 
<path d="M58533 41674 L58302 41905" /> 
<path d="M58659 41373 L58533 41674" /> 
<path d="M58659 41047 L58659 41373" /> 
<path d="M58535 40746 L58659 41047" /> 
<path d="M58304 40515 L58535 40746" /> 
<path d="M58003 40389 L58304 40515" /> 
<path d="M57677 40389 L58003 40389" /> 
<path d="M57376 40513 L57677 40389" /> 
<path d="M57145 40744 L57376 40513" /> 
<path d="M57019 41045 L57145 40744" /> 
<path d="M57019 41264 L57019 41045" /> 
<path d="M56990 41292 L57019 41264" /> 
<path d="M56985 41032 L56990 41292" /> 
<path d="M56876 40768 L56985 41032" /> 
<path d="M56755 40710 L56876 40768" /> 
<path d="M56684 40781 L56755 40710" /> 
<path d="M56684 40639 L56684 40781" /> 
<path d="M56626 40518 L56684 40639" /> 
<path d="M56327 40402 L56626 40518" /> 
<path d="M56008 40409 L56327 40402" /> 
<path d="M55744 40518 L56008 40409" /> 
<path d="M55686 40639 L55744 40518" /> 
<path d="M56185 41138 L55686 40639" /> 
<path d="M56684 40639 L56185 41138" /> 
<path d="M56684 40781 L56684 40639" /> 
<path d="M56291 41174 L56684 40781" /> 
<path d="M56256 41209 L56291 41174" /> 
<path d="M56185 41280 L56256 41209" /> 
<path d="M56150 41315 L56185 41280" /> 
<path d="M56114 41351 L56150 41315" /> 
<path d="M56114 41209 L56114 41351" /> 
<path d="M55615 40710 L56114 41209" /> 
<path d="M55494 40768 L55615 40710" /> 
<path d="M55378 41067 L55494 40768" /> 
<path d="M55385 41386 L55378 41067" /> 
<path d="M55494 41650 L55385 41386" /> 
<path d="M55615 41708 L55494 41650" /> 
<path d="M56114 41209 L55615 41708" /> 
<path d="M56114 41351 L56114 41209" /> 
<path d="M55686 41779 L56114 41351" /> 
<path d="M55744 41900 L55686 41779" /> 
<path d="M56043 42016 L55744 41900" /> 
<path d="M56362 42009 L56043 42016" /> 
<path d="M56615 41904 L56362 42009" /> 
<path d="M56635 42004 L56615 41904" /> 
<path d="M56643 42016 L56635 42004" /> 
<path d="M56643 42501 L56643 42016" /> 
<path d="M55339 42506 L56643 42501" /> 
<path d="M55339 41351 L55339 42506" /> 
<path d="M55332 41032 L55339 41351" /> 
<path d="M55223 40768 L55332 41032" /> 
<path d="M55102 40710 L55223 40768" /> 
<path d="M55031 40781 L55102 40710" /> 
<path d="M55031 40639 L55031 40781" /> 
<path d="M54973 40518 L55031 40639" /> 
<path d="M54674 40402 L54973 40518" /> 
<path d="M54355 40409 L54674 40402" /> 
<path d="M54091 40518 L54355 40409" /> 
<path d="M54033 40639 L54091 40518" /> 
<path d="M54532 41138 L54033 40639" /> 
<path d="M55031 40639 L54532 41138" /> 
<path d="M55031 40781 L55031 40639" /> 
<path d="M54603 41209 L55031 40781" /> 
<path d="M55102 41708 L54603 41209" /> 
<path d="M55223 41650 L55102 41708" /> 
<path d="M55339 41351 L55223 41650" /> 
<path d="M55339 42506 L55339 41351" /> 
<path d="M55031 42507 L55339 42506" /> 
<path d="M55031 41779 L55031 42507" /> 
<path d="M54532 41280 L55031 41779" /> 
<path d="M54461 41351 L54532 41280" /> 
<path d="M54461 41209 L54461 41351" /> 
<path d="M53962 40710 L54461 41209" /> 
<path d="M53841 40768 L53962 40710" /> 
<path d="M53725 41067 L53841 40768" /> 
<path d="M53732 41386 L53725 41067" /> 
<path d="M53841 41650 L53732 41386" /> 
<path d="M53962 41708 L53841 41650" /> 
<path d="M54461 41209 L53962 41708" /> 
<path d="M54461 41351 L54461 41209" /> 
<path d="M54033 41779 L54461 41351" /> 
<path d="M54091 41900 L54033 41779" /> 
<path d="M54390 42016 L54091 41900" /> 
<path d="M54709 42009 L54390 42016" /> 
<path d="M54973 41900 L54709 42009" /> 
<path d="M55031 41779 L54973 41900" /> 
<path d="M55031 42507 L55031 41779" /> 
<path d="M53959 42512 L55031 42507" /> 
<path d="M53686 42193 L53959 42512" /> 
<path d="M53686 41351 L53686 42193" /> 
<path d="M53679 41032 L53686 41351" /> 
<path d="M53570 40768 L53679 41032" /> 
<path d="M53449 40710 L53570 40768" /> 
<path d="M53378 40781 L53449 40710" /> 
<path d="M53378 40639 L53378 40781" /> 
<path d="M53320 40518 L53378 40639" /> 
<path d="M53021 40402 L53320 40518" /> 
<path d="M52702 40409 L53021 40402" /> 
<path d="M52438 40518 L52702 40409" /> 
<path d="M52380 40639 L52438 40518" /> 
<path d="M52879 41138 L52380 40639" /> 
<path d="M53378 40639 L52879 41138" /> 
<path d="M53378 40781 L53378 40639" /> 
<path d="M52950 41209 L53378 40781" /> 
<path d="M53449 41708 L52950 41209" /> 
<path d="M53570 41650 L53449 41708" /> 
<path d="M53686 41351 L53570 41650" /> 
<path d="M53686 42193 L53686 41351" /> 
<path d="M53420 41883 L53686 42193" /> 
<path d="M53408 41873 L53420 41883" /> 
<path d="M53399 41860 L53408 41873" /> 
<path d="M53353 41829 L53399 41860" /> 
<path d="M53378 41779 L53353 41829" /> 
<path d="M52914 41315 L53378 41779" /> 
<path d="M52879 41280 L52914 41315" /> 
<path d="M52808 41209 L52879 41280" /> 
<path d="M52773 41174 L52808 41209" /> 
<path d="M52309 40710 L52773 41174" /> 
<path d="M52188 40768 L52309 40710" /> 
<path d="M52072 41067 L52188 40768" /> 
<path d="M52079 41386 L52072 41067" /> 
<path d="M52188 41650 L52079 41386" /> 
<path d="M52261 41685 L52188 41650" /> 
<path d="M52218 41729 L52261 41685" /> 
<path d="M52230 41741 L52218 41729" /> 
<path d="M51853 41741 L52230 41741" /> 
<path d="M51920 41674 L51853 41741" /> 
<path d="M52046 41373 L51920 41674" /> 
<path d="M52046 41047 L52046 41373" /> 
<path d="M51922 40746 L52046 41047" /> 
<path d="M51691 40515 L51922 40746" /> 
<path d="M51390 40389 L51691 40515" /> 
<path d="M51064 40389 L51390 40389" /> 
<path d="M50763 40513 L51064 40389" /> 
<path d="M50532 40744 L50763 40513" /> 
<path d="M50406 41045 L50532 40744" /> 
<path d="M50406 41371 L50406 41045" /> 
<path d="M50530 41672 L50406 41371" /> 
<path d="M50600 41742 L50530 41672" /> 
<path d="M50600 41743 L50600 41742" /> 
<path d="M50593 41742 L50600 41743" /> 
<path d="M50539 41755 L50593 41742" /> 
<path d="M50455 41772 L50539 41755" /> 
<path d="M50445 41778 L50455 41772" /> 
<path d="M50439 41780 L50445 41778" /> 
<path d="M50403 41806 L50439 41780" /> 
<path d="M50392 41813 L50403 41806" /> 
<path d="M50392 41373 L50392 41813" /> 
<path d="M50392 41047 L50392 41373" /> 
<path d="M50268 40746 L50392 41047" /> 
<path d="M50037 40515 L50268 40746" /> 
<path d="M49736 40389 L50037 40515" /> 
<path d="M49410 40389 L49736 40389" /> 
<path d="M49109 40513 L49410 40389" /> 
<path d="M48878 40744 L49109 40513" /> 
<path d="M48752 41045 L48878 40744" /> 
<path d="M48752 41371 L48752 41045" /> 
<path d="M48876 41672 L48752 41371" /> 
<path d="M49107 41903 L48876 41672" /> 
<path d="M49408 42029 L49107 41903" /> 
<path d="M49734 42029 L49408 42029" /> 
<path d="M50035 41905 L49734 42029" /> 
<path d="M50266 41674 L50035 41905" /> 
<path d="M50392 41373 L50266 41674" /> 
<path d="M50392 41813 L50392 41373" /> 
<path d="M50323 41860 L50392 41813" /> 
<path d="M50314 41872 L50323 41860" /> 
<path d="M50311 41875 L50314 41872" /> 
<path d="M49711 42531 L50311 41875" /> 
<path d="M48739 42535 L49711 42531" /> 
<path d="M48739 41373 L48739 42535" /> 
<path d="M48739 41047 L48739 41373" /> 
<path d="M48615 40746 L48739 41047" /> 
<path d="M48384 40515 L48615 40746" /> 
<path d="M48083 40389 L48384 40515" /> 
<path d="M47757 40389 L48083 40389" /> 
<path d="M47456 40513 L47757 40389" /> 
<path d="M47225 40744 L47456 40513" /> 
<path d="M47099 41045 L47225 40744" /> 
<path d="M47099 41371 L47099 41045" /> 
<path d="M47223 41672 L47099 41371" /> 
<path d="M47454 41903 L47223 41672" /> 
<path d="M47755 42029 L47454 41903" /> 
<path d="M48081 42029 L47755 42029" /> 
<path d="M48382 41905 L48081 42029" /> 
<path d="M48613 41674 L48382 41905" /> 
<path d="M48739 41373 L48613 41674" /> 
<path d="M48739 42535 L48739 41373" /> 
<path d="M47085 42542 L48739 42535" /> 
<path d="M47085 41373 L47085 42542" /> 
<path d="M47085 41047 L47085 41373" /> 
<path d="M46961 40746 L47085 41047" /> 
<path d="M46730 40515 L46961 40746" /> 
<path d="M46429 40389 L46730 40515" /> 
<path d="M46103 40389 L46429 40389" /> 
<path d="M45802 40513 L46103 40389" /> 
<path d="M45571 40744 L45802 40513" /> 
<path d="M45445 41045 L45571 40744" /> 
<path d="M45445 41371 L45445 41045" /> 
<path d="M45569 41672 L45445 41371" /> 
<path d="M45800 41903 L45569 41672" /> 
<path d="M46101 42029 L45800 41903" /> 
<path d="M46427 42029 L46101 42029" /> 
<path d="M46728 41905 L46427 42029" /> 
<path d="M46959 41674 L46728 41905" /> 
<path d="M47085 41373 L46959 41674" /> 
<path d="M47085 42542 L47085 41373" /> 
<path d="M45418 42550 L47085 42542" /> 
<path d="M45418 41351 L45418 42550" /> 
<path d="M45411 41032 L45418 41351" /> 
<path d="M45302 40768 L45411 41032" /> 
<path d="M45181 40710 L45302 40768" /> 
<path d="M45110 40781 L45181 40710" /> 
<path d="M45110 40639 L45110 40781" /> 
<path d="M45052 40518 L45110 40639" /> 
<path d="M44753 40402 L45052 40518" /> 
<path d="M44434 40409 L44753 40402" /> 
<path d="M44170 40518 L44434 40409" /> 
<path d="M44112 40639 L44170 40518" /> 
<path d="M44611 41138 L44112 40639" /> 
<path d="M45110 40639 L44611 41138" /> 
<path d="M45110 40781 L45110 40639" /> 
<path d="M44682 41209 L45110 40781" /> 
<path d="M45181 41708 L44682 41209" /> 
<path d="M45302 41650 L45181 41708" /> 
<path d="M45418 41351 L45302 41650" /> 
<path d="M45418 42550 L45418 41351" /> 
<path d="M45110 42551 L45418 42550" /> 
<path d="M45110 41779 L45110 42551" /> 
<path d="M44611 41280 L45110 41779" /> 
<path d="M44540 41351 L44611 41280" /> 
<path d="M44540 41209 L44540 41351" /> 
<path d="M44041 40710 L44540 41209" /> 
<path d="M43920 40768 L44041 40710" /> 
<path d="M43804 41067 L43920 40768" /> 
<path d="M43811 41386 L43804 41067" /> 
<path d="M43920 41650 L43811 41386" /> 
<path d="M44041 41708 L43920 41650" /> 
<path d="M44540 41209 L44041 41708" /> 
<path d="M44540 41351 L44540 41209" /> 
<path d="M44112 41779 L44540 41351" /> 
<path d="M44170 41900 L44112 41779" /> 
<path d="M44469 42016 L44170 41900" /> 
<path d="M44788 42009 L44469 42016" /> 
<path d="M45052 41900 L44788 42009" /> 
<path d="M45110 41779 L45052 41900" /> 
<path d="M45110 42551 L45110 41779" /> 
<path d="M44537 42554 L45110 42551" /> 
<path d="M44449 42554 L44537 42554" /> 
<path d="M44448 42554 L44449 42554" /> 
<path d="M40205 42572 L44448 42554" /> 
<path d="M40205 41475 L40205 42572" /> 
<path d="M40205 41077 L40205 41475" /> 
<path d="M40053 40709 L40205 41077" /> 
<path d="M39772 40428 L40053 40709" /> 
<path d="M39405 40275 L39772 40428" /> 
<path d="M39007 40275 L39405 40275" /> 
<path d="M38639 40427 L39007 40275" /> 
<path d="M38358 40708 L38639 40427" /> 
<path d="M38205 41075 L38358 40708" /> 
<path d="M38205 41473 L38205 41075" /> 
<path d="M38357 41841 L38205 41473" /> 
<path d="M38638 42122 L38357 41841" /> 
<path d="M39005 42275 L38638 42122" /> 
<path d="M39403 42275 L39005 42275" /> 
<path d="M39771 42123 L39403 42275" /> 
<path d="M40052 41842 L39771 42123" /> 
<path d="M40205 41475 L40052 41842" /> 
<path d="M40205 42572 L40205 41475" /> 
<path d="M38188 42581 L40205 42572" /> 
<path d="M38188 41459 L38188 42581" /> 
<path d="M38184 41069 L38188 41459" /> 
<path d="M38042 40729 L38184 41069" /> 
<path d="M37902 40649 L38042 40729" /> 
<path d="M37831 40720 L37902 40649" /> 
<path d="M37831 40578 L37831 40720" /> 
<path d="M37751 40438 L37831 40578" /> 
<path d="M37389 40292 L37751 40438" /> 
<path d="M36999 40296 L37389 40292" /> 
<path d="M36659 40438 L36999 40296" /> 
<path d="M36579 40578 L36659 40438" /> 
<path d="M37205 41204 L36579 40578" /> 
<path d="M37831 40578 L37205 41204" /> 
<path d="M37831 40720 L37831 40578" /> 
<path d="M37276 41275 L37831 40720" /> 
<path d="M37902 41901 L37276 41275" /> 
<path d="M38042 41821 L37902 41901" /> 
<path d="M38188 41459 L38042 41821" /> 
<path d="M38188 42581 L38188 41459" /> 
<path d="M37831 42583 L38188 42581" /> 
<path d="M37831 41972 L37831 42583" /> 
<path d="M37205 41346 L37831 41972" /> 
<path d="M37134 41417 L37205 41346" /> 
<path d="M37134 41275 L37134 41417" /> 
<path d="M36508 40649 L37134 41275" /> 
<path d="M36368 40729 L36508 40649" /> 
<path d="M36222 41091 L36368 40729" /> 
<path d="M36226 41481 L36222 41091" /> 
<path d="M36368 41821 L36226 41481" /> 
<path d="M36508 41901 L36368 41821" /> 
<path d="M37134 41275 L36508 41901" /> 
<path d="M37134 41417 L37134 41275" /> 
<path d="M36579 41972 L37134 41417" /> 
<path d="M36659 42112 L36579 41972" /> 
<path d="M37021 42258 L36659 42112" /> 
<path d="M37411 42254 L37021 42258" /> 
<path d="M37751 42112 L37411 42254" /> 
<path d="M37831 41972 L37751 42112" /> 
<path d="M37831 42583 L37831 41972" /> 
<path d="M36188 42590 L37831 42583" /> 
<path d="M36188 41459 L36188 42590" /> 
<path d="M36184 41069 L36188 41459" /> 
<path d="M36042 40729 L36184 41069" /> 
<path d="M35902 40649 L36042 40729" /> 
<path d="M35831 40720 L35902 40649" /> 
<path d="M35831 40578 L35831 40720" /> 
<path d="M35751 40438 L35831 40578" /> 
<path d="M35389 40292 L35751 40438" /> 
<path d="M34999 40296 L35389 40292" /> 
<path d="M34659 40438 L34999 40296" /> 
<path d="M34579 40578 L34659 40438" /> 
<path d="M35205 41204 L34579 40578" /> 
<path d="M35831 40578 L35205 41204" /> 
<path d="M35831 40720 L35831 40578" /> 
<path d="M35276 41275 L35831 40720" /> 
<path d="M35902 41901 L35276 41275" /> 
<path d="M36042 41821 L35902 41901" /> 
<path d="M36188 41459 L36042 41821" /> 
<path d="M36188 42590 L36188 41459" /> 
<path d="M35831 42591 L36188 42590" /> 
<path d="M35831 41972 L35831 42591" /> 
<path d="M35205 41346 L35831 41972" /> 
<path d="M34579 41972 L35205 41346" /> 
<path d="M34659 42112 L34579 41972" /> 
<path d="M35021 42258 L34659 42112" /> 
<path d="M35411 42254 L35021 42258" /> 
<path d="M35751 42112 L35411 42254" /> 
<path d="M35831 41972 L35751 42112" /> 
<path d="M35831 42591 L35831 41972" /> 
<path d="M34461 42598 L35831 42591" /> 
<path d="M34461 41874 L34461 42598" /> 
<path d="M34508 41901 L34461 41874" /> 
<path d="M35134 41275 L34508 41901" /> 
<path d="M34508 40649 L35134 41275" /> 
<path d="M34461 40675 L34508 40649" /> 
<path d="M34461 39198 L34461 40675" /> 
<path d="M45621 39167 L34461 39198" /> 
<path d="M70461 39167 L45621 39167" /> 
<path d="M70461 42998 L70461 39167" /> 
</g>
<g style="fill:#000000; fill-opacity:1.0; 
  stroke:#000000; stroke-linecap:round; stroke-linejoin:round; stroke-opacity:1.0; stroke-opacity:1.0; stroke-width:0" 
   transform="translate(0 0) scale(1 1)">
<polygon style="fill-rule:evenodd; " 
points="65861,44027
63619,46269
63619,43538
63619,43212
63619,41373
63619,41047
63495,40746
63264,40515
62963,40389
62637,40389
62336,40513
62105,40744
61979,41045
61979,41371
62103,41672
62334,41903
62635,42029
62961,42029
63262,41905
63493,41674
63619,41373
63619,43212
63495,42911
63264,42680
62963,42554
62637,42554
62336,42678
62105,42909
61979,43210
61979,43536
62103,43837
62334,44068
62635,44194
62961,44194
63262,44070
63493,43839
63619,43538
63619,46269
62990,46898
61966,46898
61966,43538
61966,43212
61966,41373
61966,41047
61842,40746
61611,40515
61310,40389
60984,40389
60683,40513
60452,40744
60326,41045
60326,41371
60450,41672
60681,41903
60982,42029
61308,42029
61609,41905
61840,41674
61966,41373
61966,43212
61842,42911
61611,42680
61310,42554
60984,42554
60683,42678
60452,42909
60326,43210
60326,43536
60450,43837
60681,44068
60982,44194
61308,44194
61609,44070
61840,43839
61966,43538
61966,46898
60299,46898
60299,43516
60299,41351
60292,41032
60183,40768
60062,40710
59991,40781
59991,40639
59933,40518
59634,40402
59315,40409
59051,40518
58993,40639
59492,41138
59991,40639
59991,40781
59563,41209
60062,41708
60183,41650
60299,41351
60299,43516
60292,43197
60183,42933
60062,42875
59991,42946
59991,42804
59991,41779
59492,41280
59421,41351
59421,41209
58922,40710
58801,40768
58685,41067
58692,41386
58801,41650
58922,41708
59421,41209
59421,41351
58993,41779
59051,41900
59350,42016
59669,42009
59933,41900
59991,41779
59991,42804
59933,42683
59634,42567
59315,42574
59051,42683
58993,42804
59492,43303
59991,42804
59991,42946
59563,43374
60062,43873
60183,43815
60299,43516
60299,46898
59991,46898
59991,43944
59492,43445
59421,43516
59421,43374
58922,42875
58801,42933
58685,43232
58692,43551
58801,43815
58922,43873
59421,43374
59421,43516
58993,43944
59051,44065
59350,44181
59669,44174
59933,44065
59991,43944
59991,46898
57554,46898
57554,46527
57543,46314
57483,46167
57389,46140
57082,46448
57389,46756
57483,46729
57554,46527
57554,46898
57298,46898
57319,46826
57046,46554
57011,46519
56961,46469
56961,46427
57011,46377
57046,46342
57319,46070
57292,45976
57119,45915
57299,45736
57309,45721
57361,45669
57361,45643
57387,45604
57418,45448
57387,45293
57379,45280
57379,44070
57675,44194
58001,44194
58302,44070
58533,43839
58659,43538
58659,43212
58535,42911
58304,42680
58003,42554
57677,42554
57379,42676
57379,42055
57485,41949
57675,42029
58001,42029
58302,41905
58533,41674
58659,41373
58659,41047
58535,40746
58304,40515
58003,40389
57677,40389
57376,40513
57145,40744
57019,41045
57019,41264
56990,41292
56985,41032
56876,40768
56755,40710
56684,40781
56684,40639
56626,40518
56327,40402
56008,40409
55744,40518
55686,40639
56185,41138
56684,40639
56684,40781
56291,41174
56256,41209
56185,41280
56150,41315
56114,41351
56114,41209
55615,40710
55494,40768
55378,41067
55385,41386
55494,41650
55615,41708
56114,41209
56114,41351
55686,41779
55744,41900
56043,42016
56362,42009
56615,41904
56635,42004
56643,42016
56643,42501
55339,42506
55339,41351
55332,41032
55223,40768
55102,40710
55031,40781
55031,40639
54973,40518
54674,40402
54355,40409
54091,40518
54033,40639
54532,41138
55031,40639
55031,40781
54603,41209
55102,41708
55223,41650
55339,41351
55339,42506
55031,42507
55031,41779
54532,41280
54461,41351
54461,41209
53962,40710
53841,40768
53725,41067
53732,41386
53841,41650
53962,41708
54461,41209
54461,41351
54033,41779
54091,41900
54390,42016
54709,42009
54973,41900
55031,41779
55031,42507
53959,42512
53686,42193
53686,41351
53679,41032
53570,40768
53449,40710
53378,40781
53378,40639
53320,40518
53021,40402
52702,40409
52438,40518
52380,40639
52879,41138
53378,40639
53378,40781
52950,41209
53449,41708
53570,41650
53686,41351
53686,42193
53420,41883
53408,41873
53399,41860
53353,41829
53378,41779
52914,41315
52879,41280
52808,41209
52773,41174
52309,40710
52188,40768
52072,41067
52079,41386
52188,41650
52261,41685
52218,41729
52230,41741
51853,41741
51920,41674
52046,41373
52046,41047
51922,40746
51691,40515
51390,40389
51064,40389
50763,40513
50532,40744
50406,41045
50406,41371
50530,41672
50600,41742
50600,41743
50593,41742
50539,41755
50455,41772
50445,41778
50439,41780
50403,41806
50392,41813
50392,41373
50392,41047
50268,40746
50037,40515
49736,40389
49410,40389
49109,40513
48878,40744
48752,41045
48752,41371
48876,41672
49107,41903
49408,42029
49734,42029
50035,41905
50266,41674
50392,41373
50392,41813
50323,41860
50314,41872
50311,41875
49711,42531
48739,42535
48739,41373
48739,41047
48615,40746
48384,40515
48083,40389
47757,40389
47456,40513
47225,40744
47099,41045
47099,41371
47223,41672
47454,41903
47755,42029
48081,42029
48382,41905
48613,41674
48739,41373
48739,42535
47085,42542
47085,41373
47085,41047
46961,40746
46730,40515
46429,40389
46103,40389
45802,40513
45571,40744
45445,41045
45445,41371
45569,41672
45800,41903
46101,42029
46427,42029
46728,41905
46959,41674
47085,41373
47085,42542
45418,42550
45418,41351
45411,41032
45302,40768
45181,40710
45110,40781
45110,40639
45052,40518
44753,40402
44434,40409
44170,40518
44112,40639
44611,41138
45110,40639
45110,40781
44682,41209
45181,41708
45302,41650
45418,41351
45418,42550
45110,42551
45110,41779
44611,41280
44540,41351
44540,41209
44041,40710
43920,40768
43804,41067
43811,41386
43920,41650
44041,41708
44540,41209
44540,41351
44112,41779
44170,41900
44469,42016
44788,42009
45052,41900
45110,41779
45110,42551
44537,42554
44449,42554
44448,42554
40205,42572
40205,41475
40205,41077
40053,40709
39772,40428
39405,40275
39007,40275
38639,40427
38358,40708
38205,41075
38205,41473
38357,41841
38638,42122
39005,42275
39403,42275
39771,42123
40052,41842
40205,41475
40205,42572
38188,42581
38188,41459
38184,41069
38042,40729
37902,40649
37831,40720
37831,40578
37751,40438
37389,40292
36999,40296
36659,40438
36579,40578
37205,41204
37831,40578
37831,40720
37276,41275
37902,41901
38042,41821
38188,41459
38188,42581
37831,42583
37831,41972
37205,41346
37134,41417
37134,41275
36508,40649
36368,40729
36222,41091
36226,41481
36368,41821
36508,41901
37134,41275
37134,41417
36579,41972
36659,42112
37021,42258
37411,42254
37751,42112
37831,41972
37831,42583
36188,42590
36188,41459
36184,41069
36042,40729
35902,40649
35831,40720
35831,40578
35751,40438
35389,40292
34999,40296
34659,40438
34579,40578
35205,41204
35831,40578
35831,40720
35276,41275
35902,41901
36042,41821
36188,41459
36188,42590
35831,42591
35831,41972
35205,41346
34579,41972
34659,42112
35021,42258
35411,42254
35751,42112
35831,41972
35831,42591
34461,42598
34461,41874
34508,41901
35134,41275
34508,40649
34461,40675
34461,39198
45621,39167
70461,39167
70461,42998
70461,42998
67261,42998
67261,40998
65861,40998
" /> 
<polygon style="fill-rule:evenodd; " 
points="54711,46748
54711,46148
55311,46148
55311,46748
" /> 
</g>
<g style="fill:#FFFFFF; fill-opacity:1.0; 
  stroke:#808000; stroke-linecap:round; stroke-linejoin:round; stroke-opacity:1.0; stroke-opacity:1.0; stroke-width:0" 
   transform="translate(0 0) scale(1 1)">
<ellipse cx="55011" cy="46448" rx="200" ry="200"  /> 
</g>
<g style="fill:#000000; fill-opacity:1.0; 
  stroke:#000000; stroke-linecap:round; stroke-linejoin:round; stroke-opacity:1.0; stroke-opacity:1.0; stroke-width:0" 
   transform="translate(0 0) scale(1 1)">
<ellipse cx="56011" cy="46448" rx="300" ry="300"  /> 
</g>
<g style="fill:#FFFFFF; fill-opacity:1.0; 
  stroke:#808000; stroke-linecap:round; stroke-linejoin:round; stroke-opacity:1.0; stroke-opacity:1.0; stroke-width:0" 
   transform="translate(0 0) scale(1 1)">
<ellipse cx="56011" cy="46448" rx="200" ry="200"  /> 
</g>
<g style="fill:#000000; fill-opacity:1.0; 
  stroke:#000000; stroke-linecap:round; stroke-linejoin:round; stroke-opacity:1.0; stroke-opacity:1.0; stroke-width:0" 
   transform="translate(0 0) scale(1 1)">
<ellipse cx="57011" cy="46448" rx="300" ry="300"  /> 
</g>
<g style="fill:#FFFFFF; fill-opacity:1.0; 
  stroke:#808000; stroke-linecap:round; stroke-linejoin:round; stroke-opacity:1.0; stroke-opacity:1.0; stroke-width:0" 
   transform="translate(0 0) scale(1 1)">
<ellipse cx="57011" cy="46448" rx="200" ry="200"  /> 
</g>
<g style="fill:#FFFFFF; fill-opacity:1.0; 
  stroke:#000000; stroke-linecap:round; stroke-linejoin:round; stroke-opacity:1.0; stroke-opacity:1.0; stroke-width:0" 
   transform="translate(0 0) scale(1 1)">
<path d="M55009 45648 L55013 45648" /> 
<path d="M55011 45646 L55011 45650" /> 
</g>
<g style="fill:#000000; fill-opacity:0.0; 
  stroke:#000000; stroke-linecap:round; stroke-linejoin:round; stroke-opacity:1.0; stroke-opacity:1.0; stroke-width:60" 
   transform="translate(0 0) scale(1 1)">
<path d="M54716 45810 L54716 45410" /> 
<g style = "stroke-linecap:round;" > 
<path d="M54716 45410 L54716 45410" /> 
</g><path d="M54945 45810 L54773 45581" /> 
<g style = "stroke-linecap:round;" > 
<path d="M54773 45581 L54773 45581" /> 
</g><path d="M54945 45410 L54716 45638" /> 
<g style = "stroke-linecap:round;" > 
<path d="M54716 45638 L54716 45638" /> 
</g><path d="M55326 45810 L55097 45810" /> 
<g style = "stroke-linecap:round;" > 
<path d="M55097 45810 L55097 45810" /> 
</g><path d="M55211 45810 L55211 45410" /> 
<path d="M55211 45410 L55173 45467" /> 
<path d="M55173 45467 L55135 45505" /> 
<path d="M55135 45505 L55097 45524" /> 
<g style = "stroke-linecap:round;" > 
<path d="M55097 45524 L55097 45524" /> 
</g></g>
<g style="fill:#000000; fill-opacity:1.0; 
  stroke:#000000; stroke-linecap:round; stroke-linejoin:round; stroke-opacity:1.0; stroke-opacity:1.0; stroke-width:0" 
   transform="translate(0 0) scale(1 1)">
<ellipse cx="62799" cy="43374" rx="570" ry="570"  /> 
</g>
<g style="fill:#FFFFFF; fill-opacity:1.0; 
  stroke:#808000; stroke-linecap:round; stroke-linejoin:round; stroke-opacity:1.0; stroke-opacity:1.0; stroke-width:0" 
   transform="translate(0 0) scale(1 1)">
<ellipse cx="62799" cy="43374" rx="354" ry="354"  /> 
</g>
<g style="fill:#000000; fill-opacity:1.0; 
  stroke:#000000; stroke-linecap:round; stroke-linejoin:round; stroke-opacity:1.0; stroke-opacity:1.0; stroke-width:0" 
   transform="translate(0 0) scale(1 1)">
<ellipse cx="61146" cy="43374" rx="570" ry="570"  /> 
</g>
<g style="fill:#FFFFFF; fill-opacity:1.0; 
  stroke:#808000; stroke-linecap:round; stroke-linejoin:round; stroke-opacity:1.0; stroke-opacity:1.0; stroke-width:0" 
   transform="translate(0 0) scale(1 1)">
<ellipse cx="61146" cy="43374" rx="354" ry="354"  /> 
</g>
<g style="fill:#000000; fill-opacity:1.0; 
  stroke:#000000; stroke-linecap:round; stroke-linejoin:round; stroke-opacity:1.0; stroke-opacity:1.0; stroke-width:0" 
   transform="translate(0 0) scale(1 1)">
<ellipse cx="59492" cy="43374" rx="570" ry="570"  /> 
</g>
<g style="fill:#FFFFFF; fill-opacity:1.0; 
  stroke:#808000; stroke-linecap:round; stroke-linejoin:round; stroke-opacity:1.0; stroke-opacity:1.0; stroke-width:0" 
   transform="translate(0 0) scale(1 1)">
<ellipse cx="59492" cy="43374" rx="354" ry="354"  /> 
</g>
<g style="fill:#000000; fill-opacity:1.0; 
  stroke:#000000; stroke-linecap:round; stroke-linejoin:round; stroke-opacity:1.0; stroke-opacity:1.0; stroke-width:0" 
   transform="translate(0 0) scale(1 1)">
<ellipse cx="57839" cy="43374" rx="570" ry="570"  /> 
</g>
<g style="fill:#FFFFFF; fill-opacity:1.0; 
  stroke:#808000; stroke-linecap:round; stroke-linejoin:round; stroke-opacity:1.0; stroke-opacity:1.0; stroke-width:0" 
   transform="translate(0 0) scale(1 1)">
<ellipse cx="57839" cy="43374" rx="354" ry="354"  /> 
</g>
<g style="fill:#000000; fill-opacity:1.0; 
  stroke:#000000; stroke-linecap:round; stroke-linejoin:round; stroke-opacity:1.0; stroke-opacity:1.0; stroke-width:0" 
   transform="translate(0 0) scale(1 1)">
<ellipse cx="56185" cy="43374" rx="570" ry="570"  /> 
</g>
<g style="fill:#FFFFFF; fill-opacity:1.0; 
  stroke:#808000; stroke-linecap:round; stroke-linejoin:round; stroke-opacity:1.0; stroke-opacity:1.0; stroke-width:0" 
   transform="translate(0 0) scale(1 1)">
<ellipse cx="56185" cy="43374" rx="354" ry="354"  /> 
</g>
<g style="fill:#000000; fill-opacity:1.0; 
  stroke:#000000; stroke-linecap:round; stroke-linejoin:round; stroke-opacity:1.0; stroke-opacity:1.0; stroke-width:0" 
   transform="translate(0 0) scale(1 1)">
<ellipse cx="54532" cy="43374" rx="570" ry="570"  /> 
</g>
<g style="fill:#FFFFFF; fill-opacity:1.0; 
  stroke:#808000; stroke-linecap:round; stroke-linejoin:round; stroke-opacity:1.0; stroke-opacity:1.0; stroke-width:0" 
   transform="translate(0 0) scale(1 1)">
<ellipse cx="54532" cy="43374" rx="354" ry="354"  /> 
</g>
<g style="fill:#000000; fill-opacity:1.0; 
  stroke:#000000; stroke-linecap:round; stroke-linejoin:round; stroke-opacity:1.0; stroke-opacity:1.0; stroke-width:0" 
   transform="translate(0 0) scale(1 1)">
<ellipse cx="52879" cy="43374" rx="570" ry="570"  /> 
</g>
<g style="fill:#FFFFFF; fill-opacity:1.0; 
  stroke:#808000; stroke-linecap:round; stroke-linejoin:round; stroke-opacity:1.0; stroke-opacity:1.0; stroke-width:0" 
   transform="translate(0 0) scale(1 1)">
<ellipse cx="52879" cy="43374" rx="354" ry="354"  /> 
</g>
<g style="fill:#000000; fill-opacity:1.0; 
  stroke:#000000; stroke-linecap:round; stroke-linejoin:round; stroke-opacity:1.0; stroke-opacity:1.0; stroke-width:0" 
   transform="translate(0 0) scale(1 1)">
<ellipse cx="51226" cy="43374" rx="570" ry="570"  /> 
</g>
<g style="fill:#FFFFFF; fill-opacity:1.0; 
  stroke:#808000; stroke-linecap:round; stroke-linejoin:round; stroke-opacity:1.0; stroke-opacity:1.0; stroke-width:0" 
   transform="translate(0 0) scale(1 1)">
<ellipse cx="51226" cy="43374" rx="354" ry="354"  /> 
</g>
<g style="fill:#000000; fill-opacity:1.0; 
  stroke:#000000; stroke-linecap:round; stroke-linejoin:round; stroke-opacity:1.0; stroke-opacity:1.0; stroke-width:0" 
   transform="translate(0 0) scale(1 1)">
<ellipse cx="49572" cy="43374" rx="570" ry="570"  /> 
</g>
<g style="fill:#FFFFFF; fill-opacity:1.0; 
  stroke:#808000; stroke-linecap:round; stroke-linejoin:round; stroke-opacity:1.0; stroke-opacity:1.0; stroke-width:0" 
   transform="translate(0 0) scale(1 1)">
<ellipse cx="49572" cy="43374" rx="354" ry="354"  /> 
</g>
<g style="fill:#000000; fill-opacity:1.0; 
  stroke:#000000; stroke-linecap:round; stroke-linejoin:round; stroke-opacity:1.0; stroke-opacity:1.0; stroke-width:0" 
   transform="translate(0 0) scale(1 1)">
<ellipse cx="47919" cy="43374" rx="570" ry="570"  /> 
</g>
<g style="fill:#FFFFFF; fill-opacity:1.0; 
  stroke:#808000; stroke-linecap:round; stroke-linejoin:round; stroke-opacity:1.0; stroke-opacity:1.0; stroke-width:0" 
   transform="translate(0 0) scale(1 1)">
<ellipse cx="47919" cy="43374" rx="354" ry="354"  /> 
</g>
<g style="fill:#000000; fill-opacity:1.0; 
  stroke:#000000; stroke-linecap:round; stroke-linejoin:round; stroke-opacity:1.0; stroke-opacity:1.0; stroke-width:0" 
   transform="translate(0 0) scale(1 1)">
<ellipse cx="46265" cy="43374" rx="570" ry="570"  /> 
</g>
<g style="fill:#FFFFFF; fill-opacity:1.0; 
  stroke:#808000; stroke-linecap:round; stroke-linejoin:round; stroke-opacity:1.0; stroke-opacity:1.0; stroke-width:0" 
   transform="translate(0 0) scale(1 1)">
<ellipse cx="46265" cy="43374" rx="354" ry="354"  /> 
</g>
<g style="fill:#000000; fill-opacity:1.0; 
  stroke:#000000; stroke-linecap:round; stroke-linejoin:round; stroke-opacity:1.0; stroke-opacity:1.0; stroke-width:0" 
   transform="translate(0 0) scale(1 1)">
<ellipse cx="44611" cy="43374" rx="570" ry="570"  /> 
</g>
<g style="fill:#FFFFFF; fill-opacity:1.0; 
  stroke:#808000; stroke-linecap:round; stroke-linejoin:round; stroke-opacity:1.0; stroke-opacity:1.0; stroke-width:0" 
   transform="translate(0 0) scale(1 1)">
<ellipse cx="44611" cy="43374" rx="354" ry="354"  /> 
</g>
<g style="fill:#000000; fill-opacity:1.0; 
  stroke:#000000; stroke-linecap:round; stroke-linejoin:round; stroke-opacity:1.0; stroke-opacity:1.0; stroke-width:0" 
   transform="translate(0 0) scale(1 1)">
<ellipse cx="62799" cy="41209" rx="570" ry="570"  /> 
</g>
<g style="fill:#FFFFFF; fill-opacity:1.0; 
  stroke:#808000; stroke-linecap:round; stroke-linejoin:round; stroke-opacity:1.0; stroke-opacity:1.0; stroke-width:0" 
   transform="translate(0 0) scale(1 1)">
<ellipse cx="62799" cy="41209" rx="354" ry="354"  /> 
</g>
<g style="fill:#000000; fill-opacity:1.0; 
  stroke:#000000; stroke-linecap:round; stroke-linejoin:round; stroke-opacity:1.0; stroke-opacity:1.0; stroke-width:0" 
   transform="translate(0 0) scale(1 1)">
<ellipse cx="61146" cy="41209" rx="570" ry="570"  /> 
</g>
<g style="fill:#FFFFFF; fill-opacity:1.0; 
  stroke:#808000; stroke-linecap:round; stroke-linejoin:round; stroke-opacity:1.0; stroke-opacity:1.0; stroke-width:0" 
   transform="translate(0 0) scale(1 1)">
<ellipse cx="61146" cy="41209" rx="354" ry="354"  /> 
</g>
<g style="fill:#000000; fill-opacity:1.0; 
  stroke:#000000; stroke-linecap:round; stroke-linejoin:round; stroke-opacity:1.0; stroke-opacity:1.0; stroke-width:0" 
   transform="translate(0 0) scale(1 1)">
<ellipse cx="59492" cy="41209" rx="570" ry="570"  /> 
</g>
<g style="fill:#FFFFFF; fill-opacity:1.0; 
  stroke:#808000; stroke-linecap:round; stroke-linejoin:round; stroke-opacity:1.0; stroke-opacity:1.0; stroke-width:0" 
   transform="translate(0 0) scale(1 1)">
<ellipse cx="59492" cy="41209" rx="354" ry="354"  /> 
</g>
<g style="fill:#000000; fill-opacity:1.0; 
  stroke:#000000; stroke-linecap:round; stroke-linejoin:round; stroke-opacity:1.0; stroke-opacity:1.0; stroke-width:0" 
   transform="translate(0 0) scale(1 1)">
<ellipse cx="57839" cy="41209" rx="570" ry="570"  /> 
</g>
<g style="fill:#FFFFFF; fill-opacity:1.0; 
  stroke:#808000; stroke-linecap:round; stroke-linejoin:round; stroke-opacity:1.0; stroke-opacity:1.0; stroke-width:0" 
   transform="translate(0 0) scale(1 1)">
<ellipse cx="57839" cy="41209" rx="354" ry="354"  /> 
</g>
<g style="fill:#000000; fill-opacity:1.0; 
  stroke:#000000; stroke-linecap:round; stroke-linejoin:round; stroke-opacity:1.0; stroke-opacity:1.0; stroke-width:0" 
   transform="translate(0 0) scale(1 1)">
<ellipse cx="56185" cy="41209" rx="570" ry="570"  /> 
</g>
<g style="fill:#FFFFFF; fill-opacity:1.0; 
  stroke:#808000; stroke-linecap:round; stroke-linejoin:round; stroke-opacity:1.0; stroke-opacity:1.0; stroke-width:0" 
   transform="translate(0 0) scale(1 1)">
<ellipse cx="56185" cy="41209" rx="354" ry="354"  /> 
</g>
<g style="fill:#000000; fill-opacity:1.0; 
  stroke:#000000; stroke-linecap:round; stroke-linejoin:round; stroke-opacity:1.0; stroke-opacity:1.0; stroke-width:0" 
   transform="translate(0 0) scale(1 1)">
<ellipse cx="54532" cy="41209" rx="570" ry="570"  /> 
</g>
<g style="fill:#FFFFFF; fill-opacity:1.0; 
  stroke:#808000; stroke-linecap:round; stroke-linejoin:round; stroke-opacity:1.0; stroke-opacity:1.0; stroke-width:0" 
   transform="translate(0 0) scale(1 1)">
<ellipse cx="54532" cy="41209" rx="354" ry="354"  /> 
</g>
<g style="fill:#000000; fill-opacity:1.0; 
  stroke:#000000; stroke-linecap:round; stroke-linejoin:round; stroke-opacity:1.0; stroke-opacity:1.0; stroke-width:0" 
   transform="translate(0 0) scale(1 1)">
<ellipse cx="52879" cy="41209" rx="570" ry="570"  /> 
</g>
<g style="fill:#FFFFFF; fill-opacity:1.0; 
  stroke:#808000; stroke-linecap:round; stroke-linejoin:round; stroke-opacity:1.0; stroke-opacity:1.0; stroke-width:0" 
   transform="translate(0 0) scale(1 1)">
<ellipse cx="52879" cy="41209" rx="354" ry="354"  /> 
</g>
<g style="fill:#000000; fill-opacity:1.0; 
  stroke:#000000; stroke-linecap:round; stroke-linejoin:round; stroke-opacity:1.0; stroke-opacity:1.0; stroke-width:0" 
   transform="translate(0 0) scale(1 1)">
<ellipse cx="51226" cy="41209" rx="570" ry="570"  /> 
</g>
<g style="fill:#FFFFFF; fill-opacity:1.0; 
  stroke:#808000; stroke-linecap:round; stroke-linejoin:round; stroke-opacity:1.0; stroke-opacity:1.0; stroke-width:0" 
   transform="translate(0 0) scale(1 1)">
<ellipse cx="51226" cy="41209" rx="354" ry="354"  /> 
</g>
<g style="fill:#000000; fill-opacity:1.0; 
  stroke:#000000; stroke-linecap:round; stroke-linejoin:round; stroke-opacity:1.0; stroke-opacity:1.0; stroke-width:0" 
   transform="translate(0 0) scale(1 1)">
<ellipse cx="49572" cy="41209" rx="570" ry="570"  /> 
</g>
<g style="fill:#FFFFFF; fill-opacity:1.0; 
  stroke:#808000; stroke-linecap:round; stroke-linejoin:round; stroke-opacity:1.0; stroke-opacity:1.0; stroke-width:0" 
   transform="translate(0 0) scale(1 1)">
<ellipse cx="49572" cy="41209" rx="354" ry="354"  /> 
</g>
<g style="fill:#000000; fill-opacity:1.0; 
  stroke:#000000; stroke-linecap:round; stroke-linejoin:round; stroke-opacity:1.0; stroke-opacity:1.0; stroke-width:0" 
   transform="translate(0 0) scale(1 1)">
<ellipse cx="47919" cy="41209" rx="570" ry="570"  /> 
</g>
<g style="fill:#FFFFFF; fill-opacity:1.0; 
  stroke:#808000; stroke-linecap:round; stroke-linejoin:round; stroke-opacity:1.0; stroke-opacity:1.0; stroke-width:0" 
   transform="translate(0 0) scale(1 1)">
<ellipse cx="47919" cy="41209" rx="354" ry="354"  /> 
</g>
<g style="fill:#000000; fill-opacity:1.0; 
  stroke:#000000; stroke-linecap:round; stroke-linejoin:round; stroke-opacity:1.0; stroke-opacity:1.0; stroke-width:0" 
   transform="translate(0 0) scale(1 1)">
<ellipse cx="46265" cy="41209" rx="570" ry="570"  /> 
</g>
<g style="fill:#FFFFFF; fill-opacity:1.0; 
  stroke:#808000; stroke-linecap:round; stroke-linejoin:round; stroke-opacity:1.0; stroke-opacity:1.0; stroke-width:0" 
   transform="translate(0 0) scale(1 1)">
<ellipse cx="46265" cy="41209" rx="354" ry="354"  /> 
</g>
<g style="fill:#000000; fill-opacity:1.0; 
  stroke:#000000; stroke-linecap:round; stroke-linejoin:round; stroke-opacity:1.0; stroke-opacity:1.0; stroke-width:0" 
   transform="translate(0 0) scale(1 1)">
<ellipse cx="44611" cy="41209" rx="570" ry="570"  /> 
</g>
<g style="fill:#FFFFFF; fill-opacity:1.0; 
  stroke:#808000; stroke-linecap:round; stroke-linejoin:round; stroke-opacity:1.0; stroke-opacity:1.0; stroke-width:0" 
   transform="translate(0 0) scale(1 1)">
<ellipse cx="44611" cy="41209" rx="354" ry="354"  /> 
</g>
<g style="fill:#FFFFFF; fill-opacity:1.0; 
  stroke:#000000; stroke-linecap:round; stroke-linejoin:round; stroke-opacity:1.0; stroke-opacity:1.0; stroke-width:0" 
   transform="translate(0 0) scale(1 1)">
<path d="M44609 45727 L44613 45727" /> 
<path d="M44611 45725 L44611 45729" /> 
</g>
<g style="fill:#000000; fill-opacity:0.0; 
  stroke:#000000; stroke-linecap:round; stroke-linejoin:round; stroke-opacity:1.0; stroke-opacity:1.0; stroke-width:35" 
   transform="translate(0 0) scale(1 1)">
<path d="M44445 45429 L44445 45787" /> 
<path d="M44445 45787 L44421 45858" /> 
<path d="M44421 45858 L44373 45906" /> 
<path d="M44373 45906 L44302 45929" /> 
<path d="M44302 45929 L44254 45929" /> 
<g style = "stroke-linecap:round;" > 
<path d="M44254 45929 L44254 45929" /> 
</g><path d="M44945 45929 L44659 45929" /> 
<g style = "stroke-linecap:round;" > 
<path d="M44659 45929 L44659 45929" /> 
</g><path d="M44802 45929 L44802 45429" /> 
<path d="M44802 45429 L44754 45501" /> 
<path d="M44754 45501 L44707 45548" /> 
<path d="M44707 45548 L44659 45572" /> 
<g style = "stroke-linecap:round;" > 
<path d="M44659 45572 L44659 45572" /> 
</g></g>
<g style="fill:#000000; fill-opacity:0.0; 
  stroke:#000000; stroke-linecap:round; stroke-linejoin:round; stroke-opacity:1.0; stroke-opacity:1.0; stroke-width:0" 
   transform="translate(0 0) scale(1 1)">
<path d="M63113 45908 L63117 45908" /> 
<path d="M63115 45906 L63115 45910" /> 
</g>
<g style="fill:#000000; fill-opacity:0.0; 
  stroke:#000000; stroke-linecap:round; stroke-linejoin:round; stroke-opacity:1.0; stroke-opacity:1.0; stroke-width:35" 
   transform="translate(0 0) scale(1 1)">
<path d="M61579 45968 L61817 45968" /> 
<g style = "stroke-linecap:round;" > 
<path d="M61817 45968 L61817 45968" /> 
</g><path d="M61532 46110 L61698 45610" /> 
<path d="M61698 45610 L61865 46110" /> 
<g style = "stroke-linecap:round;" > 
<path d="M61865 46110 L61865 46110" /> 
</g><path d="M61961 45610 L62246 45610" /> 
<g style = "stroke-linecap:round;" > 
<path d="M62246 45610 L62246 45610" /> 
</g><path d="M62103 46110 L62103 45610" /> 
<g style = "stroke-linecap:round;" > 
<path d="M62103 45610 L62103 45610" /> 
</g><path d="M62365 45610 L62699 46110" /> 
<g style = "stroke-linecap:round;" > 
<path d="M62699 46110 L62699 46110" /> 
</g><path d="M62699 45610 L62365 46110" /> 
<g style = "stroke-linecap:round;" > 
<path d="M62365 46110 L62365 46110" /> 
</g><path d="M62865 45658 L62889 45634" /> 
<path d="M62889 45634 L62937 45610" /> 
<path d="M62937 45610 L63056 45610" /> 
<path d="M63056 45610 L63103 45634" /> 
<path d="M63103 45634 L63127 45658" /> 
<path d="M63127 45658 L63151 45706" /> 
<path d="M63151 45706 L63151 45753" /> 
<path d="M63151 45753 L63127 45825" /> 
<path d="M63127 45825 L62841 46110" /> 
<path d="M62841 46110 L63151 46110" /> 
<g style = "stroke-linecap:round;" > 
<path d="M63151 46110 L63151 46110" /> 
</g><path d="M63579 45777 L63579 46110" /> 
<g style = "stroke-linecap:round;" > 
<path d="M63579 46110 L63579 46110" /> 
</g><path d="M63460 45587 L63341 45944" /> 
<path d="M63341 45944 L63651 45944" /> 
<g style = "stroke-linecap:round;" > 
<path d="M63651 45944 L63651 45944" /> 
</g><path d="M64127 46110 L63960 45872" /> 
<g style = "stroke-linecap:round;" > 
<path d="M63960 45872 L63960 45872" /> 
</g><path d="M63841 46110 L63841 45610" /> 
<path d="M63841 45610 L64032 45610" /> 
<path d="M64032 45610 L64079 45634" /> 
<path d="M64079 45634 L64103 45658" /> 
<path d="M64103 45658 L64127 45706" /> 
<path d="M64127 45706 L64127 45777" /> 
<path d="M64127 45777 L64103 45825" /> 
<path d="M64103 45825 L64079 45848" /> 
<path d="M64079 45848 L64032 45872" /> 
<path d="M64032 45872 L63841 45872" /> 
<g style = "stroke-linecap:round;" > 
<path d="M63841 45872 L63841 45872" /> 
</g><path d="M64341 46110 L64341 45610" /> 
<g style = "stroke-linecap:round;" > 
<path d="M64341 45610 L64341 45610" /> 
</g><path d="M64341 45848 L64627 45848" /> 
<g style = "stroke-linecap:round;" > 
<path d="M64627 45848 L64627 45848" /> 
</g><path d="M64627 46110 L64627 45610" /> 
<g style = "stroke-linecap:round;" > 
<path d="M64627 45610 L64627 45610" /> 
</g></g>
<g style="fill:#000000; fill-opacity:1.0; 
  stroke:#000000; stroke-linecap:round; stroke-linejoin:round; stroke-opacity:1.0; stroke-opacity:1.0; stroke-width:0" 
   transform="translate(0 0) scale(1 1)">
<polygon style="fill-rule:evenodd; " 
points="32455,45962
32455,44462
33955,44462
33955,45962
" /> 
</g>
<g style="fill:#FFFFFF; fill-opacity:1.0; 
  stroke:#808000; stroke-linecap:round; stroke-linejoin:round; stroke-opacity:1.0; stroke-opacity:1.0; stroke-width:0" 
   transform="translate(0 0) scale(1 1)">
<ellipse cx="33205" cy="45212" rx="350" ry="350"  /> 
</g>
<g style="fill:#000000; fill-opacity:1.0; 
  stroke:#000000; stroke-linecap:round; stroke-linejoin:round; stroke-opacity:1.0; stroke-opacity:1.0; stroke-width:0" 
   transform="translate(0 0) scale(1 1)">
<ellipse cx="35205" cy="45212" rx="750" ry="750"  /> 
</g>
<g style="fill:#FFFFFF; fill-opacity:1.0; 
  stroke:#808000; stroke-linecap:round; stroke-linejoin:round; stroke-opacity:1.0; stroke-opacity:1.0; stroke-width:0" 
   transform="translate(0 0) scale(1 1)">
<ellipse cx="35205" cy="45212" rx="350" ry="350"  /> 
</g>
<g style="fill:#000000; fill-opacity:1.0; 
  stroke:#000000; stroke-linecap:round; stroke-linejoin:round; stroke-opacity:1.0; stroke-opacity:1.0; stroke-width:0" 
   transform="translate(0 0) scale(1 1)">
<ellipse cx="37205" cy="45212" rx="750" ry="750"  /> 
</g>
<g style="fill:#FFFFFF; fill-opacity:1.0; 
  stroke:#808000; stroke-linecap:round; stroke-linejoin:round; stroke-opacity:1.0; stroke-opacity:1.0; stroke-width:0" 
   transform="translate(0 0) scale(1 1)">
<ellipse cx="37205" cy="45212" rx="350" ry="350"  /> 
</g>
<g style="fill:#000000; fill-opacity:1.0; 
  stroke:#000000; stroke-linecap:round; stroke-linejoin:round; stroke-opacity:1.0; stroke-opacity:1.0; stroke-width:0" 
   transform="translate(0 0) scale(1 1)">
<ellipse cx="39205" cy="45212" rx="750" ry="750"  /> 
</g>
<g style="fill:#FFFFFF; fill-opacity:1.0; 
  stroke:#808000; stroke-linecap:round; stroke-linejoin:round; stroke-opacity:1.0; stroke-opacity:1.0; stroke-width:0" 
   transform="translate(0 0) scale(1 1)">
<ellipse cx="39205" cy="45212" rx="350" ry="350"  /> 
</g>
<g style="fill:#FFFFFF; fill-opacity:1.0; 
  stroke:#000000; stroke-linecap:round; stroke-linejoin:round; stroke-opacity:1.0; stroke-opacity:1.0; stroke-width:0" 
   transform="translate(0 0) scale(1 1)">
<path d="M33458 44142 L33462 44142" /> 
<path d="M33460 44140 L33460 44144" /> 
</g>
<g style="fill:#000000; fill-opacity:0.0; 
  stroke:#000000; stroke-linecap:round; stroke-linejoin:round; stroke-opacity:1.0; stroke-opacity:1.0; stroke-width:80" 
   transform="translate(0 0) scale(1 1)">
<path d="M33165 44304 L33165 43904" /> 
<path d="M33165 43904 L33318 43904" /> 
<path d="M33318 43904 L33356 43923" /> 
<path d="M33356 43923 L33375 43942" /> 
<path d="M33375 43942 L33394 43980" /> 
<path d="M33394 43980 L33394 44037" /> 
<path d="M33394 44037 L33375 44075" /> 
<path d="M33375 44075 L33356 44094" /> 
<path d="M33356 44094 L33318 44113" /> 
<path d="M33318 44113 L33165 44113" /> 
<g style = "stroke-linecap:round;" > 
<path d="M33165 44113 L33165 44113" /> 
</g><path d="M33775 44304 L33546 44304" /> 
<g style = "stroke-linecap:round;" > 
<path d="M33546 44304 L33546 44304" /> 
</g><path d="M33660 44304 L33660 43904" /> 
<path d="M33660 43904 L33622 43961" /> 
<path d="M33622 43961 L33584 43999" /> 
<path d="M33584 43999 L33546 44018" /> 
<g style = "stroke-linecap:round;" > 
<path d="M33546 44018 L33546 44018" /> 
</g></g>
<g style="fill:#000000; fill-opacity:1.0; 
  stroke:#000000; stroke-linecap:round; stroke-linejoin:round; stroke-opacity:1.0; stroke-opacity:1.0; stroke-width:0" 
   transform="translate(0 0) scale(1 1)">
<polygon style="fill-rule:evenodd; " 
points="32455,42025
32455,40525
33955,40525
33955,42025
" /> 
</g>
<g style="fill:#FFFFFF; fill-opacity:1.0; 
  stroke:#808000; stroke-linecap:round; stroke-linejoin:round; stroke-opacity:1.0; stroke-opacity:1.0; stroke-width:0" 
   transform="translate(0 0) scale(1 1)">
<ellipse cx="33205" cy="41275" rx="350" ry="350"  /> 
</g>
<g style="fill:#000000; fill-opacity:1.0; 
  stroke:#000000; stroke-linecap:round; stroke-linejoin:round; stroke-opacity:1.0; stroke-opacity:1.0; stroke-width:0" 
   transform="translate(0 0) scale(1 1)">
<ellipse cx="35205" cy="41275" rx="750" ry="750"  /> 
</g>
<g style="fill:#FFFFFF; fill-opacity:1.0; 
  stroke:#808000; stroke-linecap:round; stroke-linejoin:round; stroke-opacity:1.0; stroke-opacity:1.0; stroke-width:0" 
   transform="translate(0 0) scale(1 1)">
<ellipse cx="35205" cy="41275" rx="350" ry="350"  /> 
</g>
<g style="fill:#000000; fill-opacity:1.0; 
  stroke:#000000; stroke-linecap:round; stroke-linejoin:round; stroke-opacity:1.0; stroke-opacity:1.0; stroke-width:0" 
   transform="translate(0 0) scale(1 1)">
<ellipse cx="37205" cy="41275" rx="750" ry="750"  /> 
</g>
<g style="fill:#FFFFFF; fill-opacity:1.0; 
  stroke:#808000; stroke-linecap:round; stroke-linejoin:round; stroke-opacity:1.0; stroke-opacity:1.0; stroke-width:0" 
   transform="translate(0 0) scale(1 1)">
<ellipse cx="37205" cy="41275" rx="350" ry="350"  /> 
</g>
<g style="fill:#000000; fill-opacity:1.0; 
  stroke:#000000; stroke-linecap:round; stroke-linejoin:round; stroke-opacity:1.0; stroke-opacity:1.0; stroke-width:0" 
   transform="translate(0 0) scale(1 1)">
<ellipse cx="39205" cy="41275" rx="750" ry="750"  /> 
</g>
<g style="fill:#FFFFFF; fill-opacity:1.0; 
  stroke:#808000; stroke-linecap:round; stroke-linejoin:round; stroke-opacity:1.0; stroke-opacity:1.0; stroke-width:0" 
   transform="translate(0 0) scale(1 1)">
<ellipse cx="39205" cy="41275" rx="350" ry="350"  /> 
</g>
<g style="fill:#FFFFFF; fill-opacity:1.0; 
  stroke:#000000; stroke-linecap:round; stroke-linejoin:round; stroke-opacity:1.0; stroke-opacity:1.0; stroke-width:0" 
   transform="translate(0 0) scale(1 1)">
<path d="M33458 40205 L33462 40205" /> 
<path d="M33460 40203 L33460 40207" /> 
</g>
<g style="fill:#000000; fill-opacity:0.0; 
  stroke:#000000; stroke-linecap:round; stroke-linejoin:round; stroke-opacity:1.0; stroke-opacity:1.0; stroke-width:80" 
   transform="translate(0 0) scale(1 1)">
<path d="M33165 40367 L33165 39967" /> 
<path d="M33165 39967 L33318 39967" /> 
<path d="M33318 39967 L33356 39986" /> 
<path d="M33356 39986 L33375 40005" /> 
<path d="M33375 40005 L33394 40043" /> 
<path d="M33394 40043 L33394 40100" /> 
<path d="M33394 40100 L33375 40138" /> 
<path d="M33375 40138 L33356 40157" /> 
<path d="M33356 40157 L33318 40176" /> 
<path d="M33318 40176 L33165 40176" /> 
<g style = "stroke-linecap:round;" > 
<path d="M33165 40176 L33165 40176" /> 
</g><path d="M33546 40005 L33565 39986" /> 
<path d="M33565 39986 L33603 39967" /> 
<path d="M33603 39967 L33699 39967" /> 
<path d="M33699 39967 L33737 39986" /> 
<path d="M33737 39986 L33756 40005" /> 
<path d="M33756 40005 L33775 40043" /> 
<path d="M33775 40043 L33775 40081" /> 
<path d="M33775 40081 L33756 40138" /> 
<path d="M33756 40138 L33527 40367" /> 
<path d="M33527 40367 L33775 40367" /> 
<g style = "stroke-linecap:round;" > 
<path d="M33775 40367 L33775 40367" /> 
</g></g>
<g style="fill:#000000; fill-opacity:1.0; 
  stroke:#000000; stroke-linecap:round; stroke-linejoin:round; stroke-opacity:1.0; stroke-opacity:1.0; stroke-width:0" 
   transform="translate(0 0) scale(1 1)">
<polygon style="fill-rule:evenodd; " 
points="27561,40498
29061,40498
29061,41998
27561,41998
" /> 
</g>
<g style="fill:#FFFFFF; fill-opacity:1.0; 
  stroke:#808000; stroke-linecap:round; stroke-linejoin:round; stroke-opacity:1.0; stroke-opacity:1.0; stroke-width:0" 
   transform="translate(0 0) scale(1 1)">
<ellipse cx="28311" cy="41248" rx="350" ry="350"  /> 
</g>
<g style="fill:#000000; fill-opacity:1.0; 
  stroke:#000000; stroke-linecap:round; stroke-linejoin:round; stroke-opacity:1.0; stroke-opacity:1.0; stroke-width:0" 
   transform="translate(0 0) scale(1 1)">
<ellipse cx="28311" cy="43248" rx="750" ry="750"  /> 
</g>
<g style="fill:#FFFFFF; fill-opacity:1.0; 
  stroke:#808000; stroke-linecap:round; stroke-linejoin:round; stroke-opacity:1.0; stroke-opacity:1.0; stroke-width:0" 
   transform="translate(0 0) scale(1 1)">
<ellipse cx="28311" cy="43248" rx="350" ry="350"  /> 
</g>
<g style="fill:#FFFFFF; fill-opacity:1.0; 
  stroke:#000000; stroke-linecap:round; stroke-linejoin:round; stroke-opacity:1.0; stroke-opacity:1.0; stroke-width:0" 
   transform="translate(0 0) scale(1 1)">
<path d="M29809 42248 L29813 42248" /> 
<path d="M29811 42246 L29811 42250" /> 
</g>
<g style="fill:#000000; fill-opacity:0.0; 
  stroke:#000000; stroke-linecap:round; stroke-linejoin:round; stroke-opacity:1.0; stroke-opacity:1.0; stroke-width:60" 
   transform="translate(0 0) scale(1 1)">
<path d="M29932 42470 L29632 42470" /> 
<path d="M29632 42470 L29632 42355" /> 
<path d="M29632 42355 L29647 42327" /> 
<path d="M29647 42327 L29661 42312" /> 
<path d="M29661 42312 L29690 42298" /> 
<path d="M29690 42298 L29732 42298" /> 
<path d="M29732 42298 L29761 42312" /> 
<path d="M29761 42312 L29775 42327" /> 
<path d="M29775 42327 L29790 42355" /> 
<path d="M29790 42355 L29790 42470" /> 
<g style = "stroke-linecap:round;" > 
<path d="M29790 42470 L29790 42470" /> 
</g><path d="M29632 42198 L29632 42012" /> 
<path d="M29632 42012 L29747 42112" /> 
<path d="M29747 42112 L29747 42070" /> 
<path d="M29747 42070 L29761 42041" /> 
<path d="M29761 42041 L29775 42027" /> 
<path d="M29775 42027 L29804 42012" /> 
<path d="M29804 42012 L29875 42012" /> 
<path d="M29875 42012 L29904 42027" /> 
<path d="M29904 42027 L29918 42041" /> 
<path d="M29918 42041 L29932 42070" /> 
<path d="M29932 42070 L29932 42155" /> 
<path d="M29932 42155 L29918 42184" /> 
<path d="M29918 42184 L29904 42198" /> 
<g style = "stroke-linecap:round;" > 
<path d="M29904 42198 L29904 42198" /> 
</g></g>
<g style="fill:#000000; fill-opacity:1.0; 
  stroke:#000000; stroke-linecap:round; stroke-linejoin:round; stroke-opacity:1.0; stroke-opacity:1.0; stroke-width:0" 
   transform="translate(0 0) scale(1 1)">
<ellipse cx="24011" cy="44748" rx="800" ry="800"  /> 
</g>
<g style="fill:#FFFFFF; fill-opacity:1.0; 
  stroke:#808000; stroke-linecap:round; stroke-linejoin:round; stroke-opacity:1.0; stroke-opacity:1.0; stroke-width:0" 
   transform="translate(0 0) scale(1 1)">
<ellipse cx="24011" cy="44748" rx="600" ry="600"  /> 
</g>
<g style="fill:#FFFFFF; fill-opacity:1.0; 
  stroke:#000000; stroke-linecap:round; stroke-linejoin:round; stroke-opacity:1.0; stroke-opacity:1.0; stroke-width:0" 
   transform="translate(0 0) scale(1 1)">
<path d="M24009 43548 L24013 43548" /> 
<path d="M24011 43546 L24011 43550" /> 
</g>
<g style="fill:#000000; fill-opacity:0.0; 
  stroke:#000000; stroke-linecap:round; stroke-linejoin:round; stroke-opacity:1.0; stroke-opacity:1.0; stroke-width:100" 
   transform="translate(0 0) scale(1 1)">
<path d="M23621 43710 L23392 43710" /> 
<g style = "stroke-linecap:round;" > 
<path d="M23392 43710 L23392 43710" /> 
</g><path d="M23506 43710 L23506 43310" /> 
<path d="M23506 43310 L23468 43367" /> 
<path d="M23468 43367 L23430 43405" /> 
<path d="M23430 43405 L23392 43424" /> 
<g style = "stroke-linecap:round;" > 
<path d="M23392 43424 L23392 43424" /> 
</g><path d="M23792 43710 L23792 43310" /> 
<path d="M23792 43310 L23945 43310" /> 
<path d="M23945 43310 L23983 43329" /> 
<path d="M23983 43329 L24002 43348" /> 
<path d="M24002 43348 L24021 43386" /> 
<path d="M24021 43386 L24021 43443" /> 
<path d="M24021 43443 L24002 43481" /> 
<path d="M24002 43481 L23983 43500" /> 
<path d="M23983 43500 L23945 43519" /> 
<path d="M23945 43519 L23792 43519" /> 
<g style = "stroke-linecap:round;" > 
<path d="M23792 43519 L23792 43519" /> 
</g><path d="M24192 43710 L24192 43310" /> 
<g style = "stroke-linecap:round;" > 
<path d="M24192 43310 L24192 43310" /> 
</g><path d="M24382 43710 L24382 43310" /> 
<path d="M24382 43310 L24611 43710" /> 
<path d="M24611 43710 L24611 43310" /> 
<g style = "stroke-linecap:round;" > 
<path d="M24611 43310 L24611 43310" /> 
</g></g>
<g style="fill:#000000; fill-opacity:1.0; 
  stroke:#000000; stroke-linecap:round; stroke-linejoin:round; stroke-opacity:1.0; stroke-opacity:1.0; stroke-width:0" 
   transform="translate(0 0) scale(1 1)">
<ellipse cx="68893" cy="44748" rx="800" ry="800"  /> 
</g>
<g style="fill:#FFFFFF; fill-opacity:1.0; 
  stroke:#808000; stroke-linecap:round; stroke-linejoin:round; stroke-opacity:1.0; stroke-opacity:1.0; stroke-width:0" 
   transform="translate(0 0) scale(1 1)">
<ellipse cx="68893" cy="44748" rx="600" ry="600"  /> 
</g>
<g style="fill:#FFFFFF; fill-opacity:1.0; 
  stroke:#000000; stroke-linecap:round; stroke-linejoin:round; stroke-opacity:1.0; stroke-opacity:1.0; stroke-width:0" 
   transform="translate(0 0) scale(1 1)">
<path d="M68891 43548 L68895 43548" /> 
<path d="M68893 43546 L68893 43550" /> 
</g>
<g style="fill:#000000; fill-opacity:0.0; 
  stroke:#000000; stroke-linecap:round; stroke-linejoin:round; stroke-opacity:1.0; stroke-opacity:1.0; stroke-width:100" 
   transform="translate(0 0) scale(1 1)">
<path d="M68503 43710 L68274 43710" /> 
<g style = "stroke-linecap:round;" > 
<path d="M68274 43710 L68274 43710" /> 
</g><path d="M68388 43710 L68388 43310" /> 
<path d="M68388 43310 L68350 43367" /> 
<path d="M68350 43367 L68312 43405" /> 
<path d="M68312 43405 L68274 43424" /> 
<g style = "stroke-linecap:round;" > 
<path d="M68274 43424 L68274 43424" /> 
</g><path d="M68674 43710 L68674 43310" /> 
<path d="M68674 43310 L68827 43310" /> 
<path d="M68827 43310 L68865 43329" /> 
<path d="M68865 43329 L68884 43348" /> 
<path d="M68884 43348 L68903 43386" /> 
<path d="M68903 43386 L68903 43443" /> 
<path d="M68903 43443 L68884 43481" /> 
<path d="M68884 43481 L68865 43500" /> 
<path d="M68865 43500 L68827 43519" /> 
<path d="M68827 43519 L68674 43519" /> 
<g style = "stroke-linecap:round;" > 
<path d="M68674 43519 L68674 43519" /> 
</g><path d="M69074 43710 L69074 43310" /> 
<g style = "stroke-linecap:round;" > 
<path d="M69074 43310 L69074 43310" /> 
</g><path d="M69264 43710 L69264 43310" /> 
<path d="M69264 43310 L69493 43710" /> 
<path d="M69493 43710 L69493 43310" /> 
<g style = "stroke-linecap:round;" > 
<path d="M69493 43310 L69493 43310" /> 
</g></g>
<g style="fill:#000000; fill-opacity:1.0; 
  stroke:#000000; stroke-linecap:round; stroke-linejoin:round; stroke-opacity:1.0; stroke-opacity:1.0; stroke-width:0" 
   transform="translate(0 0) scale(1 1)">
<polygon style="fill-rule:evenodd; " 
points="66454,41600
66454,41286
66768,41286
66768,41600
" /> 
<polygon style="fill-rule:evenodd; " 
points="66454,41010
66454,40696
66768,40696
66768,41010
" /> 
<path d="M66255 41098 L66259 41098" /> 
<path d="M66257 41096 L66257 41100" /> 
</g>
<g style="fill:#000000; fill-opacity:0.0; 
  stroke:#000000; stroke-linecap:round; stroke-linejoin:round; stroke-opacity:1.0; stroke-opacity:1.0; stroke-width:35" 
   transform="translate(0 0) scale(1 1)">
<path d="M66322 41277 L66322 41353" /> 
<path d="M66322 41353 L66162 41353" /> 
<g style = "stroke-linecap:round;" > 
<path d="M66162 41353 L66162 41353" /> 
</g><path d="M66238 41223 L66238 41170" /> 
<g style = "stroke-linecap:round;" > 
<path d="M66238 41170 L66238 41170" /> 
</g><path d="M66322 41147 L66322 41223" /> 
<path d="M66322 41223 L66162 41223" /> 
<path d="M66162 41223 L66162 41147" /> 
<g style = "stroke-linecap:round;" > 
<path d="M66162 41147 L66162 41147" /> 
</g><path d="M66322 41078 L66162 41078" /> 
<path d="M66162 41078 L66162 41040" /> 
<path d="M66162 41040 L66169 41017" /> 
<path d="M66169 41017 L66185 41002" /> 
<path d="M66185 41002 L66200 40994" /> 
<path d="M66200 40994 L66230 40986" /> 
<path d="M66230 40986 L66253 40986" /> 
<path d="M66253 40986 L66284 40994" /> 
<path d="M66284 40994 L66299 41002" /> 
<path d="M66299 41002 L66314 41017" /> 
<path d="M66314 41017 L66322 41040" /> 
<path d="M66322 41040 L66322 41078" /> 
<path d="M66322 40834 L66322 40926" /> 
<g style = "stroke-linecap:round;" > 
<path d="M66322 40926 L66322 40926" /> 
</g><path d="M66322 40880 L66162 40880" /> 
<path d="M66162 40880 L66185 40895" /> 
<path d="M66185 40895 L66200 40910" /> 
<path d="M66200 40910 L66207 40926" /> 
<g style = "stroke-linecap:round;" > 
<path d="M66207 40926 L66207 40926" /> 
</g></g>
<g style="fill:#000000; fill-opacity:0.0; 
  stroke:#000000; stroke-linecap:round; stroke-linejoin:round; stroke-opacity:1.0; stroke-opacity:1.0; stroke-width:0" 
   transform="translate(0 0) scale(1 1)">
<path d="M66954 41068 L66958 41068" /> 
<path d="M66956 41066 L66956 41070" /> 
</g>
<g style="fill:#000000; fill-opacity:0.0; 
  stroke:#000000; stroke-linecap:round; stroke-linejoin:round; stroke-opacity:1.0; stroke-opacity:1.0; stroke-width:35" 
   transform="translate(0 0) scale(1 1)">
<path d="M67021 41475 L67021 41551" /> 
<path d="M67021 41551 L66861 41551" /> 
<g style = "stroke-linecap:round;" > 
<path d="M66861 41551 L66861 41551" /> 
</g><path d="M66937 41421 L66937 41368" /> 
<g style = "stroke-linecap:round;" > 
<path d="M66937 41368 L66937 41368" /> 
</g><path d="M67021 41345 L67021 41421" /> 
<path d="M67021 41421 L66861 41421" /> 
<path d="M66861 41421 L66861 41345" /> 
<g style = "stroke-linecap:round;" > 
<path d="M66861 41345 L66861 41345" /> 
</g><path d="M67021 41276 L66861 41276" /> 
<path d="M66861 41276 L66861 41238" /> 
<path d="M66861 41238 L66868 41215" /> 
<path d="M66868 41215 L66884 41200" /> 
<path d="M66884 41200 L66899 41192" /> 
<path d="M66899 41192 L66929 41184" /> 
<path d="M66929 41184 L66952 41184" /> 
<path d="M66952 41184 L66983 41192" /> 
<path d="M66983 41192 L66998 41200" /> 
<path d="M66998 41200 L67013 41215" /> 
<path d="M67013 41215 L67021 41238" /> 
<path d="M67021 41238 L67021 41276" /> 
<path d="M66861 41085 L66861 41070" /> 
<path d="M66861 41070 L66868 41055" /> 
<path d="M66868 41055 L66876 41047" /> 
<path d="M66876 41047 L66891 41040" /> 
<path d="M66891 41040 L66922 41032" /> 
<path d="M66922 41032 L66960 41032" /> 
<path d="M66960 41032 L66990 41040" /> 
<path d="M66990 41040 L67006 41047" /> 
<path d="M67006 41047 L67013 41055" /> 
<path d="M67013 41055 L67021 41070" /> 
<path d="M67021 41070 L67021 41085" /> 
<path d="M67021 41085 L67013 41101" /> 
<path d="M67013 41101 L67006 41108" /> 
<path d="M67006 41108 L66990 41116" /> 
<path d="M66990 41116 L66960 41124" /> 
<path d="M66960 41124 L66922 41124" /> 
<path d="M66922 41124 L66891 41116" /> 
<path d="M66891 41116 L66876 41108" /> 
<path d="M66876 41108 L66868 41101" /> 
<path d="M66868 41101 L66861 41085" /> 
<path d="M66861 40895 L66861 40926" /> 
<path d="M66861 40926 L66868 40941" /> 
<path d="M66868 40941 L66876 40949" /> 
<path d="M66876 40949 L66899 40964" /> 
<path d="M66899 40964 L66929 40972" /> 
<path d="M66929 40972 L66990 40972" /> 
<path d="M66990 40972 L67006 40964" /> 
<path d="M67006 40964 L67013 40956" /> 
<path d="M67013 40956 L67021 40941" /> 
<path d="M67021 40941 L67021 40911" /> 
<path d="M67021 40911 L67013 40895" /> 
<path d="M67013 40895 L67006 40888" /> 
<path d="M67006 40888 L66990 40880" /> 
<path d="M66990 40880 L66952 40880" /> 
<path d="M66952 40880 L66937 40888" /> 
<path d="M66937 40888 L66929 40895" /> 
<path d="M66929 40895 L66922 40911" /> 
<path d="M66922 40911 L66922 40941" /> 
<path d="M66922 40941 L66929 40956" /> 
<path d="M66929 40956 L66937 40964" /> 
<path d="M66937 40964 L66952 40972" /> 
<g style = "stroke-linecap:round;" > 
<path d="M66952 40972 L66952 40972" /> 
</g><path d="M66861 40781 L66861 40766" /> 
<path d="M66861 40766 L66868 40751" /> 
<path d="M66868 40751 L66876 40743" /> 
<path d="M66876 40743 L66891 40736" /> 
<path d="M66891 40736 L66922 40728" /> 
<path d="M66922 40728 L66960 40728" /> 
<path d="M66960 40728 L66990 40736" /> 
<path d="M66990 40736 L67006 40743" /> 
<path d="M67006 40743 L67013 40751" /> 
<path d="M67013 40751 L67021 40766" /> 
<path d="M67021 40766 L67021 40781" /> 
<path d="M67021 40781 L67013 40797" /> 
<path d="M67013 40797 L67006 40804" /> 
<path d="M67006 40804 L66990 40812" /> 
<path d="M66990 40812 L66960 40820" /> 
<path d="M66960 40820 L66922 40820" /> 
<path d="M66922 40820 L66891 40812" /> 
<path d="M66891 40812 L66876 40804" /> 
<path d="M66876 40804 L66868 40797" /> 
<path d="M66868 40797 L66861 40781" /> 
<path d="M66861 40675 L66861 40576" /> 
<path d="M66861 40576 L66922 40629" /> 
<path d="M66922 40629 L66922 40607" /> 
<path d="M66922 40607 L66929 40591" /> 
<path d="M66929 40591 L66937 40584" /> 
<path d="M66937 40584 L66952 40576" /> 
<path d="M66952 40576 L66990 40576" /> 
<path d="M66990 40576 L67006 40584" /> 
<path d="M67006 40584 L67013 40591" /> 
<path d="M67013 40591 L67021 40607" /> 
<path d="M67021 40607 L67021 40652" /> 
<path d="M67021 40652 L67013 40668" /> 
<path d="M67013 40668 L67006 40675" /> 
<g style = "stroke-linecap:round;" > 
<path d="M67006 40675 L67006 40675" /> 
</g></g>
<g style="fill:#000000; fill-opacity:1.0; 
  stroke:#000000; stroke-linecap:round; stroke-linejoin:round; stroke-opacity:1.0; stroke-opacity:1.0; stroke-width:0" 
   transform="translate(0 0) scale(1 1)">
<polygon style="fill-rule:evenodd; " 
points="66836,42873
66386,42873
66386,42623
66836,42623
" /> 
<polygon style="fill-rule:evenodd; " 
points="66836,42273
66386,42273
66386,42023
66836,42023
" /> 
<path d="M66609 42448 L66613 42448" /> 
<path d="M66611 42446 L66611 42450" /> 
</g>
<g style="fill:#000000; fill-opacity:0.0; 
  stroke:#000000; stroke-linecap:round; stroke-linejoin:round; stroke-opacity:1.0; stroke-opacity:1.0; stroke-width:45" 
   transform="translate(0 0) scale(1 1)">
<path d="M66559 42589 L66692 42589" /> 
<g style = "stroke-linecap:round;" > 
<path d="M66692 42589 L66692 42589" /> 
</g><path d="M66482 42632 L66625 42675" /> 
<path d="M66625 42675 L66625 42563" /> 
<g style = "stroke-linecap:round;" > 
<path d="M66625 42563 L66625 42563" /> 
</g><path d="M66692 42495 L66492 42495" /> 
<g style = "stroke-linecap:round;" > 
<path d="M66492 42495 L66492 42495" /> 
</g><path d="M66692 42392 L66578 42469" /> 
<g style = "stroke-linecap:round;" > 
<path d="M66578 42469 L66578 42469" /> 
</g><path d="M66492 42392 L66606 42495" /> 
<g style = "stroke-linecap:round;" > 
<path d="M66606 42495 L66606 42495" /> 
</g><path d="M66492 42332 L66492 42212" /> 
<path d="M66492 42212 L66692 42289" /> 
<g style = "stroke-linecap:round;" > 
<path d="M66692 42289 L66692 42289" /> 
</g></g> 
</svg> 
