G04 (created by PCBNEW-RS274X (2012-apr-16-27)-stable) date Fri 15 Nov 2013 10:07:24 GMT*
G01*
G70*
G90*
%MOIN*%
G04 Gerber Fmt 3.4, Leading zero omitted, Abs format*
%FSLAX34Y34*%
G04 APERTURE LIST*
%ADD10C,0.006000*%
%ADD11C,0.015000*%
%ADD12C,0.005000*%
%ADD13C,0.008000*%
%ADD14C,0.012000*%
%ADD15C,0.010000*%
%ADD16C,0.003500*%
G04 APERTURE END LIST*
G54D10*
G54D11*
X00394Y00748D02*
X28740Y00748D01*
X28347Y16496D02*
X28740Y16496D01*
X01181Y16496D02*
X00394Y16496D01*
X27953Y16496D02*
X28347Y16496D01*
X27953Y16496D02*
X27559Y16496D01*
X28740Y00749D02*
X28740Y16497D01*
X01181Y16496D02*
X27559Y16496D01*
X00394Y00747D02*
X00394Y16495D01*
G54D10*
X14052Y04972D02*
X14052Y05972D01*
X14052Y05972D02*
X17052Y05972D01*
X17052Y05972D02*
X17052Y04972D01*
X17052Y04972D02*
X14052Y04972D01*
X15052Y05972D02*
X15052Y04972D01*
G54D12*
X03397Y09398D02*
X03397Y10579D01*
X02807Y09988D02*
X03988Y09988D01*
X03814Y09988D02*
X03806Y09908D01*
X03782Y09830D01*
X03744Y09758D01*
X03692Y09695D01*
X03630Y09643D01*
X03558Y09604D01*
X03480Y09580D01*
X03399Y09572D01*
X03319Y09579D01*
X03241Y09602D01*
X03169Y09640D01*
X03106Y09691D01*
X03053Y09753D01*
X03014Y09824D01*
X02990Y09902D01*
X02981Y09983D01*
X02987Y10063D01*
X03010Y10141D01*
X03047Y10213D01*
X03098Y10277D01*
X03160Y10330D01*
X03231Y10370D01*
X03308Y10395D01*
X03389Y10404D01*
X03469Y10398D01*
X03547Y10376D01*
X03620Y10340D01*
X03684Y10289D01*
X03737Y10228D01*
X03777Y10157D01*
X03803Y10080D01*
X03813Y09999D01*
X03814Y09988D01*
G54D13*
X04184Y12837D02*
X04184Y07878D01*
X04184Y07878D02*
X04302Y07878D01*
X04302Y07878D02*
X24576Y07878D01*
X24576Y07878D02*
X24576Y12837D01*
X24576Y12837D02*
X04184Y12837D01*
G54D12*
X26018Y09807D02*
X26010Y09727D01*
X25986Y09649D01*
X25948Y09577D01*
X25896Y09514D01*
X25834Y09462D01*
X25762Y09423D01*
X25684Y09399D01*
X25603Y09391D01*
X25523Y09398D01*
X25445Y09421D01*
X25373Y09459D01*
X25310Y09510D01*
X25257Y09572D01*
X25218Y09643D01*
X25194Y09721D01*
X25185Y09802D01*
X25191Y09882D01*
X25214Y09960D01*
X25251Y10032D01*
X25302Y10096D01*
X25364Y10149D01*
X25435Y10189D01*
X25512Y10214D01*
X25593Y10223D01*
X25673Y10217D01*
X25751Y10195D01*
X25824Y10159D01*
X25888Y10108D01*
X25941Y10047D01*
X25981Y09976D01*
X26007Y09899D01*
X26017Y09818D01*
X26018Y09807D01*
X25011Y09807D02*
X26192Y09807D01*
X25601Y09217D02*
X25601Y10398D01*
G54D14*
X05240Y14409D02*
X05240Y14409D01*
X05240Y14409D02*
X05240Y14409D01*
X11490Y14409D02*
X12240Y14409D01*
X12240Y14409D02*
X12240Y14409D01*
X11490Y13409D02*
X05990Y13409D01*
X05990Y15409D02*
X11490Y15409D01*
X05990Y14909D02*
X06490Y15409D01*
X11490Y15409D02*
X11490Y13409D01*
X05990Y15409D02*
X05990Y13409D01*
X05240Y14409D02*
X05990Y14409D01*
X23382Y14488D02*
X23382Y14488D01*
X23382Y14488D02*
X23382Y14488D01*
X17132Y14488D02*
X16382Y14488D01*
X16382Y14488D02*
X16382Y14488D01*
X17132Y15488D02*
X22632Y15488D01*
X22632Y13488D02*
X17132Y13488D01*
X22632Y13988D02*
X22132Y13488D01*
X17132Y13488D02*
X17132Y15488D01*
X22632Y13488D02*
X22632Y15488D01*
X23382Y14488D02*
X22632Y14488D01*
G54D13*
X12638Y05043D02*
X12638Y04843D01*
X12638Y02043D02*
X12638Y02243D01*
X12638Y02243D02*
X13038Y02243D01*
X13038Y02243D02*
X13038Y04843D01*
X13038Y04843D02*
X12238Y04843D01*
X12238Y04843D02*
X12238Y02243D01*
X12238Y02243D02*
X12638Y02243D01*
X12838Y04843D02*
X13038Y04643D01*
X10433Y05043D02*
X10433Y04843D01*
X10433Y02043D02*
X10433Y02243D01*
X10433Y02243D02*
X10833Y02243D01*
X10833Y02243D02*
X10833Y04843D01*
X10833Y04843D02*
X10033Y04843D01*
X10033Y04843D02*
X10033Y02243D01*
X10033Y02243D02*
X10433Y02243D01*
X10633Y04843D02*
X10833Y04643D01*
G54D15*
X12138Y05815D02*
X13138Y05815D01*
G54D10*
X13022Y06895D02*
X12980Y06927D01*
X12936Y06955D01*
X12889Y06979D01*
X12841Y06999D01*
X12791Y07015D01*
X12740Y07026D01*
X12688Y07032D01*
X12638Y07035D01*
X12638Y07034D02*
X12586Y07031D01*
X12534Y07024D01*
X12483Y07013D01*
X12434Y06997D01*
X12385Y06977D01*
X12339Y06953D01*
X12295Y06925D01*
X12253Y06893D01*
X12241Y06882D01*
X12638Y05836D02*
X12690Y05839D01*
X12742Y05846D01*
X12793Y05857D01*
X12842Y05873D01*
X12891Y05893D01*
X12937Y05917D01*
X12981Y05945D01*
X13023Y05977D01*
X13027Y05981D01*
X12254Y05975D02*
X12296Y05943D01*
X12340Y05915D01*
X12387Y05891D01*
X12435Y05871D01*
X12485Y05855D01*
X12536Y05844D01*
X12588Y05838D01*
X12638Y05835D01*
X12987Y05948D02*
X13028Y05980D01*
X13066Y06016D01*
X13101Y06055D01*
X13133Y06097D01*
X13160Y06141D01*
X13184Y06188D01*
X13203Y06236D01*
X13219Y06286D01*
X13229Y06338D01*
X13236Y06389D01*
X13238Y06435D01*
X13238Y06435D02*
X13235Y06487D01*
X13228Y06539D01*
X13217Y06590D01*
X13201Y06640D01*
X13181Y06688D01*
X13157Y06734D01*
X13129Y06779D01*
X13097Y06820D01*
X13062Y06859D01*
X13023Y06894D01*
X12998Y06914D01*
X12039Y06435D02*
X12042Y06383D01*
X12049Y06331D01*
X12060Y06280D01*
X12076Y06231D01*
X12096Y06182D01*
X12120Y06136D01*
X12148Y06092D01*
X12180Y06050D01*
X12215Y06012D01*
X12253Y05977D01*
X12271Y05963D01*
X12270Y06908D02*
X12230Y06874D01*
X12193Y06837D01*
X12160Y06796D01*
X12130Y06753D01*
X12104Y06708D01*
X12083Y06660D01*
X12065Y06611D01*
X12052Y06560D01*
X12043Y06509D01*
X12039Y06456D01*
X12038Y06435D01*
X12888Y06435D02*
X12887Y06456D01*
X12884Y06478D01*
X12879Y06499D01*
X12872Y06520D01*
X12864Y06540D01*
X12854Y06559D01*
X12842Y06578D01*
X12829Y06595D01*
X12814Y06611D01*
X12798Y06626D01*
X12781Y06639D01*
X12763Y06651D01*
X12743Y06661D01*
X12723Y06669D01*
X12702Y06676D01*
X12681Y06681D01*
X12659Y06684D01*
X12638Y06685D01*
X13038Y06435D02*
X13036Y06469D01*
X13031Y06504D01*
X13024Y06538D01*
X13013Y06571D01*
X13000Y06604D01*
X12984Y06634D01*
X12965Y06664D01*
X12944Y06692D01*
X12920Y06717D01*
X12895Y06741D01*
X12867Y06762D01*
X12838Y06781D01*
X12807Y06797D01*
X12774Y06810D01*
X12741Y06821D01*
X12707Y06828D01*
X12672Y06833D01*
X12638Y06835D01*
X12388Y06435D02*
X12389Y06414D01*
X12392Y06392D01*
X12397Y06371D01*
X12404Y06350D01*
X12412Y06330D01*
X12422Y06311D01*
X12434Y06292D01*
X12447Y06275D01*
X12462Y06259D01*
X12478Y06244D01*
X12495Y06231D01*
X12514Y06219D01*
X12533Y06209D01*
X12553Y06201D01*
X12574Y06194D01*
X12595Y06189D01*
X12617Y06186D01*
X12638Y06185D01*
X12238Y06435D02*
X12240Y06401D01*
X12245Y06366D01*
X12252Y06332D01*
X12263Y06299D01*
X12276Y06266D01*
X12292Y06236D01*
X12311Y06206D01*
X12332Y06178D01*
X12356Y06153D01*
X12381Y06129D01*
X12409Y06108D01*
X12439Y06089D01*
X12469Y06073D01*
X12502Y06060D01*
X12535Y06049D01*
X12569Y06042D01*
X12604Y06037D01*
X12638Y06035D01*
G54D15*
X13151Y05822D02*
X13202Y05869D01*
X13249Y05920D01*
X13292Y05975D01*
X13330Y06034D01*
X13362Y06096D01*
X13389Y06161D01*
X13410Y06227D01*
X13425Y06295D01*
X13434Y06364D01*
X13437Y06434D01*
X13438Y06435D01*
X13437Y06435D02*
X13433Y06504D01*
X13424Y06573D01*
X13409Y06641D01*
X13388Y06708D01*
X13362Y06772D01*
X13329Y06834D01*
X13292Y06893D01*
X13250Y06948D01*
X13202Y06999D01*
X13151Y07047D01*
X13096Y07089D01*
X13037Y07126D01*
X13014Y07139D01*
X11841Y06434D02*
X11844Y06365D01*
X11853Y06296D01*
X11868Y06228D01*
X11889Y06161D01*
X11916Y06097D01*
X11948Y06035D01*
X11986Y05977D01*
X12028Y05921D01*
X12075Y05870D01*
X12123Y05826D01*
X12241Y07129D02*
X12182Y07091D01*
X12126Y07049D01*
X12075Y07002D01*
X12027Y06951D01*
X11985Y06896D01*
X11947Y06837D01*
X11915Y06775D01*
X11888Y06711D01*
X11866Y06644D01*
X11851Y06576D01*
X11842Y06507D01*
X11839Y06437D01*
X11838Y06435D01*
X13017Y07139D02*
X12954Y07169D01*
X12889Y07194D01*
X12822Y07213D01*
X12753Y07226D01*
X12684Y07233D01*
X12638Y07235D01*
X12638Y07234D02*
X12569Y07230D01*
X12500Y07221D01*
X12432Y07206D01*
X12365Y07185D01*
X12301Y07159D01*
X12239Y07126D01*
X12220Y07115D01*
X09933Y05854D02*
X10933Y05854D01*
G54D10*
X10817Y06934D02*
X10775Y06966D01*
X10731Y06994D01*
X10684Y07018D01*
X10636Y07038D01*
X10586Y07054D01*
X10535Y07065D01*
X10483Y07071D01*
X10433Y07074D01*
X10433Y07073D02*
X10381Y07070D01*
X10329Y07063D01*
X10278Y07052D01*
X10229Y07036D01*
X10180Y07016D01*
X10134Y06992D01*
X10090Y06964D01*
X10048Y06932D01*
X10036Y06921D01*
X10433Y05875D02*
X10485Y05878D01*
X10537Y05885D01*
X10588Y05896D01*
X10637Y05912D01*
X10686Y05932D01*
X10732Y05956D01*
X10776Y05984D01*
X10818Y06016D01*
X10822Y06020D01*
X10049Y06014D02*
X10091Y05982D01*
X10135Y05954D01*
X10182Y05930D01*
X10230Y05910D01*
X10280Y05894D01*
X10331Y05883D01*
X10383Y05877D01*
X10433Y05874D01*
X10782Y05987D02*
X10823Y06019D01*
X10861Y06055D01*
X10896Y06094D01*
X10928Y06136D01*
X10955Y06180D01*
X10979Y06227D01*
X10998Y06275D01*
X11014Y06325D01*
X11024Y06377D01*
X11031Y06428D01*
X11033Y06474D01*
X11033Y06474D02*
X11030Y06526D01*
X11023Y06578D01*
X11012Y06629D01*
X10996Y06679D01*
X10976Y06727D01*
X10952Y06773D01*
X10924Y06818D01*
X10892Y06859D01*
X10857Y06898D01*
X10818Y06933D01*
X10793Y06953D01*
X09834Y06474D02*
X09837Y06422D01*
X09844Y06370D01*
X09855Y06319D01*
X09871Y06270D01*
X09891Y06221D01*
X09915Y06175D01*
X09943Y06131D01*
X09975Y06089D01*
X10010Y06051D01*
X10048Y06016D01*
X10066Y06002D01*
X10065Y06947D02*
X10025Y06913D01*
X09988Y06876D01*
X09955Y06835D01*
X09925Y06792D01*
X09899Y06747D01*
X09878Y06699D01*
X09860Y06650D01*
X09847Y06599D01*
X09838Y06548D01*
X09834Y06495D01*
X09833Y06474D01*
X10683Y06474D02*
X10682Y06495D01*
X10679Y06517D01*
X10674Y06538D01*
X10667Y06559D01*
X10659Y06579D01*
X10649Y06598D01*
X10637Y06617D01*
X10624Y06634D01*
X10609Y06650D01*
X10593Y06665D01*
X10576Y06678D01*
X10558Y06690D01*
X10538Y06700D01*
X10518Y06708D01*
X10497Y06715D01*
X10476Y06720D01*
X10454Y06723D01*
X10433Y06724D01*
X10833Y06474D02*
X10831Y06508D01*
X10826Y06543D01*
X10819Y06577D01*
X10808Y06610D01*
X10795Y06643D01*
X10779Y06673D01*
X10760Y06703D01*
X10739Y06731D01*
X10715Y06756D01*
X10690Y06780D01*
X10662Y06801D01*
X10633Y06820D01*
X10602Y06836D01*
X10569Y06849D01*
X10536Y06860D01*
X10502Y06867D01*
X10467Y06872D01*
X10433Y06874D01*
X10183Y06474D02*
X10184Y06453D01*
X10187Y06431D01*
X10192Y06410D01*
X10199Y06389D01*
X10207Y06369D01*
X10217Y06350D01*
X10229Y06331D01*
X10242Y06314D01*
X10257Y06298D01*
X10273Y06283D01*
X10290Y06270D01*
X10309Y06258D01*
X10328Y06248D01*
X10348Y06240D01*
X10369Y06233D01*
X10390Y06228D01*
X10412Y06225D01*
X10433Y06224D01*
X10033Y06474D02*
X10035Y06440D01*
X10040Y06405D01*
X10047Y06371D01*
X10058Y06338D01*
X10071Y06305D01*
X10087Y06275D01*
X10106Y06245D01*
X10127Y06217D01*
X10151Y06192D01*
X10176Y06168D01*
X10204Y06147D01*
X10234Y06128D01*
X10264Y06112D01*
X10297Y06099D01*
X10330Y06088D01*
X10364Y06081D01*
X10399Y06076D01*
X10433Y06074D01*
G54D15*
X10946Y05861D02*
X10997Y05908D01*
X11044Y05959D01*
X11087Y06014D01*
X11125Y06073D01*
X11157Y06135D01*
X11184Y06200D01*
X11205Y06266D01*
X11220Y06334D01*
X11229Y06403D01*
X11232Y06473D01*
X11233Y06474D01*
X11232Y06474D02*
X11228Y06543D01*
X11219Y06612D01*
X11204Y06680D01*
X11183Y06747D01*
X11157Y06811D01*
X11124Y06873D01*
X11087Y06932D01*
X11045Y06987D01*
X10997Y07038D01*
X10946Y07086D01*
X10891Y07128D01*
X10832Y07165D01*
X10809Y07178D01*
X09636Y06473D02*
X09639Y06404D01*
X09648Y06335D01*
X09663Y06267D01*
X09684Y06200D01*
X09711Y06136D01*
X09743Y06074D01*
X09781Y06016D01*
X09823Y05960D01*
X09870Y05909D01*
X09918Y05865D01*
X10036Y07168D02*
X09977Y07130D01*
X09921Y07088D01*
X09870Y07041D01*
X09822Y06990D01*
X09780Y06935D01*
X09742Y06876D01*
X09710Y06814D01*
X09683Y06750D01*
X09661Y06683D01*
X09646Y06615D01*
X09637Y06546D01*
X09634Y06476D01*
X09633Y06474D01*
X10812Y07178D02*
X10749Y07208D01*
X10684Y07233D01*
X10617Y07252D01*
X10548Y07265D01*
X10479Y07272D01*
X10433Y07274D01*
X10433Y07273D02*
X10364Y07269D01*
X10295Y07260D01*
X10227Y07245D01*
X10160Y07224D01*
X10096Y07198D01*
X10034Y07165D01*
X10015Y07154D01*
G54D11*
X05611Y03405D02*
X06595Y02322D01*
X05611Y06358D02*
X06595Y05177D01*
X06890Y02815D02*
X06875Y02663D01*
X06830Y02516D01*
X06758Y02380D01*
X06661Y02261D01*
X06543Y02163D01*
X06407Y02090D01*
X06261Y02045D01*
X06108Y02029D01*
X05956Y02042D01*
X05809Y02086D01*
X05673Y02157D01*
X05553Y02253D01*
X05454Y02371D01*
X05380Y02505D01*
X05334Y02652D01*
X05317Y02805D01*
X05329Y02957D01*
X05372Y03104D01*
X05442Y03241D01*
X05537Y03361D01*
X05654Y03461D01*
X05788Y03536D01*
X05935Y03583D01*
X06087Y03601D01*
X06239Y03590D01*
X06387Y03548D01*
X06524Y03479D01*
X06645Y03384D01*
X06746Y03268D01*
X06821Y03135D01*
X06870Y02989D01*
X06889Y02836D01*
X06890Y02815D01*
X06890Y05767D02*
X06875Y05615D01*
X06830Y05468D01*
X06758Y05332D01*
X06661Y05213D01*
X06543Y05115D01*
X06407Y05042D01*
X06261Y04997D01*
X06108Y04981D01*
X05956Y04994D01*
X05809Y05038D01*
X05673Y05109D01*
X05553Y05205D01*
X05454Y05323D01*
X05380Y05457D01*
X05334Y05604D01*
X05317Y05757D01*
X05329Y05909D01*
X05372Y06056D01*
X05442Y06193D01*
X05537Y06313D01*
X05654Y06413D01*
X05788Y06488D01*
X05935Y06535D01*
X06087Y06553D01*
X06239Y06542D01*
X06387Y06500D01*
X06524Y06431D01*
X06645Y06336D01*
X06746Y06220D01*
X06821Y06087D01*
X06870Y05941D01*
X06889Y05788D01*
X06890Y05767D01*
X08072Y07244D02*
X08072Y01338D01*
X08072Y01338D02*
X04134Y01338D01*
X04134Y01338D02*
X04134Y07244D01*
X04134Y07244D02*
X08072Y07244D01*
X03263Y12559D02*
X03245Y12385D01*
X03195Y12217D01*
X03112Y12061D01*
X03001Y11925D01*
X02866Y11813D01*
X02711Y11730D01*
X02543Y11678D01*
X02369Y11660D01*
X02195Y11675D01*
X02026Y11725D01*
X01871Y11806D01*
X01734Y11916D01*
X01621Y12051D01*
X01536Y12205D01*
X01483Y12372D01*
X01464Y12547D01*
X01478Y12721D01*
X01527Y12890D01*
X01607Y13046D01*
X01716Y13184D01*
X01850Y13298D01*
X02003Y13383D01*
X02170Y13438D01*
X02345Y13458D01*
X02519Y13445D01*
X02688Y13398D01*
X02845Y13318D01*
X02983Y13210D01*
X03098Y13077D01*
X03185Y12925D01*
X03240Y12758D01*
X03262Y12584D01*
X03263Y12559D01*
X27672Y04685D02*
X27654Y04511D01*
X27604Y04343D01*
X27521Y04187D01*
X27410Y04051D01*
X27275Y03939D01*
X27120Y03856D01*
X26952Y03804D01*
X26778Y03786D01*
X26604Y03801D01*
X26435Y03851D01*
X26280Y03932D01*
X26143Y04042D01*
X26030Y04177D01*
X25945Y04331D01*
X25892Y04498D01*
X25873Y04673D01*
X25887Y04847D01*
X25936Y05016D01*
X26016Y05172D01*
X26125Y05310D01*
X26259Y05424D01*
X26412Y05509D01*
X26579Y05564D01*
X26754Y05584D01*
X26928Y05571D01*
X27097Y05524D01*
X27254Y05444D01*
X27392Y05336D01*
X27507Y05203D01*
X27594Y05051D01*
X27649Y04884D01*
X27671Y04710D01*
X27672Y04685D01*
X20827Y01968D02*
X20827Y06259D01*
X24607Y01968D02*
X24607Y06259D01*
X20827Y01968D02*
X24607Y01968D01*
X24607Y06259D02*
X20827Y06259D01*
G54D10*
X14257Y06110D02*
X14257Y06510D01*
X14486Y06110D02*
X14314Y06339D01*
X14486Y06510D02*
X14257Y06282D01*
X14867Y06110D02*
X14638Y06110D01*
X14752Y06110D02*
X14752Y06510D01*
X14714Y06453D01*
X14676Y06415D01*
X14638Y06396D01*
G54D16*
X04323Y07975D02*
X04323Y07617D01*
X04299Y07546D01*
X04251Y07498D01*
X04180Y07475D01*
X04132Y07475D01*
X04823Y07475D02*
X04537Y07475D01*
X04680Y07475D02*
X04680Y07975D01*
X04632Y07903D01*
X04585Y07856D01*
X04537Y07832D01*
X22598Y07223D02*
X22836Y07223D01*
X22551Y07081D02*
X22717Y07581D01*
X22884Y07081D01*
X22980Y07581D02*
X23265Y07581D01*
X23122Y07081D02*
X23122Y07581D01*
X23384Y07581D02*
X23718Y07081D01*
X23718Y07581D02*
X23384Y07081D01*
X23884Y07533D02*
X23908Y07557D01*
X23956Y07581D01*
X24075Y07581D01*
X24122Y07557D01*
X24146Y07533D01*
X24170Y07485D01*
X24170Y07438D01*
X24146Y07366D01*
X23860Y07081D01*
X24170Y07081D01*
X24598Y07414D02*
X24598Y07081D01*
X24479Y07604D02*
X24360Y07247D01*
X24670Y07247D01*
G54D13*
X12161Y13044D02*
X11994Y13306D01*
X11875Y13044D02*
X11875Y13594D01*
X12066Y13594D01*
X12113Y13568D01*
X12137Y13542D01*
X12161Y13490D01*
X12161Y13411D01*
X12137Y13359D01*
X12113Y13332D01*
X12066Y13306D01*
X11875Y13306D01*
X12327Y13594D02*
X12637Y13594D01*
X12470Y13385D01*
X12542Y13385D01*
X12589Y13359D01*
X12613Y13332D01*
X12637Y13280D01*
X12637Y13149D01*
X12613Y13097D01*
X12589Y13071D01*
X12542Y13044D01*
X12399Y13044D01*
X12351Y13071D01*
X12327Y13097D01*
X11668Y15996D02*
X11978Y15996D01*
X11811Y15787D01*
X11883Y15787D01*
X11930Y15761D01*
X11954Y15734D01*
X11978Y15682D01*
X11978Y15551D01*
X11954Y15499D01*
X11930Y15473D01*
X11883Y15446D01*
X11740Y15446D01*
X11692Y15473D01*
X11668Y15499D01*
X12287Y15996D02*
X12335Y15996D01*
X12383Y15970D01*
X12406Y15944D01*
X12430Y15892D01*
X12454Y15787D01*
X12454Y15656D01*
X12430Y15551D01*
X12406Y15499D01*
X12383Y15473D01*
X12335Y15446D01*
X12287Y15446D01*
X12240Y15473D01*
X12216Y15499D01*
X12192Y15551D01*
X12168Y15656D01*
X12168Y15787D01*
X12192Y15892D01*
X12216Y15944D01*
X12240Y15970D01*
X12287Y15996D01*
X12954Y15446D02*
X12787Y15708D01*
X12668Y15446D02*
X12668Y15996D01*
X12859Y15996D01*
X12906Y15970D01*
X12930Y15944D01*
X12954Y15892D01*
X12954Y15813D01*
X12930Y15761D01*
X12906Y15734D01*
X12859Y15708D01*
X12668Y15708D01*
X23303Y13084D02*
X23136Y13346D01*
X23017Y13084D02*
X23017Y13634D01*
X23208Y13634D01*
X23255Y13608D01*
X23279Y13582D01*
X23303Y13530D01*
X23303Y13451D01*
X23279Y13399D01*
X23255Y13372D01*
X23208Y13346D01*
X23017Y13346D01*
X23731Y13451D02*
X23731Y13084D01*
X23612Y13661D02*
X23493Y13268D01*
X23803Y13268D01*
X22913Y15905D02*
X22937Y15931D01*
X22985Y15957D01*
X23104Y15957D01*
X23151Y15931D01*
X23175Y15905D01*
X23199Y15853D01*
X23199Y15800D01*
X23175Y15722D01*
X22889Y15407D01*
X23199Y15407D01*
X23389Y15905D02*
X23413Y15931D01*
X23461Y15957D01*
X23580Y15957D01*
X23627Y15931D01*
X23651Y15905D01*
X23675Y15853D01*
X23675Y15800D01*
X23651Y15722D01*
X23365Y15407D01*
X23675Y15407D01*
X24175Y15407D02*
X24008Y15669D01*
X23889Y15407D02*
X23889Y15957D01*
X24080Y15957D01*
X24127Y15931D01*
X24151Y15905D01*
X24175Y15853D01*
X24175Y15774D01*
X24151Y15722D01*
X24127Y15695D01*
X24080Y15669D01*
X23889Y15669D01*
X12113Y04429D02*
X12113Y04143D01*
X12113Y04286D02*
X11563Y04286D01*
X11641Y04238D01*
X11694Y04191D01*
X11720Y04143D01*
X12113Y04643D02*
X11563Y04643D01*
X11903Y04691D02*
X12113Y04834D01*
X11746Y04834D02*
X11955Y04643D01*
X09908Y04429D02*
X09908Y04143D01*
X09908Y04286D02*
X09358Y04286D01*
X09436Y04238D01*
X09489Y04191D01*
X09515Y04143D01*
X09908Y04643D02*
X09358Y04643D01*
X09698Y04691D02*
X09908Y04834D01*
X09541Y04834D02*
X09750Y04643D01*
G54D16*
X13129Y05430D02*
X12986Y05430D01*
X12986Y05730D01*
X13229Y05587D02*
X13329Y05587D01*
X13372Y05430D02*
X13229Y05430D01*
X13229Y05730D01*
X13372Y05730D01*
X13500Y05430D02*
X13500Y05730D01*
X13572Y05730D01*
X13615Y05715D01*
X13643Y05687D01*
X13658Y05658D01*
X13672Y05601D01*
X13672Y05558D01*
X13658Y05501D01*
X13643Y05472D01*
X13615Y05444D01*
X13572Y05430D01*
X13500Y05430D01*
X13958Y05430D02*
X13786Y05430D01*
X13872Y05430D02*
X13872Y05730D01*
X13843Y05687D01*
X13815Y05658D01*
X13786Y05644D01*
X11696Y05989D02*
X11396Y05989D01*
X11396Y06104D01*
X11411Y06132D01*
X11425Y06147D01*
X11454Y06161D01*
X11496Y06161D01*
X11525Y06147D01*
X11539Y06132D01*
X11554Y06104D01*
X11554Y05989D01*
X11396Y06261D02*
X11696Y06332D01*
X11482Y06389D01*
X11696Y06447D01*
X11396Y06518D01*
X11696Y06804D02*
X11554Y06704D01*
X11696Y06632D02*
X11396Y06632D01*
X11396Y06747D01*
X11411Y06775D01*
X11425Y06790D01*
X11454Y06804D01*
X11496Y06804D01*
X11525Y06790D01*
X11539Y06775D01*
X11554Y06747D01*
X11554Y06632D01*
X11725Y06861D02*
X11725Y07090D01*
X11396Y07219D02*
X11396Y07276D01*
X11411Y07304D01*
X11439Y07333D01*
X11496Y07347D01*
X11596Y07347D01*
X11654Y07333D01*
X11682Y07304D01*
X11696Y07276D01*
X11696Y07219D01*
X11682Y07190D01*
X11654Y07161D01*
X11596Y07147D01*
X11496Y07147D01*
X11439Y07161D01*
X11411Y07190D01*
X11396Y07219D01*
X11696Y07475D02*
X11396Y07475D01*
X11696Y07647D02*
X11525Y07518D01*
X11396Y07647D02*
X11568Y07475D01*
X10845Y05430D02*
X10702Y05430D01*
X10702Y05730D01*
X10945Y05587D02*
X11045Y05587D01*
X11088Y05430D02*
X10945Y05430D01*
X10945Y05730D01*
X11088Y05730D01*
X11216Y05430D02*
X11216Y05730D01*
X11288Y05730D01*
X11331Y05715D01*
X11359Y05687D01*
X11374Y05658D01*
X11388Y05601D01*
X11388Y05558D01*
X11374Y05501D01*
X11359Y05472D01*
X11331Y05444D01*
X11288Y05430D01*
X11216Y05430D01*
X11502Y05701D02*
X11516Y05715D01*
X11545Y05730D01*
X11616Y05730D01*
X11645Y05715D01*
X11659Y05701D01*
X11674Y05672D01*
X11674Y05644D01*
X11659Y05601D01*
X11488Y05430D01*
X11674Y05430D01*
X09270Y06768D02*
X09270Y06625D01*
X09413Y06611D01*
X09399Y06625D01*
X09385Y06654D01*
X09385Y06725D01*
X09399Y06754D01*
X09413Y06768D01*
X09442Y06783D01*
X09513Y06783D01*
X09542Y06768D01*
X09556Y06754D01*
X09570Y06725D01*
X09570Y06654D01*
X09556Y06625D01*
X09542Y06611D01*
X09270Y06869D02*
X09570Y06969D01*
X09270Y07069D01*
X09556Y07154D02*
X09570Y07197D01*
X09570Y07268D01*
X09556Y07297D01*
X09542Y07311D01*
X09513Y07326D01*
X09485Y07326D01*
X09456Y07311D01*
X09442Y07297D01*
X09428Y07268D01*
X09413Y07211D01*
X09399Y07183D01*
X09385Y07168D01*
X09356Y07154D01*
X09328Y07154D01*
X09299Y07168D01*
X09285Y07183D01*
X09270Y07211D01*
X09270Y07283D01*
X09285Y07326D01*
G54D14*
X08983Y01487D02*
X08383Y01487D01*
X08383Y01715D01*
X08411Y01773D01*
X08440Y01801D01*
X08497Y01830D01*
X08583Y01830D01*
X08640Y01801D01*
X08669Y01773D01*
X08697Y01715D01*
X08697Y01487D01*
X08383Y02030D02*
X08383Y02401D01*
X08611Y02201D01*
X08611Y02287D01*
X08640Y02344D01*
X08669Y02373D01*
X08726Y02401D01*
X08869Y02401D01*
X08926Y02373D01*
X08954Y02344D01*
X08983Y02287D01*
X08983Y02115D01*
X08954Y02058D01*
X08926Y02030D01*
X03629Y03704D02*
X03029Y03704D01*
X03029Y03932D01*
X03057Y03990D01*
X03086Y04018D01*
X03143Y04047D01*
X03229Y04047D01*
X03286Y04018D01*
X03315Y03990D01*
X03343Y03932D01*
X03343Y03704D01*
X03029Y04247D02*
X03629Y04390D01*
X03200Y04504D01*
X03629Y04618D01*
X03029Y04761D01*
X03629Y05333D02*
X03343Y05133D01*
X03629Y04990D02*
X03029Y04990D01*
X03029Y05218D01*
X03057Y05276D01*
X03086Y05304D01*
X03143Y05333D01*
X03229Y05333D01*
X03286Y05304D01*
X03315Y05276D01*
X03343Y05218D01*
X03343Y04990D01*
X03686Y05447D02*
X03686Y05904D01*
X03029Y06161D02*
X03029Y06275D01*
X03057Y06333D01*
X03115Y06390D01*
X03229Y06418D01*
X03429Y06418D01*
X03543Y06390D01*
X03600Y06333D01*
X03629Y06275D01*
X03629Y06161D01*
X03600Y06104D01*
X03543Y06047D01*
X03429Y06018D01*
X03229Y06018D01*
X03115Y06047D01*
X03057Y06104D01*
X03029Y06161D01*
X03029Y06676D02*
X03515Y06676D01*
X03572Y06704D01*
X03600Y06733D01*
X03629Y06790D01*
X03629Y06904D01*
X03600Y06962D01*
X03572Y06990D01*
X03515Y07019D01*
X03029Y07019D01*
X03029Y07219D02*
X03029Y07562D01*
X03629Y07391D02*
X03029Y07391D01*
G54D15*
X02039Y13597D02*
X02039Y13997D01*
X02173Y13711D01*
X02306Y13997D01*
X02306Y13597D01*
X02668Y13864D02*
X02668Y13597D01*
X02572Y14016D02*
X02477Y13730D01*
X02725Y13730D01*
X26448Y05723D02*
X26448Y06123D01*
X26582Y05837D01*
X26715Y06123D01*
X26715Y05723D01*
X27077Y05990D02*
X27077Y05723D01*
X26981Y06142D02*
X26886Y05856D01*
X27134Y05856D01*
G54D13*
X21595Y03869D02*
X21595Y04269D01*
X21748Y04269D01*
X21786Y04250D01*
X21805Y04231D01*
X21824Y04193D01*
X21824Y04136D01*
X21805Y04098D01*
X21786Y04079D01*
X21748Y04060D01*
X21595Y04060D01*
X21976Y04231D02*
X21995Y04250D01*
X22033Y04269D01*
X22129Y04269D01*
X22167Y04250D01*
X22186Y04231D01*
X22205Y04193D01*
X22205Y04155D01*
X22186Y04098D01*
X21957Y03869D01*
X22205Y03869D01*
M02*
