M48
;DRILL file {Pcbnew (2012-apr-16-27)-stable} date Fri 15 Nov 2013 10:07:33 GMT
;FORMAT={-:-/ absolute / metric / decimal}
FMAT,2
METRIC,TZ
T1C0.813
T2C1.016
T3C1.270
T4C1.400
T5C1.501
T6C1.798
T7C4.201
%
G90
G05
M71
T1
X26.500Y17.968
X26.500Y15.428
X26.500Y12.809
X26.500Y5.189
X32.101Y17.869
X32.101Y15.329
X32.101Y12.809
X32.101Y5.189
T2
X36.962Y13.899
X39.502Y13.899
X42.042Y13.899
T3
X13.310Y36.599
X31.090Y36.599
X41.610Y36.800
X59.390Y36.800
T4
X55.601Y13.198
X55.601Y7.699
X59.802Y13.198
X59.802Y7.699
T5
X15.502Y14.648
X15.502Y7.150
T6
X13.325Y29.888
X13.325Y24.389
X17.526Y29.888
X17.526Y24.389
X21.727Y29.888
X21.727Y24.389
X25.926Y29.888
X25.926Y24.389
X30.127Y29.888
X30.127Y24.389
X34.326Y29.888
X34.326Y24.389
X38.524Y29.888
X38.524Y24.389
X42.723Y29.888
X42.723Y24.389
X46.924Y29.888
X46.924Y24.389
X51.123Y29.888
X51.123Y24.389
X55.324Y29.888
X55.324Y24.389
X59.522Y29.888
X59.522Y24.389
T7
X6.002Y31.900
X68.001Y11.900
T0
M30
