G04 (created by PCBNEW (2012-apr-16-27)-stable) date Fri 15 Nov 2013 10:07:34 GMT*
G01*
G70*
G90*
%MOIN*%
G04 Gerber Fmt 3.4, Leading zero omitted, Abs format*
%FSLAX34Y34*%
G04 APERTURE LIST*
%ADD10C,0.001000*%
%ADD11C,0.015000*%
%ADD12C,0.008000*%
G04 APERTURE END LIST*
G54D10*
G54D11*
X00394Y00748D02*
X28740Y00748D01*
X28347Y16496D02*
X28740Y16496D01*
X01181Y16496D02*
X00394Y16496D01*
X27953Y16496D02*
X28347Y16496D01*
X27953Y16496D02*
X27559Y16496D01*
X28740Y00749D02*
X28740Y16497D01*
X01181Y16496D02*
X27559Y16496D01*
X00394Y00747D02*
X00394Y16495D01*
G54D10*
X10273Y07234D02*
X10593Y06914D01*
X10593Y07234D02*
X10273Y06914D01*
X10273Y06234D02*
X10593Y05914D01*
X10593Y06234D02*
X10273Y05914D01*
X10273Y05203D02*
X10593Y04883D01*
X10593Y05203D02*
X10273Y04883D01*
X10273Y02203D02*
X10593Y01883D01*
X10593Y02203D02*
X10273Y01883D01*
X12478Y07195D02*
X12798Y06875D01*
X12798Y07195D02*
X12478Y06875D01*
X12478Y06195D02*
X12798Y05875D01*
X12798Y06195D02*
X12478Y05875D01*
X12478Y05203D02*
X12798Y04883D01*
X12798Y05203D02*
X12478Y04883D01*
X12478Y02203D02*
X12798Y01883D01*
X12798Y02203D02*
X12478Y01883D01*
X14752Y05472D02*
X14748Y05434D01*
X14736Y05396D01*
X14718Y05362D01*
X14693Y05332D01*
X14663Y05307D01*
X14629Y05288D01*
X14592Y05277D01*
X14553Y05273D01*
X14515Y05276D01*
X14478Y05287D01*
X14443Y05305D01*
X14413Y05330D01*
X14387Y05360D01*
X14369Y05394D01*
X14357Y05431D01*
X14353Y05470D01*
X14356Y05508D01*
X14367Y05545D01*
X14384Y05580D01*
X14409Y05610D01*
X14438Y05636D01*
X14472Y05655D01*
X14510Y05667D01*
X14548Y05671D01*
X14586Y05668D01*
X14624Y05658D01*
X14659Y05640D01*
X14689Y05616D01*
X14715Y05587D01*
X14734Y05553D01*
X14747Y05516D01*
X14751Y05477D01*
X14752Y05472D01*
X15752Y05472D02*
X15748Y05434D01*
X15736Y05396D01*
X15718Y05362D01*
X15693Y05332D01*
X15663Y05307D01*
X15629Y05288D01*
X15592Y05277D01*
X15553Y05273D01*
X15515Y05276D01*
X15478Y05287D01*
X15443Y05305D01*
X15413Y05330D01*
X15387Y05360D01*
X15369Y05394D01*
X15357Y05431D01*
X15353Y05470D01*
X15356Y05508D01*
X15367Y05545D01*
X15384Y05580D01*
X15409Y05610D01*
X15438Y05636D01*
X15472Y05655D01*
X15510Y05667D01*
X15548Y05671D01*
X15586Y05668D01*
X15624Y05658D01*
X15659Y05640D01*
X15689Y05616D01*
X15715Y05587D01*
X15734Y05553D01*
X15747Y05516D01*
X15751Y05477D01*
X15752Y05472D01*
X16752Y05472D02*
X16748Y05434D01*
X16736Y05396D01*
X16718Y05362D01*
X16693Y05332D01*
X16663Y05307D01*
X16629Y05288D01*
X16592Y05277D01*
X16553Y05273D01*
X16515Y05276D01*
X16478Y05287D01*
X16443Y05305D01*
X16413Y05330D01*
X16387Y05360D01*
X16369Y05394D01*
X16357Y05431D01*
X16353Y05470D01*
X16356Y05508D01*
X16367Y05545D01*
X16384Y05580D01*
X16409Y05610D01*
X16438Y05636D01*
X16472Y05655D01*
X16510Y05667D01*
X16548Y05671D01*
X16586Y05668D01*
X16624Y05658D01*
X16659Y05640D01*
X16689Y05616D01*
X16715Y05587D01*
X16734Y05553D01*
X16747Y05516D01*
X16751Y05477D01*
X16752Y05472D01*
X05240Y14659D02*
X05240Y14159D01*
X05490Y14409D02*
X04990Y14409D01*
X12240Y14659D02*
X12240Y14159D01*
X12490Y14409D02*
X11990Y14409D01*
X16382Y14738D02*
X16382Y14238D01*
X16632Y14488D02*
X16132Y14488D01*
X23382Y14738D02*
X23382Y14238D01*
X23632Y14488D02*
X23132Y14488D01*
X22165Y05196D02*
X22159Y05143D01*
X22144Y05092D01*
X22119Y05044D01*
X22085Y05003D01*
X22043Y04969D01*
X21996Y04943D01*
X21945Y04927D01*
X21891Y04922D01*
X21839Y04926D01*
X21787Y04942D01*
X21740Y04966D01*
X21698Y05000D01*
X21664Y05041D01*
X21638Y05088D01*
X21622Y05139D01*
X21616Y05193D01*
X21620Y05245D01*
X21635Y05297D01*
X21659Y05344D01*
X21693Y05387D01*
X21734Y05421D01*
X21780Y05447D01*
X21831Y05464D01*
X21885Y05470D01*
X21937Y05466D01*
X21989Y05452D01*
X22037Y05428D01*
X22079Y05395D01*
X22114Y05354D01*
X22141Y05307D01*
X22158Y05256D01*
X22164Y05203D01*
X22165Y05196D01*
X21615Y05471D02*
X22165Y04921D01*
X22165Y05471D02*
X21615Y04921D01*
X22165Y03031D02*
X22159Y02978D01*
X22144Y02927D01*
X22119Y02879D01*
X22085Y02838D01*
X22043Y02804D01*
X21996Y02778D01*
X21945Y02762D01*
X21891Y02757D01*
X21839Y02761D01*
X21787Y02777D01*
X21740Y02801D01*
X21698Y02835D01*
X21664Y02876D01*
X21638Y02923D01*
X21622Y02974D01*
X21616Y03028D01*
X21620Y03080D01*
X21635Y03132D01*
X21659Y03179D01*
X21693Y03222D01*
X21734Y03256D01*
X21780Y03282D01*
X21831Y03299D01*
X21885Y03305D01*
X21937Y03301D01*
X21989Y03287D01*
X22037Y03263D01*
X22079Y03230D01*
X22114Y03189D01*
X22141Y03142D01*
X22158Y03091D01*
X22164Y03038D01*
X22165Y03031D01*
X21615Y03306D02*
X22165Y02756D01*
X22165Y03306D02*
X21615Y02756D01*
X23819Y05196D02*
X23813Y05143D01*
X23798Y05092D01*
X23773Y05044D01*
X23739Y05003D01*
X23697Y04969D01*
X23650Y04943D01*
X23599Y04927D01*
X23545Y04922D01*
X23493Y04926D01*
X23441Y04942D01*
X23394Y04966D01*
X23352Y05000D01*
X23318Y05041D01*
X23292Y05088D01*
X23276Y05139D01*
X23270Y05193D01*
X23274Y05245D01*
X23289Y05297D01*
X23313Y05344D01*
X23347Y05387D01*
X23388Y05421D01*
X23434Y05447D01*
X23485Y05464D01*
X23539Y05470D01*
X23591Y05466D01*
X23643Y05452D01*
X23691Y05428D01*
X23733Y05395D01*
X23768Y05354D01*
X23795Y05307D01*
X23812Y05256D01*
X23818Y05203D01*
X23819Y05196D01*
X23269Y05471D02*
X23819Y04921D01*
X23819Y05471D02*
X23269Y04921D01*
X23819Y03031D02*
X23813Y02978D01*
X23798Y02927D01*
X23773Y02879D01*
X23739Y02838D01*
X23697Y02804D01*
X23650Y02778D01*
X23599Y02762D01*
X23545Y02757D01*
X23493Y02761D01*
X23441Y02777D01*
X23394Y02801D01*
X23352Y02835D01*
X23318Y02876D01*
X23292Y02923D01*
X23276Y02974D01*
X23270Y03028D01*
X23274Y03080D01*
X23289Y03132D01*
X23313Y03179D01*
X23347Y03222D01*
X23388Y03256D01*
X23434Y03282D01*
X23485Y03299D01*
X23539Y03305D01*
X23591Y03301D01*
X23643Y03287D01*
X23691Y03263D01*
X23733Y03230D01*
X23768Y03189D01*
X23795Y03142D01*
X23812Y03091D01*
X23818Y03038D01*
X23819Y03031D01*
X23269Y03306D02*
X23819Y02756D01*
X23819Y03306D02*
X23269Y02756D01*
X06398Y05767D02*
X06392Y05710D01*
X06375Y05655D01*
X06348Y05604D01*
X06312Y05560D01*
X06267Y05523D01*
X06217Y05496D01*
X06162Y05479D01*
X06105Y05473D01*
X06048Y05478D01*
X05993Y05494D01*
X05942Y05521D01*
X05897Y05557D01*
X05860Y05601D01*
X05832Y05651D01*
X05815Y05706D01*
X05809Y05763D01*
X05813Y05820D01*
X05829Y05875D01*
X05856Y05926D01*
X05891Y05971D01*
X05935Y06009D01*
X05985Y06037D01*
X06040Y06055D01*
X06097Y06061D01*
X06154Y06057D01*
X06209Y06042D01*
X06261Y06016D01*
X06306Y05980D01*
X06344Y05937D01*
X06372Y05886D01*
X06390Y05832D01*
X06397Y05775D01*
X06398Y05767D01*
X05808Y05767D02*
X06398Y05767D01*
X06398Y02815D02*
X06392Y02758D01*
X06375Y02703D01*
X06348Y02652D01*
X06312Y02608D01*
X06267Y02571D01*
X06217Y02544D01*
X06162Y02527D01*
X06105Y02521D01*
X06048Y02526D01*
X05993Y02542D01*
X05942Y02569D01*
X05897Y02605D01*
X05860Y02649D01*
X05832Y02699D01*
X05815Y02754D01*
X05809Y02811D01*
X05813Y02868D01*
X05829Y02923D01*
X05856Y02974D01*
X05891Y03019D01*
X05935Y03057D01*
X05985Y03085D01*
X06040Y03103D01*
X06097Y03109D01*
X06154Y03105D01*
X06209Y03090D01*
X06261Y03064D01*
X06306Y03028D01*
X06344Y02985D01*
X06372Y02934D01*
X06390Y02880D01*
X06397Y02823D01*
X06398Y02815D01*
X05808Y02815D02*
X06398Y02815D01*
X05600Y11767D02*
X05593Y11699D01*
X05573Y11633D01*
X05540Y11572D01*
X05497Y11518D01*
X05443Y11474D01*
X05383Y11441D01*
X05317Y11421D01*
X05248Y11414D01*
X05180Y11420D01*
X05114Y11439D01*
X05053Y11471D01*
X04999Y11515D01*
X04954Y11568D01*
X04921Y11628D01*
X04900Y11694D01*
X04893Y11763D01*
X04898Y11830D01*
X04917Y11897D01*
X04949Y11958D01*
X04992Y12012D01*
X05044Y12057D01*
X05105Y12091D01*
X05170Y12112D01*
X05239Y12120D01*
X05307Y12115D01*
X05374Y12097D01*
X05435Y12065D01*
X05490Y12023D01*
X05535Y11971D01*
X05569Y11910D01*
X05591Y11845D01*
X05599Y11776D01*
X05600Y11767D01*
X05246Y12121D02*
X05246Y11413D01*
X05600Y09602D02*
X05593Y09534D01*
X05573Y09468D01*
X05540Y09407D01*
X05497Y09353D01*
X05443Y09309D01*
X05383Y09276D01*
X05317Y09256D01*
X05248Y09249D01*
X05180Y09255D01*
X05114Y09274D01*
X05053Y09306D01*
X04999Y09350D01*
X04954Y09403D01*
X04921Y09463D01*
X04900Y09529D01*
X04893Y09598D01*
X04898Y09665D01*
X04917Y09732D01*
X04949Y09793D01*
X04992Y09847D01*
X05044Y09892D01*
X05105Y09926D01*
X05170Y09947D01*
X05239Y09955D01*
X05307Y09950D01*
X05374Y09932D01*
X05435Y09900D01*
X05490Y09858D01*
X05535Y09806D01*
X05569Y09745D01*
X05591Y09680D01*
X05599Y09611D01*
X05600Y09602D01*
X05246Y09956D02*
X05246Y09248D01*
X07254Y11767D02*
X07247Y11699D01*
X07227Y11633D01*
X07194Y11572D01*
X07151Y11518D01*
X07097Y11474D01*
X07037Y11441D01*
X06971Y11421D01*
X06902Y11414D01*
X06834Y11420D01*
X06768Y11439D01*
X06707Y11471D01*
X06653Y11515D01*
X06608Y11568D01*
X06575Y11628D01*
X06554Y11694D01*
X06547Y11763D01*
X06552Y11830D01*
X06571Y11897D01*
X06603Y11958D01*
X06646Y12012D01*
X06698Y12057D01*
X06759Y12091D01*
X06824Y12112D01*
X06893Y12120D01*
X06961Y12115D01*
X07028Y12097D01*
X07089Y12065D01*
X07144Y12023D01*
X07189Y11971D01*
X07223Y11910D01*
X07245Y11845D01*
X07253Y11776D01*
X07254Y11767D01*
X06900Y12121D02*
X06900Y11413D01*
X07254Y09602D02*
X07247Y09534D01*
X07227Y09468D01*
X07194Y09407D01*
X07151Y09353D01*
X07097Y09309D01*
X07037Y09276D01*
X06971Y09256D01*
X06902Y09249D01*
X06834Y09255D01*
X06768Y09274D01*
X06707Y09306D01*
X06653Y09350D01*
X06608Y09403D01*
X06575Y09463D01*
X06554Y09529D01*
X06547Y09598D01*
X06552Y09665D01*
X06571Y09732D01*
X06603Y09793D01*
X06646Y09847D01*
X06698Y09892D01*
X06759Y09926D01*
X06824Y09947D01*
X06893Y09955D01*
X06961Y09950D01*
X07028Y09932D01*
X07089Y09900D01*
X07144Y09858D01*
X07189Y09806D01*
X07223Y09745D01*
X07245Y09680D01*
X07253Y09611D01*
X07254Y09602D01*
X06900Y09956D02*
X06900Y09248D01*
X08908Y11767D02*
X08901Y11699D01*
X08881Y11633D01*
X08848Y11572D01*
X08805Y11518D01*
X08751Y11474D01*
X08691Y11441D01*
X08625Y11421D01*
X08556Y11414D01*
X08488Y11420D01*
X08422Y11439D01*
X08361Y11471D01*
X08307Y11515D01*
X08262Y11568D01*
X08229Y11628D01*
X08208Y11694D01*
X08201Y11763D01*
X08206Y11830D01*
X08225Y11897D01*
X08257Y11958D01*
X08300Y12012D01*
X08352Y12057D01*
X08413Y12091D01*
X08478Y12112D01*
X08547Y12120D01*
X08615Y12115D01*
X08682Y12097D01*
X08743Y12065D01*
X08798Y12023D01*
X08843Y11971D01*
X08877Y11910D01*
X08899Y11845D01*
X08907Y11776D01*
X08908Y11767D01*
X08554Y12121D02*
X08554Y11413D01*
X08908Y09602D02*
X08901Y09534D01*
X08881Y09468D01*
X08848Y09407D01*
X08805Y09353D01*
X08751Y09309D01*
X08691Y09276D01*
X08625Y09256D01*
X08556Y09249D01*
X08488Y09255D01*
X08422Y09274D01*
X08361Y09306D01*
X08307Y09350D01*
X08262Y09403D01*
X08229Y09463D01*
X08208Y09529D01*
X08201Y09598D01*
X08206Y09665D01*
X08225Y09732D01*
X08257Y09793D01*
X08300Y09847D01*
X08352Y09892D01*
X08413Y09926D01*
X08478Y09947D01*
X08547Y09955D01*
X08615Y09950D01*
X08682Y09932D01*
X08743Y09900D01*
X08798Y09858D01*
X08843Y09806D01*
X08877Y09745D01*
X08899Y09680D01*
X08907Y09611D01*
X08908Y09602D01*
X08554Y09956D02*
X08554Y09248D01*
X10561Y11767D02*
X10554Y11699D01*
X10534Y11633D01*
X10501Y11572D01*
X10458Y11518D01*
X10404Y11474D01*
X10344Y11441D01*
X10278Y11421D01*
X10209Y11414D01*
X10141Y11420D01*
X10075Y11439D01*
X10014Y11471D01*
X09960Y11515D01*
X09915Y11568D01*
X09882Y11628D01*
X09861Y11694D01*
X09854Y11763D01*
X09859Y11830D01*
X09878Y11897D01*
X09910Y11958D01*
X09953Y12012D01*
X10005Y12057D01*
X10066Y12091D01*
X10131Y12112D01*
X10200Y12120D01*
X10268Y12115D01*
X10335Y12097D01*
X10396Y12065D01*
X10451Y12023D01*
X10496Y11971D01*
X10530Y11910D01*
X10552Y11845D01*
X10560Y11776D01*
X10561Y11767D01*
X10207Y12121D02*
X10207Y11413D01*
X10561Y09602D02*
X10554Y09534D01*
X10534Y09468D01*
X10501Y09407D01*
X10458Y09353D01*
X10404Y09309D01*
X10344Y09276D01*
X10278Y09256D01*
X10209Y09249D01*
X10141Y09255D01*
X10075Y09274D01*
X10014Y09306D01*
X09960Y09350D01*
X09915Y09403D01*
X09882Y09463D01*
X09861Y09529D01*
X09854Y09598D01*
X09859Y09665D01*
X09878Y09732D01*
X09910Y09793D01*
X09953Y09847D01*
X10005Y09892D01*
X10066Y09926D01*
X10131Y09947D01*
X10200Y09955D01*
X10268Y09950D01*
X10335Y09932D01*
X10396Y09900D01*
X10451Y09858D01*
X10496Y09806D01*
X10530Y09745D01*
X10552Y09680D01*
X10560Y09611D01*
X10561Y09602D01*
X10207Y09956D02*
X10207Y09248D01*
X12215Y11767D02*
X12208Y11699D01*
X12188Y11633D01*
X12155Y11572D01*
X12112Y11518D01*
X12058Y11474D01*
X11998Y11441D01*
X11932Y11421D01*
X11863Y11414D01*
X11795Y11420D01*
X11729Y11439D01*
X11668Y11471D01*
X11614Y11515D01*
X11569Y11568D01*
X11536Y11628D01*
X11515Y11694D01*
X11508Y11763D01*
X11513Y11830D01*
X11532Y11897D01*
X11564Y11958D01*
X11607Y12012D01*
X11659Y12057D01*
X11720Y12091D01*
X11785Y12112D01*
X11854Y12120D01*
X11922Y12115D01*
X11989Y12097D01*
X12050Y12065D01*
X12105Y12023D01*
X12150Y11971D01*
X12184Y11910D01*
X12206Y11845D01*
X12214Y11776D01*
X12215Y11767D01*
X11861Y12121D02*
X11861Y11413D01*
X12215Y09602D02*
X12208Y09534D01*
X12188Y09468D01*
X12155Y09407D01*
X12112Y09353D01*
X12058Y09309D01*
X11998Y09276D01*
X11932Y09256D01*
X11863Y09249D01*
X11795Y09255D01*
X11729Y09274D01*
X11668Y09306D01*
X11614Y09350D01*
X11569Y09403D01*
X11536Y09463D01*
X11515Y09529D01*
X11508Y09598D01*
X11513Y09665D01*
X11532Y09732D01*
X11564Y09793D01*
X11607Y09847D01*
X11659Y09892D01*
X11720Y09926D01*
X11785Y09947D01*
X11854Y09955D01*
X11922Y09950D01*
X11989Y09932D01*
X12050Y09900D01*
X12105Y09858D01*
X12150Y09806D01*
X12184Y09745D01*
X12206Y09680D01*
X12214Y09611D01*
X12215Y09602D01*
X11861Y09956D02*
X11861Y09248D01*
X13868Y11767D02*
X13861Y11699D01*
X13841Y11633D01*
X13808Y11572D01*
X13765Y11518D01*
X13711Y11474D01*
X13651Y11441D01*
X13585Y11421D01*
X13516Y11414D01*
X13448Y11420D01*
X13382Y11439D01*
X13321Y11471D01*
X13267Y11515D01*
X13222Y11568D01*
X13189Y11628D01*
X13168Y11694D01*
X13161Y11763D01*
X13166Y11830D01*
X13185Y11897D01*
X13217Y11958D01*
X13260Y12012D01*
X13312Y12057D01*
X13373Y12091D01*
X13438Y12112D01*
X13507Y12120D01*
X13575Y12115D01*
X13642Y12097D01*
X13703Y12065D01*
X13758Y12023D01*
X13803Y11971D01*
X13837Y11910D01*
X13859Y11845D01*
X13867Y11776D01*
X13868Y11767D01*
X13514Y12121D02*
X13514Y11413D01*
X13868Y09602D02*
X13861Y09534D01*
X13841Y09468D01*
X13808Y09407D01*
X13765Y09353D01*
X13711Y09309D01*
X13651Y09276D01*
X13585Y09256D01*
X13516Y09249D01*
X13448Y09255D01*
X13382Y09274D01*
X13321Y09306D01*
X13267Y09350D01*
X13222Y09403D01*
X13189Y09463D01*
X13168Y09529D01*
X13161Y09598D01*
X13166Y09665D01*
X13185Y09732D01*
X13217Y09793D01*
X13260Y09847D01*
X13312Y09892D01*
X13373Y09926D01*
X13438Y09947D01*
X13507Y09955D01*
X13575Y09950D01*
X13642Y09932D01*
X13703Y09900D01*
X13758Y09858D01*
X13803Y09806D01*
X13837Y09745D01*
X13859Y09680D01*
X13867Y09611D01*
X13868Y09602D01*
X13514Y09956D02*
X13514Y09248D01*
X15521Y11767D02*
X15514Y11699D01*
X15494Y11633D01*
X15461Y11572D01*
X15418Y11518D01*
X15364Y11474D01*
X15304Y11441D01*
X15238Y11421D01*
X15169Y11414D01*
X15101Y11420D01*
X15035Y11439D01*
X14974Y11471D01*
X14920Y11515D01*
X14875Y11568D01*
X14842Y11628D01*
X14821Y11694D01*
X14814Y11763D01*
X14819Y11830D01*
X14838Y11897D01*
X14870Y11958D01*
X14913Y12012D01*
X14965Y12057D01*
X15026Y12091D01*
X15091Y12112D01*
X15160Y12120D01*
X15228Y12115D01*
X15295Y12097D01*
X15356Y12065D01*
X15411Y12023D01*
X15456Y11971D01*
X15490Y11910D01*
X15512Y11845D01*
X15520Y11776D01*
X15521Y11767D01*
X15167Y12121D02*
X15167Y11413D01*
X15521Y09602D02*
X15514Y09534D01*
X15494Y09468D01*
X15461Y09407D01*
X15418Y09353D01*
X15364Y09309D01*
X15304Y09276D01*
X15238Y09256D01*
X15169Y09249D01*
X15101Y09255D01*
X15035Y09274D01*
X14974Y09306D01*
X14920Y09350D01*
X14875Y09403D01*
X14842Y09463D01*
X14821Y09529D01*
X14814Y09598D01*
X14819Y09665D01*
X14838Y09732D01*
X14870Y09793D01*
X14913Y09847D01*
X14965Y09892D01*
X15026Y09926D01*
X15091Y09947D01*
X15160Y09955D01*
X15228Y09950D01*
X15295Y09932D01*
X15356Y09900D01*
X15411Y09858D01*
X15456Y09806D01*
X15490Y09745D01*
X15512Y09680D01*
X15520Y09611D01*
X15521Y09602D01*
X15167Y09956D02*
X15167Y09248D01*
X17174Y11767D02*
X17167Y11699D01*
X17147Y11633D01*
X17114Y11572D01*
X17071Y11518D01*
X17017Y11474D01*
X16957Y11441D01*
X16891Y11421D01*
X16822Y11414D01*
X16754Y11420D01*
X16688Y11439D01*
X16627Y11471D01*
X16573Y11515D01*
X16528Y11568D01*
X16495Y11628D01*
X16474Y11694D01*
X16467Y11763D01*
X16472Y11830D01*
X16491Y11897D01*
X16523Y11958D01*
X16566Y12012D01*
X16618Y12057D01*
X16679Y12091D01*
X16744Y12112D01*
X16813Y12120D01*
X16881Y12115D01*
X16948Y12097D01*
X17009Y12065D01*
X17064Y12023D01*
X17109Y11971D01*
X17143Y11910D01*
X17165Y11845D01*
X17173Y11776D01*
X17174Y11767D01*
X16820Y12121D02*
X16820Y11413D01*
X17174Y09602D02*
X17167Y09534D01*
X17147Y09468D01*
X17114Y09407D01*
X17071Y09353D01*
X17017Y09309D01*
X16957Y09276D01*
X16891Y09256D01*
X16822Y09249D01*
X16754Y09255D01*
X16688Y09274D01*
X16627Y09306D01*
X16573Y09350D01*
X16528Y09403D01*
X16495Y09463D01*
X16474Y09529D01*
X16467Y09598D01*
X16472Y09665D01*
X16491Y09732D01*
X16523Y09793D01*
X16566Y09847D01*
X16618Y09892D01*
X16679Y09926D01*
X16744Y09947D01*
X16813Y09955D01*
X16881Y09950D01*
X16948Y09932D01*
X17009Y09900D01*
X17064Y09858D01*
X17109Y09806D01*
X17143Y09745D01*
X17165Y09680D01*
X17173Y09611D01*
X17174Y09602D01*
X16820Y09956D02*
X16820Y09248D01*
X18828Y11767D02*
X18821Y11699D01*
X18801Y11633D01*
X18768Y11572D01*
X18725Y11518D01*
X18671Y11474D01*
X18611Y11441D01*
X18545Y11421D01*
X18476Y11414D01*
X18408Y11420D01*
X18342Y11439D01*
X18281Y11471D01*
X18227Y11515D01*
X18182Y11568D01*
X18149Y11628D01*
X18128Y11694D01*
X18121Y11763D01*
X18126Y11830D01*
X18145Y11897D01*
X18177Y11958D01*
X18220Y12012D01*
X18272Y12057D01*
X18333Y12091D01*
X18398Y12112D01*
X18467Y12120D01*
X18535Y12115D01*
X18602Y12097D01*
X18663Y12065D01*
X18718Y12023D01*
X18763Y11971D01*
X18797Y11910D01*
X18819Y11845D01*
X18827Y11776D01*
X18828Y11767D01*
X18474Y12121D02*
X18474Y11413D01*
X18828Y09602D02*
X18821Y09534D01*
X18801Y09468D01*
X18768Y09407D01*
X18725Y09353D01*
X18671Y09309D01*
X18611Y09276D01*
X18545Y09256D01*
X18476Y09249D01*
X18408Y09255D01*
X18342Y09274D01*
X18281Y09306D01*
X18227Y09350D01*
X18182Y09403D01*
X18149Y09463D01*
X18128Y09529D01*
X18121Y09598D01*
X18126Y09665D01*
X18145Y09732D01*
X18177Y09793D01*
X18220Y09847D01*
X18272Y09892D01*
X18333Y09926D01*
X18398Y09947D01*
X18467Y09955D01*
X18535Y09950D01*
X18602Y09932D01*
X18663Y09900D01*
X18718Y09858D01*
X18763Y09806D01*
X18797Y09745D01*
X18819Y09680D01*
X18827Y09611D01*
X18828Y09602D01*
X18474Y09956D02*
X18474Y09248D01*
X20481Y11767D02*
X20474Y11699D01*
X20454Y11633D01*
X20421Y11572D01*
X20378Y11518D01*
X20324Y11474D01*
X20264Y11441D01*
X20198Y11421D01*
X20129Y11414D01*
X20061Y11420D01*
X19995Y11439D01*
X19934Y11471D01*
X19880Y11515D01*
X19835Y11568D01*
X19802Y11628D01*
X19781Y11694D01*
X19774Y11763D01*
X19779Y11830D01*
X19798Y11897D01*
X19830Y11958D01*
X19873Y12012D01*
X19925Y12057D01*
X19986Y12091D01*
X20051Y12112D01*
X20120Y12120D01*
X20188Y12115D01*
X20255Y12097D01*
X20316Y12065D01*
X20371Y12023D01*
X20416Y11971D01*
X20450Y11910D01*
X20472Y11845D01*
X20480Y11776D01*
X20481Y11767D01*
X20127Y12121D02*
X20127Y11413D01*
X20481Y09602D02*
X20474Y09534D01*
X20454Y09468D01*
X20421Y09407D01*
X20378Y09353D01*
X20324Y09309D01*
X20264Y09276D01*
X20198Y09256D01*
X20129Y09249D01*
X20061Y09255D01*
X19995Y09274D01*
X19934Y09306D01*
X19880Y09350D01*
X19835Y09403D01*
X19802Y09463D01*
X19781Y09529D01*
X19774Y09598D01*
X19779Y09665D01*
X19798Y09732D01*
X19830Y09793D01*
X19873Y09847D01*
X19925Y09892D01*
X19986Y09926D01*
X20051Y09947D01*
X20120Y09955D01*
X20188Y09950D01*
X20255Y09932D01*
X20316Y09900D01*
X20371Y09858D01*
X20416Y09806D01*
X20450Y09745D01*
X20472Y09680D01*
X20480Y09611D01*
X20481Y09602D01*
X20127Y09956D02*
X20127Y09248D01*
X22135Y11767D02*
X22128Y11699D01*
X22108Y11633D01*
X22075Y11572D01*
X22032Y11518D01*
X21978Y11474D01*
X21918Y11441D01*
X21852Y11421D01*
X21783Y11414D01*
X21715Y11420D01*
X21649Y11439D01*
X21588Y11471D01*
X21534Y11515D01*
X21489Y11568D01*
X21456Y11628D01*
X21435Y11694D01*
X21428Y11763D01*
X21433Y11830D01*
X21452Y11897D01*
X21484Y11958D01*
X21527Y12012D01*
X21579Y12057D01*
X21640Y12091D01*
X21705Y12112D01*
X21774Y12120D01*
X21842Y12115D01*
X21909Y12097D01*
X21970Y12065D01*
X22025Y12023D01*
X22070Y11971D01*
X22104Y11910D01*
X22126Y11845D01*
X22134Y11776D01*
X22135Y11767D01*
X21781Y12121D02*
X21781Y11413D01*
X22135Y09602D02*
X22128Y09534D01*
X22108Y09468D01*
X22075Y09407D01*
X22032Y09353D01*
X21978Y09309D01*
X21918Y09276D01*
X21852Y09256D01*
X21783Y09249D01*
X21715Y09255D01*
X21649Y09274D01*
X21588Y09306D01*
X21534Y09350D01*
X21489Y09403D01*
X21456Y09463D01*
X21435Y09529D01*
X21428Y09598D01*
X21433Y09665D01*
X21452Y09732D01*
X21484Y09793D01*
X21527Y09847D01*
X21579Y09892D01*
X21640Y09926D01*
X21705Y09947D01*
X21774Y09955D01*
X21842Y09950D01*
X21909Y09932D01*
X21970Y09900D01*
X22025Y09858D01*
X22070Y09806D01*
X22104Y09745D01*
X22126Y09680D01*
X22134Y09611D01*
X22135Y09602D01*
X21781Y09956D02*
X21781Y09248D01*
X23788Y11767D02*
X23781Y11699D01*
X23761Y11633D01*
X23728Y11572D01*
X23685Y11518D01*
X23631Y11474D01*
X23571Y11441D01*
X23505Y11421D01*
X23436Y11414D01*
X23368Y11420D01*
X23302Y11439D01*
X23241Y11471D01*
X23187Y11515D01*
X23142Y11568D01*
X23109Y11628D01*
X23088Y11694D01*
X23081Y11763D01*
X23086Y11830D01*
X23105Y11897D01*
X23137Y11958D01*
X23180Y12012D01*
X23232Y12057D01*
X23293Y12091D01*
X23358Y12112D01*
X23427Y12120D01*
X23495Y12115D01*
X23562Y12097D01*
X23623Y12065D01*
X23678Y12023D01*
X23723Y11971D01*
X23757Y11910D01*
X23779Y11845D01*
X23787Y11776D01*
X23788Y11767D01*
X23434Y12121D02*
X23434Y11413D01*
X23788Y09602D02*
X23781Y09534D01*
X23761Y09468D01*
X23728Y09407D01*
X23685Y09353D01*
X23631Y09309D01*
X23571Y09276D01*
X23505Y09256D01*
X23436Y09249D01*
X23368Y09255D01*
X23302Y09274D01*
X23241Y09306D01*
X23187Y09350D01*
X23142Y09403D01*
X23109Y09463D01*
X23088Y09529D01*
X23081Y09598D01*
X23086Y09665D01*
X23105Y09732D01*
X23137Y09793D01*
X23180Y09847D01*
X23232Y09892D01*
X23293Y09926D01*
X23358Y09947D01*
X23427Y09955D01*
X23495Y09950D01*
X23562Y09932D01*
X23623Y09900D01*
X23678Y09858D01*
X23723Y09806D01*
X23757Y09745D01*
X23779Y09680D01*
X23787Y09611D01*
X23788Y09602D01*
X23434Y09956D02*
X23434Y09248D01*
X02948Y11974D02*
X02948Y13144D01*
X01778Y13144D01*
X01778Y11974D01*
X02948Y11974D01*
X27357Y04100D02*
X27357Y05270D01*
X26187Y05270D01*
X26187Y04100D01*
X27357Y04100D01*
G54D12*
X00633Y-00608D02*
X00633Y00192D01*
X00824Y00192D01*
X00938Y00154D01*
X01014Y00078D01*
X01053Y00002D01*
X01091Y-00151D01*
X01091Y-00265D01*
X01053Y-00417D01*
X01014Y-00494D01*
X00938Y-00570D01*
X00824Y-00608D01*
X00633Y-00608D01*
X01433Y-00608D02*
X01433Y-00074D01*
X01433Y-00227D02*
X01472Y-00151D01*
X01510Y-00113D01*
X01586Y-00074D01*
X01662Y-00074D01*
X01928Y-00608D02*
X01928Y-00074D01*
X01928Y00192D02*
X01890Y00154D01*
X01928Y00116D01*
X01967Y00154D01*
X01928Y00192D01*
X01928Y00116D01*
X02424Y-00608D02*
X02348Y-00570D01*
X02309Y-00494D01*
X02309Y00192D01*
X02843Y-00608D02*
X02767Y-00570D01*
X02728Y-00494D01*
X02728Y00192D01*
X03757Y-00608D02*
X03757Y00192D01*
X04024Y-00379D01*
X04291Y00192D01*
X04291Y-00608D01*
X05014Y-00608D02*
X05014Y-00189D01*
X04976Y-00113D01*
X04900Y-00074D01*
X04748Y-00074D01*
X04671Y-00113D01*
X05014Y-00570D02*
X04938Y-00608D01*
X04748Y-00608D01*
X04671Y-00570D01*
X04633Y-00494D01*
X04633Y-00417D01*
X04671Y-00341D01*
X04748Y-00303D01*
X04938Y-00303D01*
X05014Y-00265D01*
X05395Y-00074D02*
X05395Y-00874D01*
X05395Y-00113D02*
X05472Y-00074D01*
X05624Y-00074D01*
X05700Y-00113D01*
X05738Y-00151D01*
X05776Y-00227D01*
X05776Y-00455D01*
X05738Y-00532D01*
X05700Y-00570D01*
X05624Y-00608D01*
X05472Y-00608D01*
X05395Y-00570D01*
X06119Y-00532D02*
X06158Y-00570D01*
X06119Y-00608D01*
X06081Y-00570D01*
X06119Y-00532D01*
X06119Y-00608D01*
X06119Y-00113D02*
X06158Y-00151D01*
X06119Y-00189D01*
X06081Y-00151D01*
X06119Y-00113D01*
X06119Y-00189D01*
X-00077Y-01804D02*
X00243Y-02124D01*
X00243Y-01804D02*
X-00077Y-02124D01*
X00786Y-01488D02*
X00862Y-01488D01*
X00938Y-01526D01*
X00976Y-01564D01*
X01014Y-01640D01*
X01053Y-01793D01*
X01053Y-01983D01*
X01014Y-02135D01*
X00976Y-02212D01*
X00938Y-02250D01*
X00862Y-02288D01*
X00786Y-02288D01*
X00710Y-02250D01*
X00672Y-02212D01*
X00633Y-02135D01*
X00595Y-01983D01*
X00595Y-01793D01*
X00633Y-01640D01*
X00672Y-01564D01*
X00710Y-01526D01*
X00786Y-01488D01*
X01395Y-02212D02*
X01434Y-02250D01*
X01395Y-02288D01*
X01357Y-02250D01*
X01395Y-02212D01*
X01395Y-02288D01*
X01891Y-01831D02*
X01815Y-01793D01*
X01776Y-01754D01*
X01738Y-01678D01*
X01738Y-01640D01*
X01776Y-01564D01*
X01815Y-01526D01*
X01891Y-01488D01*
X02043Y-01488D01*
X02119Y-01526D01*
X02157Y-01564D01*
X02196Y-01640D01*
X02196Y-01678D01*
X02157Y-01754D01*
X02119Y-01793D01*
X02043Y-01831D01*
X01891Y-01831D01*
X01815Y-01869D01*
X01776Y-01907D01*
X01738Y-01983D01*
X01738Y-02135D01*
X01776Y-02212D01*
X01815Y-02250D01*
X01891Y-02288D01*
X02043Y-02288D01*
X02119Y-02250D01*
X02157Y-02212D01*
X02196Y-02135D01*
X02196Y-01983D01*
X02157Y-01907D01*
X02119Y-01869D01*
X02043Y-01831D01*
X02958Y-02288D02*
X02500Y-02288D01*
X02729Y-02288D02*
X02729Y-01488D01*
X02653Y-01602D01*
X02577Y-01678D01*
X02500Y-01716D01*
X03300Y-02288D02*
X03300Y-01754D01*
X03300Y-01831D02*
X03339Y-01793D01*
X03415Y-01754D01*
X03529Y-01754D01*
X03605Y-01793D01*
X03643Y-01869D01*
X03643Y-02288D01*
X03643Y-01869D02*
X03681Y-01793D01*
X03758Y-01754D01*
X03872Y-01754D01*
X03948Y-01793D01*
X03986Y-01869D01*
X03986Y-02288D01*
X04367Y-02288D02*
X04367Y-01754D01*
X04367Y-01831D02*
X04406Y-01793D01*
X04482Y-01754D01*
X04596Y-01754D01*
X04672Y-01793D01*
X04710Y-01869D01*
X04710Y-02288D01*
X04710Y-01869D02*
X04748Y-01793D01*
X04825Y-01754D01*
X04939Y-01754D01*
X05015Y-01793D01*
X05053Y-01869D01*
X05053Y-02288D01*
X06616Y-01450D02*
X05930Y-02478D01*
X07645Y-01488D02*
X07721Y-01488D01*
X07797Y-01526D01*
X07835Y-01564D01*
X07873Y-01640D01*
X07912Y-01793D01*
X07912Y-01983D01*
X07873Y-02135D01*
X07835Y-02212D01*
X07797Y-02250D01*
X07721Y-02288D01*
X07645Y-02288D01*
X07569Y-02250D01*
X07531Y-02212D01*
X07492Y-02135D01*
X07454Y-01983D01*
X07454Y-01793D01*
X07492Y-01640D01*
X07531Y-01564D01*
X07569Y-01526D01*
X07645Y-01488D01*
X08254Y-02212D02*
X08293Y-02250D01*
X08254Y-02288D01*
X08216Y-02250D01*
X08254Y-02212D01*
X08254Y-02288D01*
X08788Y-01488D02*
X08864Y-01488D01*
X08940Y-01526D01*
X08978Y-01564D01*
X09016Y-01640D01*
X09055Y-01793D01*
X09055Y-01983D01*
X09016Y-02135D01*
X08978Y-02212D01*
X08940Y-02250D01*
X08864Y-02288D01*
X08788Y-02288D01*
X08712Y-02250D01*
X08674Y-02212D01*
X08635Y-02135D01*
X08597Y-01983D01*
X08597Y-01793D01*
X08635Y-01640D01*
X08674Y-01564D01*
X08712Y-01526D01*
X08788Y-01488D01*
X09321Y-01488D02*
X09817Y-01488D01*
X09550Y-01793D01*
X09664Y-01793D01*
X09740Y-01831D01*
X09778Y-01869D01*
X09817Y-01945D01*
X09817Y-02135D01*
X09778Y-02212D01*
X09740Y-02250D01*
X09664Y-02288D01*
X09436Y-02288D01*
X09359Y-02250D01*
X09321Y-02212D01*
X10121Y-01564D02*
X10159Y-01526D01*
X10236Y-01488D01*
X10426Y-01488D01*
X10502Y-01526D01*
X10540Y-01564D01*
X10579Y-01640D01*
X10579Y-01716D01*
X10540Y-01831D01*
X10083Y-02288D01*
X10579Y-02288D01*
X10883Y-01488D02*
X10883Y-01640D01*
X11188Y-01488D02*
X11188Y-01640D01*
X12370Y-02593D02*
X12332Y-02554D01*
X12256Y-02440D01*
X12218Y-02364D01*
X12180Y-02250D01*
X12141Y-02059D01*
X12141Y-01907D01*
X12180Y-01716D01*
X12218Y-01602D01*
X12256Y-01526D01*
X12332Y-01412D01*
X12370Y-01374D01*
X12789Y-01831D02*
X12713Y-01793D01*
X12674Y-01754D01*
X12636Y-01678D01*
X12636Y-01640D01*
X12674Y-01564D01*
X12713Y-01526D01*
X12789Y-01488D01*
X12941Y-01488D01*
X13017Y-01526D01*
X13055Y-01564D01*
X13094Y-01640D01*
X13094Y-01678D01*
X13055Y-01754D01*
X13017Y-01793D01*
X12941Y-01831D01*
X12789Y-01831D01*
X12713Y-01869D01*
X12674Y-01907D01*
X12636Y-01983D01*
X12636Y-02135D01*
X12674Y-02212D01*
X12713Y-02250D01*
X12789Y-02288D01*
X12941Y-02288D01*
X13017Y-02250D01*
X13055Y-02212D01*
X13094Y-02135D01*
X13094Y-01983D01*
X13055Y-01907D01*
X13017Y-01869D01*
X12941Y-01831D01*
X14046Y-02288D02*
X14046Y-01488D01*
X14389Y-02288D02*
X14389Y-01869D01*
X14351Y-01793D01*
X14275Y-01754D01*
X14161Y-01754D01*
X14085Y-01793D01*
X14046Y-01831D01*
X14885Y-02288D02*
X14809Y-02250D01*
X14770Y-02212D01*
X14732Y-02135D01*
X14732Y-01907D01*
X14770Y-01831D01*
X14809Y-01793D01*
X14885Y-01754D01*
X14999Y-01754D01*
X15075Y-01793D01*
X15113Y-01831D01*
X15151Y-01907D01*
X15151Y-02135D01*
X15113Y-02212D01*
X15075Y-02250D01*
X14999Y-02288D01*
X14885Y-02288D01*
X15609Y-02288D02*
X15533Y-02250D01*
X15494Y-02174D01*
X15494Y-01488D01*
X16218Y-02250D02*
X16142Y-02288D01*
X15990Y-02288D01*
X15913Y-02250D01*
X15875Y-02174D01*
X15875Y-01869D01*
X15913Y-01793D01*
X15990Y-01754D01*
X16142Y-01754D01*
X16218Y-01793D01*
X16256Y-01869D01*
X16256Y-01945D01*
X15875Y-02021D01*
X16561Y-02250D02*
X16638Y-02288D01*
X16790Y-02288D01*
X16866Y-02250D01*
X16904Y-02174D01*
X16904Y-02135D01*
X16866Y-02059D01*
X16790Y-02021D01*
X16676Y-02021D01*
X16599Y-01983D01*
X16561Y-01907D01*
X16561Y-01869D01*
X16599Y-01793D01*
X16676Y-01754D01*
X16790Y-01754D01*
X16866Y-01793D01*
X17171Y-02593D02*
X17209Y-02554D01*
X17286Y-02440D01*
X17324Y-02364D01*
X17362Y-02250D01*
X17400Y-02059D01*
X17400Y-01907D01*
X17362Y-01716D01*
X17324Y-01602D01*
X17286Y-01526D01*
X17209Y-01412D01*
X17171Y-01374D01*
G54D10*
X00243Y-03020D02*
X00239Y-03058D01*
X00227Y-03096D01*
X00209Y-03130D01*
X00184Y-03160D01*
X00154Y-03185D01*
X00120Y-03204D01*
X00083Y-03215D01*
X00044Y-03219D01*
X00006Y-03216D01*
X-00031Y-03205D01*
X-00066Y-03187D01*
X-00096Y-03162D01*
X-00122Y-03132D01*
X-00140Y-03098D01*
X-00152Y-03061D01*
X-00156Y-03022D01*
X-00153Y-02984D01*
X-00142Y-02947D01*
X-00125Y-02912D01*
X-00100Y-02882D01*
X-00071Y-02856D01*
X-00037Y-02837D01*
X00001Y-02825D01*
X00039Y-02821D01*
X00077Y-02824D01*
X00115Y-02834D01*
X00150Y-02852D01*
X00180Y-02876D01*
X00206Y-02905D01*
X00225Y-02939D01*
X00238Y-02976D01*
X00242Y-03015D01*
X00243Y-03020D01*
G54D12*
X01053Y-03344D02*
X00595Y-03344D01*
X00824Y-03344D02*
X00824Y-02544D01*
X00748Y-02658D01*
X00672Y-02734D01*
X00595Y-02772D01*
X01395Y-03268D02*
X01434Y-03306D01*
X01395Y-03344D01*
X01357Y-03306D01*
X01395Y-03268D01*
X01395Y-03344D01*
X01929Y-02544D02*
X02005Y-02544D01*
X02081Y-02582D01*
X02119Y-02620D01*
X02157Y-02696D01*
X02196Y-02849D01*
X02196Y-03039D01*
X02157Y-03191D01*
X02119Y-03268D01*
X02081Y-03306D01*
X02005Y-03344D01*
X01929Y-03344D01*
X01853Y-03306D01*
X01815Y-03268D01*
X01776Y-03191D01*
X01738Y-03039D01*
X01738Y-02849D01*
X01776Y-02696D01*
X01815Y-02620D01*
X01853Y-02582D01*
X01929Y-02544D01*
X02500Y-02620D02*
X02538Y-02582D01*
X02615Y-02544D01*
X02805Y-02544D01*
X02881Y-02582D01*
X02919Y-02620D01*
X02958Y-02696D01*
X02958Y-02772D01*
X02919Y-02887D01*
X02462Y-03344D01*
X02958Y-03344D01*
X03300Y-03344D02*
X03300Y-02810D01*
X03300Y-02887D02*
X03339Y-02849D01*
X03415Y-02810D01*
X03529Y-02810D01*
X03605Y-02849D01*
X03643Y-02925D01*
X03643Y-03344D01*
X03643Y-02925D02*
X03681Y-02849D01*
X03758Y-02810D01*
X03872Y-02810D01*
X03948Y-02849D01*
X03986Y-02925D01*
X03986Y-03344D01*
X04367Y-03344D02*
X04367Y-02810D01*
X04367Y-02887D02*
X04406Y-02849D01*
X04482Y-02810D01*
X04596Y-02810D01*
X04672Y-02849D01*
X04710Y-02925D01*
X04710Y-03344D01*
X04710Y-02925D02*
X04748Y-02849D01*
X04825Y-02810D01*
X04939Y-02810D01*
X05015Y-02849D01*
X05053Y-02925D01*
X05053Y-03344D01*
X06616Y-02506D02*
X05930Y-03534D01*
X07645Y-02544D02*
X07721Y-02544D01*
X07797Y-02582D01*
X07835Y-02620D01*
X07873Y-02696D01*
X07912Y-02849D01*
X07912Y-03039D01*
X07873Y-03191D01*
X07835Y-03268D01*
X07797Y-03306D01*
X07721Y-03344D01*
X07645Y-03344D01*
X07569Y-03306D01*
X07531Y-03268D01*
X07492Y-03191D01*
X07454Y-03039D01*
X07454Y-02849D01*
X07492Y-02696D01*
X07531Y-02620D01*
X07569Y-02582D01*
X07645Y-02544D01*
X08254Y-03268D02*
X08293Y-03306D01*
X08254Y-03344D01*
X08216Y-03306D01*
X08254Y-03268D01*
X08254Y-03344D01*
X08788Y-02544D02*
X08864Y-02544D01*
X08940Y-02582D01*
X08978Y-02620D01*
X09016Y-02696D01*
X09055Y-02849D01*
X09055Y-03039D01*
X09016Y-03191D01*
X08978Y-03268D01*
X08940Y-03306D01*
X08864Y-03344D01*
X08788Y-03344D01*
X08712Y-03306D01*
X08674Y-03268D01*
X08635Y-03191D01*
X08597Y-03039D01*
X08597Y-02849D01*
X08635Y-02696D01*
X08674Y-02620D01*
X08712Y-02582D01*
X08788Y-02544D01*
X09740Y-02810D02*
X09740Y-03344D01*
X09550Y-02506D02*
X09359Y-03077D01*
X09855Y-03077D01*
X10312Y-02544D02*
X10388Y-02544D01*
X10464Y-02582D01*
X10502Y-02620D01*
X10540Y-02696D01*
X10579Y-02849D01*
X10579Y-03039D01*
X10540Y-03191D01*
X10502Y-03268D01*
X10464Y-03306D01*
X10388Y-03344D01*
X10312Y-03344D01*
X10236Y-03306D01*
X10198Y-03268D01*
X10159Y-03191D01*
X10121Y-03039D01*
X10121Y-02849D01*
X10159Y-02696D01*
X10198Y-02620D01*
X10236Y-02582D01*
X10312Y-02544D01*
X10883Y-02544D02*
X10883Y-02696D01*
X11188Y-02544D02*
X11188Y-02696D01*
X12370Y-03649D02*
X12332Y-03610D01*
X12256Y-03496D01*
X12218Y-03420D01*
X12180Y-03306D01*
X12141Y-03115D01*
X12141Y-02963D01*
X12180Y-02772D01*
X12218Y-02658D01*
X12256Y-02582D01*
X12332Y-02468D01*
X12370Y-02430D01*
X12598Y-02544D02*
X13094Y-02544D01*
X12827Y-02849D01*
X12941Y-02849D01*
X13017Y-02887D01*
X13055Y-02925D01*
X13094Y-03001D01*
X13094Y-03191D01*
X13055Y-03268D01*
X13017Y-03306D01*
X12941Y-03344D01*
X12713Y-03344D01*
X12636Y-03306D01*
X12598Y-03268D01*
X14046Y-03344D02*
X14046Y-02544D01*
X14389Y-03344D02*
X14389Y-02925D01*
X14351Y-02849D01*
X14275Y-02810D01*
X14161Y-02810D01*
X14085Y-02849D01*
X14046Y-02887D01*
X14885Y-03344D02*
X14809Y-03306D01*
X14770Y-03268D01*
X14732Y-03191D01*
X14732Y-02963D01*
X14770Y-02887D01*
X14809Y-02849D01*
X14885Y-02810D01*
X14999Y-02810D01*
X15075Y-02849D01*
X15113Y-02887D01*
X15151Y-02963D01*
X15151Y-03191D01*
X15113Y-03268D01*
X15075Y-03306D01*
X14999Y-03344D01*
X14885Y-03344D01*
X15609Y-03344D02*
X15533Y-03306D01*
X15494Y-03230D01*
X15494Y-02544D01*
X16218Y-03306D02*
X16142Y-03344D01*
X15990Y-03344D01*
X15913Y-03306D01*
X15875Y-03230D01*
X15875Y-02925D01*
X15913Y-02849D01*
X15990Y-02810D01*
X16142Y-02810D01*
X16218Y-02849D01*
X16256Y-02925D01*
X16256Y-03001D01*
X15875Y-03077D01*
X16561Y-03306D02*
X16638Y-03344D01*
X16790Y-03344D01*
X16866Y-03306D01*
X16904Y-03230D01*
X16904Y-03191D01*
X16866Y-03115D01*
X16790Y-03077D01*
X16676Y-03077D01*
X16599Y-03039D01*
X16561Y-02963D01*
X16561Y-02925D01*
X16599Y-02849D01*
X16676Y-02810D01*
X16790Y-02810D01*
X16866Y-02849D01*
X17171Y-03649D02*
X17209Y-03610D01*
X17286Y-03496D01*
X17324Y-03420D01*
X17362Y-03306D01*
X17400Y-03115D01*
X17400Y-02963D01*
X17362Y-02772D01*
X17324Y-02658D01*
X17286Y-02582D01*
X17209Y-02468D01*
X17171Y-02430D01*
X-00007Y-03826D02*
X-00007Y-04326D01*
X00243Y-04076D02*
X-00257Y-04076D01*
X01053Y-04400D02*
X00595Y-04400D01*
X00824Y-04400D02*
X00824Y-03600D01*
X00748Y-03714D01*
X00672Y-03790D01*
X00595Y-03828D01*
X01395Y-04324D02*
X01434Y-04362D01*
X01395Y-04400D01*
X01357Y-04362D01*
X01395Y-04324D01*
X01395Y-04400D01*
X01738Y-03676D02*
X01776Y-03638D01*
X01853Y-03600D01*
X02043Y-03600D01*
X02119Y-03638D01*
X02157Y-03676D01*
X02196Y-03752D01*
X02196Y-03828D01*
X02157Y-03943D01*
X01700Y-04400D01*
X02196Y-04400D01*
X02462Y-03600D02*
X02996Y-03600D01*
X02653Y-04400D01*
X03300Y-04400D02*
X03300Y-03866D01*
X03300Y-03943D02*
X03339Y-03905D01*
X03415Y-03866D01*
X03529Y-03866D01*
X03605Y-03905D01*
X03643Y-03981D01*
X03643Y-04400D01*
X03643Y-03981D02*
X03681Y-03905D01*
X03758Y-03866D01*
X03872Y-03866D01*
X03948Y-03905D01*
X03986Y-03981D01*
X03986Y-04400D01*
X04367Y-04400D02*
X04367Y-03866D01*
X04367Y-03943D02*
X04406Y-03905D01*
X04482Y-03866D01*
X04596Y-03866D01*
X04672Y-03905D01*
X04710Y-03981D01*
X04710Y-04400D01*
X04710Y-03981D02*
X04748Y-03905D01*
X04825Y-03866D01*
X04939Y-03866D01*
X05015Y-03905D01*
X05053Y-03981D01*
X05053Y-04400D01*
X06616Y-03562D02*
X05930Y-04590D01*
X07645Y-03600D02*
X07721Y-03600D01*
X07797Y-03638D01*
X07835Y-03676D01*
X07873Y-03752D01*
X07912Y-03905D01*
X07912Y-04095D01*
X07873Y-04247D01*
X07835Y-04324D01*
X07797Y-04362D01*
X07721Y-04400D01*
X07645Y-04400D01*
X07569Y-04362D01*
X07531Y-04324D01*
X07492Y-04247D01*
X07454Y-04095D01*
X07454Y-03905D01*
X07492Y-03752D01*
X07531Y-03676D01*
X07569Y-03638D01*
X07645Y-03600D01*
X08254Y-04324D02*
X08293Y-04362D01*
X08254Y-04400D01*
X08216Y-04362D01*
X08254Y-04324D01*
X08254Y-04400D01*
X08788Y-03600D02*
X08864Y-03600D01*
X08940Y-03638D01*
X08978Y-03676D01*
X09016Y-03752D01*
X09055Y-03905D01*
X09055Y-04095D01*
X09016Y-04247D01*
X08978Y-04324D01*
X08940Y-04362D01*
X08864Y-04400D01*
X08788Y-04400D01*
X08712Y-04362D01*
X08674Y-04324D01*
X08635Y-04247D01*
X08597Y-04095D01*
X08597Y-03905D01*
X08635Y-03752D01*
X08674Y-03676D01*
X08712Y-03638D01*
X08788Y-03600D01*
X09778Y-03600D02*
X09397Y-03600D01*
X09359Y-03981D01*
X09397Y-03943D01*
X09474Y-03905D01*
X09664Y-03905D01*
X09740Y-03943D01*
X09778Y-03981D01*
X09817Y-04057D01*
X09817Y-04247D01*
X09778Y-04324D01*
X09740Y-04362D01*
X09664Y-04400D01*
X09474Y-04400D01*
X09397Y-04362D01*
X09359Y-04324D01*
X10312Y-03600D02*
X10388Y-03600D01*
X10464Y-03638D01*
X10502Y-03676D01*
X10540Y-03752D01*
X10579Y-03905D01*
X10579Y-04095D01*
X10540Y-04247D01*
X10502Y-04324D01*
X10464Y-04362D01*
X10388Y-04400D01*
X10312Y-04400D01*
X10236Y-04362D01*
X10198Y-04324D01*
X10159Y-04247D01*
X10121Y-04095D01*
X10121Y-03905D01*
X10159Y-03752D01*
X10198Y-03676D01*
X10236Y-03638D01*
X10312Y-03600D01*
X10883Y-03600D02*
X10883Y-03752D01*
X11188Y-03600D02*
X11188Y-03752D01*
X12370Y-04705D02*
X12332Y-04666D01*
X12256Y-04552D01*
X12218Y-04476D01*
X12180Y-04362D01*
X12141Y-04171D01*
X12141Y-04019D01*
X12180Y-03828D01*
X12218Y-03714D01*
X12256Y-03638D01*
X12332Y-03524D01*
X12370Y-03486D01*
X13017Y-03866D02*
X13017Y-04400D01*
X12827Y-03562D02*
X12636Y-04133D01*
X13132Y-04133D01*
X14046Y-04400D02*
X14046Y-03600D01*
X14389Y-04400D02*
X14389Y-03981D01*
X14351Y-03905D01*
X14275Y-03866D01*
X14161Y-03866D01*
X14085Y-03905D01*
X14046Y-03943D01*
X14885Y-04400D02*
X14809Y-04362D01*
X14770Y-04324D01*
X14732Y-04247D01*
X14732Y-04019D01*
X14770Y-03943D01*
X14809Y-03905D01*
X14885Y-03866D01*
X14999Y-03866D01*
X15075Y-03905D01*
X15113Y-03943D01*
X15151Y-04019D01*
X15151Y-04247D01*
X15113Y-04324D01*
X15075Y-04362D01*
X14999Y-04400D01*
X14885Y-04400D01*
X15609Y-04400D02*
X15533Y-04362D01*
X15494Y-04286D01*
X15494Y-03600D01*
X16218Y-04362D02*
X16142Y-04400D01*
X15990Y-04400D01*
X15913Y-04362D01*
X15875Y-04286D01*
X15875Y-03981D01*
X15913Y-03905D01*
X15990Y-03866D01*
X16142Y-03866D01*
X16218Y-03905D01*
X16256Y-03981D01*
X16256Y-04057D01*
X15875Y-04133D01*
X16561Y-04362D02*
X16638Y-04400D01*
X16790Y-04400D01*
X16866Y-04362D01*
X16904Y-04286D01*
X16904Y-04247D01*
X16866Y-04171D01*
X16790Y-04133D01*
X16676Y-04133D01*
X16599Y-04095D01*
X16561Y-04019D01*
X16561Y-03981D01*
X16599Y-03905D01*
X16676Y-03866D01*
X16790Y-03866D01*
X16866Y-03905D01*
X17171Y-04705D02*
X17209Y-04666D01*
X17286Y-04552D01*
X17324Y-04476D01*
X17362Y-04362D01*
X17400Y-04171D01*
X17400Y-04019D01*
X17362Y-03828D01*
X17324Y-03714D01*
X17286Y-03638D01*
X17209Y-03524D01*
X17171Y-03486D01*
G54D10*
X00242Y-05132D02*
X00236Y-05185D01*
X00221Y-05236D01*
X00196Y-05284D01*
X00162Y-05325D01*
X00120Y-05359D01*
X00073Y-05385D01*
X00022Y-05401D01*
X-00032Y-05406D01*
X-00084Y-05402D01*
X-00136Y-05386D01*
X-00183Y-05362D01*
X-00225Y-05328D01*
X-00259Y-05287D01*
X-00285Y-05240D01*
X-00301Y-05189D01*
X-00307Y-05135D01*
X-00303Y-05083D01*
X-00288Y-05031D01*
X-00264Y-04984D01*
X-00230Y-04941D01*
X-00189Y-04907D01*
X-00143Y-04881D01*
X-00092Y-04864D01*
X-00038Y-04858D01*
X00014Y-04862D01*
X00066Y-04876D01*
X00114Y-04900D01*
X00156Y-04933D01*
X00191Y-04974D01*
X00218Y-05021D01*
X00235Y-05072D01*
X00241Y-05125D01*
X00242Y-05132D01*
X-00308Y-04857D02*
X00242Y-05407D01*
X00242Y-04857D02*
X-00308Y-05407D01*
G54D12*
X01053Y-05456D02*
X00595Y-05456D01*
X00824Y-05456D02*
X00824Y-04656D01*
X00748Y-04770D01*
X00672Y-04846D01*
X00595Y-04884D01*
X01395Y-05380D02*
X01434Y-05418D01*
X01395Y-05456D01*
X01357Y-05418D01*
X01395Y-05380D01*
X01395Y-05456D01*
X02119Y-04922D02*
X02119Y-05456D01*
X01929Y-04618D02*
X01738Y-05189D01*
X02234Y-05189D01*
X02691Y-04656D02*
X02767Y-04656D01*
X02843Y-04694D01*
X02881Y-04732D01*
X02919Y-04808D01*
X02958Y-04961D01*
X02958Y-05151D01*
X02919Y-05303D01*
X02881Y-05380D01*
X02843Y-05418D01*
X02767Y-05456D01*
X02691Y-05456D01*
X02615Y-05418D01*
X02577Y-05380D01*
X02538Y-05303D01*
X02500Y-05151D01*
X02500Y-04961D01*
X02538Y-04808D01*
X02577Y-04732D01*
X02615Y-04694D01*
X02691Y-04656D01*
X03300Y-05456D02*
X03300Y-04922D01*
X03300Y-04999D02*
X03339Y-04961D01*
X03415Y-04922D01*
X03529Y-04922D01*
X03605Y-04961D01*
X03643Y-05037D01*
X03643Y-05456D01*
X03643Y-05037D02*
X03681Y-04961D01*
X03758Y-04922D01*
X03872Y-04922D01*
X03948Y-04961D01*
X03986Y-05037D01*
X03986Y-05456D01*
X04367Y-05456D02*
X04367Y-04922D01*
X04367Y-04999D02*
X04406Y-04961D01*
X04482Y-04922D01*
X04596Y-04922D01*
X04672Y-04961D01*
X04710Y-05037D01*
X04710Y-05456D01*
X04710Y-05037D02*
X04748Y-04961D01*
X04825Y-04922D01*
X04939Y-04922D01*
X05015Y-04961D01*
X05053Y-05037D01*
X05053Y-05456D01*
X06616Y-04618D02*
X05930Y-05646D01*
X07645Y-04656D02*
X07721Y-04656D01*
X07797Y-04694D01*
X07835Y-04732D01*
X07873Y-04808D01*
X07912Y-04961D01*
X07912Y-05151D01*
X07873Y-05303D01*
X07835Y-05380D01*
X07797Y-05418D01*
X07721Y-05456D01*
X07645Y-05456D01*
X07569Y-05418D01*
X07531Y-05380D01*
X07492Y-05303D01*
X07454Y-05151D01*
X07454Y-04961D01*
X07492Y-04808D01*
X07531Y-04732D01*
X07569Y-04694D01*
X07645Y-04656D01*
X08254Y-05380D02*
X08293Y-05418D01*
X08254Y-05456D01*
X08216Y-05418D01*
X08254Y-05380D01*
X08254Y-05456D01*
X08788Y-04656D02*
X08864Y-04656D01*
X08940Y-04694D01*
X08978Y-04732D01*
X09016Y-04808D01*
X09055Y-04961D01*
X09055Y-05151D01*
X09016Y-05303D01*
X08978Y-05380D01*
X08940Y-05418D01*
X08864Y-05456D01*
X08788Y-05456D01*
X08712Y-05418D01*
X08674Y-05380D01*
X08635Y-05303D01*
X08597Y-05151D01*
X08597Y-04961D01*
X08635Y-04808D01*
X08674Y-04732D01*
X08712Y-04694D01*
X08788Y-04656D01*
X09778Y-04656D02*
X09397Y-04656D01*
X09359Y-05037D01*
X09397Y-04999D01*
X09474Y-04961D01*
X09664Y-04961D01*
X09740Y-04999D01*
X09778Y-05037D01*
X09817Y-05113D01*
X09817Y-05303D01*
X09778Y-05380D01*
X09740Y-05418D01*
X09664Y-05456D01*
X09474Y-05456D01*
X09397Y-05418D01*
X09359Y-05380D01*
X10540Y-04656D02*
X10159Y-04656D01*
X10121Y-05037D01*
X10159Y-04999D01*
X10236Y-04961D01*
X10426Y-04961D01*
X10502Y-04999D01*
X10540Y-05037D01*
X10579Y-05113D01*
X10579Y-05303D01*
X10540Y-05380D01*
X10502Y-05418D01*
X10426Y-05456D01*
X10236Y-05456D01*
X10159Y-05418D01*
X10121Y-05380D01*
X10883Y-04656D02*
X10883Y-04808D01*
X11188Y-04656D02*
X11188Y-04808D01*
X12370Y-05761D02*
X12332Y-05722D01*
X12256Y-05608D01*
X12218Y-05532D01*
X12180Y-05418D01*
X12141Y-05227D01*
X12141Y-05075D01*
X12180Y-04884D01*
X12218Y-04770D01*
X12256Y-04694D01*
X12332Y-04580D01*
X12370Y-04542D01*
X13017Y-04922D02*
X13017Y-05456D01*
X12827Y-04618D02*
X12636Y-05189D01*
X13132Y-05189D01*
X14046Y-05456D02*
X14046Y-04656D01*
X14389Y-05456D02*
X14389Y-05037D01*
X14351Y-04961D01*
X14275Y-04922D01*
X14161Y-04922D01*
X14085Y-04961D01*
X14046Y-04999D01*
X14885Y-05456D02*
X14809Y-05418D01*
X14770Y-05380D01*
X14732Y-05303D01*
X14732Y-05075D01*
X14770Y-04999D01*
X14809Y-04961D01*
X14885Y-04922D01*
X14999Y-04922D01*
X15075Y-04961D01*
X15113Y-04999D01*
X15151Y-05075D01*
X15151Y-05303D01*
X15113Y-05380D01*
X15075Y-05418D01*
X14999Y-05456D01*
X14885Y-05456D01*
X15609Y-05456D02*
X15533Y-05418D01*
X15494Y-05342D01*
X15494Y-04656D01*
X16218Y-05418D02*
X16142Y-05456D01*
X15990Y-05456D01*
X15913Y-05418D01*
X15875Y-05342D01*
X15875Y-05037D01*
X15913Y-04961D01*
X15990Y-04922D01*
X16142Y-04922D01*
X16218Y-04961D01*
X16256Y-05037D01*
X16256Y-05113D01*
X15875Y-05189D01*
X16561Y-05418D02*
X16638Y-05456D01*
X16790Y-05456D01*
X16866Y-05418D01*
X16904Y-05342D01*
X16904Y-05303D01*
X16866Y-05227D01*
X16790Y-05189D01*
X16676Y-05189D01*
X16599Y-05151D01*
X16561Y-05075D01*
X16561Y-05037D01*
X16599Y-04961D01*
X16676Y-04922D01*
X16790Y-04922D01*
X16866Y-04961D01*
X17171Y-05761D02*
X17209Y-05722D01*
X17286Y-05608D01*
X17324Y-05532D01*
X17362Y-05418D01*
X17400Y-05227D01*
X17400Y-05075D01*
X17362Y-04884D01*
X17324Y-04770D01*
X17286Y-04694D01*
X17209Y-04580D01*
X17171Y-04542D01*
G54D10*
X00242Y-06188D02*
X00236Y-06245D01*
X00219Y-06300D01*
X00192Y-06351D01*
X00156Y-06395D01*
X00111Y-06432D01*
X00061Y-06459D01*
X00006Y-06476D01*
X-00051Y-06482D01*
X-00108Y-06477D01*
X-00163Y-06461D01*
X-00214Y-06434D01*
X-00259Y-06398D01*
X-00296Y-06354D01*
X-00324Y-06304D01*
X-00341Y-06249D01*
X-00347Y-06192D01*
X-00343Y-06135D01*
X-00327Y-06080D01*
X-00300Y-06029D01*
X-00265Y-05984D01*
X-00221Y-05946D01*
X-00171Y-05918D01*
X-00116Y-05900D01*
X-00059Y-05894D01*
X-00002Y-05898D01*
X00053Y-05913D01*
X00105Y-05939D01*
X00150Y-05975D01*
X00188Y-06018D01*
X00216Y-06069D01*
X00234Y-06123D01*
X00241Y-06180D01*
X00242Y-06188D01*
X-00348Y-06188D02*
X00242Y-06188D01*
G54D12*
X01053Y-06512D02*
X00595Y-06512D01*
X00824Y-06512D02*
X00824Y-05712D01*
X00748Y-05826D01*
X00672Y-05902D01*
X00595Y-05940D01*
X01395Y-06436D02*
X01434Y-06474D01*
X01395Y-06512D01*
X01357Y-06474D01*
X01395Y-06436D01*
X01395Y-06512D01*
X02157Y-05712D02*
X01776Y-05712D01*
X01738Y-06093D01*
X01776Y-06055D01*
X01853Y-06017D01*
X02043Y-06017D01*
X02119Y-06055D01*
X02157Y-06093D01*
X02196Y-06169D01*
X02196Y-06359D01*
X02157Y-06436D01*
X02119Y-06474D01*
X02043Y-06512D01*
X01853Y-06512D01*
X01776Y-06474D01*
X01738Y-06436D01*
X02691Y-05712D02*
X02767Y-05712D01*
X02843Y-05750D01*
X02881Y-05788D01*
X02919Y-05864D01*
X02958Y-06017D01*
X02958Y-06207D01*
X02919Y-06359D01*
X02881Y-06436D01*
X02843Y-06474D01*
X02767Y-06512D01*
X02691Y-06512D01*
X02615Y-06474D01*
X02577Y-06436D01*
X02538Y-06359D01*
X02500Y-06207D01*
X02500Y-06017D01*
X02538Y-05864D01*
X02577Y-05788D01*
X02615Y-05750D01*
X02691Y-05712D01*
X03300Y-06512D02*
X03300Y-05978D01*
X03300Y-06055D02*
X03339Y-06017D01*
X03415Y-05978D01*
X03529Y-05978D01*
X03605Y-06017D01*
X03643Y-06093D01*
X03643Y-06512D01*
X03643Y-06093D02*
X03681Y-06017D01*
X03758Y-05978D01*
X03872Y-05978D01*
X03948Y-06017D01*
X03986Y-06093D01*
X03986Y-06512D01*
X04367Y-06512D02*
X04367Y-05978D01*
X04367Y-06055D02*
X04406Y-06017D01*
X04482Y-05978D01*
X04596Y-05978D01*
X04672Y-06017D01*
X04710Y-06093D01*
X04710Y-06512D01*
X04710Y-06093D02*
X04748Y-06017D01*
X04825Y-05978D01*
X04939Y-05978D01*
X05015Y-06017D01*
X05053Y-06093D01*
X05053Y-06512D01*
X06616Y-05674D02*
X05930Y-06702D01*
X07645Y-05712D02*
X07721Y-05712D01*
X07797Y-05750D01*
X07835Y-05788D01*
X07873Y-05864D01*
X07912Y-06017D01*
X07912Y-06207D01*
X07873Y-06359D01*
X07835Y-06436D01*
X07797Y-06474D01*
X07721Y-06512D01*
X07645Y-06512D01*
X07569Y-06474D01*
X07531Y-06436D01*
X07492Y-06359D01*
X07454Y-06207D01*
X07454Y-06017D01*
X07492Y-05864D01*
X07531Y-05788D01*
X07569Y-05750D01*
X07645Y-05712D01*
X08254Y-06436D02*
X08293Y-06474D01*
X08254Y-06512D01*
X08216Y-06474D01*
X08254Y-06436D01*
X08254Y-06512D01*
X08788Y-05712D02*
X08864Y-05712D01*
X08940Y-05750D01*
X08978Y-05788D01*
X09016Y-05864D01*
X09055Y-06017D01*
X09055Y-06207D01*
X09016Y-06359D01*
X08978Y-06436D01*
X08940Y-06474D01*
X08864Y-06512D01*
X08788Y-06512D01*
X08712Y-06474D01*
X08674Y-06436D01*
X08635Y-06359D01*
X08597Y-06207D01*
X08597Y-06017D01*
X08635Y-05864D01*
X08674Y-05788D01*
X08712Y-05750D01*
X08788Y-05712D01*
X09778Y-05712D02*
X09397Y-05712D01*
X09359Y-06093D01*
X09397Y-06055D01*
X09474Y-06017D01*
X09664Y-06017D01*
X09740Y-06055D01*
X09778Y-06093D01*
X09817Y-06169D01*
X09817Y-06359D01*
X09778Y-06436D01*
X09740Y-06474D01*
X09664Y-06512D01*
X09474Y-06512D01*
X09397Y-06474D01*
X09359Y-06436D01*
X10198Y-06512D02*
X10350Y-06512D01*
X10426Y-06474D01*
X10464Y-06436D01*
X10540Y-06321D01*
X10579Y-06169D01*
X10579Y-05864D01*
X10540Y-05788D01*
X10502Y-05750D01*
X10426Y-05712D01*
X10274Y-05712D01*
X10198Y-05750D01*
X10159Y-05788D01*
X10121Y-05864D01*
X10121Y-06055D01*
X10159Y-06131D01*
X10198Y-06169D01*
X10274Y-06207D01*
X10426Y-06207D01*
X10502Y-06169D01*
X10540Y-06131D01*
X10579Y-06055D01*
X10883Y-05712D02*
X10883Y-05864D01*
X11188Y-05712D02*
X11188Y-05864D01*
X12370Y-06817D02*
X12332Y-06778D01*
X12256Y-06664D01*
X12218Y-06588D01*
X12180Y-06474D01*
X12141Y-06283D01*
X12141Y-06131D01*
X12180Y-05940D01*
X12218Y-05826D01*
X12256Y-05750D01*
X12332Y-05636D01*
X12370Y-05598D01*
X12636Y-05788D02*
X12674Y-05750D01*
X12751Y-05712D01*
X12941Y-05712D01*
X13017Y-05750D01*
X13055Y-05788D01*
X13094Y-05864D01*
X13094Y-05940D01*
X13055Y-06055D01*
X12598Y-06512D01*
X13094Y-06512D01*
X14046Y-06512D02*
X14046Y-05712D01*
X14389Y-06512D02*
X14389Y-06093D01*
X14351Y-06017D01*
X14275Y-05978D01*
X14161Y-05978D01*
X14085Y-06017D01*
X14046Y-06055D01*
X14885Y-06512D02*
X14809Y-06474D01*
X14770Y-06436D01*
X14732Y-06359D01*
X14732Y-06131D01*
X14770Y-06055D01*
X14809Y-06017D01*
X14885Y-05978D01*
X14999Y-05978D01*
X15075Y-06017D01*
X15113Y-06055D01*
X15151Y-06131D01*
X15151Y-06359D01*
X15113Y-06436D01*
X15075Y-06474D01*
X14999Y-06512D01*
X14885Y-06512D01*
X15609Y-06512D02*
X15533Y-06474D01*
X15494Y-06398D01*
X15494Y-05712D01*
X16218Y-06474D02*
X16142Y-06512D01*
X15990Y-06512D01*
X15913Y-06474D01*
X15875Y-06398D01*
X15875Y-06093D01*
X15913Y-06017D01*
X15990Y-05978D01*
X16142Y-05978D01*
X16218Y-06017D01*
X16256Y-06093D01*
X16256Y-06169D01*
X15875Y-06245D01*
X16561Y-06474D02*
X16638Y-06512D01*
X16790Y-06512D01*
X16866Y-06474D01*
X16904Y-06398D01*
X16904Y-06359D01*
X16866Y-06283D01*
X16790Y-06245D01*
X16676Y-06245D01*
X16599Y-06207D01*
X16561Y-06131D01*
X16561Y-06093D01*
X16599Y-06017D01*
X16676Y-05978D01*
X16790Y-05978D01*
X16866Y-06017D01*
X17171Y-06817D02*
X17209Y-06778D01*
X17286Y-06664D01*
X17324Y-06588D01*
X17362Y-06474D01*
X17400Y-06283D01*
X17400Y-06131D01*
X17362Y-05940D01*
X17324Y-05826D01*
X17286Y-05750D01*
X17209Y-05636D01*
X17171Y-05598D01*
G54D10*
X00243Y-07244D02*
X00236Y-07312D01*
X00216Y-07378D01*
X00183Y-07439D01*
X00140Y-07493D01*
X00086Y-07537D01*
X00026Y-07570D01*
X-00040Y-07590D01*
X-00109Y-07597D01*
X-00177Y-07591D01*
X-00243Y-07572D01*
X-00304Y-07540D01*
X-00358Y-07496D01*
X-00403Y-07443D01*
X-00436Y-07383D01*
X-00457Y-07317D01*
X-00464Y-07248D01*
X-00459Y-07181D01*
X-00440Y-07114D01*
X-00408Y-07053D01*
X-00365Y-06999D01*
X-00313Y-06954D01*
X-00252Y-06920D01*
X-00187Y-06899D01*
X-00118Y-06891D01*
X-00050Y-06896D01*
X00017Y-06914D01*
X00078Y-06946D01*
X00133Y-06988D01*
X00178Y-07040D01*
X00212Y-07101D01*
X00234Y-07166D01*
X00242Y-07235D01*
X00243Y-07244D01*
X-00111Y-06890D02*
X-00111Y-07598D01*
G54D12*
X01053Y-07568D02*
X00595Y-07568D01*
X00824Y-07568D02*
X00824Y-06768D01*
X00748Y-06882D01*
X00672Y-06958D01*
X00595Y-06996D01*
X01395Y-07492D02*
X01434Y-07530D01*
X01395Y-07568D01*
X01357Y-07530D01*
X01395Y-07492D01*
X01395Y-07568D01*
X01891Y-07111D02*
X01815Y-07073D01*
X01776Y-07034D01*
X01738Y-06958D01*
X01738Y-06920D01*
X01776Y-06844D01*
X01815Y-06806D01*
X01891Y-06768D01*
X02043Y-06768D01*
X02119Y-06806D01*
X02157Y-06844D01*
X02196Y-06920D01*
X02196Y-06958D01*
X02157Y-07034D01*
X02119Y-07073D01*
X02043Y-07111D01*
X01891Y-07111D01*
X01815Y-07149D01*
X01776Y-07187D01*
X01738Y-07263D01*
X01738Y-07415D01*
X01776Y-07492D01*
X01815Y-07530D01*
X01891Y-07568D01*
X02043Y-07568D01*
X02119Y-07530D01*
X02157Y-07492D01*
X02196Y-07415D01*
X02196Y-07263D01*
X02157Y-07187D01*
X02119Y-07149D01*
X02043Y-07111D01*
X02691Y-06768D02*
X02767Y-06768D01*
X02843Y-06806D01*
X02881Y-06844D01*
X02919Y-06920D01*
X02958Y-07073D01*
X02958Y-07263D01*
X02919Y-07415D01*
X02881Y-07492D01*
X02843Y-07530D01*
X02767Y-07568D01*
X02691Y-07568D01*
X02615Y-07530D01*
X02577Y-07492D01*
X02538Y-07415D01*
X02500Y-07263D01*
X02500Y-07073D01*
X02538Y-06920D01*
X02577Y-06844D01*
X02615Y-06806D01*
X02691Y-06768D01*
X03300Y-07568D02*
X03300Y-07034D01*
X03300Y-07111D02*
X03339Y-07073D01*
X03415Y-07034D01*
X03529Y-07034D01*
X03605Y-07073D01*
X03643Y-07149D01*
X03643Y-07568D01*
X03643Y-07149D02*
X03681Y-07073D01*
X03758Y-07034D01*
X03872Y-07034D01*
X03948Y-07073D01*
X03986Y-07149D01*
X03986Y-07568D01*
X04367Y-07568D02*
X04367Y-07034D01*
X04367Y-07111D02*
X04406Y-07073D01*
X04482Y-07034D01*
X04596Y-07034D01*
X04672Y-07073D01*
X04710Y-07149D01*
X04710Y-07568D01*
X04710Y-07149D02*
X04748Y-07073D01*
X04825Y-07034D01*
X04939Y-07034D01*
X05015Y-07073D01*
X05053Y-07149D01*
X05053Y-07568D01*
X06616Y-06730D02*
X05930Y-07758D01*
X07645Y-06768D02*
X07721Y-06768D01*
X07797Y-06806D01*
X07835Y-06844D01*
X07873Y-06920D01*
X07912Y-07073D01*
X07912Y-07263D01*
X07873Y-07415D01*
X07835Y-07492D01*
X07797Y-07530D01*
X07721Y-07568D01*
X07645Y-07568D01*
X07569Y-07530D01*
X07531Y-07492D01*
X07492Y-07415D01*
X07454Y-07263D01*
X07454Y-07073D01*
X07492Y-06920D01*
X07531Y-06844D01*
X07569Y-06806D01*
X07645Y-06768D01*
X08254Y-07492D02*
X08293Y-07530D01*
X08254Y-07568D01*
X08216Y-07530D01*
X08254Y-07492D01*
X08254Y-07568D01*
X08788Y-06768D02*
X08864Y-06768D01*
X08940Y-06806D01*
X08978Y-06844D01*
X09016Y-06920D01*
X09055Y-07073D01*
X09055Y-07263D01*
X09016Y-07415D01*
X08978Y-07492D01*
X08940Y-07530D01*
X08864Y-07568D01*
X08788Y-07568D01*
X08712Y-07530D01*
X08674Y-07492D01*
X08635Y-07415D01*
X08597Y-07263D01*
X08597Y-07073D01*
X08635Y-06920D01*
X08674Y-06844D01*
X08712Y-06806D01*
X08788Y-06768D01*
X09321Y-06768D02*
X09855Y-06768D01*
X09512Y-07568D01*
X10579Y-07568D02*
X10121Y-07568D01*
X10350Y-07568D02*
X10350Y-06768D01*
X10274Y-06882D01*
X10198Y-06958D01*
X10121Y-06996D01*
X10883Y-06768D02*
X10883Y-06920D01*
X11188Y-06768D02*
X11188Y-06920D01*
X12370Y-07873D02*
X12332Y-07834D01*
X12256Y-07720D01*
X12218Y-07644D01*
X12180Y-07530D01*
X12141Y-07339D01*
X12141Y-07187D01*
X12180Y-06996D01*
X12218Y-06882D01*
X12256Y-06806D01*
X12332Y-06692D01*
X12370Y-06654D01*
X12636Y-06844D02*
X12674Y-06806D01*
X12751Y-06768D01*
X12941Y-06768D01*
X13017Y-06806D01*
X13055Y-06844D01*
X13094Y-06920D01*
X13094Y-06996D01*
X13055Y-07111D01*
X12598Y-07568D01*
X13094Y-07568D01*
X13779Y-07034D02*
X13779Y-07568D01*
X13589Y-06730D02*
X13398Y-07301D01*
X13894Y-07301D01*
X14808Y-07568D02*
X14808Y-06768D01*
X15151Y-07568D02*
X15151Y-07149D01*
X15113Y-07073D01*
X15037Y-07034D01*
X14923Y-07034D01*
X14847Y-07073D01*
X14808Y-07111D01*
X15647Y-07568D02*
X15571Y-07530D01*
X15532Y-07492D01*
X15494Y-07415D01*
X15494Y-07187D01*
X15532Y-07111D01*
X15571Y-07073D01*
X15647Y-07034D01*
X15761Y-07034D01*
X15837Y-07073D01*
X15875Y-07111D01*
X15913Y-07187D01*
X15913Y-07415D01*
X15875Y-07492D01*
X15837Y-07530D01*
X15761Y-07568D01*
X15647Y-07568D01*
X16371Y-07568D02*
X16295Y-07530D01*
X16256Y-07454D01*
X16256Y-06768D01*
X16980Y-07530D02*
X16904Y-07568D01*
X16752Y-07568D01*
X16675Y-07530D01*
X16637Y-07454D01*
X16637Y-07149D01*
X16675Y-07073D01*
X16752Y-07034D01*
X16904Y-07034D01*
X16980Y-07073D01*
X17018Y-07149D01*
X17018Y-07225D01*
X16637Y-07301D01*
X17323Y-07530D02*
X17400Y-07568D01*
X17552Y-07568D01*
X17628Y-07530D01*
X17666Y-07454D01*
X17666Y-07415D01*
X17628Y-07339D01*
X17552Y-07301D01*
X17438Y-07301D01*
X17361Y-07263D01*
X17323Y-07187D01*
X17323Y-07149D01*
X17361Y-07073D01*
X17438Y-07034D01*
X17552Y-07034D01*
X17628Y-07073D01*
X17933Y-07873D02*
X17971Y-07834D01*
X18048Y-07720D01*
X18086Y-07644D01*
X18124Y-07530D01*
X18162Y-07339D01*
X18162Y-07187D01*
X18124Y-06996D01*
X18086Y-06882D01*
X18048Y-06806D01*
X17971Y-06692D01*
X17933Y-06654D01*
G54D10*
X00001Y-08885D02*
X00001Y-07715D01*
X-01169Y-07715D01*
X-01169Y-08885D01*
X00001Y-08885D01*
G54D12*
X00976Y-08090D02*
X00976Y-08624D01*
X00786Y-07786D02*
X00595Y-08357D01*
X01091Y-08357D01*
X01395Y-08548D02*
X01434Y-08586D01*
X01395Y-08624D01*
X01357Y-08586D01*
X01395Y-08548D01*
X01395Y-08624D01*
X01738Y-07900D02*
X01776Y-07862D01*
X01853Y-07824D01*
X02043Y-07824D01*
X02119Y-07862D01*
X02157Y-07900D01*
X02196Y-07976D01*
X02196Y-08052D01*
X02157Y-08167D01*
X01700Y-08624D01*
X02196Y-08624D01*
X02691Y-07824D02*
X02767Y-07824D01*
X02843Y-07862D01*
X02881Y-07900D01*
X02919Y-07976D01*
X02958Y-08129D01*
X02958Y-08319D01*
X02919Y-08471D01*
X02881Y-08548D01*
X02843Y-08586D01*
X02767Y-08624D01*
X02691Y-08624D01*
X02615Y-08586D01*
X02577Y-08548D01*
X02538Y-08471D01*
X02500Y-08319D01*
X02500Y-08129D01*
X02538Y-07976D01*
X02577Y-07900D01*
X02615Y-07862D01*
X02691Y-07824D01*
X03300Y-08624D02*
X03300Y-08090D01*
X03300Y-08167D02*
X03339Y-08129D01*
X03415Y-08090D01*
X03529Y-08090D01*
X03605Y-08129D01*
X03643Y-08205D01*
X03643Y-08624D01*
X03643Y-08205D02*
X03681Y-08129D01*
X03758Y-08090D01*
X03872Y-08090D01*
X03948Y-08129D01*
X03986Y-08205D01*
X03986Y-08624D01*
X04367Y-08624D02*
X04367Y-08090D01*
X04367Y-08167D02*
X04406Y-08129D01*
X04482Y-08090D01*
X04596Y-08090D01*
X04672Y-08129D01*
X04710Y-08205D01*
X04710Y-08624D01*
X04710Y-08205D02*
X04748Y-08129D01*
X04825Y-08090D01*
X04939Y-08090D01*
X05015Y-08129D01*
X05053Y-08205D01*
X05053Y-08624D01*
X06616Y-07786D02*
X05930Y-08814D01*
X07645Y-07824D02*
X07721Y-07824D01*
X07797Y-07862D01*
X07835Y-07900D01*
X07873Y-07976D01*
X07912Y-08129D01*
X07912Y-08319D01*
X07873Y-08471D01*
X07835Y-08548D01*
X07797Y-08586D01*
X07721Y-08624D01*
X07645Y-08624D01*
X07569Y-08586D01*
X07531Y-08548D01*
X07492Y-08471D01*
X07454Y-08319D01*
X07454Y-08129D01*
X07492Y-07976D01*
X07531Y-07900D01*
X07569Y-07862D01*
X07645Y-07824D01*
X08254Y-08548D02*
X08293Y-08586D01*
X08254Y-08624D01*
X08216Y-08586D01*
X08254Y-08548D01*
X08254Y-08624D01*
X09055Y-08624D02*
X08597Y-08624D01*
X08826Y-08624D02*
X08826Y-07824D01*
X08750Y-07938D01*
X08674Y-08014D01*
X08597Y-08052D01*
X09740Y-07824D02*
X09588Y-07824D01*
X09512Y-07862D01*
X09474Y-07900D01*
X09397Y-08014D01*
X09359Y-08167D01*
X09359Y-08471D01*
X09397Y-08548D01*
X09436Y-08586D01*
X09512Y-08624D01*
X09664Y-08624D01*
X09740Y-08586D01*
X09778Y-08548D01*
X09817Y-08471D01*
X09817Y-08281D01*
X09778Y-08205D01*
X09740Y-08167D01*
X09664Y-08129D01*
X09512Y-08129D01*
X09436Y-08167D01*
X09397Y-08205D01*
X09359Y-08281D01*
X10540Y-07824D02*
X10159Y-07824D01*
X10121Y-08205D01*
X10159Y-08167D01*
X10236Y-08129D01*
X10426Y-08129D01*
X10502Y-08167D01*
X10540Y-08205D01*
X10579Y-08281D01*
X10579Y-08471D01*
X10540Y-08548D01*
X10502Y-08586D01*
X10426Y-08624D01*
X10236Y-08624D01*
X10159Y-08586D01*
X10121Y-08548D01*
X10883Y-07824D02*
X10883Y-07976D01*
X11188Y-07824D02*
X11188Y-07976D01*
X12370Y-08929D02*
X12332Y-08890D01*
X12256Y-08776D01*
X12218Y-08700D01*
X12180Y-08586D01*
X12141Y-08395D01*
X12141Y-08243D01*
X12180Y-08052D01*
X12218Y-07938D01*
X12256Y-07862D01*
X12332Y-07748D01*
X12370Y-07710D01*
X12636Y-07900D02*
X12674Y-07862D01*
X12751Y-07824D01*
X12941Y-07824D01*
X13017Y-07862D01*
X13055Y-07900D01*
X13094Y-07976D01*
X13094Y-08052D01*
X13055Y-08167D01*
X12598Y-08624D01*
X13094Y-08624D01*
X14046Y-08624D02*
X14046Y-07824D01*
X14389Y-08624D02*
X14389Y-08205D01*
X14351Y-08129D01*
X14275Y-08090D01*
X14161Y-08090D01*
X14085Y-08129D01*
X14046Y-08167D01*
X14885Y-08624D02*
X14809Y-08586D01*
X14770Y-08548D01*
X14732Y-08471D01*
X14732Y-08243D01*
X14770Y-08167D01*
X14809Y-08129D01*
X14885Y-08090D01*
X14999Y-08090D01*
X15075Y-08129D01*
X15113Y-08167D01*
X15151Y-08243D01*
X15151Y-08471D01*
X15113Y-08548D01*
X15075Y-08586D01*
X14999Y-08624D01*
X14885Y-08624D01*
X15609Y-08624D02*
X15533Y-08586D01*
X15494Y-08510D01*
X15494Y-07824D01*
X16218Y-08586D02*
X16142Y-08624D01*
X15990Y-08624D01*
X15913Y-08586D01*
X15875Y-08510D01*
X15875Y-08205D01*
X15913Y-08129D01*
X15990Y-08090D01*
X16142Y-08090D01*
X16218Y-08129D01*
X16256Y-08205D01*
X16256Y-08281D01*
X15875Y-08357D01*
X16561Y-08586D02*
X16638Y-08624D01*
X16790Y-08624D01*
X16866Y-08586D01*
X16904Y-08510D01*
X16904Y-08471D01*
X16866Y-08395D01*
X16790Y-08357D01*
X16676Y-08357D01*
X16599Y-08319D01*
X16561Y-08243D01*
X16561Y-08205D01*
X16599Y-08129D01*
X16676Y-08090D01*
X16790Y-08090D01*
X16866Y-08129D01*
X17171Y-08929D02*
X17209Y-08890D01*
X17286Y-08776D01*
X17324Y-08700D01*
X17362Y-08586D01*
X17400Y-08395D01*
X17400Y-08243D01*
X17362Y-08052D01*
X17324Y-07938D01*
X17286Y-07862D01*
X17209Y-07748D01*
X17171Y-07710D01*
M02*
