0
SECTION
2
HEADER
9
$ANGBASE
50
0.0
9
$ANGDIR
70
0
0
ENDSEC
0
SECTION
2
TABLES
0
TABLE
2
LTYPE
70
1
0
LTYPE
2
CONTINUOUS
70
0
3
Solid line
72
65
73
0
40
0.0
0
ENDTAB
0
TABLE
2
LAYER
70
24
0
LAYER
2
BLACK
70
0
62
1
6
CONTINUOUS
0
LAYER
2
BLUE
70
0
62
2
6
CONTINUOUS
0
LAYER
2
GREEN
70
0
62
3
6
CONTINUOUS
0
LAYER
2
CYAN
70
0
62
4
6
CONTINUOUS
0
LAYER
2
RED
70
0
62
5
6
CONTINUOUS
0
LAYER
2
MAGENTA
70
0
62
6
6
CONTINUOUS
0
LAYER
2
BROWN
70
0
62
7
6
CONTINUOUS
0
LAYER
2
GRAY
70
0
62
8
6
CONTINUOUS
0
LAYER
2
DARKGRAY
70
0
62
9
6
CONTINUOUS
0
LAYER
2
LIGHTBLUE
70
0
62
10
6
CONTINUOUS
0
LAYER
2
LIGHTGREEN
70
0
62
11
6
CONTINUOUS
0
LAYER
2
LIGHTCYAN
70
0
62
12
6
CONTINUOUS
0
LAYER
2
LIGHTRED
70
0
62
13
6
CONTINUOUS
0
LAYER
2
LIGHTMAGENTA
70
0
62
14
6
CONTINUOUS
0
LAYER
2
YELLOW
70
0
62
15
6
CONTINUOUS
0
LAYER
2
WHITE
70
0
62
16
6
CONTINUOUS
0
LAYER
2
DARKDARKGRAY
70
0
62
17
6
CONTINUOUS
0
LAYER
2
DARKBLUE
70
0
62
18
6
CONTINUOUS
0
LAYER
2
DARKGREEN
70
0
62
19
6
CONTINUOUS
0
LAYER
2
DARKCYAN
70
0
62
20
6
CONTINUOUS
0
LAYER
2
DARKRED
70
0
62
21
6
CONTINUOUS
0
LAYER
2
DARKMAGENTA
70
0
62
22
6
CONTINUOUS
0
LAYER
2
DARKBROWN
70
0
62
23
6
CONTINUOUS
0
LAYER
2
LIGHTYELLOW
70
0
62
24
6
CONTINUOUS
0
ENDTAB
0
ENDSEC
0
SECTION
2
ENTITIES
0
LINE
8
BLACK
10
39759.0
20
30442.0
11
68105.0
21
30442.0
0
LINE
8
BLACK
10
67712.0
20
46190.0
11
68105.0
21
46190.0
0
LINE
8
BLACK
10
40546.0
20
46190.0
11
39759.0
21
46190.0
0
LINE
8
BLACK
10
67318.0
20
46190.0
11
67712.0
21
46190.0
0
LINE
8
BLACK
10
67318.0
20
46190.0
11
66924.0
21
46190.0
0
LINE
8
BLACK
10
68105.0
20
30443.0
11
68105.0
21
46191.0
0
LINE
8
BLACK
10
40546.0
20
46190.0
11
66924.0
21
46190.0
0
LINE
8
BLACK
10
39759.0
20
30441.0
11
39759.0
21
46189.0
0
LINE
8
BLACK
10
53517.0
20
35566.0
11
53517.0
21
34766.0
0
LINE
8
BLACK
10
53517.0
20
34766.0
11
54317.0
21
34766.0
0
LINE
8
BLACK
10
54317.0
20
34766.0
11
54317.0
21
35566.0
0
LINE
8
BLACK
10
54317.0
20
35566.0
11
53517.0
21
35566.0
0
CIRCLE
8
BLACK
10
54917.0
20
35166.0
40
400
0
CIRCLE
8
BLACK
10
55917.0
20
35166.0
40
400
0
CIRCLE
8
BLACK
10
44605.0
20
44103.0
40
450
0
CIRCLE
8
BLACK
10
51605.0
20
44103.0
40
450
0
CIRCLE
8
BLACK
10
62747.0
20
44182.0
40
450
0
CIRCLE
8
BLACK
10
55747.0
20
44182.0
40
450
0
CIRCLE
8
BLACK
10
52003.0
20
34737.0
40
375
0
CIRCLE
8
BLACK
10
52003.0
20
31737.0
40
375
0
CIRCLE
8
BLACK
10
49798.0
20
34737.0
40
375
0
CIRCLE
8
BLACK
10
49798.0
20
31737.0
40
375
0
LINE
8
BLACK
10
45961.0
20
35954.0
11
44975.0
21
35954.0
0
LINE
8
BLACK
10
44975.0
20
35954.0
11
44975.0
21
34968.0
0
LINE
8
BLACK
10
44975.0
20
34968.0
11
45961.0
21
34968.0
0
LINE
8
BLACK
10
45961.0
20
34968.0
11
45961.0
21
35954.0
0
CIRCLE
8
BLACK
10
45468.0
20
32509.0
40
592
0
CIRCLE
8
BLACK
10
41728.0
20
42253.0
40
1320
0
CIRCLE
8
BLACK
10
66137.0
20
34379.0
40
1320
0
LINE
8
BLACK
10
60525.0
20
33455.0
11
60525.0
21
31995.0
0
LINE
8
BLACK
10
60525.0
20
31995.0
11
61985.0
21
31995.0
0
LINE
8
BLACK
10
61985.0
20
31995.0
11
61985.0
21
33455.0
0
LINE
8
BLACK
10
61985.0
20
33455.0
11
60525.0
21
33455.0
0
CIRCLE
8
BLACK
10
62909.0
20
32725.0
40
730
0
CIRCLE
8
BLACK
10
61255.0
20
34890.0
40
730
0
CIRCLE
8
BLACK
10
62909.0
20
34890.0
40
730
0
ENDSEC
0
EOF
