0
SECTION
2
HEADER
9
$ANGBASE
50
0.0
9
$ANGDIR
70
0
0
ENDSEC
0
SECTION
2
TABLES
0
TABLE
2
LTYPE
70
1
0
LTYPE
2
CONTINUOUS
70
0
3
Solid line
72
65
73
0
40
0.0
0
ENDTAB
0
TABLE
2
LAYER
70
24
0
LAYER
2
BLACK
70
0
62
1
6
CONTINUOUS
0
LAYER
2
BLUE
70
0
62
2
6
CONTINUOUS
0
LAYER
2
GREEN
70
0
62
3
6
CONTINUOUS
0
LAYER
2
CYAN
70
0
62
4
6
CONTINUOUS
0
LAYER
2
RED
70
0
62
5
6
CONTINUOUS
0
LAYER
2
MAGENTA
70
0
62
6
6
CONTINUOUS
0
LAYER
2
BROWN
70
0
62
7
6
CONTINUOUS
0
LAYER
2
GRAY
70
0
62
8
6
CONTINUOUS
0
LAYER
2
DARKGRAY
70
0
62
9
6
CONTINUOUS
0
LAYER
2
LIGHTBLUE
70
0
62
10
6
CONTINUOUS
0
LAYER
2
LIGHTGREEN
70
0
62
11
6
CONTINUOUS
0
LAYER
2
LIGHTCYAN
70
0
62
12
6
CONTINUOUS
0
LAYER
2
LIGHTRED
70
0
62
13
6
CONTINUOUS
0
LAYER
2
LIGHTMAGENTA
70
0
62
14
6
CONTINUOUS
0
LAYER
2
YELLOW
70
0
62
15
6
CONTINUOUS
0
LAYER
2
WHITE
70
0
62
16
6
CONTINUOUS
0
LAYER
2
DARKDARKGRAY
70
0
62
17
6
CONTINUOUS
0
LAYER
2
DARKBLUE
70
0
62
18
6
CONTINUOUS
0
LAYER
2
DARKGREEN
70
0
62
19
6
CONTINUOUS
0
LAYER
2
DARKCYAN
70
0
62
20
6
CONTINUOUS
0
LAYER
2
DARKRED
70
0
62
21
6
CONTINUOUS
0
LAYER
2
DARKMAGENTA
70
0
62
22
6
CONTINUOUS
0
LAYER
2
DARKBROWN
70
0
62
23
6
CONTINUOUS
0
LAYER
2
LIGHTYELLOW
70
0
62
24
6
CONTINUOUS
0
ENDTAB
0
ENDSEC
0
SECTION
2
ENTITIES
0
LINE
8
BLACK
10
39759.0
20
30442.0
11
68105.0
21
30442.0
0
LINE
8
BLACK
10
67712.0
20
46190.0
11
68105.0
21
46190.0
0
LINE
8
BLACK
10
40546.0
20
46190.0
11
39759.0
21
46190.0
0
LINE
8
BLACK
10
67318.0
20
46190.0
11
67712.0
21
46190.0
0
LINE
8
BLACK
10
67318.0
20
46190.0
11
66924.0
21
46190.0
0
LINE
8
BLACK
10
68105.0
20
30443.0
11
68105.0
21
46191.0
0
LINE
8
BLACK
10
40546.0
20
46190.0
11
66924.0
21
46190.0
0
LINE
8
BLACK
10
39759.0
20
30441.0
11
39759.0
21
46189.0
0
LINE
8
BLACK
10
53617.0
20
35466.0
11
53617.0
21
34866.0
0
LINE
8
BLACK
10
53617.0
20
34866.0
11
54217.0
21
34866.0
0
LINE
8
BLACK
10
54217.0
20
34866.0
11
54217.0
21
35466.0
0
LINE
8
BLACK
10
54217.0
20
35466.0
11
53617.0
21
35466.0
0
CIRCLE
8
BLACK
10
54917.0
20
35166.0
40
300
0
CIRCLE
8
BLACK
10
55917.0
20
35166.0
40
300
0
CIRCLE
8
BLACK
10
62799.0
20
39296.0
40
570
0
CIRCLE
8
BLACK
10
61146.0
20
39296.0
40
570
0
CIRCLE
8
BLACK
10
59492.0
20
39296.0
40
570
0
CIRCLE
8
BLACK
10
57839.0
20
39296.0
40
570
0
CIRCLE
8
BLACK
10
56185.0
20
39296.0
40
570
0
CIRCLE
8
BLACK
10
54532.0
20
39296.0
40
570
0
CIRCLE
8
BLACK
10
52879.0
20
39296.0
40
570
0
CIRCLE
8
BLACK
10
51226.0
20
39296.0
40
570
0
CIRCLE
8
BLACK
10
49572.0
20
39296.0
40
570
0
CIRCLE
8
BLACK
10
47919.0
20
39296.0
40
570
0
CIRCLE
8
BLACK
10
46265.0
20
39296.0
40
570
0
CIRCLE
8
BLACK
10
44611.0
20
39296.0
40
570
0
CIRCLE
8
BLACK
10
62799.0
20
41461.0
40
570
0
CIRCLE
8
BLACK
10
61146.0
20
41461.0
40
570
0
CIRCLE
8
BLACK
10
59492.0
20
41461.0
40
570
0
CIRCLE
8
BLACK
10
57839.0
20
41461.0
40
570
0
CIRCLE
8
BLACK
10
56185.0
20
41461.0
40
570
0
CIRCLE
8
BLACK
10
54532.0
20
41461.0
40
570
0
CIRCLE
8
BLACK
10
52879.0
20
41461.0
40
570
0
CIRCLE
8
BLACK
10
51226.0
20
41461.0
40
570
0
CIRCLE
8
BLACK
10
49572.0
20
41461.0
40
570
0
CIRCLE
8
BLACK
10
47919.0
20
41461.0
40
570
0
CIRCLE
8
BLACK
10
46265.0
20
41461.0
40
570
0
CIRCLE
8
BLACK
10
44611.0
20
41461.0
40
570
0
CIRCLE
8
BLACK
10
44605.0
20
44103.0
40
350
0
CIRCLE
8
BLACK
10
51605.0
20
44103.0
40
350
0
CIRCLE
8
BLACK
10
62747.0
20
44182.0
40
350
0
CIRCLE
8
BLACK
10
55747.0
20
44182.0
40
350
0
CIRCLE
8
BLACK
10
52003.0
20
34737.0
40
275
0
CIRCLE
8
BLACK
10
52003.0
20
31737.0
40
275
0
CIRCLE
8
BLACK
10
49798.0
20
34737.0
40
275
0
CIRCLE
8
BLACK
10
49798.0
20
31737.0
40
275
0
CIRCLE
8
BLACK
10
52003.0
20
36729.0
40
330
0
CIRCLE
8
BLACK
10
52003.0
20
35729.0
40
330
0
CIRCLE
8
BLACK
10
49798.0
20
36768.0
40
330
0
CIRCLE
8
BLACK
10
49798.0
20
35768.0
40
330
0
LINE
8
BLACK
10
45861.0
20
35854.0
11
45075.0
21
35854.0
0
LINE
8
BLACK
10
45075.0
20
35854.0
11
45075.0
21
35068.0
0
LINE
8
BLACK
10
45075.0
20
35068.0
11
45861.0
21
35068.0
0
LINE
8
BLACK
10
45861.0
20
35068.0
11
45861.0
21
35854.0
0
CIRCLE
8
BLACK
10
45468.0
20
32509.0
40
492
0
CIRCLE
8
BLACK
10
41728.0
20
42253.0
40
1220
0
CIRCLE
8
BLACK
10
66137.0
20
34379.0
40
1220
0
LINE
8
BLACK
10
60625.0
20
33355.0
11
60625.0
21
32095.0
0
LINE
8
BLACK
10
60625.0
20
32095.0
11
61885.0
21
32095.0
0
LINE
8
BLACK
10
61885.0
20
32095.0
11
61885.0
21
33355.0
0
LINE
8
BLACK
10
61885.0
20
33355.0
11
60625.0
21
33355.0
0
CIRCLE
8
BLACK
10
62909.0
20
32725.0
40
630
0
CIRCLE
8
BLACK
10
61255.0
20
34890.0
40
630
0
CIRCLE
8
BLACK
10
62909.0
20
34890.0
40
630
0
LINE
8
BLACK
10
61255.0
20
34890.0
11
62909.0
21
34890.0
0
LINE
8
BLACK
10
49572.0
20
36994.0
11
49798.0
21
36768.0
0
LINE
8
BLACK
10
49572.0
20
39296.0
11
49572.0
21
36994.0
0
LINE
8
BLACK
10
57003.0
20
38080.0
11
55310.0
21
36387.0
0
LINE
8
BLACK
10
54917.0
20
35166.0
11
54917.0
21
35994.0
0
LINE
8
BLACK
10
57839.0
20
41041.0
11
57003.0
21
40205.0
0
LINE
8
BLACK
10
57839.0
20
41041.0
11
57839.0
21
41461.0
0
LINE
8
BLACK
10
54917.0
20
35994.0
11
55310.0
21
36387.0
0
LINE
8
BLACK
10
57003.0
20
40205.0
11
57003.0
21
38080.0
0
LINE
8
BLACK
10
61255.0
20
32725.0
11
62909.0
21
32725.0
0
LINE
8
BLACK
10
55917.0
20
35166.0
11
56373.0
21
35166.0
0
LINE
8
BLACK
10
56373.0
20
35166.0
11
59050.0
21
38099.0
0
LINE
8
BLACK
10
52003.0
20
35729.0
11
52003.0
21
34737.0
0
LINE
8
BLACK
10
49798.0
20
35768.0
11
49798.0
21
34737.0
0
LINE
8
BLACK
10
51226.0
20
39296.0
11
51226.0
21
37506.0
0
LINE
8
BLACK
10
51226.0
20
37506.0
11
52003.0
21
36729.0
0
LINE
8
BLACK
10
67780.0
20
30767.0
11
67606.0
21
30767.0
0
LINE
8
BLACK
10
67606.0
20
30767.0
11
67606.0
21
34086.0
0
LINE
8
BLACK
10
67606.0
20
34086.0
11
67606.0
21
34670.0
0
LINE
8
BLACK
10
67606.0
20
34670.0
11
67383.0
21
35210.0
0
LINE
8
BLACK
10
67383.0
20
35210.0
11
66970.0
21
35624.0
0
LINE
8
BLACK
10
66970.0
20
35624.0
11
66430.0
21
35848.0
0
LINE
8
BLACK
10
66430.0
20
35848.0
11
65846.0
21
35848.0
0
LINE
8
BLACK
10
65846.0
20
35848.0
11
65306.0
21
35625.0
0
LINE
8
BLACK
10
65306.0
20
35625.0
11
64892.0
21
35212.0
0
LINE
8
BLACK
10
64892.0
20
35212.0
11
64668.0
21
34672.0
0
LINE
8
BLACK
10
64668.0
20
34672.0
11
64668.0
21
34088.0
0
LINE
8
BLACK
10
64668.0
20
34088.0
11
64891.0
21
33548.0
0
LINE
8
BLACK
10
64891.0
20
33548.0
11
65304.0
21
33134.0
0
LINE
8
BLACK
10
65304.0
20
33134.0
11
65844.0
21
32910.0
0
LINE
8
BLACK
10
65844.0
20
32910.0
11
66428.0
21
32910.0
0
LINE
8
BLACK
10
66428.0
20
32910.0
11
66968.0
21
33133.0
0
LINE
8
BLACK
10
66968.0
20
33133.0
11
67382.0
21
33546.0
0
LINE
8
BLACK
10
67382.0
20
33546.0
11
67606.0
21
34086.0
0
LINE
8
BLACK
10
67606.0
20
34086.0
11
67606.0
21
30767.0
0
LINE
8
BLACK
10
67606.0
20
30767.0
11
63774.0
21
30767.0
0
LINE
8
BLACK
10
63774.0
20
30767.0
11
63774.0
21
32569.0
0
LINE
8
BLACK
10
63774.0
20
32569.0
11
63767.0
21
32912.0
0
LINE
8
BLACK
10
63767.0
20
32912.0
11
63649.0
21
33200.0
0
LINE
8
BLACK
10
63649.0
20
33200.0
11
63521.0
21
33267.0
0
LINE
8
BLACK
10
63521.0
20
33267.0
11
63451.0
21
33197.0
0
LINE
8
BLACK
10
63451.0
20
33197.0
11
63451.0
21
33337.0
0
LINE
8
BLACK
10
63451.0
20
33337.0
11
63384.0
21
33465.0
0
LINE
8
BLACK
10
63384.0
20
33465.0
11
63065.0
21
33590.0
0
LINE
8
BLACK
10
63065.0
20
33590.0
11
62722.0
21
33583.0
0
LINE
8
BLACK
10
62722.0
20
33583.0
11
62434.0
21
33465.0
0
LINE
8
BLACK
10
62434.0
20
33465.0
11
62367.0
21
33337.0
0
LINE
8
BLACK
10
62367.0
20
33337.0
11
62909.0
21
32796.0
0
LINE
8
BLACK
10
62909.0
20
32796.0
11
63451.0
21
33337.0
0
LINE
8
BLACK
10
63451.0
20
33337.0
11
63451.0
21
33197.0
0
LINE
8
BLACK
10
63451.0
20
33197.0
11
62980.0
21
32725.0
0
LINE
8
BLACK
10
62980.0
20
32725.0
11
63521.0
21
32183.0
0
LINE
8
BLACK
10
63521.0
20
32183.0
11
63649.0
21
32250.0
0
LINE
8
BLACK
10
63649.0
20
32250.0
11
63774.0
21
32569.0
0
LINE
8
BLACK
10
63774.0
20
32569.0
11
63774.0
21
30767.0
0
LINE
8
BLACK
10
63774.0
20
30767.0
11
63451.0
21
30767.0
0
LINE
8
BLACK
10
63451.0
20
30767.0
11
63451.0
21
32113.0
0
LINE
8
BLACK
10
63451.0
20
32113.0
11
62909.0
21
32654.0
0
LINE
8
BLACK
10
62909.0
20
32654.0
11
62838.0
21
32584.0
0
LINE
8
BLACK
10
62838.0
20
32584.0
11
62838.0
21
32725.0
0
LINE
8
BLACK
10
62838.0
20
32725.0
11
62297.0
21
33267.0
0
LINE
8
BLACK
10
62297.0
20
33267.0
11
62169.0
21
33200.0
0
LINE
8
BLACK
10
62169.0
20
33200.0
11
62134.0
21
33112.0
0
LINE
8
BLACK
10
62134.0
20
33112.0
11
62134.0
21
33306.0
0
LINE
8
BLACK
10
62134.0
20
33306.0
11
62134.0
21
33405.0
0
LINE
8
BLACK
10
62134.0
20
33405.0
11
62096.0
21
33496.0
0
LINE
8
BLACK
10
62096.0
20
33496.0
11
62026.0
21
33566.0
0
LINE
8
BLACK
10
62026.0
20
33566.0
11
61934.0
21
33604.0
0
LINE
8
BLACK
10
61934.0
20
33604.0
11
61367.0
21
33605.0
0
LINE
8
BLACK
10
61367.0
20
33605.0
11
61305.0
21
33543.0
0
LINE
8
BLACK
10
61305.0
20
33543.0
11
61305.0
21
32825.0
0
LINE
8
BLACK
10
61305.0
20
32825.0
11
61305.0
21
32775.0
0
LINE
8
BLACK
10
61305.0
20
32775.0
11
61305.0
21
32675.0
0
LINE
8
BLACK
10
61305.0
20
32675.0
11
61305.0
21
32625.0
0
LINE
8
BLACK
10
61305.0
20
32625.0
11
61305.0
21
31907.0
0
LINE
8
BLACK
10
61305.0
20
31907.0
11
61367.0
21
31845.0
0
LINE
8
BLACK
10
61367.0
20
31845.0
11
61934.0
21
31846.0
0
LINE
8
BLACK
10
61934.0
20
31846.0
11
62026.0
21
31884.0
0
LINE
8
BLACK
10
62026.0
20
31884.0
11
62096.0
21
31954.0
0
LINE
8
BLACK
10
62096.0
20
31954.0
11
62134.0
21
32045.0
0
LINE
8
BLACK
10
62134.0
20
32045.0
11
62134.0
21
32144.0
0
LINE
8
BLACK
10
62134.0
20
32144.0
11
62134.0
21
32335.0
0
LINE
8
BLACK
10
62134.0
20
32335.0
11
62169.0
21
32250.0
0
LINE
8
BLACK
10
62169.0
20
32250.0
11
62297.0
21
32183.0
0
LINE
8
BLACK
10
62297.0
20
32183.0
11
62838.0
21
32725.0
0
LINE
8
BLACK
10
62838.0
20
32725.0
11
62838.0
21
32584.0
0
LINE
8
BLACK
10
62838.0
20
32584.0
11
62367.0
21
32113.0
0
LINE
8
BLACK
10
62367.0
20
32113.0
11
62434.0
21
31985.0
0
LINE
8
BLACK
10
62434.0
20
31985.0
11
62753.0
21
31860.0
0
LINE
8
BLACK
10
62753.0
20
31860.0
11
63096.0
21
31867.0
0
LINE
8
BLACK
10
63096.0
20
31867.0
11
63384.0
21
31985.0
0
LINE
8
BLACK
10
63384.0
20
31985.0
11
63451.0
21
32113.0
0
LINE
8
BLACK
10
63451.0
20
32113.0
11
63451.0
21
30767.0
0
LINE
8
BLACK
10
63451.0
20
30767.0
11
61205.0
21
30767.0
0
LINE
8
BLACK
10
61205.0
20
30767.0
11
61205.0
21
31907.0
0
LINE
8
BLACK
10
61205.0
20
31907.0
11
61205.0
21
32675.0
0
LINE
8
BLACK
10
61205.0
20
32675.0
11
61205.0
21
32775.0
0
LINE
8
BLACK
10
61205.0
20
32775.0
11
61205.0
21
33543.0
0
LINE
8
BLACK
10
61205.0
20
33543.0
11
61143.0
21
33605.0
0
LINE
8
BLACK
10
61143.0
20
33605.0
11
60576.0
21
33604.0
0
LINE
8
BLACK
10
60576.0
20
33604.0
11
60484.0
21
33566.0
0
LINE
8
BLACK
10
60484.0
20
33566.0
11
60414.0
21
33496.0
0
LINE
8
BLACK
10
60414.0
20
33496.0
11
60376.0
21
33405.0
0
LINE
8
BLACK
10
60376.0
20
33405.0
11
60376.0
21
33306.0
0
LINE
8
BLACK
10
60376.0
20
33306.0
11
60375.0
21
32837.0
0
LINE
8
BLACK
10
60375.0
20
32837.0
11
60437.0
21
32775.0
0
LINE
8
BLACK
10
60437.0
20
32775.0
11
61205.0
21
32775.0
0
LINE
8
BLACK
10
61205.0
20
32775.0
11
61205.0
21
32675.0
0
LINE
8
BLACK
10
61205.0
20
32675.0
11
60437.0
21
32675.0
0
LINE
8
BLACK
10
60437.0
20
32675.0
11
60375.0
21
32613.0
0
LINE
8
BLACK
10
60375.0
20
32613.0
11
60376.0
21
32144.0
0
LINE
8
BLACK
10
60376.0
20
32144.0
11
60376.0
21
32045.0
0
LINE
8
BLACK
10
60376.0
20
32045.0
11
60414.0
21
31954.0
0
LINE
8
BLACK
10
60414.0
20
31954.0
11
60484.0
21
31884.0
0
LINE
8
BLACK
10
60484.0
20
31884.0
11
60576.0
21
31846.0
0
LINE
8
BLACK
10
60576.0
20
31846.0
11
61143.0
21
31845.0
0
LINE
8
BLACK
10
61143.0
20
31845.0
11
61205.0
21
31907.0
0
LINE
8
BLACK
10
61205.0
20
31907.0
11
61205.0
21
30767.0
0
LINE
8
BLACK
10
61205.0
20
30767.0
11
52293.0
21
30767.0
0
LINE
8
BLACK
10
52293.0
20
30767.0
11
52293.0
21
31376.0
0
LINE
8
BLACK
10
52293.0
20
31376.0
11
52003.0
21
31666.0
0
LINE
8
BLACK
10
52003.0
20
31666.0
11
51713.0
21
31376.0
0
LINE
8
BLACK
10
51713.0
20
31376.0
11
51736.0
21
31285.0
0
LINE
8
BLACK
10
51736.0
20
31285.0
11
51929.0
21
31218.0
0
LINE
8
BLACK
10
51929.0
20
31218.0
11
52133.0
21
31229.0
0
LINE
8
BLACK
10
52133.0
20
31229.0
11
52270.0
21
31285.0
0
LINE
8
BLACK
10
52270.0
20
31285.0
11
52293.0
21
31376.0
0
LINE
8
BLACK
10
52293.0
20
31376.0
11
52293.0
21
30767.0
0
LINE
8
BLACK
10
52293.0
20
30767.0
11
50088.0
21
30767.0
0
LINE
8
BLACK
10
50088.0
20
30767.0
11
50088.0
21
31376.0
0
LINE
8
BLACK
10
50088.0
20
31376.0
11
49798.0
21
31666.0
0
LINE
8
BLACK
10
49798.0
20
31666.0
11
49508.0
21
31376.0
0
LINE
8
BLACK
10
49508.0
20
31376.0
11
49531.0
21
31285.0
0
LINE
8
BLACK
10
49531.0
20
31285.0
11
49724.0
21
31218.0
0
LINE
8
BLACK
10
49724.0
20
31218.0
11
49928.0
21
31229.0
0
LINE
8
BLACK
10
49928.0
20
31229.0
11
50065.0
21
31285.0
0
LINE
8
BLACK
10
50065.0
20
31285.0
11
50088.0
21
31376.0
0
LINE
8
BLACK
10
50088.0
20
31376.0
11
50088.0
21
30767.0
0
LINE
8
BLACK
10
50088.0
20
30767.0
11
46199.0
21
30767.0
0
LINE
8
BLACK
10
46199.0
20
30767.0
11
46199.0
21
32385.0
0
LINE
8
BLACK
10
46199.0
20
32385.0
11
46191.0
21
32674.0
0
LINE
8
BLACK
10
46191.0
20
32674.0
11
46096.0
21
32904.0
0
LINE
8
BLACK
10
46096.0
20
32904.0
11
45983.0
21
32953.0
0
LINE
8
BLACK
10
45983.0
20
32953.0
11
45912.0
21
32882.0
0
LINE
8
BLACK
10
45912.0
20
32882.0
11
45912.0
21
33024.0
0
LINE
8
BLACK
10
45912.0
20
33024.0
11
45863.0
21
33137.0
0
LINE
8
BLACK
10
45863.0
20
33137.0
11
45592.0
21
33240.0
0
LINE
8
BLACK
10
45592.0
20
33240.0
11
45303.0
21
33232.0
0
LINE
8
BLACK
10
45303.0
20
33232.0
11
45073.0
21
33137.0
0
LINE
8
BLACK
10
45073.0
20
33137.0
11
45024.0
21
33024.0
0
LINE
8
BLACK
10
45024.0
20
33024.0
11
45468.0
21
32580.0
0
LINE
8
BLACK
10
45468.0
20
32580.0
11
45912.0
21
33024.0
0
LINE
8
BLACK
10
45912.0
20
33024.0
11
45912.0
21
32882.0
0
LINE
8
BLACK
10
45912.0
20
32882.0
11
45539.0
21
32509.0
0
LINE
8
BLACK
10
45539.0
20
32509.0
11
45983.0
21
32065.0
0
LINE
8
BLACK
10
45983.0
20
32065.0
11
46096.0
21
32114.0
0
LINE
8
BLACK
10
46096.0
20
32114.0
11
46199.0
21
32385.0
0
LINE
8
BLACK
10
46199.0
20
32385.0
11
46199.0
21
30767.0
0
LINE
8
BLACK
10
46199.0
20
30767.0
11
45912.0
21
30767.0
0
LINE
8
BLACK
10
45912.0
20
30767.0
11
45912.0
21
31994.0
0
LINE
8
BLACK
10
45912.0
20
31994.0
11
45468.0
21
32438.0
0
LINE
8
BLACK
10
45468.0
20
32438.0
11
45397.0
21
32367.0
0
LINE
8
BLACK
10
45397.0
20
32367.0
11
45397.0
21
32509.0
0
LINE
8
BLACK
10
45397.0
20
32509.0
11
44953.0
21
32953.0
0
LINE
8
BLACK
10
44953.0
20
32953.0
11
44840.0
21
32904.0
0
LINE
8
BLACK
10
44840.0
20
32904.0
11
44737.0
21
32633.0
0
LINE
8
BLACK
10
44737.0
20
32633.0
11
44745.0
21
32344.0
0
LINE
8
BLACK
10
44745.0
20
32344.0
11
44840.0
21
32114.0
0
LINE
8
BLACK
10
44840.0
20
32114.0
11
44953.0
21
32065.0
0
LINE
8
BLACK
10
44953.0
20
32065.0
11
45397.0
21
32509.0
0
LINE
8
BLACK
10
45397.0
20
32509.0
11
45397.0
21
32367.0
0
LINE
8
BLACK
10
45397.0
20
32367.0
11
45024.0
21
31994.0
0
LINE
8
BLACK
10
45024.0
20
31994.0
11
45073.0
21
31881.0
0
LINE
8
BLACK
10
45073.0
20
31881.0
11
45344.0
21
31778.0
0
LINE
8
BLACK
10
45344.0
20
31778.0
11
45633.0
21
31786.0
0
LINE
8
BLACK
10
45633.0
20
31786.0
11
45863.0
21
31881.0
0
LINE
8
BLACK
10
45863.0
20
31881.0
11
45912.0
21
31994.0
0
LINE
8
BLACK
10
45912.0
20
31994.0
11
45912.0
21
30767.0
0
LINE
8
BLACK
10
45912.0
20
30767.0
11
40084.0
21
30767.0
0
LINE
8
BLACK
10
40084.0
20
30767.0
11
40084.0
21
33502.0
0
LINE
8
BLACK
10
40084.0
20
33502.0
11
46392.0
21
33502.0
0
LINE
8
BLACK
10
46392.0
20
33502.0
11
47927.0
21
31966.0
0
LINE
8
BLACK
10
47927.0
20
31966.0
11
49332.0
21
31966.0
0
LINE
8
BLACK
10
49332.0
20
31966.0
11
49279.0
21
31811.0
0
LINE
8
BLACK
10
49279.0
20
31811.0
11
49290.0
21
31607.0
0
LINE
8
BLACK
10
49290.0
20
31607.0
11
49346.0
21
31470.0
0
LINE
8
BLACK
10
49346.0
20
31470.0
11
49437.0
21
31447.0
0
LINE
8
BLACK
10
49437.0
20
31447.0
11
49692.0
21
31702.0
0
LINE
8
BLACK
10
49692.0
20
31702.0
11
49727.0
21
31737.0
0
LINE
8
BLACK
10
49727.0
20
31737.0
11
49798.0
21
31808.0
0
LINE
8
BLACK
10
49798.0
20
31808.0
11
49869.0
21
31737.0
0
LINE
8
BLACK
10
49869.0
20
31737.0
11
49904.0
21
31702.0
0
LINE
8
BLACK
10
49904.0
20
31702.0
11
50159.0
21
31447.0
0
LINE
8
BLACK
10
50159.0
20
31447.0
11
50250.0
21
31470.0
0
LINE
8
BLACK
10
50250.0
20
31470.0
11
50317.0
21
31663.0
0
LINE
8
BLACK
10
50317.0
20
31663.0
11
50306.0
21
31867.0
0
LINE
8
BLACK
10
50306.0
20
31867.0
11
50265.0
21
31966.0
0
LINE
8
BLACK
10
50265.0
20
31966.0
11
51537.0
21
31966.0
0
LINE
8
BLACK
10
51537.0
20
31966.0
11
51484.0
21
31811.0
0
LINE
8
BLACK
10
51484.0
20
31811.0
11
51495.0
21
31607.0
0
LINE
8
BLACK
10
51495.0
20
31607.0
11
51551.0
21
31470.0
0
LINE
8
BLACK
10
51551.0
20
31470.0
11
51642.0
21
31447.0
0
LINE
8
BLACK
10
51642.0
20
31447.0
11
51897.0
21
31702.0
0
LINE
8
BLACK
10
51897.0
20
31702.0
11
51932.0
21
31737.0
0
LINE
8
BLACK
10
51932.0
20
31737.0
11
52003.0
21
31808.0
0
LINE
8
BLACK
10
52003.0
20
31808.0
11
52074.0
21
31737.0
0
LINE
8
BLACK
10
52074.0
20
31737.0
11
52109.0
21
31702.0
0
LINE
8
BLACK
10
52109.0
20
31702.0
11
52364.0
21
31447.0
0
LINE
8
BLACK
10
52364.0
20
31447.0
11
52455.0
21
31470.0
0
LINE
8
BLACK
10
52455.0
20
31470.0
11
52522.0
21
31663.0
0
LINE
8
BLACK
10
52522.0
20
31663.0
11
52511.0
21
31867.0
0
LINE
8
BLACK
10
52511.0
20
31867.0
11
52470.0
21
31966.0
0
LINE
8
BLACK
10
52470.0
20
31966.0
11
58363.0
21
31966.0
0
LINE
8
BLACK
10
58363.0
20
31966.0
11
60016.0
21
33620.0
0
LINE
8
BLACK
10
60016.0
20
33620.0
11
64297.0
21
33620.0
0
LINE
8
BLACK
10
64297.0
20
33620.0
11
64297.0
21
45452.0
0
LINE
8
BLACK
10
64297.0
20
45452.0
11
60181.0
21
45452.0
0
LINE
8
BLACK
10
60181.0
20
45452.0
11
60181.0
21
41903.0
0
LINE
8
BLACK
10
60181.0
20
41903.0
11
60062.0
21
41960.0
0
LINE
8
BLACK
10
60062.0
20
41960.0
11
59991.0
21
41889.0
0
LINE
8
BLACK
10
59991.0
20
41889.0
11
59991.0
21
42031.0
0
LINE
8
BLACK
10
59991.0
20
42031.0
11
59933.0
21
42152.0
0
LINE
8
BLACK
10
59933.0
20
42152.0
11
59634.0
21
42268.0
0
LINE
8
BLACK
10
59634.0
20
42268.0
11
59315.0
21
42261.0
0
LINE
8
BLACK
10
59315.0
20
42261.0
11
59051.0
21
42152.0
0
LINE
8
BLACK
10
59051.0
20
42152.0
11
58993.0
21
42031.0
0
LINE
8
BLACK
10
58993.0
20
42031.0
11
59492.0
21
41532.0
0
LINE
8
BLACK
10
59492.0
20
41532.0
11
59991.0
21
42031.0
0
LINE
8
BLACK
10
59991.0
20
42031.0
11
59991.0
21
41889.0
0
LINE
8
BLACK
10
59991.0
20
41889.0
11
59563.0
21
41461.0
0
LINE
8
BLACK
10
59563.0
20
41461.0
11
60062.0
21
40962.0
0
LINE
8
BLACK
10
60062.0
20
40962.0
11
60181.0
21
41020.0
0
LINE
8
BLACK
10
60181.0
20
41020.0
11
60181.0
21
39738.0
0
LINE
8
BLACK
10
60181.0
20
39738.0
11
60062.0
21
39795.0
0
LINE
8
BLACK
10
60062.0
20
39795.0
11
59991.0
21
39724.0
0
LINE
8
BLACK
10
59991.0
20
39724.0
11
59991.0
21
39866.0
0
LINE
8
BLACK
10
59991.0
20
39866.0
11
59991.0
21
40891.0
0
LINE
8
BLACK
10
59991.0
20
40891.0
11
59492.0
21
41390.0
0
LINE
8
BLACK
10
59492.0
20
41390.0
11
59421.0
21
41319.0
0
LINE
8
BLACK
10
59421.0
20
41319.0
11
59421.0
21
41461.0
0
LINE
8
BLACK
10
59421.0
20
41461.0
11
58922.0
21
41960.0
0
LINE
8
BLACK
10
58922.0
20
41960.0
11
58801.0
21
41902.0
0
LINE
8
BLACK
10
58801.0
20
41902.0
11
58685.0
21
41603.0
0
LINE
8
BLACK
10
58685.0
20
41603.0
11
58692.0
21
41284.0
0
LINE
8
BLACK
10
58692.0
20
41284.0
11
58801.0
21
41020.0
0
LINE
8
BLACK
10
58801.0
20
41020.0
11
58922.0
21
40962.0
0
LINE
8
BLACK
10
58922.0
20
40962.0
11
59421.0
21
41461.0
0
LINE
8
BLACK
10
59421.0
20
41461.0
11
59421.0
21
41319.0
0
LINE
8
BLACK
10
59421.0
20
41319.0
11
58993.0
21
40891.0
0
LINE
8
BLACK
10
58993.0
20
40891.0
11
59051.0
21
40770.0
0
LINE
8
BLACK
10
59051.0
20
40770.0
11
59350.0
21
40654.0
0
LINE
8
BLACK
10
59350.0
20
40654.0
11
59669.0
21
40661.0
0
LINE
8
BLACK
10
59669.0
20
40661.0
11
59933.0
21
40770.0
0
LINE
8
BLACK
10
59933.0
20
40770.0
11
59991.0
21
40891.0
0
LINE
8
BLACK
10
59991.0
20
40891.0
11
59991.0
21
39866.0
0
LINE
8
BLACK
10
59991.0
20
39866.0
11
59933.0
21
39987.0
0
LINE
8
BLACK
10
59933.0
20
39987.0
11
59634.0
21
40103.0
0
LINE
8
BLACK
10
59634.0
20
40103.0
11
59315.0
21
40096.0
0
LINE
8
BLACK
10
59315.0
20
40096.0
11
59051.0
21
39987.0
0
LINE
8
BLACK
10
59051.0
20
39987.0
11
58993.0
21
39866.0
0
LINE
8
BLACK
10
58993.0
20
39866.0
11
59492.0
21
39367.0
0
LINE
8
BLACK
10
59492.0
20
39367.0
11
59991.0
21
39866.0
0
LINE
8
BLACK
10
59991.0
20
39866.0
11
59991.0
21
39724.0
0
LINE
8
BLACK
10
59991.0
20
39724.0
11
59563.0
21
39296.0
0
LINE
8
BLACK
10
59563.0
20
39296.0
11
60062.0
21
38797.0
0
LINE
8
BLACK
10
60062.0
20
38797.0
11
60181.0
21
38855.0
0
LINE
8
BLACK
10
60181.0
20
38855.0
11
60181.0
21
37500.0
0
LINE
8
BLACK
10
60181.0
20
37500.0
11
59991.0
21
37500.0
0
LINE
8
BLACK
10
59991.0
20
37500.0
11
59991.0
21
38726.0
0
LINE
8
BLACK
10
59991.0
20
38726.0
11
59492.0
21
39225.0
0
LINE
8
BLACK
10
59492.0
20
39225.0
11
59421.0
21
39154.0
0
LINE
8
BLACK
10
59421.0
20
39154.0
11
59421.0
21
39296.0
0
LINE
8
BLACK
10
59421.0
20
39296.0
11
58922.0
21
39795.0
0
LINE
8
BLACK
10
58922.0
20
39795.0
11
58801.0
21
39737.0
0
LINE
8
BLACK
10
58801.0
20
39737.0
11
58685.0
21
39438.0
0
LINE
8
BLACK
10
58685.0
20
39438.0
11
58692.0
21
39119.0
0
LINE
8
BLACK
10
58692.0
20
39119.0
11
58801.0
21
38855.0
0
LINE
8
BLACK
10
58801.0
20
38855.0
11
58922.0
21
38797.0
0
LINE
8
BLACK
10
58922.0
20
38797.0
11
59421.0
21
39296.0
0
LINE
8
BLACK
10
59421.0
20
39296.0
11
59421.0
21
39154.0
0
LINE
8
BLACK
10
59421.0
20
39154.0
11
58993.0
21
38726.0
0
LINE
8
BLACK
10
58993.0
20
38726.0
11
59051.0
21
38605.0
0
LINE
8
BLACK
10
59051.0
20
38605.0
11
59350.0
21
38489.0
0
LINE
8
BLACK
10
59350.0
20
38489.0
11
59669.0
21
38496.0
0
LINE
8
BLACK
10
59669.0
20
38496.0
11
59933.0
21
38605.0
0
LINE
8
BLACK
10
59933.0
20
38605.0
11
59991.0
21
38726.0
0
LINE
8
BLACK
10
59991.0
20
38726.0
11
59991.0
21
37500.0
0
LINE
8
BLACK
10
59991.0
20
37500.0
11
58871.0
21
37500.0
0
LINE
8
BLACK
10
58871.0
20
37500.0
11
56460.0
21
34855.0
0
LINE
8
BLACK
10
56460.0
20
34855.0
11
56430.0
21
34822.0
0
LINE
8
BLACK
10
56430.0
20
34822.0
11
56364.0
21
34822.0
0
LINE
8
BLACK
10
56364.0
20
34822.0
11
56383.0
21
34841.0
0
LINE
8
BLACK
10
56383.0
20
34841.0
11
56350.0
21
34874.0
0
LINE
8
BLACK
10
56350.0
20
34874.0
11
56389.0
21
34885.0
0
LINE
8
BLACK
10
56389.0
20
34885.0
11
56460.0
21
35087.0
0
LINE
8
BLACK
10
56460.0
20
35087.0
11
56449.0
21
35300.0
0
LINE
8
BLACK
10
56449.0
20
35300.0
11
56389.0
21
35447.0
0
LINE
8
BLACK
10
56389.0
20
35447.0
11
56295.0
21
35474.0
0
LINE
8
BLACK
10
56295.0
20
35474.0
11
56225.0
21
35404.0
0
LINE
8
BLACK
10
56225.0
20
35404.0
11
56225.0
21
35544.0
0
LINE
8
BLACK
10
56225.0
20
35544.0
11
56198.0
21
35638.0
0
LINE
8
BLACK
10
56198.0
20
35638.0
11
55996.0
21
35709.0
0
LINE
8
BLACK
10
55996.0
20
35709.0
11
55783.0
21
35698.0
0
LINE
8
BLACK
10
55783.0
20
35698.0
11
55636.0
21
35638.0
0
LINE
8
BLACK
10
55636.0
20
35638.0
11
55609.0
21
35544.0
0
LINE
8
BLACK
10
55609.0
20
35544.0
11
55917.0
21
35237.0
0
LINE
8
BLACK
10
55917.0
20
35237.0
11
56225.0
21
35544.0
0
LINE
8
BLACK
10
56225.0
20
35544.0
11
56225.0
21
35404.0
0
LINE
8
BLACK
10
56225.0
20
35404.0
11
55988.0
21
35166.0
0
LINE
8
BLACK
10
55988.0
20
35166.0
11
55917.0
21
35095.0
0
LINE
8
BLACK
10
55917.0
20
35095.0
11
55846.0
21
35166.0
0
LINE
8
BLACK
10
55846.0
20
35166.0
11
55811.0
21
35201.0
0
LINE
8
BLACK
10
55811.0
20
35201.0
11
55539.0
21
35474.0
0
LINE
8
BLACK
10
55539.0
20
35474.0
11
55445.0
21
35447.0
0
LINE
8
BLACK
10
55445.0
20
35447.0
11
55421.0
21
35382.0
0
LINE
8
BLACK
10
55421.0
20
35382.0
11
55413.0
21
35403.0
0
LINE
8
BLACK
10
55413.0
20
35403.0
11
55413.0
21
35710.0
0
LINE
8
BLACK
10
55413.0
20
35710.0
11
57203.0
21
37500.0
0
LINE
8
BLACK
10
57203.0
20
37500.0
11
57125.0
21
37500.0
0
LINE
8
BLACK
10
57125.0
20
37500.0
11
57354.0
21
37729.0
0
LINE
8
BLACK
10
57354.0
20
37729.0
11
57461.0
21
37890.0
0
LINE
8
BLACK
10
57461.0
20
37890.0
11
57499.0
21
38080.0
0
LINE
8
BLACK
10
57499.0
20
38080.0
11
57461.0
21
38269.0
0
LINE
8
BLACK
10
57461.0
20
38269.0
11
57371.0
21
38406.0
0
LINE
8
BLACK
10
57371.0
20
38406.0
11
57371.0
21
38605.0
0
LINE
8
BLACK
10
57371.0
20
38605.0
11
57374.0
21
38602.0
0
LINE
8
BLACK
10
57374.0
20
38602.0
11
57675.0
21
38476.0
0
LINE
8
BLACK
10
57675.0
20
38476.0
11
58001.0
21
38476.0
0
LINE
8
BLACK
10
58001.0
20
38476.0
11
58302.0
21
38600.0
0
LINE
8
BLACK
10
58302.0
20
38600.0
11
58533.0
21
38831.0
0
LINE
8
BLACK
10
58533.0
20
38831.0
11
58659.0
21
39132.0
0
LINE
8
BLACK
10
58659.0
20
39132.0
11
58659.0
21
39458.0
0
LINE
8
BLACK
10
58659.0
20
39458.0
11
58535.0
21
39759.0
0
LINE
8
BLACK
10
58535.0
20
39759.0
11
58304.0
21
39990.0
0
LINE
8
BLACK
10
58304.0
20
39990.0
11
58003.0
21
40116.0
0
LINE
8
BLACK
10
58003.0
20
40116.0
11
57677.0
21
40116.0
0
LINE
8
BLACK
10
57677.0
20
40116.0
11
57573.0
21
40074.0
0
LINE
8
BLACK
10
57573.0
20
40074.0
11
58190.0
21
40690.0
0
LINE
8
BLACK
10
58190.0
20
40690.0
11
58216.0
21
40730.0
0
LINE
8
BLACK
10
58216.0
20
40730.0
11
58302.0
21
40765.0
0
LINE
8
BLACK
10
58302.0
20
40765.0
11
58533.0
21
40996.0
0
LINE
8
BLACK
10
58533.0
20
40996.0
11
58659.0
21
41297.0
0
LINE
8
BLACK
10
58659.0
20
41297.0
11
58659.0
21
41623.0
0
LINE
8
BLACK
10
58659.0
20
41623.0
11
58535.0
21
41924.0
0
LINE
8
BLACK
10
58535.0
20
41924.0
11
58304.0
21
42155.0
0
LINE
8
BLACK
10
58304.0
20
42155.0
11
58003.0
21
42281.0
0
LINE
8
BLACK
10
58003.0
20
42281.0
11
57677.0
21
42281.0
0
LINE
8
BLACK
10
57677.0
20
42281.0
11
57376.0
21
42157.0
0
LINE
8
BLACK
10
57376.0
20
42157.0
11
57145.0
21
41926.0
0
LINE
8
BLACK
10
57145.0
20
41926.0
11
57019.0
21
41625.0
0
LINE
8
BLACK
10
57019.0
20
41625.0
11
57019.0
21
41299.0
0
LINE
8
BLACK
10
57019.0
20
41299.0
11
57128.0
21
41033.0
0
LINE
8
BLACK
10
57128.0
20
41033.0
11
56992.0
21
40897.0
0
LINE
8
BLACK
10
56992.0
20
40897.0
11
56992.0
21
41319.0
0
LINE
8
BLACK
10
56992.0
20
41319.0
11
56985.0
21
41638.0
0
LINE
8
BLACK
10
56985.0
20
41638.0
11
56876.0
21
41902.0
0
LINE
8
BLACK
10
56876.0
20
41902.0
11
56755.0
21
41960.0
0
LINE
8
BLACK
10
56755.0
20
41960.0
11
56684.0
21
41889.0
0
LINE
8
BLACK
10
56684.0
20
41889.0
11
56684.0
21
42031.0
0
LINE
8
BLACK
10
56684.0
20
42031.0
11
56626.0
21
42152.0
0
LINE
8
BLACK
10
56626.0
20
42152.0
11
56340.0
21
42263.0
0
LINE
8
BLACK
10
56340.0
20
42263.0
11
56340.0
21
44091.0
0
LINE
8
BLACK
10
56340.0
20
44091.0
11
56329.0
21
44326.0
0
LINE
8
BLACK
10
56329.0
20
44326.0
11
56260.0
21
44492.0
0
LINE
8
BLACK
10
56260.0
20
44492.0
11
56161.0
21
44525.0
0
LINE
8
BLACK
10
56161.0
20
44525.0
11
56090.0
21
44454.0
0
LINE
8
BLACK
10
56090.0
20
44454.0
11
56090.0
21
44596.0
0
LINE
8
BLACK
10
56090.0
20
44596.0
11
56057.0
21
44695.0
0
LINE
8
BLACK
10
56057.0
20
44695.0
11
55838.0
21
44775.0
0
LINE
8
BLACK
10
55838.0
20
44775.0
11
55603.0
21
44764.0
0
LINE
8
BLACK
10
55603.0
20
44764.0
11
55437.0
21
44695.0
0
LINE
8
BLACK
10
55437.0
20
44695.0
11
55404.0
21
44596.0
0
LINE
8
BLACK
10
55404.0
20
44596.0
11
55747.0
21
44253.0
0
LINE
8
BLACK
10
55747.0
20
44253.0
11
56090.0
21
44596.0
0
LINE
8
BLACK
10
56090.0
20
44596.0
11
56090.0
21
44454.0
0
LINE
8
BLACK
10
56090.0
20
44454.0
11
55818.0
21
44182.0
0
LINE
8
BLACK
10
55818.0
20
44182.0
11
56161.0
21
43839.0
0
LINE
8
BLACK
10
56161.0
20
43839.0
11
56260.0
21
43872.0
0
LINE
8
BLACK
10
56260.0
20
43872.0
11
56340.0
21
44091.0
0
LINE
8
BLACK
10
56340.0
20
44091.0
11
56340.0
21
42263.0
0
LINE
8
BLACK
10
56340.0
20
42263.0
11
56327.0
21
42268.0
0
LINE
8
BLACK
10
56327.0
20
42268.0
11
56090.0
21
42263.0
0
LINE
8
BLACK
10
56090.0
20
42263.0
11
56090.0
21
43768.0
0
LINE
8
BLACK
10
56090.0
20
43768.0
11
55747.0
21
44111.0
0
LINE
8
BLACK
10
55747.0
20
44111.0
11
55676.0
21
44040.0
0
LINE
8
BLACK
10
55676.0
20
44040.0
11
55676.0
21
44182.0
0
LINE
8
BLACK
10
55676.0
20
44182.0
11
55333.0
21
44525.0
0
LINE
8
BLACK
10
55333.0
20
44525.0
11
55234.0
21
44492.0
0
LINE
8
BLACK
10
55234.0
20
44492.0
11
55154.0
21
44273.0
0
LINE
8
BLACK
10
55154.0
20
44273.0
11
55165.0
21
44038.0
0
LINE
8
BLACK
10
55165.0
20
44038.0
11
55234.0
21
43872.0
0
LINE
8
BLACK
10
55234.0
20
43872.0
11
55333.0
21
43839.0
0
LINE
8
BLACK
10
55333.0
20
43839.0
11
55676.0
21
44182.0
0
LINE
8
BLACK
10
55676.0
20
44182.0
11
55676.0
21
44040.0
0
LINE
8
BLACK
10
55676.0
20
44040.0
11
55404.0
21
43768.0
0
LINE
8
BLACK
10
55404.0
20
43768.0
11
55437.0
21
43669.0
0
LINE
8
BLACK
10
55437.0
20
43669.0
11
55656.0
21
43589.0
0
LINE
8
BLACK
10
55656.0
20
43589.0
11
55891.0
21
43600.0
0
LINE
8
BLACK
10
55891.0
20
43600.0
11
56057.0
21
43669.0
0
LINE
8
BLACK
10
56057.0
20
43669.0
11
56090.0
21
43768.0
0
LINE
8
BLACK
10
56090.0
20
43768.0
11
56090.0
21
42263.0
0
LINE
8
BLACK
10
56090.0
20
42263.0
11
56008.0
21
42261.0
0
LINE
8
BLACK
10
56008.0
20
42261.0
11
55744.0
21
42152.0
0
LINE
8
BLACK
10
55744.0
20
42152.0
11
55686.0
21
42031.0
0
LINE
8
BLACK
10
55686.0
20
42031.0
11
56185.0
21
41532.0
0
LINE
8
BLACK
10
56185.0
20
41532.0
11
56684.0
21
42031.0
0
LINE
8
BLACK
10
56684.0
20
42031.0
11
56684.0
21
41889.0
0
LINE
8
BLACK
10
56684.0
20
41889.0
11
56256.0
21
41461.0
0
LINE
8
BLACK
10
56256.0
20
41461.0
11
56755.0
21
40962.0
0
LINE
8
BLACK
10
56755.0
20
40962.0
11
56876.0
21
41020.0
0
LINE
8
BLACK
10
56876.0
20
41020.0
11
56992.0
21
41319.0
0
LINE
8
BLACK
10
56992.0
20
41319.0
11
56992.0
21
40897.0
0
LINE
8
BLACK
10
56992.0
20
40897.0
11
56684.0
21
40589.0
0
LINE
8
BLACK
10
56684.0
20
40589.0
11
56684.0
21
40891.0
0
LINE
8
BLACK
10
56684.0
20
40891.0
11
56185.0
21
41390.0
0
LINE
8
BLACK
10
56185.0
20
41390.0
11
56114.0
21
41319.0
0
LINE
8
BLACK
10
56114.0
20
41319.0
11
56114.0
21
41461.0
0
LINE
8
BLACK
10
56114.0
20
41461.0
11
55615.0
21
41960.0
0
LINE
8
BLACK
10
55615.0
20
41960.0
11
55494.0
21
41902.0
0
LINE
8
BLACK
10
55494.0
20
41902.0
11
55378.0
21
41603.0
0
LINE
8
BLACK
10
55378.0
20
41603.0
11
55385.0
21
41284.0
0
LINE
8
BLACK
10
55385.0
20
41284.0
11
55494.0
21
41020.0
0
LINE
8
BLACK
10
55494.0
20
41020.0
11
55615.0
21
40962.0
0
LINE
8
BLACK
10
55615.0
20
40962.0
11
56114.0
21
41461.0
0
LINE
8
BLACK
10
56114.0
20
41461.0
11
56114.0
21
41319.0
0
LINE
8
BLACK
10
56114.0
20
41319.0
11
55686.0
21
40891.0
0
LINE
8
BLACK
10
55686.0
20
40891.0
11
55744.0
21
40770.0
0
LINE
8
BLACK
10
55744.0
20
40770.0
11
56043.0
21
40654.0
0
LINE
8
BLACK
10
56043.0
20
40654.0
11
56362.0
21
40661.0
0
LINE
8
BLACK
10
56362.0
20
40661.0
11
56626.0
21
40770.0
0
LINE
8
BLACK
10
56626.0
20
40770.0
11
56684.0
21
40891.0
0
LINE
8
BLACK
10
56684.0
20
40891.0
11
56684.0
21
40589.0
0
LINE
8
BLACK
10
56684.0
20
40589.0
11
56652.0
21
40556.0
0
LINE
8
BLACK
10
56652.0
20
40556.0
11
56545.0
21
40395.0
0
LINE
8
BLACK
10
56545.0
20
40395.0
11
56507.0
21
40205.0
0
LINE
8
BLACK
10
56507.0
20
40205.0
11
56544.0
21
40019.0
0
LINE
8
BLACK
10
56544.0
20
40019.0
11
56327.0
21
40103.0
0
LINE
8
BLACK
10
56327.0
20
40103.0
11
56008.0
21
40096.0
0
LINE
8
BLACK
10
56008.0
20
40096.0
11
55744.0
21
39987.0
0
LINE
8
BLACK
10
55744.0
20
39987.0
11
55686.0
21
39866.0
0
LINE
8
BLACK
10
55686.0
20
39866.0
11
56150.0
21
39402.0
0
LINE
8
BLACK
10
56150.0
20
39402.0
11
56185.0
21
39367.0
0
LINE
8
BLACK
10
56185.0
20
39367.0
11
56256.0
21
39296.0
0
LINE
8
BLACK
10
56256.0
20
39296.0
11
56185.0
21
39225.0
0
LINE
8
BLACK
10
56185.0
20
39225.0
11
56150.0
21
39190.0
0
LINE
8
BLACK
10
56150.0
20
39190.0
11
56114.0
21
39154.0
0
LINE
8
BLACK
10
56114.0
20
39154.0
11
56114.0
21
39296.0
0
LINE
8
BLACK
10
56114.0
20
39296.0
11
55615.0
21
39795.0
0
LINE
8
BLACK
10
55615.0
20
39795.0
11
55494.0
21
39737.0
0
LINE
8
BLACK
10
55494.0
20
39737.0
11
55378.0
21
39438.0
0
LINE
8
BLACK
10
55378.0
20
39438.0
11
55385.0
21
39119.0
0
LINE
8
BLACK
10
55385.0
20
39119.0
11
55494.0
21
38855.0
0
LINE
8
BLACK
10
55494.0
20
38855.0
11
55615.0
21
38797.0
0
LINE
8
BLACK
10
55615.0
20
38797.0
11
56114.0
21
39296.0
0
LINE
8
BLACK
10
56114.0
20
39296.0
11
56114.0
21
39154.0
0
LINE
8
BLACK
10
56114.0
20
39154.0
11
55686.0
21
38726.0
0
LINE
8
BLACK
10
55686.0
20
38726.0
11
55744.0
21
38605.0
0
LINE
8
BLACK
10
55744.0
20
38605.0
11
56043.0
21
38489.0
0
LINE
8
BLACK
10
56043.0
20
38489.0
11
56362.0
21
38496.0
0
LINE
8
BLACK
10
56362.0
20
38496.0
11
56626.0
21
38605.0
0
LINE
8
BLACK
10
56626.0
20
38605.0
11
56635.0
21
38624.0
0
LINE
8
BLACK
10
56635.0
20
38624.0
11
56635.0
21
38414.0
0
LINE
8
BLACK
10
56635.0
20
38414.0
11
55352.0
21
37131.0
0
LINE
8
BLACK
10
55352.0
20
37131.0
11
55352.0
21
39132.0
0
LINE
8
BLACK
10
55352.0
20
39132.0
11
55352.0
21
39458.0
0
LINE
8
BLACK
10
55352.0
20
39458.0
11
55339.0
21
39490.0
0
LINE
8
BLACK
10
55339.0
20
39490.0
11
55339.0
21
41319.0
0
LINE
8
BLACK
10
55339.0
20
41319.0
11
55332.0
21
41638.0
0
LINE
8
BLACK
10
55332.0
20
41638.0
11
55223.0
21
41902.0
0
LINE
8
BLACK
10
55223.0
20
41902.0
11
55102.0
21
41960.0
0
LINE
8
BLACK
10
55102.0
20
41960.0
11
55031.0
21
41889.0
0
LINE
8
BLACK
10
55031.0
20
41889.0
11
55031.0
21
42031.0
0
LINE
8
BLACK
10
55031.0
20
42031.0
11
54973.0
21
42152.0
0
LINE
8
BLACK
10
54973.0
20
42152.0
11
54674.0
21
42268.0
0
LINE
8
BLACK
10
54674.0
20
42268.0
11
54355.0
21
42261.0
0
LINE
8
BLACK
10
54355.0
20
42261.0
11
54091.0
21
42152.0
0
LINE
8
BLACK
10
54091.0
20
42152.0
11
54033.0
21
42031.0
0
LINE
8
BLACK
10
54033.0
20
42031.0
11
54532.0
21
41532.0
0
LINE
8
BLACK
10
54532.0
20
41532.0
11
55031.0
21
42031.0
0
LINE
8
BLACK
10
55031.0
20
42031.0
11
55031.0
21
41889.0
0
LINE
8
BLACK
10
55031.0
20
41889.0
11
54603.0
21
41461.0
0
LINE
8
BLACK
10
54603.0
20
41461.0
11
55102.0
21
40962.0
0
LINE
8
BLACK
10
55102.0
20
40962.0
11
55223.0
21
41020.0
0
LINE
8
BLACK
10
55223.0
20
41020.0
11
55339.0
21
41319.0
0
LINE
8
BLACK
10
55339.0
20
41319.0
11
55339.0
21
39490.0
0
LINE
8
BLACK
10
55339.0
20
39490.0
11
55228.0
21
39759.0
0
LINE
8
BLACK
10
55228.0
20
39759.0
11
55031.0
21
39956.0
0
LINE
8
BLACK
10
55031.0
20
39956.0
11
55031.0
21
40891.0
0
LINE
8
BLACK
10
55031.0
20
40891.0
11
54532.0
21
41390.0
0
LINE
8
BLACK
10
54532.0
20
41390.0
11
54461.0
21
41319.0
0
LINE
8
BLACK
10
54461.0
20
41319.0
11
54461.0
21
41461.0
0
LINE
8
BLACK
10
54461.0
20
41461.0
11
53962.0
21
41960.0
0
LINE
8
BLACK
10
53962.0
20
41960.0
11
53841.0
21
41902.0
0
LINE
8
BLACK
10
53841.0
20
41902.0
11
53725.0
21
41603.0
0
LINE
8
BLACK
10
53725.0
20
41603.0
11
53732.0
21
41284.0
0
LINE
8
BLACK
10
53732.0
20
41284.0
11
53841.0
21
41020.0
0
LINE
8
BLACK
10
53841.0
20
41020.0
11
53962.0
21
40962.0
0
LINE
8
BLACK
10
53962.0
20
40962.0
11
54461.0
21
41461.0
0
LINE
8
BLACK
10
54461.0
20
41461.0
11
54461.0
21
41319.0
0
LINE
8
BLACK
10
54461.0
20
41319.0
11
54033.0
21
40891.0
0
LINE
8
BLACK
10
54033.0
20
40891.0
11
54091.0
21
40770.0
0
LINE
8
BLACK
10
54091.0
20
40770.0
11
54390.0
21
40654.0
0
LINE
8
BLACK
10
54390.0
20
40654.0
11
54709.0
21
40661.0
0
LINE
8
BLACK
10
54709.0
20
40661.0
11
54973.0
21
40770.0
0
LINE
8
BLACK
10
54973.0
20
40770.0
11
55031.0
21
40891.0
0
LINE
8
BLACK
10
55031.0
20
40891.0
11
55031.0
21
39956.0
0
LINE
8
BLACK
10
55031.0
20
39956.0
11
54997.0
21
39990.0
0
LINE
8
BLACK
10
54997.0
20
39990.0
11
54696.0
21
40116.0
0
LINE
8
BLACK
10
54696.0
20
40116.0
11
54370.0
21
40116.0
0
LINE
8
BLACK
10
54370.0
20
40116.0
11
54069.0
21
39992.0
0
LINE
8
BLACK
10
54069.0
20
39992.0
11
53838.0
21
39761.0
0
LINE
8
BLACK
10
53838.0
20
39761.0
11
53712.0
21
39460.0
0
LINE
8
BLACK
10
53712.0
20
39460.0
11
53712.0
21
39134.0
0
LINE
8
BLACK
10
53712.0
20
39134.0
11
53836.0
21
38833.0
0
LINE
8
BLACK
10
53836.0
20
38833.0
11
54067.0
21
38602.0
0
LINE
8
BLACK
10
54067.0
20
38602.0
11
54368.0
21
38476.0
0
LINE
8
BLACK
10
54368.0
20
38476.0
11
54694.0
21
38476.0
0
LINE
8
BLACK
10
54694.0
20
38476.0
11
54995.0
21
38600.0
0
LINE
8
BLACK
10
54995.0
20
38600.0
11
55226.0
21
38831.0
0
LINE
8
BLACK
10
55226.0
20
38831.0
11
55352.0
21
39132.0
0
LINE
8
BLACK
10
55352.0
20
39132.0
11
55352.0
21
37131.0
0
LINE
8
BLACK
10
55352.0
20
37131.0
11
54959.0
21
36738.0
0
LINE
8
BLACK
10
54959.0
20
36738.0
11
54957.0
21
36736.0
0
LINE
8
BLACK
10
54957.0
20
36736.0
11
54568.0
21
36347.0
0
LINE
8
BLACK
10
54568.0
20
36347.0
11
54566.0
21
36345.0
0
LINE
8
BLACK
10
54566.0
20
36345.0
11
54564.0
21
36343.0
0
LINE
8
BLACK
10
54564.0
20
36343.0
11
54433.0
21
36211.0
0
LINE
8
BLACK
10
54433.0
20
36211.0
11
54433.0
21
36054.0
0
LINE
8
BLACK
10
54433.0
20
36054.0
11
54421.0
21
35994.0
0
LINE
8
BLACK
10
54421.0
20
35994.0
11
54421.0
21
35614.0
0
LINE
8
BLACK
10
54421.0
20
35614.0
11
54358.0
21
35677.0
0
LINE
8
BLACK
10
54358.0
20
35677.0
11
54267.0
21
35715.0
0
LINE
8
BLACK
10
54267.0
20
35715.0
11
54168.0
21
35715.0
0
LINE
8
BLACK
10
54168.0
20
35715.0
11
53686.0
21
35715.0
0
LINE
8
BLACK
10
53686.0
20
35715.0
11
53686.0
21
39154.0
0
LINE
8
BLACK
10
53686.0
20
39154.0
11
53686.0
21
41319.0
0
LINE
8
BLACK
10
53686.0
20
41319.0
11
53679.0
21
41638.0
0
LINE
8
BLACK
10
53679.0
20
41638.0
11
53570.0
21
41902.0
0
LINE
8
BLACK
10
53570.0
20
41902.0
11
53449.0
21
41960.0
0
LINE
8
BLACK
10
53449.0
20
41960.0
11
53378.0
21
41889.0
0
LINE
8
BLACK
10
53378.0
20
41889.0
11
53378.0
21
42031.0
0
LINE
8
BLACK
10
53378.0
20
42031.0
11
53320.0
21
42152.0
0
LINE
8
BLACK
10
53320.0
20
42152.0
11
53021.0
21
42268.0
0
LINE
8
BLACK
10
53021.0
20
42268.0
11
52702.0
21
42261.0
0
LINE
8
BLACK
10
52702.0
20
42261.0
11
52438.0
21
42152.0
0
LINE
8
BLACK
10
52438.0
20
42152.0
11
52380.0
21
42031.0
0
LINE
8
BLACK
10
52380.0
20
42031.0
11
52879.0
21
41532.0
0
LINE
8
BLACK
10
52879.0
20
41532.0
11
53378.0
21
42031.0
0
LINE
8
BLACK
10
53378.0
20
42031.0
11
53378.0
21
41889.0
0
LINE
8
BLACK
10
53378.0
20
41889.0
11
52950.0
21
41461.0
0
LINE
8
BLACK
10
52950.0
20
41461.0
11
53449.0
21
40962.0
0
LINE
8
BLACK
10
53449.0
20
40962.0
11
53570.0
21
41020.0
0
LINE
8
BLACK
10
53570.0
20
41020.0
11
53686.0
21
41319.0
0
LINE
8
BLACK
10
53686.0
20
41319.0
11
53686.0
21
39154.0
0
LINE
8
BLACK
10
53686.0
20
39154.0
11
53679.0
21
39473.0
0
LINE
8
BLACK
10
53679.0
20
39473.0
11
53570.0
21
39737.0
0
LINE
8
BLACK
10
53570.0
20
39737.0
11
53449.0
21
39795.0
0
LINE
8
BLACK
10
53449.0
20
39795.0
11
53378.0
21
39724.0
0
LINE
8
BLACK
10
53378.0
20
39724.0
11
53378.0
21
39866.0
0
LINE
8
BLACK
10
53378.0
20
39866.0
11
53378.0
21
40891.0
0
LINE
8
BLACK
10
53378.0
20
40891.0
11
52879.0
21
41390.0
0
LINE
8
BLACK
10
52879.0
20
41390.0
11
52808.0
21
41319.0
0
LINE
8
BLACK
10
52808.0
20
41319.0
11
52808.0
21
41461.0
0
LINE
8
BLACK
10
52808.0
20
41461.0
11
52309.0
21
41960.0
0
LINE
8
BLACK
10
52309.0
20
41960.0
11
52198.0
21
41907.0
0
LINE
8
BLACK
10
52198.0
20
41907.0
11
52198.0
21
44012.0
0
LINE
8
BLACK
10
52198.0
20
44012.0
11
52187.0
21
44247.0
0
LINE
8
BLACK
10
52187.0
20
44247.0
11
52118.0
21
44413.0
0
LINE
8
BLACK
10
52118.0
20
44413.0
11
52019.0
21
44446.0
0
LINE
8
BLACK
10
52019.0
20
44446.0
11
51948.0
21
44375.0
0
LINE
8
BLACK
10
51948.0
20
44375.0
11
51948.0
21
44517.0
0
LINE
8
BLACK
10
51948.0
20
44517.0
11
51915.0
21
44616.0
0
LINE
8
BLACK
10
51915.0
20
44616.0
11
51696.0
21
44696.0
0
LINE
8
BLACK
10
51696.0
20
44696.0
11
51461.0
21
44685.0
0
LINE
8
BLACK
10
51461.0
20
44685.0
11
51295.0
21
44616.0
0
LINE
8
BLACK
10
51295.0
20
44616.0
11
51262.0
21
44517.0
0
LINE
8
BLACK
10
51262.0
20
44517.0
11
51605.0
21
44174.0
0
LINE
8
BLACK
10
51605.0
20
44174.0
11
51948.0
21
44517.0
0
LINE
8
BLACK
10
51948.0
20
44517.0
11
51948.0
21
44375.0
0
LINE
8
BLACK
10
51948.0
20
44375.0
11
51676.0
21
44103.0
0
LINE
8
BLACK
10
51676.0
20
44103.0
11
52019.0
21
43760.0
0
LINE
8
BLACK
10
52019.0
20
43760.0
11
52118.0
21
43793.0
0
LINE
8
BLACK
10
52118.0
20
43793.0
11
52198.0
21
44012.0
0
LINE
8
BLACK
10
52198.0
20
44012.0
11
52198.0
21
41907.0
0
LINE
8
BLACK
10
52198.0
20
41907.0
11
52188.0
21
41902.0
0
LINE
8
BLACK
10
52188.0
20
41902.0
11
52072.0
21
41603.0
0
LINE
8
BLACK
10
52072.0
20
41603.0
11
52079.0
21
41284.0
0
LINE
8
BLACK
10
52079.0
20
41284.0
11
52188.0
21
41020.0
0
LINE
8
BLACK
10
52188.0
20
41020.0
11
52309.0
21
40962.0
0
LINE
8
BLACK
10
52309.0
20
40962.0
11
52808.0
21
41461.0
0
LINE
8
BLACK
10
52808.0
20
41461.0
11
52808.0
21
41319.0
0
LINE
8
BLACK
10
52808.0
20
41319.0
11
52380.0
21
40891.0
0
LINE
8
BLACK
10
52380.0
20
40891.0
11
52438.0
21
40770.0
0
LINE
8
BLACK
10
52438.0
20
40770.0
11
52737.0
21
40654.0
0
LINE
8
BLACK
10
52737.0
20
40654.0
11
53056.0
21
40661.0
0
LINE
8
BLACK
10
53056.0
20
40661.0
11
53320.0
21
40770.0
0
LINE
8
BLACK
10
53320.0
20
40770.0
11
53378.0
21
40891.0
0
LINE
8
BLACK
10
53378.0
20
40891.0
11
53378.0
21
39866.0
0
LINE
8
BLACK
10
53378.0
20
39866.0
11
53320.0
21
39987.0
0
LINE
8
BLACK
10
53320.0
20
39987.0
11
53021.0
21
40103.0
0
LINE
8
BLACK
10
53021.0
20
40103.0
11
52702.0
21
40096.0
0
LINE
8
BLACK
10
52702.0
20
40096.0
11
52438.0
21
39987.0
0
LINE
8
BLACK
10
52438.0
20
39987.0
11
52380.0
21
39866.0
0
LINE
8
BLACK
10
52380.0
20
39866.0
11
52879.0
21
39367.0
0
LINE
8
BLACK
10
52879.0
20
39367.0
11
53378.0
21
39866.0
0
LINE
8
BLACK
10
53378.0
20
39866.0
11
53378.0
21
39724.0
0
LINE
8
BLACK
10
53378.0
20
39724.0
11
52950.0
21
39296.0
0
LINE
8
BLACK
10
52950.0
20
39296.0
11
53449.0
21
38797.0
0
LINE
8
BLACK
10
53449.0
20
38797.0
11
53570.0
21
38855.0
0
LINE
8
BLACK
10
53570.0
20
38855.0
11
53686.0
21
39154.0
0
LINE
8
BLACK
10
53686.0
20
39154.0
11
53686.0
21
35715.0
0
LINE
8
BLACK
10
53686.0
20
35715.0
11
53568.0
21
35715.0
0
LINE
8
BLACK
10
53568.0
20
35715.0
11
53476.0
21
35677.0
0
LINE
8
BLACK
10
53476.0
20
35677.0
11
53406.0
21
35607.0
0
LINE
8
BLACK
10
53406.0
20
35607.0
11
53378.0
21
35540.0
0
LINE
8
BLACK
10
53378.0
20
35540.0
11
53378.0
21
38726.0
0
LINE
8
BLACK
10
53378.0
20
38726.0
11
52879.0
21
39225.0
0
LINE
8
BLACK
10
52879.0
20
39225.0
11
52808.0
21
39154.0
0
LINE
8
BLACK
10
52808.0
20
39154.0
11
52808.0
21
39296.0
0
LINE
8
BLACK
10
52808.0
20
39296.0
11
52309.0
21
39795.0
0
LINE
8
BLACK
10
52309.0
20
39795.0
11
52188.0
21
39737.0
0
LINE
8
BLACK
10
52188.0
20
39737.0
11
52072.0
21
39438.0
0
LINE
8
BLACK
10
52072.0
20
39438.0
11
52079.0
21
39119.0
0
LINE
8
BLACK
10
52079.0
20
39119.0
11
52188.0
21
38855.0
0
LINE
8
BLACK
10
52188.0
20
38855.0
11
52309.0
21
38797.0
0
LINE
8
BLACK
10
52309.0
20
38797.0
11
52808.0
21
39296.0
0
LINE
8
BLACK
10
52808.0
20
39296.0
11
52808.0
21
39154.0
0
LINE
8
BLACK
10
52808.0
20
39154.0
11
52380.0
21
38726.0
0
LINE
8
BLACK
10
52380.0
20
38726.0
11
52438.0
21
38605.0
0
LINE
8
BLACK
10
52438.0
20
38605.0
11
52737.0
21
38489.0
0
LINE
8
BLACK
10
52737.0
20
38489.0
11
53056.0
21
38496.0
0
LINE
8
BLACK
10
53056.0
20
38496.0
11
53320.0
21
38605.0
0
LINE
8
BLACK
10
53320.0
20
38605.0
11
53378.0
21
38726.0
0
LINE
8
BLACK
10
53378.0
20
38726.0
11
53378.0
21
35540.0
0
LINE
8
BLACK
10
53378.0
20
35540.0
11
53368.0
21
35516.0
0
LINE
8
BLACK
10
53368.0
20
35516.0
11
53368.0
21
35417.0
0
LINE
8
BLACK
10
53368.0
20
35417.0
11
53368.0
21
34822.0
0
LINE
8
BLACK
10
53368.0
20
34822.0
11
52801.0
21
34822.0
0
LINE
8
BLACK
10
52801.0
20
34822.0
11
52801.0
21
36841.0
0
LINE
8
BLACK
10
52801.0
20
36841.0
11
51722.0
21
37920.0
0
LINE
8
BLACK
10
51722.0
20
37920.0
11
51722.0
21
38633.0
0
LINE
8
BLACK
10
51722.0
20
38633.0
11
51920.0
21
38831.0
0
LINE
8
BLACK
10
51920.0
20
38831.0
11
52046.0
21
39132.0
0
LINE
8
BLACK
10
52046.0
20
39132.0
11
52046.0
21
39458.0
0
LINE
8
BLACK
10
52046.0
20
39458.0
11
51922.0
21
39759.0
0
LINE
8
BLACK
10
51922.0
20
39759.0
11
51691.0
21
39990.0
0
LINE
8
BLACK
10
51691.0
20
39990.0
11
51390.0
21
40116.0
0
LINE
8
BLACK
10
51390.0
20
40116.0
11
51064.0
21
40116.0
0
LINE
8
BLACK
10
51064.0
20
40116.0
11
50763.0
21
39992.0
0
LINE
8
BLACK
10
50763.0
20
39992.0
11
50675.0
21
39904.0
0
LINE
8
BLACK
10
50675.0
20
39904.0
11
50675.0
21
40853.0
0
LINE
8
BLACK
10
50675.0
20
40853.0
11
50761.0
21
40767.0
0
LINE
8
BLACK
10
50761.0
20
40767.0
11
51062.0
21
40641.0
0
LINE
8
BLACK
10
51062.0
20
40641.0
11
51388.0
21
40641.0
0
LINE
8
BLACK
10
51388.0
20
40641.0
11
51689.0
21
40765.0
0
LINE
8
BLACK
10
51689.0
20
40765.0
11
51920.0
21
40996.0
0
LINE
8
BLACK
10
51920.0
20
40996.0
11
52046.0
21
41297.0
0
LINE
8
BLACK
10
52046.0
20
41297.0
11
52046.0
21
41623.0
0
LINE
8
BLACK
10
52046.0
20
41623.0
11
51948.0
21
41861.0
0
LINE
8
BLACK
10
51948.0
20
41861.0
11
51948.0
21
43689.0
0
LINE
8
BLACK
10
51948.0
20
43689.0
11
51605.0
21
44032.0
0
LINE
8
BLACK
10
51605.0
20
44032.0
11
51534.0
21
43961.0
0
LINE
8
BLACK
10
51534.0
20
43961.0
11
51534.0
21
44103.0
0
LINE
8
BLACK
10
51534.0
20
44103.0
11
51191.0
21
44446.0
0
LINE
8
BLACK
10
51191.0
20
44446.0
11
51092.0
21
44413.0
0
LINE
8
BLACK
10
51092.0
20
44413.0
11
51012.0
21
44194.0
0
LINE
8
BLACK
10
51012.0
20
44194.0
11
51023.0
21
43959.0
0
LINE
8
BLACK
10
51023.0
20
43959.0
11
51092.0
21
43793.0
0
LINE
8
BLACK
10
51092.0
20
43793.0
11
51191.0
21
43760.0
0
LINE
8
BLACK
10
51191.0
20
43760.0
11
51534.0
21
44103.0
0
LINE
8
BLACK
10
51534.0
20
44103.0
11
51534.0
21
43961.0
0
LINE
8
BLACK
10
51534.0
20
43961.0
11
51262.0
21
43689.0
0
LINE
8
BLACK
10
51262.0
20
43689.0
11
51295.0
21
43590.0
0
LINE
8
BLACK
10
51295.0
20
43590.0
11
51514.0
21
43510.0
0
LINE
8
BLACK
10
51514.0
20
43510.0
11
51749.0
21
43521.0
0
LINE
8
BLACK
10
51749.0
20
43521.0
11
51915.0
21
43590.0
0
LINE
8
BLACK
10
51915.0
20
43590.0
11
51948.0
21
43689.0
0
LINE
8
BLACK
10
51948.0
20
43689.0
11
51948.0
21
41861.0
0
LINE
8
BLACK
10
51948.0
20
41861.0
11
51922.0
21
41924.0
0
LINE
8
BLACK
10
51922.0
20
41924.0
11
51691.0
21
42155.0
0
LINE
8
BLACK
10
51691.0
20
42155.0
11
51390.0
21
42281.0
0
LINE
8
BLACK
10
51390.0
20
42281.0
11
51064.0
21
42281.0
0
LINE
8
BLACK
10
51064.0
20
42281.0
11
50763.0
21
42157.0
0
LINE
8
BLACK
10
50763.0
20
42157.0
11
50675.0
21
42069.0
0
LINE
8
BLACK
10
50675.0
20
42069.0
11
50675.0
21
45137.0
0
LINE
8
BLACK
10
50675.0
20
45137.0
11
43331.0
21
45137.0
0
LINE
8
BLACK
10
43331.0
20
45137.0
11
43331.0
21
40492.0
0
LINE
8
BLACK
10
43331.0
20
40492.0
11
43197.0
21
40492.0
0
LINE
8
BLACK
10
43197.0
20
40492.0
11
43197.0
21
41960.0
0
LINE
8
BLACK
10
43197.0
20
41960.0
11
43197.0
21
42544.0
0
LINE
8
BLACK
10
43197.0
20
42544.0
11
42974.0
21
43084.0
0
LINE
8
BLACK
10
42974.0
20
43084.0
11
42561.0
21
43498.0
0
LINE
8
BLACK
10
42561.0
20
43498.0
11
42021.0
21
43722.0
0
LINE
8
BLACK
10
42021.0
20
43722.0
11
41437.0
21
43722.0
0
LINE
8
BLACK
10
41437.0
20
43722.0
11
40897.0
21
43499.0
0
LINE
8
BLACK
10
40897.0
20
43499.0
11
40483.0
21
43086.0
0
LINE
8
BLACK
10
40483.0
20
43086.0
11
40259.0
21
42546.0
0
LINE
8
BLACK
10
40259.0
20
42546.0
11
40259.0
21
41962.0
0
LINE
8
BLACK
10
40259.0
20
41962.0
11
40482.0
21
41422.0
0
LINE
8
BLACK
10
40482.0
20
41422.0
11
40895.0
21
41008.0
0
LINE
8
BLACK
10
40895.0
20
41008.0
11
41435.0
21
40784.0
0
LINE
8
BLACK
10
41435.0
20
40784.0
11
42019.0
21
40784.0
0
LINE
8
BLACK
10
42019.0
20
40784.0
11
42559.0
21
41007.0
0
LINE
8
BLACK
10
42559.0
20
41007.0
11
42973.0
21
41420.0
0
LINE
8
BLACK
10
42973.0
20
41420.0
11
43197.0
21
41960.0
0
LINE
8
BLACK
10
43197.0
20
41960.0
11
43197.0
21
40492.0
0
LINE
8
BLACK
10
43197.0
20
40492.0
11
40084.0
21
40492.0
0
LINE
8
BLACK
10
40084.0
20
40492.0
11
40084.0
21
45865.0
0
LINE
8
BLACK
10
40084.0
20
45865.0
11
40546.0
21
45865.0
0
LINE
8
BLACK
10
40546.0
20
45865.0
11
66924.0
21
45865.0
0
LINE
8
BLACK
10
66924.0
20
45865.0
11
67318.0
21
45865.0
0
LINE
8
BLACK
10
67318.0
20
45865.0
11
67712.0
21
45865.0
0
LINE
8
BLACK
10
67712.0
20
45865.0
11
67780.0
21
45865.0
0
LINE
8
BLACK
10
67780.0
20
45865.0
11
67780.0
21
30767.0
0
LINE
8
BLACK
10
50260.0
20
40492.0
11
50071.0
21
40492.0
0
LINE
8
BLACK
10
50071.0
20
40492.0
11
50071.0
21
40891.0
0
LINE
8
BLACK
10
50071.0
20
40891.0
11
49572.0
21
41390.0
0
LINE
8
BLACK
10
49572.0
20
41390.0
11
49501.0
21
41319.0
0
LINE
8
BLACK
10
49501.0
20
41319.0
11
49501.0
21
41461.0
0
LINE
8
BLACK
10
49501.0
20
41461.0
11
49002.0
21
41960.0
0
LINE
8
BLACK
10
49002.0
20
41960.0
11
48881.0
21
41902.0
0
LINE
8
BLACK
10
48881.0
20
41902.0
11
48765.0
21
41603.0
0
LINE
8
BLACK
10
48765.0
20
41603.0
11
48772.0
21
41284.0
0
LINE
8
BLACK
10
48772.0
20
41284.0
11
48881.0
21
41020.0
0
LINE
8
BLACK
10
48881.0
20
41020.0
11
49002.0
21
40962.0
0
LINE
8
BLACK
10
49002.0
20
40962.0
11
49501.0
21
41461.0
0
LINE
8
BLACK
10
49501.0
20
41461.0
11
49501.0
21
41319.0
0
LINE
8
BLACK
10
49501.0
20
41319.0
11
49073.0
21
40891.0
0
LINE
8
BLACK
10
49073.0
20
40891.0
11
49131.0
21
40770.0
0
LINE
8
BLACK
10
49131.0
20
40770.0
11
49430.0
21
40654.0
0
LINE
8
BLACK
10
49430.0
20
40654.0
11
49749.0
21
40661.0
0
LINE
8
BLACK
10
49749.0
20
40661.0
11
50013.0
21
40770.0
0
LINE
8
BLACK
10
50013.0
20
40770.0
11
50071.0
21
40891.0
0
LINE
8
BLACK
10
50071.0
20
40891.0
11
50071.0
21
40492.0
0
LINE
8
BLACK
10
50071.0
20
40492.0
11
48726.0
21
40492.0
0
LINE
8
BLACK
10
48726.0
20
40492.0
11
48726.0
21
41319.0
0
LINE
8
BLACK
10
48726.0
20
41319.0
11
48719.0
21
41638.0
0
LINE
8
BLACK
10
48719.0
20
41638.0
11
48610.0
21
41902.0
0
LINE
8
BLACK
10
48610.0
20
41902.0
11
48489.0
21
41960.0
0
LINE
8
BLACK
10
48489.0
20
41960.0
11
48418.0
21
41889.0
0
LINE
8
BLACK
10
48418.0
20
41889.0
11
48418.0
21
42031.0
0
LINE
8
BLACK
10
48418.0
20
42031.0
11
48360.0
21
42152.0
0
LINE
8
BLACK
10
48360.0
20
42152.0
11
48061.0
21
42268.0
0
LINE
8
BLACK
10
48061.0
20
42268.0
11
47742.0
21
42261.0
0
LINE
8
BLACK
10
47742.0
20
42261.0
11
47478.0
21
42152.0
0
LINE
8
BLACK
10
47478.0
20
42152.0
11
47420.0
21
42031.0
0
LINE
8
BLACK
10
47420.0
20
42031.0
11
47919.0
21
41532.0
0
LINE
8
BLACK
10
47919.0
20
41532.0
11
48418.0
21
42031.0
0
LINE
8
BLACK
10
48418.0
20
42031.0
11
48418.0
21
41889.0
0
LINE
8
BLACK
10
48418.0
20
41889.0
11
47990.0
21
41461.0
0
LINE
8
BLACK
10
47990.0
20
41461.0
11
48489.0
21
40962.0
0
LINE
8
BLACK
10
48489.0
20
40962.0
11
48610.0
21
41020.0
0
LINE
8
BLACK
10
48610.0
20
41020.0
11
48726.0
21
41319.0
0
LINE
8
BLACK
10
48726.0
20
41319.0
11
48726.0
21
40492.0
0
LINE
8
BLACK
10
48726.0
20
40492.0
11
48418.0
21
40492.0
0
LINE
8
BLACK
10
48418.0
20
40492.0
11
48418.0
21
40891.0
0
LINE
8
BLACK
10
48418.0
20
40891.0
11
47919.0
21
41390.0
0
LINE
8
BLACK
10
47919.0
20
41390.0
11
47848.0
21
41319.0
0
LINE
8
BLACK
10
47848.0
20
41319.0
11
47848.0
21
41461.0
0
LINE
8
BLACK
10
47848.0
20
41461.0
11
47349.0
21
41960.0
0
LINE
8
BLACK
10
47349.0
20
41960.0
11
47228.0
21
41902.0
0
LINE
8
BLACK
10
47228.0
20
41902.0
11
47112.0
21
41603.0
0
LINE
8
BLACK
10
47112.0
20
41603.0
11
47119.0
21
41284.0
0
LINE
8
BLACK
10
47119.0
20
41284.0
11
47228.0
21
41020.0
0
LINE
8
BLACK
10
47228.0
20
41020.0
11
47349.0
21
40962.0
0
LINE
8
BLACK
10
47349.0
20
40962.0
11
47848.0
21
41461.0
0
LINE
8
BLACK
10
47848.0
20
41461.0
11
47848.0
21
41319.0
0
LINE
8
BLACK
10
47848.0
20
41319.0
11
47420.0
21
40891.0
0
LINE
8
BLACK
10
47420.0
20
40891.0
11
47478.0
21
40770.0
0
LINE
8
BLACK
10
47478.0
20
40770.0
11
47777.0
21
40654.0
0
LINE
8
BLACK
10
47777.0
20
40654.0
11
48096.0
21
40661.0
0
LINE
8
BLACK
10
48096.0
20
40661.0
11
48360.0
21
40770.0
0
LINE
8
BLACK
10
48360.0
20
40770.0
11
48418.0
21
40891.0
0
LINE
8
BLACK
10
48418.0
20
40891.0
11
48418.0
21
40492.0
0
LINE
8
BLACK
10
48418.0
20
40492.0
11
47072.0
21
40492.0
0
LINE
8
BLACK
10
47072.0
20
40492.0
11
47072.0
21
41319.0
0
LINE
8
BLACK
10
47072.0
20
41319.0
11
47065.0
21
41638.0
0
LINE
8
BLACK
10
47065.0
20
41638.0
11
46956.0
21
41902.0
0
LINE
8
BLACK
10
46956.0
20
41902.0
11
46835.0
21
41960.0
0
LINE
8
BLACK
10
46835.0
20
41960.0
11
46764.0
21
41889.0
0
LINE
8
BLACK
10
46764.0
20
41889.0
11
46764.0
21
42031.0
0
LINE
8
BLACK
10
46764.0
20
42031.0
11
46706.0
21
42152.0
0
LINE
8
BLACK
10
46706.0
20
42152.0
11
46407.0
21
42268.0
0
LINE
8
BLACK
10
46407.0
20
42268.0
11
46088.0
21
42261.0
0
LINE
8
BLACK
10
46088.0
20
42261.0
11
45824.0
21
42152.0
0
LINE
8
BLACK
10
45824.0
20
42152.0
11
45766.0
21
42031.0
0
LINE
8
BLACK
10
45766.0
20
42031.0
11
46265.0
21
41532.0
0
LINE
8
BLACK
10
46265.0
20
41532.0
11
46764.0
21
42031.0
0
LINE
8
BLACK
10
46764.0
20
42031.0
11
46764.0
21
41889.0
0
LINE
8
BLACK
10
46764.0
20
41889.0
11
46336.0
21
41461.0
0
LINE
8
BLACK
10
46336.0
20
41461.0
11
46835.0
21
40962.0
0
LINE
8
BLACK
10
46835.0
20
40962.0
11
46956.0
21
41020.0
0
LINE
8
BLACK
10
46956.0
20
41020.0
11
47072.0
21
41319.0
0
LINE
8
BLACK
10
47072.0
20
41319.0
11
47072.0
21
40492.0
0
LINE
8
BLACK
10
47072.0
20
40492.0
11
46764.0
21
40492.0
0
LINE
8
BLACK
10
46764.0
20
40492.0
11
46764.0
21
40891.0
0
LINE
8
BLACK
10
46764.0
20
40891.0
11
46265.0
21
41390.0
0
LINE
8
BLACK
10
46265.0
20
41390.0
11
46194.0
21
41319.0
0
LINE
8
BLACK
10
46194.0
20
41319.0
11
46194.0
21
41461.0
0
LINE
8
BLACK
10
46194.0
20
41461.0
11
45695.0
21
41960.0
0
LINE
8
BLACK
10
45695.0
20
41960.0
11
45574.0
21
41902.0
0
LINE
8
BLACK
10
45574.0
20
41902.0
11
45458.0
21
41603.0
0
LINE
8
BLACK
10
45458.0
20
41603.0
11
45465.0
21
41284.0
0
LINE
8
BLACK
10
45465.0
20
41284.0
11
45574.0
21
41020.0
0
LINE
8
BLACK
10
45574.0
20
41020.0
11
45695.0
21
40962.0
0
LINE
8
BLACK
10
45695.0
20
40962.0
11
46194.0
21
41461.0
0
LINE
8
BLACK
10
46194.0
20
41461.0
11
46194.0
21
41319.0
0
LINE
8
BLACK
10
46194.0
20
41319.0
11
45766.0
21
40891.0
0
LINE
8
BLACK
10
45766.0
20
40891.0
11
45824.0
21
40770.0
0
LINE
8
BLACK
10
45824.0
20
40770.0
11
46123.0
21
40654.0
0
LINE
8
BLACK
10
46123.0
20
40654.0
11
46442.0
21
40661.0
0
LINE
8
BLACK
10
46442.0
20
40661.0
11
46706.0
21
40770.0
0
LINE
8
BLACK
10
46706.0
20
40770.0
11
46764.0
21
40891.0
0
LINE
8
BLACK
10
46764.0
20
40891.0
11
46764.0
21
40492.0
0
LINE
8
BLACK
10
46764.0
20
40492.0
11
45431.0
21
40492.0
0
LINE
8
BLACK
10
45431.0
20
40492.0
11
45431.0
21
41297.0
0
LINE
8
BLACK
10
45431.0
20
41297.0
11
45431.0
21
41623.0
0
LINE
8
BLACK
10
45431.0
20
41623.0
11
45307.0
21
41924.0
0
LINE
8
BLACK
10
45307.0
20
41924.0
11
45198.0
21
42033.0
0
LINE
8
BLACK
10
45198.0
20
42033.0
11
45198.0
21
44012.0
0
LINE
8
BLACK
10
45198.0
20
44012.0
11
45187.0
21
44247.0
0
LINE
8
BLACK
10
45187.0
20
44247.0
11
45118.0
21
44413.0
0
LINE
8
BLACK
10
45118.0
20
44413.0
11
45019.0
21
44446.0
0
LINE
8
BLACK
10
45019.0
20
44446.0
11
44948.0
21
44375.0
0
LINE
8
BLACK
10
44948.0
20
44375.0
11
44948.0
21
44517.0
0
LINE
8
BLACK
10
44948.0
20
44517.0
11
44915.0
21
44616.0
0
LINE
8
BLACK
10
44915.0
20
44616.0
11
44696.0
21
44696.0
0
LINE
8
BLACK
10
44696.0
20
44696.0
11
44461.0
21
44685.0
0
LINE
8
BLACK
10
44461.0
20
44685.0
11
44295.0
21
44616.0
0
LINE
8
BLACK
10
44295.0
20
44616.0
11
44262.0
21
44517.0
0
LINE
8
BLACK
10
44262.0
20
44517.0
11
44605.0
21
44174.0
0
LINE
8
BLACK
10
44605.0
20
44174.0
11
44948.0
21
44517.0
0
LINE
8
BLACK
10
44948.0
20
44517.0
11
44948.0
21
44375.0
0
LINE
8
BLACK
10
44948.0
20
44375.0
11
44676.0
21
44103.0
0
LINE
8
BLACK
10
44676.0
20
44103.0
11
45019.0
21
43760.0
0
LINE
8
BLACK
10
45019.0
20
43760.0
11
45118.0
21
43793.0
0
LINE
8
BLACK
10
45118.0
20
43793.0
11
45198.0
21
44012.0
0
LINE
8
BLACK
10
45198.0
20
44012.0
11
45198.0
21
42033.0
0
LINE
8
BLACK
10
45198.0
20
42033.0
11
45076.0
21
42155.0
0
LINE
8
BLACK
10
45076.0
20
42155.0
11
44948.0
21
42209.0
0
LINE
8
BLACK
10
44948.0
20
42209.0
11
44948.0
21
43689.0
0
LINE
8
BLACK
10
44948.0
20
43689.0
11
44605.0
21
44032.0
0
LINE
8
BLACK
10
44605.0
20
44032.0
11
44534.0
21
43961.0
0
LINE
8
BLACK
10
44534.0
20
43961.0
11
44534.0
21
44103.0
0
LINE
8
BLACK
10
44534.0
20
44103.0
11
44191.0
21
44446.0
0
LINE
8
BLACK
10
44191.0
20
44446.0
11
44092.0
21
44413.0
0
LINE
8
BLACK
10
44092.0
20
44413.0
11
44012.0
21
44194.0
0
LINE
8
BLACK
10
44012.0
20
44194.0
11
44023.0
21
43959.0
0
LINE
8
BLACK
10
44023.0
20
43959.0
11
44092.0
21
43793.0
0
LINE
8
BLACK
10
44092.0
20
43793.0
11
44191.0
21
43760.0
0
LINE
8
BLACK
10
44191.0
20
43760.0
11
44534.0
21
44103.0
0
LINE
8
BLACK
10
44534.0
20
44103.0
11
44534.0
21
43961.0
0
LINE
8
BLACK
10
44534.0
20
43961.0
11
44262.0
21
43689.0
0
LINE
8
BLACK
10
44262.0
20
43689.0
11
44295.0
21
43590.0
0
LINE
8
BLACK
10
44295.0
20
43590.0
11
44514.0
21
43510.0
0
LINE
8
BLACK
10
44514.0
20
43510.0
11
44749.0
21
43521.0
0
LINE
8
BLACK
10
44749.0
20
43521.0
11
44915.0
21
43590.0
0
LINE
8
BLACK
10
44915.0
20
43590.0
11
44948.0
21
43689.0
0
LINE
8
BLACK
10
44948.0
20
43689.0
11
44948.0
21
42209.0
0
LINE
8
BLACK
10
44948.0
20
42209.0
11
44775.0
21
42281.0
0
LINE
8
BLACK
10
44775.0
20
42281.0
11
44449.0
21
42281.0
0
LINE
8
BLACK
10
44449.0
20
42281.0
11
44148.0
21
42157.0
0
LINE
8
BLACK
10
44148.0
20
42157.0
11
43917.0
21
41926.0
0
LINE
8
BLACK
10
43917.0
20
41926.0
11
43791.0
21
41625.0
0
LINE
8
BLACK
10
43791.0
20
41625.0
11
43791.0
21
41299.0
0
LINE
8
BLACK
10
43791.0
20
41299.0
11
43915.0
21
40998.0
0
LINE
8
BLACK
10
43915.0
20
40998.0
11
44146.0
21
40767.0
0
LINE
8
BLACK
10
44146.0
20
40767.0
11
44447.0
21
40641.0
0
LINE
8
BLACK
10
44447.0
20
40641.0
11
44773.0
21
40641.0
0
LINE
8
BLACK
10
44773.0
20
40641.0
11
45074.0
21
40765.0
0
LINE
8
BLACK
10
45074.0
20
40765.0
11
45305.0
21
40996.0
0
LINE
8
BLACK
10
45305.0
20
40996.0
11
45431.0
21
41297.0
0
LINE
8
BLACK
10
45431.0
20
41297.0
11
45431.0
21
40492.0
0
LINE
8
BLACK
10
45431.0
20
40492.0
11
43667.0
21
40492.0
0
LINE
8
BLACK
10
43667.0
20
40492.0
11
43667.0
21
44801.0
0
LINE
8
BLACK
10
43667.0
20
44801.0
11
50260.0
21
44801.0
0
LINE
8
BLACK
10
50260.0
20
44801.0
11
50260.0
21
41904.0
0
LINE
8
BLACK
10
50260.0
20
41904.0
11
50142.0
21
41960.0
0
LINE
8
BLACK
10
50142.0
20
41960.0
11
50071.0
21
41889.0
0
LINE
8
BLACK
10
50071.0
20
41889.0
11
50071.0
21
42031.0
0
LINE
8
BLACK
10
50071.0
20
42031.0
11
50013.0
21
42152.0
0
LINE
8
BLACK
10
50013.0
20
42152.0
11
49714.0
21
42268.0
0
LINE
8
BLACK
10
49714.0
20
42268.0
11
49395.0
21
42261.0
0
LINE
8
BLACK
10
49395.0
20
42261.0
11
49131.0
21
42152.0
0
LINE
8
BLACK
10
49131.0
20
42152.0
11
49073.0
21
42031.0
0
LINE
8
BLACK
10
49073.0
20
42031.0
11
49572.0
21
41532.0
0
LINE
8
BLACK
10
49572.0
20
41532.0
11
50071.0
21
42031.0
0
LINE
8
BLACK
10
50071.0
20
42031.0
11
50071.0
21
41889.0
0
LINE
8
BLACK
10
50071.0
20
41889.0
11
49643.0
21
41461.0
0
LINE
8
BLACK
10
49643.0
20
41461.0
11
50142.0
21
40962.0
0
LINE
8
BLACK
10
50142.0
20
40962.0
11
50260.0
21
41019.0
0
LINE
8
BLACK
10
50260.0
20
41019.0
11
50260.0
21
40492.0
0
LINE
8
BLACK
10
63882.0
20
37500.0
11
63606.0
21
37500.0
0
LINE
8
BLACK
10
63606.0
20
37500.0
11
63606.0
21
39154.0
0
LINE
8
BLACK
10
63606.0
20
39154.0
11
63606.0
21
41319.0
0
LINE
8
BLACK
10
63606.0
20
41319.0
11
63599.0
21
41638.0
0
LINE
8
BLACK
10
63599.0
20
41638.0
11
63490.0
21
41902.0
0
LINE
8
BLACK
10
63490.0
20
41902.0
11
63369.0
21
41960.0
0
LINE
8
BLACK
10
63369.0
20
41960.0
11
63340.0
21
41931.0
0
LINE
8
BLACK
10
63340.0
20
41931.0
11
63340.0
21
44091.0
0
LINE
8
BLACK
10
63340.0
20
44091.0
11
63329.0
21
44326.0
0
LINE
8
BLACK
10
63329.0
20
44326.0
11
63260.0
21
44492.0
0
LINE
8
BLACK
10
63260.0
20
44492.0
11
63161.0
21
44525.0
0
LINE
8
BLACK
10
63161.0
20
44525.0
11
63090.0
21
44454.0
0
LINE
8
BLACK
10
63090.0
20
44454.0
11
63090.0
21
44596.0
0
LINE
8
BLACK
10
63090.0
20
44596.0
11
63057.0
21
44695.0
0
LINE
8
BLACK
10
63057.0
20
44695.0
11
62838.0
21
44775.0
0
LINE
8
BLACK
10
62838.0
20
44775.0
11
62603.0
21
44764.0
0
LINE
8
BLACK
10
62603.0
20
44764.0
11
62437.0
21
44695.0
0
LINE
8
BLACK
10
62437.0
20
44695.0
11
62404.0
21
44596.0
0
LINE
8
BLACK
10
62404.0
20
44596.0
11
62747.0
21
44253.0
0
LINE
8
BLACK
10
62747.0
20
44253.0
11
63090.0
21
44596.0
0
LINE
8
BLACK
10
63090.0
20
44596.0
11
63090.0
21
44454.0
0
LINE
8
BLACK
10
63090.0
20
44454.0
11
62818.0
21
44182.0
0
LINE
8
BLACK
10
62818.0
20
44182.0
11
63161.0
21
43839.0
0
LINE
8
BLACK
10
63161.0
20
43839.0
11
63260.0
21
43872.0
0
LINE
8
BLACK
10
63260.0
20
43872.0
11
63340.0
21
44091.0
0
LINE
8
BLACK
10
63340.0
20
44091.0
11
63340.0
21
41931.0
0
LINE
8
BLACK
10
63340.0
20
41931.0
11
63298.0
21
41889.0
0
LINE
8
BLACK
10
63298.0
20
41889.0
11
63298.0
21
42031.0
0
LINE
8
BLACK
10
63298.0
20
42031.0
11
63240.0
21
42152.0
0
LINE
8
BLACK
10
63240.0
20
42152.0
11
63090.0
21
42211.0
0
LINE
8
BLACK
10
63090.0
20
42211.0
11
63090.0
21
43768.0
0
LINE
8
BLACK
10
63090.0
20
43768.0
11
62747.0
21
44111.0
0
LINE
8
BLACK
10
62747.0
20
44111.0
11
62676.0
21
44040.0
0
LINE
8
BLACK
10
62676.0
20
44040.0
11
62676.0
21
44182.0
0
LINE
8
BLACK
10
62676.0
20
44182.0
11
62333.0
21
44525.0
0
LINE
8
BLACK
10
62333.0
20
44525.0
11
62234.0
21
44492.0
0
LINE
8
BLACK
10
62234.0
20
44492.0
11
62154.0
21
44273.0
0
LINE
8
BLACK
10
62154.0
20
44273.0
11
62165.0
21
44038.0
0
LINE
8
BLACK
10
62165.0
20
44038.0
11
62234.0
21
43872.0
0
LINE
8
BLACK
10
62234.0
20
43872.0
11
62333.0
21
43839.0
0
LINE
8
BLACK
10
62333.0
20
43839.0
11
62676.0
21
44182.0
0
LINE
8
BLACK
10
62676.0
20
44182.0
11
62676.0
21
44040.0
0
LINE
8
BLACK
10
62676.0
20
44040.0
11
62404.0
21
43768.0
0
LINE
8
BLACK
10
62404.0
20
43768.0
11
62437.0
21
43669.0
0
LINE
8
BLACK
10
62437.0
20
43669.0
11
62656.0
21
43589.0
0
LINE
8
BLACK
10
62656.0
20
43589.0
11
62891.0
21
43600.0
0
LINE
8
BLACK
10
62891.0
20
43600.0
11
63057.0
21
43669.0
0
LINE
8
BLACK
10
63057.0
20
43669.0
11
63090.0
21
43768.0
0
LINE
8
BLACK
10
63090.0
20
43768.0
11
63090.0
21
42211.0
0
LINE
8
BLACK
10
63090.0
20
42211.0
11
62941.0
21
42268.0
0
LINE
8
BLACK
10
62941.0
20
42268.0
11
62622.0
21
42261.0
0
LINE
8
BLACK
10
62622.0
20
42261.0
11
62358.0
21
42152.0
0
LINE
8
BLACK
10
62358.0
20
42152.0
11
62300.0
21
42031.0
0
LINE
8
BLACK
10
62300.0
20
42031.0
11
62799.0
21
41532.0
0
LINE
8
BLACK
10
62799.0
20
41532.0
11
63298.0
21
42031.0
0
LINE
8
BLACK
10
63298.0
20
42031.0
11
63298.0
21
41889.0
0
LINE
8
BLACK
10
63298.0
20
41889.0
11
62870.0
21
41461.0
0
LINE
8
BLACK
10
62870.0
20
41461.0
11
63369.0
21
40962.0
0
LINE
8
BLACK
10
63369.0
20
40962.0
11
63490.0
21
41020.0
0
LINE
8
BLACK
10
63490.0
20
41020.0
11
63606.0
21
41319.0
0
LINE
8
BLACK
10
63606.0
20
41319.0
11
63606.0
21
39154.0
0
LINE
8
BLACK
10
63606.0
20
39154.0
11
63599.0
21
39473.0
0
LINE
8
BLACK
10
63599.0
20
39473.0
11
63490.0
21
39737.0
0
LINE
8
BLACK
10
63490.0
20
39737.0
11
63369.0
21
39795.0
0
LINE
8
BLACK
10
63369.0
20
39795.0
11
63298.0
21
39724.0
0
LINE
8
BLACK
10
63298.0
20
39724.0
11
63298.0
21
39866.0
0
LINE
8
BLACK
10
63298.0
20
39866.0
11
63298.0
21
40891.0
0
LINE
8
BLACK
10
63298.0
20
40891.0
11
62799.0
21
41390.0
0
LINE
8
BLACK
10
62799.0
20
41390.0
11
62728.0
21
41319.0
0
LINE
8
BLACK
10
62728.0
20
41319.0
11
62728.0
21
41461.0
0
LINE
8
BLACK
10
62728.0
20
41461.0
11
62229.0
21
41960.0
0
LINE
8
BLACK
10
62229.0
20
41960.0
11
62108.0
21
41902.0
0
LINE
8
BLACK
10
62108.0
20
41902.0
11
61992.0
21
41603.0
0
LINE
8
BLACK
10
61992.0
20
41603.0
11
61999.0
21
41284.0
0
LINE
8
BLACK
10
61999.0
20
41284.0
11
62108.0
21
41020.0
0
LINE
8
BLACK
10
62108.0
20
41020.0
11
62229.0
21
40962.0
0
LINE
8
BLACK
10
62229.0
20
40962.0
11
62728.0
21
41461.0
0
LINE
8
BLACK
10
62728.0
20
41461.0
11
62728.0
21
41319.0
0
LINE
8
BLACK
10
62728.0
20
41319.0
11
62300.0
21
40891.0
0
LINE
8
BLACK
10
62300.0
20
40891.0
11
62358.0
21
40770.0
0
LINE
8
BLACK
10
62358.0
20
40770.0
11
62657.0
21
40654.0
0
LINE
8
BLACK
10
62657.0
20
40654.0
11
62976.0
21
40661.0
0
LINE
8
BLACK
10
62976.0
20
40661.0
11
63240.0
21
40770.0
0
LINE
8
BLACK
10
63240.0
20
40770.0
11
63298.0
21
40891.0
0
LINE
8
BLACK
10
63298.0
20
40891.0
11
63298.0
21
39866.0
0
LINE
8
BLACK
10
63298.0
20
39866.0
11
63240.0
21
39987.0
0
LINE
8
BLACK
10
63240.0
20
39987.0
11
62941.0
21
40103.0
0
LINE
8
BLACK
10
62941.0
20
40103.0
11
62622.0
21
40096.0
0
LINE
8
BLACK
10
62622.0
20
40096.0
11
62358.0
21
39987.0
0
LINE
8
BLACK
10
62358.0
20
39987.0
11
62300.0
21
39866.0
0
LINE
8
BLACK
10
62300.0
20
39866.0
11
62799.0
21
39367.0
0
LINE
8
BLACK
10
62799.0
20
39367.0
11
63298.0
21
39866.0
0
LINE
8
BLACK
10
63298.0
20
39866.0
11
63298.0
21
39724.0
0
LINE
8
BLACK
10
63298.0
20
39724.0
11
62870.0
21
39296.0
0
LINE
8
BLACK
10
62870.0
20
39296.0
11
63369.0
21
38797.0
0
LINE
8
BLACK
10
63369.0
20
38797.0
11
63490.0
21
38855.0
0
LINE
8
BLACK
10
63490.0
20
38855.0
11
63606.0
21
39154.0
0
LINE
8
BLACK
10
63606.0
20
39154.0
11
63606.0
21
37500.0
0
LINE
8
BLACK
10
63606.0
20
37500.0
11
63298.0
21
37500.0
0
LINE
8
BLACK
10
63298.0
20
37500.0
11
63298.0
21
38726.0
0
LINE
8
BLACK
10
63298.0
20
38726.0
11
62799.0
21
39225.0
0
LINE
8
BLACK
10
62799.0
20
39225.0
11
62728.0
21
39154.0
0
LINE
8
BLACK
10
62728.0
20
39154.0
11
62728.0
21
39296.0
0
LINE
8
BLACK
10
62728.0
20
39296.0
11
62229.0
21
39795.0
0
LINE
8
BLACK
10
62229.0
20
39795.0
11
62108.0
21
39737.0
0
LINE
8
BLACK
10
62108.0
20
39737.0
11
61992.0
21
39438.0
0
LINE
8
BLACK
10
61992.0
20
39438.0
11
61999.0
21
39119.0
0
LINE
8
BLACK
10
61999.0
20
39119.0
11
62108.0
21
38855.0
0
LINE
8
BLACK
10
62108.0
20
38855.0
11
62229.0
21
38797.0
0
LINE
8
BLACK
10
62229.0
20
38797.0
11
62728.0
21
39296.0
0
LINE
8
BLACK
10
62728.0
20
39296.0
11
62728.0
21
39154.0
0
LINE
8
BLACK
10
62728.0
20
39154.0
11
62300.0
21
38726.0
0
LINE
8
BLACK
10
62300.0
20
38726.0
11
62358.0
21
38605.0
0
LINE
8
BLACK
10
62358.0
20
38605.0
11
62657.0
21
38489.0
0
LINE
8
BLACK
10
62657.0
20
38489.0
11
62976.0
21
38496.0
0
LINE
8
BLACK
10
62976.0
20
38496.0
11
63240.0
21
38605.0
0
LINE
8
BLACK
10
63240.0
20
38605.0
11
63298.0
21
38726.0
0
LINE
8
BLACK
10
63298.0
20
38726.0
11
63298.0
21
37500.0
0
LINE
8
BLACK
10
63298.0
20
37500.0
11
61953.0
21
37500.0
0
LINE
8
BLACK
10
61953.0
20
37500.0
11
61953.0
21
39154.0
0
LINE
8
BLACK
10
61953.0
20
39154.0
11
61946.0
21
39473.0
0
LINE
8
BLACK
10
61946.0
20
39473.0
11
61837.0
21
39737.0
0
LINE
8
BLACK
10
61837.0
20
39737.0
11
61716.0
21
39795.0
0
LINE
8
BLACK
10
61716.0
20
39795.0
11
61645.0
21
39724.0
0
LINE
8
BLACK
10
61645.0
20
39724.0
11
61645.0
21
39866.0
0
LINE
8
BLACK
10
61645.0
20
39866.0
11
61587.0
21
39987.0
0
LINE
8
BLACK
10
61587.0
20
39987.0
11
61288.0
21
40103.0
0
LINE
8
BLACK
10
61288.0
20
40103.0
11
60969.0
21
40096.0
0
LINE
8
BLACK
10
60969.0
20
40096.0
11
60705.0
21
39987.0
0
LINE
8
BLACK
10
60705.0
20
39987.0
11
60647.0
21
39866.0
0
LINE
8
BLACK
10
60647.0
20
39866.0
11
61146.0
21
39367.0
0
LINE
8
BLACK
10
61146.0
20
39367.0
11
61645.0
21
39866.0
0
LINE
8
BLACK
10
61645.0
20
39866.0
11
61645.0
21
39724.0
0
LINE
8
BLACK
10
61645.0
20
39724.0
11
61217.0
21
39296.0
0
LINE
8
BLACK
10
61217.0
20
39296.0
11
61716.0
21
38797.0
0
LINE
8
BLACK
10
61716.0
20
38797.0
11
61837.0
21
38855.0
0
LINE
8
BLACK
10
61837.0
20
38855.0
11
61953.0
21
39154.0
0
LINE
8
BLACK
10
61953.0
20
39154.0
11
61953.0
21
37500.0
0
LINE
8
BLACK
10
61953.0
20
37500.0
11
61645.0
21
37500.0
0
LINE
8
BLACK
10
61645.0
20
37500.0
11
61645.0
21
38726.0
0
LINE
8
BLACK
10
61645.0
20
38726.0
11
61146.0
21
39225.0
0
LINE
8
BLACK
10
61146.0
20
39225.0
11
60647.0
21
38726.0
0
LINE
8
BLACK
10
60647.0
20
38726.0
11
60705.0
21
38605.0
0
LINE
8
BLACK
10
60705.0
20
38605.0
11
61004.0
21
38489.0
0
LINE
8
BLACK
10
61004.0
20
38489.0
11
61323.0
21
38496.0
0
LINE
8
BLACK
10
61323.0
20
38496.0
11
61587.0
21
38605.0
0
LINE
8
BLACK
10
61587.0
20
38605.0
11
61645.0
21
38726.0
0
LINE
8
BLACK
10
61645.0
20
38726.0
11
61645.0
21
37500.0
0
LINE
8
BLACK
10
61645.0
20
37500.0
11
60518.0
21
37500.0
0
LINE
8
BLACK
10
60518.0
20
37500.0
11
60518.0
21
38825.0
0
LINE
8
BLACK
10
60518.0
20
38825.0
11
60576.0
21
38797.0
0
LINE
8
BLACK
10
60576.0
20
38797.0
11
61075.0
21
39296.0
0
LINE
8
BLACK
10
61075.0
20
39296.0
11
60576.0
21
39795.0
0
LINE
8
BLACK
10
60576.0
20
39795.0
11
60518.0
21
39768.0
0
LINE
8
BLACK
10
60518.0
20
39768.0
11
60518.0
21
40930.0
0
LINE
8
BLACK
10
60518.0
20
40930.0
11
60681.0
21
40767.0
0
LINE
8
BLACK
10
60681.0
20
40767.0
11
60982.0
21
40641.0
0
LINE
8
BLACK
10
60982.0
20
40641.0
11
61308.0
21
40641.0
0
LINE
8
BLACK
10
61308.0
20
40641.0
11
61609.0
21
40765.0
0
LINE
8
BLACK
10
61609.0
20
40765.0
11
61840.0
21
40996.0
0
LINE
8
BLACK
10
61840.0
20
40996.0
11
61966.0
21
41297.0
0
LINE
8
BLACK
10
61966.0
20
41297.0
11
61966.0
21
41623.0
0
LINE
8
BLACK
10
61966.0
20
41623.0
11
61842.0
21
41924.0
0
LINE
8
BLACK
10
61842.0
20
41924.0
11
61611.0
21
42155.0
0
LINE
8
BLACK
10
61611.0
20
42155.0
11
61310.0
21
42281.0
0
LINE
8
BLACK
10
61310.0
20
42281.0
11
60984.0
21
42281.0
0
LINE
8
BLACK
10
60984.0
20
42281.0
11
60683.0
21
42157.0
0
LINE
8
BLACK
10
60683.0
20
42157.0
11
60518.0
21
41992.0
0
LINE
8
BLACK
10
60518.0
20
41992.0
11
60518.0
21
45116.0
0
LINE
8
BLACK
10
60518.0
20
45116.0
11
63882.0
21
45116.0
0
LINE
8
BLACK
10
63882.0
20
45116.0
11
63882.0
21
37500.0
0
LINE
8
BLACK
10
63882.0
20
34035.0
11
63774.0
21
34035.0
0
LINE
8
BLACK
10
63774.0
20
34035.0
11
63774.0
21
34734.0
0
LINE
8
BLACK
10
63774.0
20
34734.0
11
63767.0
21
35077.0
0
LINE
8
BLACK
10
63767.0
20
35077.0
11
63649.0
21
35365.0
0
LINE
8
BLACK
10
63649.0
20
35365.0
11
63521.0
21
35432.0
0
LINE
8
BLACK
10
63521.0
20
35432.0
11
63451.0
21
35362.0
0
LINE
8
BLACK
10
63451.0
20
35362.0
11
63451.0
21
35502.0
0
LINE
8
BLACK
10
63451.0
20
35502.0
11
63384.0
21
35630.0
0
LINE
8
BLACK
10
63384.0
20
35630.0
11
63065.0
21
35755.0
0
LINE
8
BLACK
10
63065.0
20
35755.0
11
62722.0
21
35748.0
0
LINE
8
BLACK
10
62722.0
20
35748.0
11
62434.0
21
35630.0
0
LINE
8
BLACK
10
62434.0
20
35630.0
11
62367.0
21
35502.0
0
LINE
8
BLACK
10
62367.0
20
35502.0
11
62909.0
21
34961.0
0
LINE
8
BLACK
10
62909.0
20
34961.0
11
63451.0
21
35502.0
0
LINE
8
BLACK
10
63451.0
20
35502.0
11
63451.0
21
35362.0
0
LINE
8
BLACK
10
63451.0
20
35362.0
11
62980.0
21
34890.0
0
LINE
8
BLACK
10
62980.0
20
34890.0
11
63521.0
21
34348.0
0
LINE
8
BLACK
10
63521.0
20
34348.0
11
63649.0
21
34415.0
0
LINE
8
BLACK
10
63649.0
20
34415.0
11
63774.0
21
34734.0
0
LINE
8
BLACK
10
63774.0
20
34734.0
11
63774.0
21
34035.0
0
LINE
8
BLACK
10
63774.0
20
34035.0
11
63103.0
21
34035.0
0
LINE
8
BLACK
10
63103.0
20
34035.0
11
63384.0
21
34150.0
0
LINE
8
BLACK
10
63384.0
20
34150.0
11
63451.0
21
34278.0
0
LINE
8
BLACK
10
63451.0
20
34278.0
11
62909.0
21
34819.0
0
LINE
8
BLACK
10
62909.0
20
34819.0
11
62838.0
21
34749.0
0
LINE
8
BLACK
10
62838.0
20
34749.0
11
62838.0
21
34890.0
0
LINE
8
BLACK
10
62838.0
20
34890.0
11
62297.0
21
35432.0
0
LINE
8
BLACK
10
62297.0
20
35432.0
11
62169.0
21
35365.0
0
LINE
8
BLACK
10
62169.0
20
35365.0
11
62083.0
21
35148.0
0
LINE
8
BLACK
10
62083.0
20
35148.0
11
61995.0
21
35365.0
0
LINE
8
BLACK
10
61995.0
20
35365.0
11
61867.0
21
35432.0
0
LINE
8
BLACK
10
61867.0
20
35432.0
11
61797.0
21
35362.0
0
LINE
8
BLACK
10
61797.0
20
35362.0
11
61797.0
21
35502.0
0
LINE
8
BLACK
10
61797.0
20
35502.0
11
61730.0
21
35630.0
0
LINE
8
BLACK
10
61730.0
20
35630.0
11
61411.0
21
35755.0
0
LINE
8
BLACK
10
61411.0
20
35755.0
11
61068.0
21
35748.0
0
LINE
8
BLACK
10
61068.0
20
35748.0
11
60780.0
21
35630.0
0
LINE
8
BLACK
10
60780.0
20
35630.0
11
60713.0
21
35502.0
0
LINE
8
BLACK
10
60713.0
20
35502.0
11
61255.0
21
34961.0
0
LINE
8
BLACK
10
61255.0
20
34961.0
11
61797.0
21
35502.0
0
LINE
8
BLACK
10
61797.0
20
35502.0
11
61797.0
21
35362.0
0
LINE
8
BLACK
10
61797.0
20
35362.0
11
61326.0
21
34890.0
0
LINE
8
BLACK
10
61326.0
20
34890.0
11
61867.0
21
34348.0
0
LINE
8
BLACK
10
61867.0
20
34348.0
11
61995.0
21
34415.0
0
LINE
8
BLACK
10
61995.0
20
34415.0
11
62080.0
21
34633.0
0
LINE
8
BLACK
10
62080.0
20
34633.0
11
62169.0
21
34415.0
0
LINE
8
BLACK
10
62169.0
20
34415.0
11
62297.0
21
34348.0
0
LINE
8
BLACK
10
62297.0
20
34348.0
11
62838.0
21
34890.0
0
LINE
8
BLACK
10
62838.0
20
34890.0
11
62838.0
21
34749.0
0
LINE
8
BLACK
10
62838.0
20
34749.0
11
62367.0
21
34278.0
0
LINE
8
BLACK
10
62367.0
20
34278.0
11
62434.0
21
34150.0
0
LINE
8
BLACK
10
62434.0
20
34150.0
11
62727.0
21
34035.0
0
LINE
8
BLACK
10
62727.0
20
34035.0
11
61449.0
21
34035.0
0
LINE
8
BLACK
10
61449.0
20
34035.0
11
61730.0
21
34150.0
0
LINE
8
BLACK
10
61730.0
20
34150.0
11
61797.0
21
34278.0
0
LINE
8
BLACK
10
61797.0
20
34278.0
11
61255.0
21
34819.0
0
LINE
8
BLACK
10
61255.0
20
34819.0
11
61184.0
21
34749.0
0
LINE
8
BLACK
10
61184.0
20
34749.0
11
61184.0
21
34890.0
0
LINE
8
BLACK
10
61184.0
20
34890.0
11
60643.0
21
35432.0
0
LINE
8
BLACK
10
60643.0
20
35432.0
11
60515.0
21
35365.0
0
LINE
8
BLACK
10
60515.0
20
35365.0
11
60390.0
21
35046.0
0
LINE
8
BLACK
10
60390.0
20
35046.0
11
60397.0
21
34703.0
0
LINE
8
BLACK
10
60397.0
20
34703.0
11
60515.0
21
34415.0
0
LINE
8
BLACK
10
60515.0
20
34415.0
11
60643.0
21
34348.0
0
LINE
8
BLACK
10
60643.0
20
34348.0
11
61184.0
21
34890.0
0
LINE
8
BLACK
10
61184.0
20
34890.0
11
61184.0
21
34749.0
0
LINE
8
BLACK
10
61184.0
20
34749.0
11
60713.0
21
34278.0
0
LINE
8
BLACK
10
60713.0
20
34278.0
11
60780.0
21
34150.0
0
LINE
8
BLACK
10
60780.0
20
34150.0
11
61073.0
21
34035.0
0
LINE
8
BLACK
10
61073.0
20
34035.0
11
59738.0
21
34035.0
0
LINE
8
BLACK
10
59738.0
20
34035.0
11
58006.0
21
32303.0
0
LINE
8
BLACK
10
58006.0
20
32303.0
11
48726.0
21
32303.0
0
LINE
8
BLACK
10
48726.0
20
32303.0
11
48726.0
21
39154.0
0
LINE
8
BLACK
10
48726.0
20
39154.0
11
48719.0
21
39473.0
0
LINE
8
BLACK
10
48719.0
20
39473.0
11
48610.0
21
39737.0
0
LINE
8
BLACK
10
48610.0
20
39737.0
11
48489.0
21
39795.0
0
LINE
8
BLACK
10
48489.0
20
39795.0
11
48418.0
21
39724.0
0
LINE
8
BLACK
10
48418.0
20
39724.0
11
48418.0
21
39866.0
0
LINE
8
BLACK
10
48418.0
20
39866.0
11
48360.0
21
39987.0
0
LINE
8
BLACK
10
48360.0
20
39987.0
11
48061.0
21
40103.0
0
LINE
8
BLACK
10
48061.0
20
40103.0
11
47742.0
21
40096.0
0
LINE
8
BLACK
10
47742.0
20
40096.0
11
47478.0
21
39987.0
0
LINE
8
BLACK
10
47478.0
20
39987.0
11
47420.0
21
39866.0
0
LINE
8
BLACK
10
47420.0
20
39866.0
11
47919.0
21
39367.0
0
LINE
8
BLACK
10
47919.0
20
39367.0
11
48418.0
21
39866.0
0
LINE
8
BLACK
10
48418.0
20
39866.0
11
48418.0
21
39724.0
0
LINE
8
BLACK
10
48418.0
20
39724.0
11
47990.0
21
39296.0
0
LINE
8
BLACK
10
47990.0
20
39296.0
11
48489.0
21
38797.0
0
LINE
8
BLACK
10
48489.0
20
38797.0
11
48610.0
21
38855.0
0
LINE
8
BLACK
10
48610.0
20
38855.0
11
48726.0
21
39154.0
0
LINE
8
BLACK
10
48726.0
20
39154.0
11
48726.0
21
32303.0
0
LINE
8
BLACK
10
48726.0
20
32303.0
11
48418.0
21
32303.0
0
LINE
8
BLACK
10
48418.0
20
32303.0
11
48418.0
21
38726.0
0
LINE
8
BLACK
10
48418.0
20
38726.0
11
47919.0
21
39225.0
0
LINE
8
BLACK
10
47919.0
20
39225.0
11
47848.0
21
39154.0
0
LINE
8
BLACK
10
47848.0
20
39154.0
11
47848.0
21
39296.0
0
LINE
8
BLACK
10
47848.0
20
39296.0
11
47349.0
21
39795.0
0
LINE
8
BLACK
10
47349.0
20
39795.0
11
47228.0
21
39737.0
0
LINE
8
BLACK
10
47228.0
20
39737.0
11
47112.0
21
39438.0
0
LINE
8
BLACK
10
47112.0
20
39438.0
11
47119.0
21
39119.0
0
LINE
8
BLACK
10
47119.0
20
39119.0
11
47228.0
21
38855.0
0
LINE
8
BLACK
10
47228.0
20
38855.0
11
47349.0
21
38797.0
0
LINE
8
BLACK
10
47349.0
20
38797.0
11
47848.0
21
39296.0
0
LINE
8
BLACK
10
47848.0
20
39296.0
11
47848.0
21
39154.0
0
LINE
8
BLACK
10
47848.0
20
39154.0
11
47420.0
21
38726.0
0
LINE
8
BLACK
10
47420.0
20
38726.0
11
47478.0
21
38605.0
0
LINE
8
BLACK
10
47478.0
20
38605.0
11
47777.0
21
38489.0
0
LINE
8
BLACK
10
47777.0
20
38489.0
11
48096.0
21
38496.0
0
LINE
8
BLACK
10
48096.0
20
38496.0
11
48360.0
21
38605.0
0
LINE
8
BLACK
10
48360.0
20
38605.0
11
48418.0
21
38726.0
0
LINE
8
BLACK
10
48418.0
20
38726.0
11
48418.0
21
32303.0
0
LINE
8
BLACK
10
48418.0
20
32303.0
11
48285.0
21
32303.0
0
LINE
8
BLACK
10
48285.0
20
32303.0
11
47072.0
21
33615.0
0
LINE
8
BLACK
10
47072.0
20
33615.0
11
47072.0
21
39154.0
0
LINE
8
BLACK
10
47072.0
20
39154.0
11
47065.0
21
39473.0
0
LINE
8
BLACK
10
47065.0
20
39473.0
11
46956.0
21
39737.0
0
LINE
8
BLACK
10
46956.0
20
39737.0
11
46835.0
21
39795.0
0
LINE
8
BLACK
10
46835.0
20
39795.0
11
46764.0
21
39724.0
0
LINE
8
BLACK
10
46764.0
20
39724.0
11
46764.0
21
39866.0
0
LINE
8
BLACK
10
46764.0
20
39866.0
11
46706.0
21
39987.0
0
LINE
8
BLACK
10
46706.0
20
39987.0
11
46407.0
21
40103.0
0
LINE
8
BLACK
10
46407.0
20
40103.0
11
46088.0
21
40096.0
0
LINE
8
BLACK
10
46088.0
20
40096.0
11
45824.0
21
39987.0
0
LINE
8
BLACK
10
45824.0
20
39987.0
11
45766.0
21
39866.0
0
LINE
8
BLACK
10
45766.0
20
39866.0
11
46265.0
21
39367.0
0
LINE
8
BLACK
10
46265.0
20
39367.0
11
46764.0
21
39866.0
0
LINE
8
BLACK
10
46764.0
20
39866.0
11
46764.0
21
39724.0
0
LINE
8
BLACK
10
46764.0
20
39724.0
11
46336.0
21
39296.0
0
LINE
8
BLACK
10
46336.0
20
39296.0
11
46835.0
21
38797.0
0
LINE
8
BLACK
10
46835.0
20
38797.0
11
46956.0
21
38855.0
0
LINE
8
BLACK
10
46956.0
20
38855.0
11
47072.0
21
39154.0
0
LINE
8
BLACK
10
47072.0
20
39154.0
11
47072.0
21
33615.0
0
LINE
8
BLACK
10
47072.0
20
33615.0
11
46828.0
21
33878.0
0
LINE
8
BLACK
10
46828.0
20
33878.0
11
46764.0
21
33878.0
0
LINE
8
BLACK
10
46764.0
20
33878.0
11
46764.0
21
38726.0
0
LINE
8
BLACK
10
46764.0
20
38726.0
11
46265.0
21
39225.0
0
LINE
8
BLACK
10
46265.0
20
39225.0
11
46194.0
21
39154.0
0
LINE
8
BLACK
10
46194.0
20
39154.0
11
46194.0
21
39296.0
0
LINE
8
BLACK
10
46194.0
20
39296.0
11
45695.0
21
39795.0
0
LINE
8
BLACK
10
45695.0
20
39795.0
11
45574.0
21
39737.0
0
LINE
8
BLACK
10
45574.0
20
39737.0
11
45458.0
21
39438.0
0
LINE
8
BLACK
10
45458.0
20
39438.0
11
45465.0
21
39119.0
0
LINE
8
BLACK
10
45465.0
20
39119.0
11
45574.0
21
38855.0
0
LINE
8
BLACK
10
45574.0
20
38855.0
11
45695.0
21
38797.0
0
LINE
8
BLACK
10
45695.0
20
38797.0
11
46194.0
21
39296.0
0
LINE
8
BLACK
10
46194.0
20
39296.0
11
46194.0
21
39154.0
0
LINE
8
BLACK
10
46194.0
20
39154.0
11
45766.0
21
38726.0
0
LINE
8
BLACK
10
45766.0
20
38726.0
11
45824.0
21
38605.0
0
LINE
8
BLACK
10
45824.0
20
38605.0
11
46123.0
21
38489.0
0
LINE
8
BLACK
10
46123.0
20
38489.0
11
46442.0
21
38496.0
0
LINE
8
BLACK
10
46442.0
20
38496.0
11
46706.0
21
38605.0
0
LINE
8
BLACK
10
46706.0
20
38605.0
11
46764.0
21
38726.0
0
LINE
8
BLACK
10
46764.0
20
38726.0
11
46764.0
21
33878.0
0
LINE
8
BLACK
10
46764.0
20
33878.0
11
46111.0
21
33878.0
0
LINE
8
BLACK
10
46111.0
20
33878.0
11
46111.0
21
35349.0
0
LINE
8
BLACK
10
46111.0
20
35349.0
11
46111.0
21
35573.0
0
LINE
8
BLACK
10
46111.0
20
35573.0
11
46110.0
21
35903.0
0
LINE
8
BLACK
10
46110.0
20
35903.0
11
46072.0
21
35995.0
0
LINE
8
BLACK
10
46072.0
20
35995.0
11
46002.0
21
36065.0
0
LINE
8
BLACK
10
46002.0
20
36065.0
11
45911.0
21
36103.0
0
LINE
8
BLACK
10
45911.0
20
36103.0
11
45812.0
21
36103.0
0
LINE
8
BLACK
10
45812.0
20
36103.0
11
45580.0
21
36104.0
0
LINE
8
BLACK
10
45580.0
20
36104.0
11
45518.0
21
36042.0
0
LINE
8
BLACK
10
45518.0
20
36042.0
11
45518.0
21
35511.0
0
LINE
8
BLACK
10
45518.0
20
35511.0
11
46049.0
21
35511.0
0
LINE
8
BLACK
10
46049.0
20
35511.0
11
46111.0
21
35573.0
0
LINE
8
BLACK
10
46111.0
20
35573.0
11
46111.0
21
35349.0
0
LINE
8
BLACK
10
46111.0
20
35349.0
11
46049.0
21
35411.0
0
LINE
8
BLACK
10
46049.0
20
35411.0
11
45518.0
21
35411.0
0
LINE
8
BLACK
10
45518.0
20
35411.0
11
45518.0
21
34880.0
0
LINE
8
BLACK
10
45518.0
20
34880.0
11
45580.0
21
34818.0
0
LINE
8
BLACK
10
45580.0
20
34818.0
11
45812.0
21
34819.0
0
LINE
8
BLACK
10
45812.0
20
34819.0
11
45911.0
21
34819.0
0
LINE
8
BLACK
10
45911.0
20
34819.0
11
46002.0
21
34857.0
0
LINE
8
BLACK
10
46002.0
20
34857.0
11
46072.0
21
34927.0
0
LINE
8
BLACK
10
46072.0
20
34927.0
11
46110.0
21
35019.0
0
LINE
8
BLACK
10
46110.0
20
35019.0
11
46111.0
21
35349.0
0
LINE
8
BLACK
10
46111.0
20
35349.0
11
46111.0
21
33878.0
0
LINE
8
BLACK
10
46111.0
20
33878.0
11
45431.0
21
33878.0
0
LINE
8
BLACK
10
45431.0
20
33878.0
11
45431.0
21
39132.0
0
LINE
8
BLACK
10
45431.0
20
39132.0
11
45431.0
21
39458.0
0
LINE
8
BLACK
10
45431.0
20
39458.0
11
45307.0
21
39759.0
0
LINE
8
BLACK
10
45307.0
20
39759.0
11
45076.0
21
39990.0
0
LINE
8
BLACK
10
45076.0
20
39990.0
11
44775.0
21
40116.0
0
LINE
8
BLACK
10
44775.0
20
40116.0
11
44449.0
21
40116.0
0
LINE
8
BLACK
10
44449.0
20
40116.0
11
44148.0
21
39992.0
0
LINE
8
BLACK
10
44148.0
20
39992.0
11
43917.0
21
39761.0
0
LINE
8
BLACK
10
43917.0
20
39761.0
11
43791.0
21
39460.0
0
LINE
8
BLACK
10
43791.0
20
39460.0
11
43791.0
21
39134.0
0
LINE
8
BLACK
10
43791.0
20
39134.0
11
43915.0
21
38833.0
0
LINE
8
BLACK
10
43915.0
20
38833.0
11
44146.0
21
38602.0
0
LINE
8
BLACK
10
44146.0
20
38602.0
11
44447.0
21
38476.0
0
LINE
8
BLACK
10
44447.0
20
38476.0
11
44773.0
21
38476.0
0
LINE
8
BLACK
10
44773.0
20
38476.0
11
45074.0
21
38600.0
0
LINE
8
BLACK
10
45074.0
20
38600.0
11
45305.0
21
38831.0
0
LINE
8
BLACK
10
45305.0
20
38831.0
11
45431.0
21
39132.0
0
LINE
8
BLACK
10
45431.0
20
39132.0
11
45431.0
21
33878.0
0
LINE
8
BLACK
10
45431.0
20
33878.0
11
45418.0
21
33878.0
0
LINE
8
BLACK
10
45418.0
20
33878.0
11
45418.0
21
34880.0
0
LINE
8
BLACK
10
45418.0
20
34880.0
11
45418.0
21
35411.0
0
LINE
8
BLACK
10
45418.0
20
35411.0
11
45418.0
21
35511.0
0
LINE
8
BLACK
10
45418.0
20
35511.0
11
45418.0
21
36042.0
0
LINE
8
BLACK
10
45418.0
20
36042.0
11
45356.0
21
36104.0
0
LINE
8
BLACK
10
45356.0
20
36104.0
11
45124.0
21
36103.0
0
LINE
8
BLACK
10
45124.0
20
36103.0
11
45025.0
21
36103.0
0
LINE
8
BLACK
10
45025.0
20
36103.0
11
44934.0
21
36065.0
0
LINE
8
BLACK
10
44934.0
20
36065.0
11
44864.0
21
35995.0
0
LINE
8
BLACK
10
44864.0
20
35995.0
11
44826.0
21
35903.0
0
LINE
8
BLACK
10
44826.0
20
35903.0
11
44825.0
21
35573.0
0
LINE
8
BLACK
10
44825.0
20
35573.0
11
44887.0
21
35511.0
0
LINE
8
BLACK
10
44887.0
20
35511.0
11
45418.0
21
35511.0
0
LINE
8
BLACK
10
45418.0
20
35511.0
11
45418.0
21
35411.0
0
LINE
8
BLACK
10
45418.0
20
35411.0
11
44887.0
21
35411.0
0
LINE
8
BLACK
10
44887.0
20
35411.0
11
44825.0
21
35349.0
0
LINE
8
BLACK
10
44825.0
20
35349.0
11
44826.0
21
35019.0
0
LINE
8
BLACK
10
44826.0
20
35019.0
11
44864.0
21
34927.0
0
LINE
8
BLACK
10
44864.0
20
34927.0
11
44934.0
21
34857.0
0
LINE
8
BLACK
10
44934.0
20
34857.0
11
45025.0
21
34819.0
0
LINE
8
BLACK
10
45025.0
20
34819.0
11
45124.0
21
34819.0
0
LINE
8
BLACK
10
45124.0
20
34819.0
11
45356.0
21
34818.0
0
LINE
8
BLACK
10
45356.0
20
34818.0
11
45418.0
21
34880.0
0
LINE
8
BLACK
10
45418.0
20
34880.0
11
45418.0
21
33878.0
0
LINE
8
BLACK
10
45418.0
20
33878.0
11
40084.0
21
33878.0
0
LINE
8
BLACK
10
40084.0
20
33878.0
11
40084.0
21
40155.0
0
LINE
8
BLACK
10
40084.0
20
40155.0
11
49079.0
21
40155.0
0
LINE
8
BLACK
10
49079.0
20
40155.0
11
49079.0
21
39962.0
0
LINE
8
BLACK
10
49079.0
20
39962.0
11
48878.0
21
39761.0
0
LINE
8
BLACK
10
48878.0
20
39761.0
11
48752.0
21
39460.0
0
LINE
8
BLACK
10
48752.0
20
39460.0
11
48752.0
21
39134.0
0
LINE
8
BLACK
10
48752.0
20
39134.0
11
48876.0
21
38833.0
0
LINE
8
BLACK
10
48876.0
20
38833.0
11
49076.0
21
38633.0
0
LINE
8
BLACK
10
49076.0
20
38633.0
11
49076.0
21
36994.0
0
LINE
8
BLACK
10
49076.0
20
36994.0
11
49079.0
21
36979.0
0
LINE
8
BLACK
10
49079.0
20
36979.0
11
49079.0
21
34673.0
0
LINE
8
BLACK
10
49079.0
20
34673.0
11
49344.0
21
34407.0
0
LINE
8
BLACK
10
49344.0
20
34407.0
11
49385.0
21
34407.0
0
LINE
8
BLACK
10
49385.0
20
34407.0
11
49500.0
21
34292.0
0
LINE
8
BLACK
10
49500.0
20
34292.0
11
49693.0
21
34212.0
0
LINE
8
BLACK
10
49693.0
20
34212.0
11
49902.0
21
34212.0
0
LINE
8
BLACK
10
49902.0
20
34212.0
11
50095.0
21
34292.0
0
LINE
8
BLACK
10
50095.0
20
34292.0
11
50210.0
21
34407.0
0
LINE
8
BLACK
10
50210.0
20
34407.0
11
51590.0
21
34407.0
0
LINE
8
BLACK
10
51590.0
20
34407.0
11
51705.0
21
34292.0
0
LINE
8
BLACK
10
51705.0
20
34292.0
11
51898.0
21
34212.0
0
LINE
8
BLACK
10
51898.0
20
34212.0
11
52107.0
21
34212.0
0
LINE
8
BLACK
10
52107.0
20
34212.0
11
52300.0
21
34292.0
0
LINE
8
BLACK
10
52300.0
20
34292.0
11
52415.0
21
34407.0
0
LINE
8
BLACK
10
52415.0
20
34407.0
11
56553.0
21
34407.0
0
LINE
8
BLACK
10
56553.0
20
34407.0
11
59072.0
21
37085.0
0
LINE
8
BLACK
10
59072.0
20
37085.0
11
63882.0
21
37085.0
0
LINE
8
BLACK
10
63882.0
20
37085.0
11
63882.0
21
34035.0
0
ENDSEC
0
EOF
