G04 (created by PCBNEW-RS274X (2012-apr-16-27)-stable) date Fri 15 Nov 2013 10:07:24 GMT*
G01*
G70*
G90*
%MOIN*%
G04 Gerber Fmt 3.4, Leading zero omitted, Abs format*
%FSLAX34Y34*%
G04 APERTURE LIST*
%ADD10C,0.006000*%
%ADD11C,0.015000*%
%ADD12R,0.060000X0.060000*%
%ADD13C,0.060000*%
%ADD14C,0.114100*%
%ADD15C,0.070000*%
%ADD16C,0.055000*%
%ADD17C,0.066000*%
%ADD18R,0.078700X0.078700*%
%ADD19C,0.098400*%
%ADD20C,0.244100*%
%ADD21R,0.126000X0.126000*%
%ADD22C,0.126000*%
%ADD23C,0.049200*%
%ADD24C,0.010000*%
G04 APERTURE END LIST*
G54D10*
G54D11*
X00394Y00748D02*
X28740Y00748D01*
X28347Y16496D02*
X28740Y16496D01*
X01181Y16496D02*
X00394Y16496D01*
X27953Y16496D02*
X28347Y16496D01*
X27953Y16496D02*
X27559Y16496D01*
X28740Y00749D02*
X28740Y16497D01*
X01181Y16496D02*
X27559Y16496D01*
X00394Y00747D02*
X00394Y16495D01*
G54D12*
X14552Y05472D03*
G54D13*
X15552Y05472D03*
X16552Y05472D03*
G54D14*
X23434Y09602D03*
X21781Y09602D03*
X20127Y09602D03*
X18474Y09602D03*
X16820Y09602D03*
X15167Y09602D03*
X13514Y09602D03*
X11861Y09602D03*
X10207Y09602D03*
X08554Y09602D03*
X06900Y09602D03*
X05246Y09602D03*
X23434Y11767D03*
X21781Y11767D03*
X20127Y11767D03*
X18474Y11767D03*
X16820Y11767D03*
X15167Y11767D03*
X13514Y11767D03*
X11861Y11767D03*
X10207Y11767D03*
X08554Y11767D03*
X06900Y11767D03*
X05246Y11767D03*
G54D15*
X05240Y14409D03*
X12240Y14409D03*
X23382Y14488D03*
X16382Y14488D03*
G54D16*
X12638Y05043D03*
X12638Y02043D03*
X10433Y05043D03*
X10433Y02043D03*
G54D17*
X12638Y07035D03*
X12638Y06035D03*
X10433Y07074D03*
X10433Y06074D03*
G54D18*
X06103Y05767D03*
G54D19*
X06103Y02815D03*
G54D20*
X02363Y12559D03*
X26772Y04685D03*
G54D21*
X21890Y03031D03*
G54D22*
X23544Y03031D03*
X21890Y05196D03*
X23544Y05196D03*
G54D23*
X12087Y04094D02*
X13229Y04094D01*
X10433Y07074D02*
X10918Y07074D01*
X13229Y04094D02*
X14528Y05433D01*
X11536Y04645D02*
X12087Y04094D01*
X11536Y06456D02*
X11536Y04645D01*
X10918Y07074D02*
X11536Y06456D01*
G54D10*
G36*
X24675Y07963D02*
X24241Y07963D01*
X24241Y09460D01*
X24241Y11625D01*
X24234Y11944D01*
X24125Y12208D01*
X24004Y12266D01*
X23975Y12237D01*
X23975Y14397D01*
X23964Y14632D01*
X23895Y14798D01*
X23796Y14831D01*
X23725Y14760D01*
X23725Y14902D01*
X23692Y15001D01*
X23473Y15081D01*
X23238Y15070D01*
X23072Y15001D01*
X23039Y14902D01*
X23382Y14559D01*
X23725Y14902D01*
X23725Y14760D01*
X23453Y14488D01*
X23796Y14145D01*
X23895Y14178D01*
X23975Y14397D01*
X23975Y12237D01*
X23933Y12195D01*
X23933Y12337D01*
X23875Y12458D01*
X23725Y12517D01*
X23725Y14074D01*
X23382Y14417D01*
X23311Y14346D01*
X23311Y14488D01*
X22968Y14831D01*
X22869Y14798D01*
X22789Y14579D01*
X22800Y14344D01*
X22869Y14178D01*
X22968Y14145D01*
X23311Y14488D01*
X23311Y14346D01*
X23039Y14074D01*
X23072Y13975D01*
X23291Y13895D01*
X23526Y13906D01*
X23692Y13975D01*
X23725Y14074D01*
X23725Y12517D01*
X23576Y12574D01*
X23257Y12567D01*
X22993Y12458D01*
X22935Y12337D01*
X23434Y11838D01*
X23933Y12337D01*
X23933Y12195D01*
X23505Y11767D01*
X24004Y11268D01*
X24125Y11326D01*
X24241Y11625D01*
X24241Y09460D01*
X24234Y09779D01*
X24125Y10043D01*
X24004Y10101D01*
X23933Y10030D01*
X23933Y10172D01*
X23933Y11197D01*
X23434Y11696D01*
X23363Y11625D01*
X23363Y11767D01*
X22864Y12266D01*
X22743Y12208D01*
X22627Y11909D01*
X22634Y11590D01*
X22743Y11326D01*
X22864Y11268D01*
X23363Y11767D01*
X23363Y11625D01*
X22935Y11197D01*
X22993Y11076D01*
X23292Y10960D01*
X23611Y10967D01*
X23875Y11076D01*
X23933Y11197D01*
X23933Y10172D01*
X23875Y10293D01*
X23576Y10409D01*
X23257Y10402D01*
X22993Y10293D01*
X22935Y10172D01*
X23434Y09673D01*
X23933Y10172D01*
X23933Y10030D01*
X23505Y09602D01*
X24004Y09103D01*
X24125Y09161D01*
X24241Y09460D01*
X24241Y07963D01*
X23933Y07963D01*
X23933Y09032D01*
X23434Y09531D01*
X23363Y09460D01*
X23363Y09602D01*
X22864Y10101D01*
X22743Y10043D01*
X22627Y09744D01*
X22634Y09425D01*
X22743Y09161D01*
X22864Y09103D01*
X23363Y09602D01*
X23363Y09460D01*
X22935Y09032D01*
X22993Y08911D01*
X23292Y08795D01*
X23611Y08802D01*
X23875Y08911D01*
X23933Y09032D01*
X23933Y07963D01*
X22588Y07963D01*
X22588Y09460D01*
X22581Y09779D01*
X22472Y10043D01*
X22351Y10101D01*
X21852Y09602D01*
X22351Y09103D01*
X22472Y09161D01*
X22588Y09460D01*
X22588Y07963D01*
X21310Y07963D01*
X21310Y08974D01*
X21340Y08911D01*
X21639Y08795D01*
X21958Y08802D01*
X22222Y08911D01*
X22280Y09032D01*
X21816Y09496D01*
X21781Y09531D01*
X21710Y09602D01*
X21781Y09673D01*
X21816Y09708D01*
X22280Y10172D01*
X22222Y10293D01*
X21923Y10409D01*
X21604Y10402D01*
X21340Y10293D01*
X21310Y10231D01*
X21310Y11079D01*
X21316Y11073D01*
X21617Y10947D01*
X21943Y10947D01*
X22244Y11071D01*
X22475Y11302D01*
X22601Y11603D01*
X22601Y11929D01*
X22477Y12230D01*
X22246Y12461D01*
X21945Y12587D01*
X21619Y12587D01*
X21318Y12463D01*
X21310Y12455D01*
X21310Y15895D01*
X24675Y15895D01*
X24675Y07963D01*
X24675Y07963D01*
G37*
G54D24*
X24675Y07963D02*
X24241Y07963D01*
X24241Y09460D01*
X24241Y11625D01*
X24234Y11944D01*
X24125Y12208D01*
X24004Y12266D01*
X23975Y12237D01*
X23975Y14397D01*
X23964Y14632D01*
X23895Y14798D01*
X23796Y14831D01*
X23725Y14760D01*
X23725Y14902D01*
X23692Y15001D01*
X23473Y15081D01*
X23238Y15070D01*
X23072Y15001D01*
X23039Y14902D01*
X23382Y14559D01*
X23725Y14902D01*
X23725Y14760D01*
X23453Y14488D01*
X23796Y14145D01*
X23895Y14178D01*
X23975Y14397D01*
X23975Y12237D01*
X23933Y12195D01*
X23933Y12337D01*
X23875Y12458D01*
X23725Y12517D01*
X23725Y14074D01*
X23382Y14417D01*
X23311Y14346D01*
X23311Y14488D01*
X22968Y14831D01*
X22869Y14798D01*
X22789Y14579D01*
X22800Y14344D01*
X22869Y14178D01*
X22968Y14145D01*
X23311Y14488D01*
X23311Y14346D01*
X23039Y14074D01*
X23072Y13975D01*
X23291Y13895D01*
X23526Y13906D01*
X23692Y13975D01*
X23725Y14074D01*
X23725Y12517D01*
X23576Y12574D01*
X23257Y12567D01*
X22993Y12458D01*
X22935Y12337D01*
X23434Y11838D01*
X23933Y12337D01*
X23933Y12195D01*
X23505Y11767D01*
X24004Y11268D01*
X24125Y11326D01*
X24241Y11625D01*
X24241Y09460D01*
X24234Y09779D01*
X24125Y10043D01*
X24004Y10101D01*
X23933Y10030D01*
X23933Y10172D01*
X23933Y11197D01*
X23434Y11696D01*
X23363Y11625D01*
X23363Y11767D01*
X22864Y12266D01*
X22743Y12208D01*
X22627Y11909D01*
X22634Y11590D01*
X22743Y11326D01*
X22864Y11268D01*
X23363Y11767D01*
X23363Y11625D01*
X22935Y11197D01*
X22993Y11076D01*
X23292Y10960D01*
X23611Y10967D01*
X23875Y11076D01*
X23933Y11197D01*
X23933Y10172D01*
X23875Y10293D01*
X23576Y10409D01*
X23257Y10402D01*
X22993Y10293D01*
X22935Y10172D01*
X23434Y09673D01*
X23933Y10172D01*
X23933Y10030D01*
X23505Y09602D01*
X24004Y09103D01*
X24125Y09161D01*
X24241Y09460D01*
X24241Y07963D01*
X23933Y07963D01*
X23933Y09032D01*
X23434Y09531D01*
X23363Y09460D01*
X23363Y09602D01*
X22864Y10101D01*
X22743Y10043D01*
X22627Y09744D01*
X22634Y09425D01*
X22743Y09161D01*
X22864Y09103D01*
X23363Y09602D01*
X23363Y09460D01*
X22935Y09032D01*
X22993Y08911D01*
X23292Y08795D01*
X23611Y08802D01*
X23875Y08911D01*
X23933Y09032D01*
X23933Y07963D01*
X22588Y07963D01*
X22588Y09460D01*
X22581Y09779D01*
X22472Y10043D01*
X22351Y10101D01*
X21852Y09602D01*
X22351Y09103D01*
X22472Y09161D01*
X22588Y09460D01*
X22588Y07963D01*
X21310Y07963D01*
X21310Y08974D01*
X21340Y08911D01*
X21639Y08795D01*
X21958Y08802D01*
X22222Y08911D01*
X22280Y09032D01*
X21816Y09496D01*
X21781Y09531D01*
X21710Y09602D01*
X21781Y09673D01*
X21816Y09708D01*
X22280Y10172D01*
X22222Y10293D01*
X21923Y10409D01*
X21604Y10402D01*
X21340Y10293D01*
X21310Y10231D01*
X21310Y11079D01*
X21316Y11073D01*
X21617Y10947D01*
X21943Y10947D01*
X22244Y11071D01*
X22475Y11302D01*
X22601Y11603D01*
X22601Y11929D01*
X22477Y12230D01*
X22246Y12461D01*
X21945Y12587D01*
X21619Y12587D01*
X21318Y12463D01*
X21310Y12455D01*
X21310Y15895D01*
X24675Y15895D01*
X24675Y07963D01*
G54D10*
G36*
X24675Y01073D02*
X24409Y01073D01*
X24409Y02875D01*
X24402Y03218D01*
X24284Y03506D01*
X24156Y03573D01*
X24086Y03503D01*
X24086Y03643D01*
X24019Y03771D01*
X23700Y03896D01*
X23357Y03889D01*
X23069Y03771D01*
X23002Y03643D01*
X23544Y03102D01*
X24086Y03643D01*
X24086Y03503D01*
X23615Y03031D01*
X24156Y02489D01*
X24284Y02556D01*
X24409Y02875D01*
X24409Y01073D01*
X24086Y01073D01*
X24086Y02419D01*
X23544Y02960D01*
X23473Y02890D01*
X23473Y03031D01*
X22932Y03573D01*
X22804Y03506D01*
X22769Y03418D01*
X22769Y03612D01*
X22769Y03711D01*
X22731Y03802D01*
X22661Y03872D01*
X22569Y03910D01*
X22002Y03911D01*
X21940Y03849D01*
X21940Y03131D01*
X21940Y03081D01*
X21940Y02981D01*
X21940Y02931D01*
X21940Y02213D01*
X22002Y02151D01*
X22569Y02152D01*
X22661Y02190D01*
X22731Y02260D01*
X22769Y02351D01*
X22769Y02450D01*
X22769Y02641D01*
X22804Y02556D01*
X22932Y02489D01*
X23473Y03031D01*
X23473Y02890D01*
X23002Y02419D01*
X23069Y02291D01*
X23388Y02166D01*
X23731Y02173D01*
X24019Y02291D01*
X24086Y02419D01*
X24086Y01073D01*
X21840Y01073D01*
X21840Y02213D01*
X21840Y02981D01*
X21840Y03081D01*
X21840Y03849D01*
X21778Y03911D01*
X21211Y03910D01*
X21119Y03872D01*
X21049Y03802D01*
X21011Y03711D01*
X21011Y03612D01*
X21010Y03143D01*
X21072Y03081D01*
X21840Y03081D01*
X21840Y02981D01*
X21072Y02981D01*
X21010Y02919D01*
X21011Y02450D01*
X21011Y02351D01*
X21049Y02260D01*
X21119Y02190D01*
X21211Y02152D01*
X21778Y02151D01*
X21840Y02213D01*
X21840Y01073D01*
X19294Y01073D01*
X19294Y09438D01*
X19294Y09764D01*
X19294Y11603D01*
X19294Y11929D01*
X19170Y12230D01*
X18939Y12461D01*
X18638Y12587D01*
X18312Y12587D01*
X18011Y12463D01*
X17780Y12232D01*
X17654Y11931D01*
X17654Y11605D01*
X17778Y11304D01*
X18009Y11073D01*
X18310Y10947D01*
X18636Y10947D01*
X18937Y11071D01*
X19168Y11302D01*
X19294Y11603D01*
X19294Y09764D01*
X19170Y10065D01*
X18939Y10296D01*
X18638Y10422D01*
X18312Y10422D01*
X18011Y10298D01*
X17780Y10067D01*
X17654Y09766D01*
X17654Y09440D01*
X17778Y09139D01*
X18009Y08908D01*
X18310Y08782D01*
X18636Y08782D01*
X18937Y08906D01*
X19168Y09137D01*
X19294Y09438D01*
X19294Y01073D01*
X17627Y01073D01*
X17627Y09460D01*
X17627Y11625D01*
X17620Y11944D01*
X17511Y12208D01*
X17390Y12266D01*
X17319Y12195D01*
X17319Y12337D01*
X17261Y12458D01*
X16975Y12569D01*
X16975Y14397D01*
X16964Y14632D01*
X16895Y14798D01*
X16796Y14831D01*
X16725Y14760D01*
X16725Y14902D01*
X16692Y15001D01*
X16473Y15081D01*
X16238Y15070D01*
X16072Y15001D01*
X16039Y14902D01*
X16382Y14559D01*
X16725Y14902D01*
X16725Y14760D01*
X16453Y14488D01*
X16796Y14145D01*
X16895Y14178D01*
X16975Y14397D01*
X16975Y12569D01*
X16962Y12574D01*
X16725Y12569D01*
X16725Y14074D01*
X16382Y14417D01*
X16311Y14346D01*
X16311Y14488D01*
X15968Y14831D01*
X15869Y14798D01*
X15789Y14579D01*
X15800Y14344D01*
X15869Y14178D01*
X15968Y14145D01*
X16311Y14488D01*
X16311Y14346D01*
X16039Y14074D01*
X16072Y13975D01*
X16291Y13895D01*
X16526Y13906D01*
X16692Y13975D01*
X16725Y14074D01*
X16725Y12569D01*
X16643Y12567D01*
X16379Y12458D01*
X16321Y12337D01*
X16820Y11838D01*
X17319Y12337D01*
X17319Y12195D01*
X16891Y11767D01*
X17390Y11268D01*
X17511Y11326D01*
X17627Y11625D01*
X17627Y09460D01*
X17620Y09779D01*
X17511Y10043D01*
X17390Y10101D01*
X17319Y10030D01*
X17319Y10172D01*
X17319Y11197D01*
X16820Y11696D01*
X16749Y11625D01*
X16749Y11767D01*
X16250Y12266D01*
X16129Y12208D01*
X16013Y11909D01*
X16020Y11590D01*
X16129Y11326D01*
X16250Y11268D01*
X16749Y11767D01*
X16749Y11625D01*
X16321Y11197D01*
X16379Y11076D01*
X16678Y10960D01*
X16997Y10967D01*
X17261Y11076D01*
X17319Y11197D01*
X17319Y10172D01*
X17261Y10293D01*
X16962Y10409D01*
X16643Y10402D01*
X16379Y10293D01*
X16321Y10172D01*
X16820Y09673D01*
X17319Y10172D01*
X17319Y10030D01*
X16891Y09602D01*
X17390Y09103D01*
X17511Y09161D01*
X17627Y09460D01*
X17627Y01073D01*
X17319Y01073D01*
X17319Y09032D01*
X16820Y09531D01*
X16749Y09460D01*
X16749Y09602D01*
X16250Y10101D01*
X16129Y10043D01*
X16013Y09744D01*
X16020Y09425D01*
X16129Y09161D01*
X16250Y09103D01*
X16749Y09602D01*
X16749Y09460D01*
X16321Y09032D01*
X16379Y08911D01*
X16678Y08795D01*
X16997Y08802D01*
X17261Y08911D01*
X17319Y09032D01*
X17319Y01073D01*
X17095Y01073D01*
X17095Y05393D01*
X17084Y05606D01*
X17024Y05753D01*
X16930Y05780D01*
X16860Y05710D01*
X16860Y05850D01*
X16833Y05944D01*
X16631Y06015D01*
X16418Y06004D01*
X16271Y05944D01*
X16244Y05850D01*
X16552Y05543D01*
X16860Y05850D01*
X16860Y05710D01*
X16623Y05472D01*
X16930Y05164D01*
X17024Y05191D01*
X17095Y05393D01*
X17095Y01073D01*
X16860Y01073D01*
X16860Y05094D01*
X16552Y05401D01*
X16244Y05094D01*
X16271Y05000D01*
X16473Y04929D01*
X16686Y04940D01*
X16833Y05000D01*
X16860Y05094D01*
X16860Y01073D01*
X13157Y01073D01*
X13157Y01969D01*
X13146Y02173D01*
X13090Y02310D01*
X12999Y02333D01*
X12928Y02262D01*
X12928Y02404D01*
X12905Y02495D01*
X12712Y02562D01*
X12508Y02551D01*
X12371Y02495D01*
X12348Y02404D01*
X12638Y02114D01*
X12928Y02404D01*
X12928Y02262D01*
X12709Y02043D01*
X12999Y01753D01*
X13090Y01776D01*
X13157Y01969D01*
X13157Y01073D01*
X12928Y01073D01*
X12928Y01682D01*
X12638Y01972D01*
X12567Y01901D01*
X12567Y02043D01*
X12277Y02333D01*
X12186Y02310D01*
X12119Y02117D01*
X12130Y01913D01*
X12186Y01776D01*
X12277Y01753D01*
X12567Y02043D01*
X12567Y01901D01*
X12348Y01682D01*
X12371Y01591D01*
X12564Y01524D01*
X12768Y01535D01*
X12905Y01591D01*
X12928Y01682D01*
X12928Y01073D01*
X10952Y01073D01*
X10952Y01969D01*
X10941Y02173D01*
X10885Y02310D01*
X10794Y02333D01*
X10723Y02262D01*
X10723Y02404D01*
X10700Y02495D01*
X10507Y02562D01*
X10303Y02551D01*
X10166Y02495D01*
X10143Y02404D01*
X10433Y02114D01*
X10723Y02404D01*
X10723Y02262D01*
X10504Y02043D01*
X10794Y01753D01*
X10885Y01776D01*
X10952Y01969D01*
X10952Y01073D01*
X10723Y01073D01*
X10723Y01682D01*
X10433Y01972D01*
X10362Y01901D01*
X10362Y02043D01*
X10072Y02333D01*
X09981Y02310D01*
X09914Y02117D01*
X09925Y01913D01*
X09981Y01776D01*
X10072Y01753D01*
X10362Y02043D01*
X10362Y01901D01*
X10143Y01682D01*
X10166Y01591D01*
X10359Y01524D01*
X10563Y01535D01*
X10700Y01591D01*
X10723Y01682D01*
X10723Y01073D01*
X06834Y01073D01*
X06834Y02691D01*
X06826Y02980D01*
X06731Y03210D01*
X06618Y03259D01*
X06547Y03188D01*
X06547Y03330D01*
X06498Y03443D01*
X06227Y03546D01*
X05938Y03538D01*
X05708Y03443D01*
X05659Y03330D01*
X06103Y02886D01*
X06547Y03330D01*
X06547Y03188D01*
X06174Y02815D01*
X06618Y02371D01*
X06731Y02420D01*
X06834Y02691D01*
X06834Y01073D01*
X06547Y01073D01*
X06547Y02300D01*
X06103Y02744D01*
X06032Y02673D01*
X06032Y02815D01*
X05588Y03259D01*
X05475Y03210D01*
X05372Y02939D01*
X05380Y02650D01*
X05475Y02420D01*
X05588Y02371D01*
X06032Y02815D01*
X06032Y02673D01*
X05659Y02300D01*
X05708Y02187D01*
X05979Y02084D01*
X06268Y02092D01*
X06498Y02187D01*
X06547Y02300D01*
X06547Y01073D01*
X04302Y01073D01*
X04302Y04241D01*
X10845Y04241D01*
X11633Y03454D01*
X13565Y03454D01*
X14864Y04792D01*
X16113Y04792D01*
X16113Y05182D01*
X16174Y05164D01*
X16481Y05472D01*
X16174Y05780D01*
X16113Y05763D01*
X16113Y06309D01*
X15987Y06309D01*
X15987Y09438D01*
X15987Y09764D01*
X15974Y09796D01*
X15974Y11625D01*
X15967Y11944D01*
X15858Y12208D01*
X15737Y12266D01*
X15666Y12195D01*
X15666Y12337D01*
X15608Y12458D01*
X15309Y12574D01*
X14990Y12567D01*
X14726Y12458D01*
X14668Y12337D01*
X15167Y11838D01*
X15666Y12337D01*
X15666Y12195D01*
X15238Y11767D01*
X15737Y11268D01*
X15858Y11326D01*
X15974Y11625D01*
X15974Y09796D01*
X15863Y10065D01*
X15666Y10262D01*
X15666Y11197D01*
X15167Y11696D01*
X15096Y11625D01*
X15096Y11767D01*
X14597Y12266D01*
X14476Y12208D01*
X14360Y11909D01*
X14367Y11590D01*
X14476Y11326D01*
X14597Y11268D01*
X15096Y11767D01*
X15096Y11625D01*
X14668Y11197D01*
X14726Y11076D01*
X15025Y10960D01*
X15344Y10967D01*
X15608Y11076D01*
X15666Y11197D01*
X15666Y10262D01*
X15632Y10296D01*
X15331Y10422D01*
X15005Y10422D01*
X14704Y10298D01*
X14473Y10067D01*
X14347Y09766D01*
X14347Y09440D01*
X14471Y09139D01*
X14702Y08908D01*
X15003Y08782D01*
X15329Y08782D01*
X15630Y08906D01*
X15861Y09137D01*
X15987Y09438D01*
X15987Y06309D01*
X14321Y06309D01*
X14321Y09460D01*
X14321Y11625D01*
X14314Y11944D01*
X14205Y12208D01*
X14084Y12266D01*
X14013Y12195D01*
X14013Y12337D01*
X13955Y12458D01*
X13656Y12574D01*
X13337Y12567D01*
X13073Y12458D01*
X13015Y12337D01*
X13514Y11838D01*
X14013Y12337D01*
X14013Y12195D01*
X13585Y11767D01*
X14084Y11268D01*
X14205Y11326D01*
X14321Y11625D01*
X14321Y09460D01*
X14314Y09779D01*
X14205Y10043D01*
X14084Y10101D01*
X14013Y10030D01*
X14013Y10172D01*
X14013Y11197D01*
X13514Y11696D01*
X13443Y11625D01*
X13443Y11767D01*
X12944Y12266D01*
X12833Y12213D01*
X12833Y14318D01*
X12822Y14553D01*
X12753Y14719D01*
X12654Y14752D01*
X12583Y14681D01*
X12583Y14823D01*
X12550Y14922D01*
X12331Y15002D01*
X12096Y14991D01*
X11930Y14922D01*
X11897Y14823D01*
X12240Y14480D01*
X12583Y14823D01*
X12583Y14681D01*
X12311Y14409D01*
X12654Y14066D01*
X12753Y14099D01*
X12833Y14318D01*
X12833Y12213D01*
X12823Y12208D01*
X12707Y11909D01*
X12714Y11590D01*
X12823Y11326D01*
X12944Y11268D01*
X13443Y11767D01*
X13443Y11625D01*
X13015Y11197D01*
X13073Y11076D01*
X13372Y10960D01*
X13691Y10967D01*
X13955Y11076D01*
X14013Y11197D01*
X14013Y10172D01*
X13955Y10293D01*
X13656Y10409D01*
X13337Y10402D01*
X13073Y10293D01*
X13015Y10172D01*
X13514Y09673D01*
X14013Y10172D01*
X14013Y10030D01*
X13585Y09602D01*
X14084Y09103D01*
X14205Y09161D01*
X14321Y09460D01*
X14321Y06309D01*
X14013Y06309D01*
X14013Y09032D01*
X13514Y09531D01*
X13443Y09460D01*
X13443Y09602D01*
X12944Y10101D01*
X12823Y10043D01*
X12707Y09744D01*
X12714Y09425D01*
X12823Y09161D01*
X12944Y09103D01*
X13443Y09602D01*
X13443Y09460D01*
X13015Y09032D01*
X13073Y08911D01*
X13372Y08795D01*
X13691Y08802D01*
X13955Y08911D01*
X14013Y09032D01*
X14013Y06309D01*
X13436Y06309D01*
X13436Y07609D01*
X12768Y07609D01*
X12754Y07615D01*
X12523Y07615D01*
X12508Y07609D01*
X11231Y07609D01*
X11231Y09073D01*
X11396Y08908D01*
X11697Y08782D01*
X12023Y08782D01*
X12324Y08906D01*
X12555Y09137D01*
X12681Y09438D01*
X12681Y09764D01*
X12557Y10065D01*
X12326Y10296D01*
X12025Y10422D01*
X11699Y10422D01*
X11398Y10298D01*
X11231Y10131D01*
X11231Y11238D01*
X11396Y11073D01*
X11697Y10947D01*
X12023Y10947D01*
X12324Y11071D01*
X12555Y11302D01*
X12681Y11603D01*
X12681Y11929D01*
X12583Y12167D01*
X12583Y13995D01*
X12240Y14338D01*
X12169Y14267D01*
X12169Y14409D01*
X11826Y14752D01*
X11727Y14719D01*
X11647Y14500D01*
X11658Y14265D01*
X11727Y14099D01*
X11826Y14066D01*
X12169Y14409D01*
X12169Y14267D01*
X11897Y13995D01*
X11930Y13896D01*
X12149Y13816D01*
X12384Y13827D01*
X12550Y13896D01*
X12583Y13995D01*
X12583Y12167D01*
X12557Y12230D01*
X12326Y12461D01*
X12025Y12587D01*
X11699Y12587D01*
X11398Y12463D01*
X11231Y12296D01*
X11231Y15895D01*
X20895Y15895D01*
X20895Y12022D01*
X20818Y12208D01*
X20697Y12266D01*
X20626Y12195D01*
X20626Y12337D01*
X20568Y12458D01*
X20269Y12574D01*
X19950Y12567D01*
X19686Y12458D01*
X19628Y12337D01*
X20127Y11838D01*
X20626Y12337D01*
X20626Y12195D01*
X20198Y11767D01*
X20697Y11268D01*
X20818Y11326D01*
X20895Y11525D01*
X20895Y09857D01*
X20818Y10043D01*
X20697Y10101D01*
X20626Y10030D01*
X20626Y10172D01*
X20626Y11197D01*
X20127Y11696D01*
X20056Y11625D01*
X20056Y11767D01*
X19557Y12266D01*
X19436Y12208D01*
X19320Y11909D01*
X19327Y11590D01*
X19436Y11326D01*
X19557Y11268D01*
X20056Y11767D01*
X20056Y11625D01*
X19628Y11197D01*
X19686Y11076D01*
X19985Y10960D01*
X20304Y10967D01*
X20568Y11076D01*
X20626Y11197D01*
X20626Y10172D01*
X20568Y10293D01*
X20269Y10409D01*
X19950Y10402D01*
X19686Y10293D01*
X19628Y10172D01*
X20127Y09673D01*
X20626Y10172D01*
X20626Y10030D01*
X20198Y09602D01*
X20697Y09103D01*
X20818Y09161D01*
X20895Y09360D01*
X20895Y07963D01*
X20626Y07963D01*
X20626Y09032D01*
X20127Y09531D01*
X20056Y09460D01*
X20056Y09602D01*
X19557Y10101D01*
X19436Y10043D01*
X19320Y09744D01*
X19327Y09425D01*
X19436Y09161D01*
X19557Y09103D01*
X20056Y09602D01*
X20056Y09460D01*
X19628Y09032D01*
X19686Y08911D01*
X19985Y08795D01*
X20304Y08802D01*
X20568Y08911D01*
X20626Y09032D01*
X20626Y07963D01*
X20580Y07963D01*
X20580Y04005D01*
X24675Y04005D01*
X24675Y01073D01*
X24675Y01073D01*
G37*
G54D24*
X24675Y01073D02*
X24409Y01073D01*
X24409Y02875D01*
X24402Y03218D01*
X24284Y03506D01*
X24156Y03573D01*
X24086Y03503D01*
X24086Y03643D01*
X24019Y03771D01*
X23700Y03896D01*
X23357Y03889D01*
X23069Y03771D01*
X23002Y03643D01*
X23544Y03102D01*
X24086Y03643D01*
X24086Y03503D01*
X23615Y03031D01*
X24156Y02489D01*
X24284Y02556D01*
X24409Y02875D01*
X24409Y01073D01*
X24086Y01073D01*
X24086Y02419D01*
X23544Y02960D01*
X23473Y02890D01*
X23473Y03031D01*
X22932Y03573D01*
X22804Y03506D01*
X22769Y03418D01*
X22769Y03612D01*
X22769Y03711D01*
X22731Y03802D01*
X22661Y03872D01*
X22569Y03910D01*
X22002Y03911D01*
X21940Y03849D01*
X21940Y03131D01*
X21940Y03081D01*
X21940Y02981D01*
X21940Y02931D01*
X21940Y02213D01*
X22002Y02151D01*
X22569Y02152D01*
X22661Y02190D01*
X22731Y02260D01*
X22769Y02351D01*
X22769Y02450D01*
X22769Y02641D01*
X22804Y02556D01*
X22932Y02489D01*
X23473Y03031D01*
X23473Y02890D01*
X23002Y02419D01*
X23069Y02291D01*
X23388Y02166D01*
X23731Y02173D01*
X24019Y02291D01*
X24086Y02419D01*
X24086Y01073D01*
X21840Y01073D01*
X21840Y02213D01*
X21840Y02981D01*
X21840Y03081D01*
X21840Y03849D01*
X21778Y03911D01*
X21211Y03910D01*
X21119Y03872D01*
X21049Y03802D01*
X21011Y03711D01*
X21011Y03612D01*
X21010Y03143D01*
X21072Y03081D01*
X21840Y03081D01*
X21840Y02981D01*
X21072Y02981D01*
X21010Y02919D01*
X21011Y02450D01*
X21011Y02351D01*
X21049Y02260D01*
X21119Y02190D01*
X21211Y02152D01*
X21778Y02151D01*
X21840Y02213D01*
X21840Y01073D01*
X19294Y01073D01*
X19294Y09438D01*
X19294Y09764D01*
X19294Y11603D01*
X19294Y11929D01*
X19170Y12230D01*
X18939Y12461D01*
X18638Y12587D01*
X18312Y12587D01*
X18011Y12463D01*
X17780Y12232D01*
X17654Y11931D01*
X17654Y11605D01*
X17778Y11304D01*
X18009Y11073D01*
X18310Y10947D01*
X18636Y10947D01*
X18937Y11071D01*
X19168Y11302D01*
X19294Y11603D01*
X19294Y09764D01*
X19170Y10065D01*
X18939Y10296D01*
X18638Y10422D01*
X18312Y10422D01*
X18011Y10298D01*
X17780Y10067D01*
X17654Y09766D01*
X17654Y09440D01*
X17778Y09139D01*
X18009Y08908D01*
X18310Y08782D01*
X18636Y08782D01*
X18937Y08906D01*
X19168Y09137D01*
X19294Y09438D01*
X19294Y01073D01*
X17627Y01073D01*
X17627Y09460D01*
X17627Y11625D01*
X17620Y11944D01*
X17511Y12208D01*
X17390Y12266D01*
X17319Y12195D01*
X17319Y12337D01*
X17261Y12458D01*
X16975Y12569D01*
X16975Y14397D01*
X16964Y14632D01*
X16895Y14798D01*
X16796Y14831D01*
X16725Y14760D01*
X16725Y14902D01*
X16692Y15001D01*
X16473Y15081D01*
X16238Y15070D01*
X16072Y15001D01*
X16039Y14902D01*
X16382Y14559D01*
X16725Y14902D01*
X16725Y14760D01*
X16453Y14488D01*
X16796Y14145D01*
X16895Y14178D01*
X16975Y14397D01*
X16975Y12569D01*
X16962Y12574D01*
X16725Y12569D01*
X16725Y14074D01*
X16382Y14417D01*
X16311Y14346D01*
X16311Y14488D01*
X15968Y14831D01*
X15869Y14798D01*
X15789Y14579D01*
X15800Y14344D01*
X15869Y14178D01*
X15968Y14145D01*
X16311Y14488D01*
X16311Y14346D01*
X16039Y14074D01*
X16072Y13975D01*
X16291Y13895D01*
X16526Y13906D01*
X16692Y13975D01*
X16725Y14074D01*
X16725Y12569D01*
X16643Y12567D01*
X16379Y12458D01*
X16321Y12337D01*
X16820Y11838D01*
X17319Y12337D01*
X17319Y12195D01*
X16891Y11767D01*
X17390Y11268D01*
X17511Y11326D01*
X17627Y11625D01*
X17627Y09460D01*
X17620Y09779D01*
X17511Y10043D01*
X17390Y10101D01*
X17319Y10030D01*
X17319Y10172D01*
X17319Y11197D01*
X16820Y11696D01*
X16749Y11625D01*
X16749Y11767D01*
X16250Y12266D01*
X16129Y12208D01*
X16013Y11909D01*
X16020Y11590D01*
X16129Y11326D01*
X16250Y11268D01*
X16749Y11767D01*
X16749Y11625D01*
X16321Y11197D01*
X16379Y11076D01*
X16678Y10960D01*
X16997Y10967D01*
X17261Y11076D01*
X17319Y11197D01*
X17319Y10172D01*
X17261Y10293D01*
X16962Y10409D01*
X16643Y10402D01*
X16379Y10293D01*
X16321Y10172D01*
X16820Y09673D01*
X17319Y10172D01*
X17319Y10030D01*
X16891Y09602D01*
X17390Y09103D01*
X17511Y09161D01*
X17627Y09460D01*
X17627Y01073D01*
X17319Y01073D01*
X17319Y09032D01*
X16820Y09531D01*
X16749Y09460D01*
X16749Y09602D01*
X16250Y10101D01*
X16129Y10043D01*
X16013Y09744D01*
X16020Y09425D01*
X16129Y09161D01*
X16250Y09103D01*
X16749Y09602D01*
X16749Y09460D01*
X16321Y09032D01*
X16379Y08911D01*
X16678Y08795D01*
X16997Y08802D01*
X17261Y08911D01*
X17319Y09032D01*
X17319Y01073D01*
X17095Y01073D01*
X17095Y05393D01*
X17084Y05606D01*
X17024Y05753D01*
X16930Y05780D01*
X16860Y05710D01*
X16860Y05850D01*
X16833Y05944D01*
X16631Y06015D01*
X16418Y06004D01*
X16271Y05944D01*
X16244Y05850D01*
X16552Y05543D01*
X16860Y05850D01*
X16860Y05710D01*
X16623Y05472D01*
X16930Y05164D01*
X17024Y05191D01*
X17095Y05393D01*
X17095Y01073D01*
X16860Y01073D01*
X16860Y05094D01*
X16552Y05401D01*
X16244Y05094D01*
X16271Y05000D01*
X16473Y04929D01*
X16686Y04940D01*
X16833Y05000D01*
X16860Y05094D01*
X16860Y01073D01*
X13157Y01073D01*
X13157Y01969D01*
X13146Y02173D01*
X13090Y02310D01*
X12999Y02333D01*
X12928Y02262D01*
X12928Y02404D01*
X12905Y02495D01*
X12712Y02562D01*
X12508Y02551D01*
X12371Y02495D01*
X12348Y02404D01*
X12638Y02114D01*
X12928Y02404D01*
X12928Y02262D01*
X12709Y02043D01*
X12999Y01753D01*
X13090Y01776D01*
X13157Y01969D01*
X13157Y01073D01*
X12928Y01073D01*
X12928Y01682D01*
X12638Y01972D01*
X12567Y01901D01*
X12567Y02043D01*
X12277Y02333D01*
X12186Y02310D01*
X12119Y02117D01*
X12130Y01913D01*
X12186Y01776D01*
X12277Y01753D01*
X12567Y02043D01*
X12567Y01901D01*
X12348Y01682D01*
X12371Y01591D01*
X12564Y01524D01*
X12768Y01535D01*
X12905Y01591D01*
X12928Y01682D01*
X12928Y01073D01*
X10952Y01073D01*
X10952Y01969D01*
X10941Y02173D01*
X10885Y02310D01*
X10794Y02333D01*
X10723Y02262D01*
X10723Y02404D01*
X10700Y02495D01*
X10507Y02562D01*
X10303Y02551D01*
X10166Y02495D01*
X10143Y02404D01*
X10433Y02114D01*
X10723Y02404D01*
X10723Y02262D01*
X10504Y02043D01*
X10794Y01753D01*
X10885Y01776D01*
X10952Y01969D01*
X10952Y01073D01*
X10723Y01073D01*
X10723Y01682D01*
X10433Y01972D01*
X10362Y01901D01*
X10362Y02043D01*
X10072Y02333D01*
X09981Y02310D01*
X09914Y02117D01*
X09925Y01913D01*
X09981Y01776D01*
X10072Y01753D01*
X10362Y02043D01*
X10362Y01901D01*
X10143Y01682D01*
X10166Y01591D01*
X10359Y01524D01*
X10563Y01535D01*
X10700Y01591D01*
X10723Y01682D01*
X10723Y01073D01*
X06834Y01073D01*
X06834Y02691D01*
X06826Y02980D01*
X06731Y03210D01*
X06618Y03259D01*
X06547Y03188D01*
X06547Y03330D01*
X06498Y03443D01*
X06227Y03546D01*
X05938Y03538D01*
X05708Y03443D01*
X05659Y03330D01*
X06103Y02886D01*
X06547Y03330D01*
X06547Y03188D01*
X06174Y02815D01*
X06618Y02371D01*
X06731Y02420D01*
X06834Y02691D01*
X06834Y01073D01*
X06547Y01073D01*
X06547Y02300D01*
X06103Y02744D01*
X06032Y02673D01*
X06032Y02815D01*
X05588Y03259D01*
X05475Y03210D01*
X05372Y02939D01*
X05380Y02650D01*
X05475Y02420D01*
X05588Y02371D01*
X06032Y02815D01*
X06032Y02673D01*
X05659Y02300D01*
X05708Y02187D01*
X05979Y02084D01*
X06268Y02092D01*
X06498Y02187D01*
X06547Y02300D01*
X06547Y01073D01*
X04302Y01073D01*
X04302Y04241D01*
X10845Y04241D01*
X11633Y03454D01*
X13565Y03454D01*
X14864Y04792D01*
X16113Y04792D01*
X16113Y05182D01*
X16174Y05164D01*
X16481Y05472D01*
X16174Y05780D01*
X16113Y05763D01*
X16113Y06309D01*
X15987Y06309D01*
X15987Y09438D01*
X15987Y09764D01*
X15974Y09796D01*
X15974Y11625D01*
X15967Y11944D01*
X15858Y12208D01*
X15737Y12266D01*
X15666Y12195D01*
X15666Y12337D01*
X15608Y12458D01*
X15309Y12574D01*
X14990Y12567D01*
X14726Y12458D01*
X14668Y12337D01*
X15167Y11838D01*
X15666Y12337D01*
X15666Y12195D01*
X15238Y11767D01*
X15737Y11268D01*
X15858Y11326D01*
X15974Y11625D01*
X15974Y09796D01*
X15863Y10065D01*
X15666Y10262D01*
X15666Y11197D01*
X15167Y11696D01*
X15096Y11625D01*
X15096Y11767D01*
X14597Y12266D01*
X14476Y12208D01*
X14360Y11909D01*
X14367Y11590D01*
X14476Y11326D01*
X14597Y11268D01*
X15096Y11767D01*
X15096Y11625D01*
X14668Y11197D01*
X14726Y11076D01*
X15025Y10960D01*
X15344Y10967D01*
X15608Y11076D01*
X15666Y11197D01*
X15666Y10262D01*
X15632Y10296D01*
X15331Y10422D01*
X15005Y10422D01*
X14704Y10298D01*
X14473Y10067D01*
X14347Y09766D01*
X14347Y09440D01*
X14471Y09139D01*
X14702Y08908D01*
X15003Y08782D01*
X15329Y08782D01*
X15630Y08906D01*
X15861Y09137D01*
X15987Y09438D01*
X15987Y06309D01*
X14321Y06309D01*
X14321Y09460D01*
X14321Y11625D01*
X14314Y11944D01*
X14205Y12208D01*
X14084Y12266D01*
X14013Y12195D01*
X14013Y12337D01*
X13955Y12458D01*
X13656Y12574D01*
X13337Y12567D01*
X13073Y12458D01*
X13015Y12337D01*
X13514Y11838D01*
X14013Y12337D01*
X14013Y12195D01*
X13585Y11767D01*
X14084Y11268D01*
X14205Y11326D01*
X14321Y11625D01*
X14321Y09460D01*
X14314Y09779D01*
X14205Y10043D01*
X14084Y10101D01*
X14013Y10030D01*
X14013Y10172D01*
X14013Y11197D01*
X13514Y11696D01*
X13443Y11625D01*
X13443Y11767D01*
X12944Y12266D01*
X12833Y12213D01*
X12833Y14318D01*
X12822Y14553D01*
X12753Y14719D01*
X12654Y14752D01*
X12583Y14681D01*
X12583Y14823D01*
X12550Y14922D01*
X12331Y15002D01*
X12096Y14991D01*
X11930Y14922D01*
X11897Y14823D01*
X12240Y14480D01*
X12583Y14823D01*
X12583Y14681D01*
X12311Y14409D01*
X12654Y14066D01*
X12753Y14099D01*
X12833Y14318D01*
X12833Y12213D01*
X12823Y12208D01*
X12707Y11909D01*
X12714Y11590D01*
X12823Y11326D01*
X12944Y11268D01*
X13443Y11767D01*
X13443Y11625D01*
X13015Y11197D01*
X13073Y11076D01*
X13372Y10960D01*
X13691Y10967D01*
X13955Y11076D01*
X14013Y11197D01*
X14013Y10172D01*
X13955Y10293D01*
X13656Y10409D01*
X13337Y10402D01*
X13073Y10293D01*
X13015Y10172D01*
X13514Y09673D01*
X14013Y10172D01*
X14013Y10030D01*
X13585Y09602D01*
X14084Y09103D01*
X14205Y09161D01*
X14321Y09460D01*
X14321Y06309D01*
X14013Y06309D01*
X14013Y09032D01*
X13514Y09531D01*
X13443Y09460D01*
X13443Y09602D01*
X12944Y10101D01*
X12823Y10043D01*
X12707Y09744D01*
X12714Y09425D01*
X12823Y09161D01*
X12944Y09103D01*
X13443Y09602D01*
X13443Y09460D01*
X13015Y09032D01*
X13073Y08911D01*
X13372Y08795D01*
X13691Y08802D01*
X13955Y08911D01*
X14013Y09032D01*
X14013Y06309D01*
X13436Y06309D01*
X13436Y07609D01*
X12768Y07609D01*
X12754Y07615D01*
X12523Y07615D01*
X12508Y07609D01*
X11231Y07609D01*
X11231Y09073D01*
X11396Y08908D01*
X11697Y08782D01*
X12023Y08782D01*
X12324Y08906D01*
X12555Y09137D01*
X12681Y09438D01*
X12681Y09764D01*
X12557Y10065D01*
X12326Y10296D01*
X12025Y10422D01*
X11699Y10422D01*
X11398Y10298D01*
X11231Y10131D01*
X11231Y11238D01*
X11396Y11073D01*
X11697Y10947D01*
X12023Y10947D01*
X12324Y11071D01*
X12555Y11302D01*
X12681Y11603D01*
X12681Y11929D01*
X12583Y12167D01*
X12583Y13995D01*
X12240Y14338D01*
X12169Y14267D01*
X12169Y14409D01*
X11826Y14752D01*
X11727Y14719D01*
X11647Y14500D01*
X11658Y14265D01*
X11727Y14099D01*
X11826Y14066D01*
X12169Y14409D01*
X12169Y14267D01*
X11897Y13995D01*
X11930Y13896D01*
X12149Y13816D01*
X12384Y13827D01*
X12550Y13896D01*
X12583Y13995D01*
X12583Y12167D01*
X12557Y12230D01*
X12326Y12461D01*
X12025Y12587D01*
X11699Y12587D01*
X11398Y12463D01*
X11231Y12296D01*
X11231Y15895D01*
X20895Y15895D01*
X20895Y12022D01*
X20818Y12208D01*
X20697Y12266D01*
X20626Y12195D01*
X20626Y12337D01*
X20568Y12458D01*
X20269Y12574D01*
X19950Y12567D01*
X19686Y12458D01*
X19628Y12337D01*
X20127Y11838D01*
X20626Y12337D01*
X20626Y12195D01*
X20198Y11767D01*
X20697Y11268D01*
X20818Y11326D01*
X20895Y11525D01*
X20895Y09857D01*
X20818Y10043D01*
X20697Y10101D01*
X20626Y10030D01*
X20626Y10172D01*
X20626Y11197D01*
X20127Y11696D01*
X20056Y11625D01*
X20056Y11767D01*
X19557Y12266D01*
X19436Y12208D01*
X19320Y11909D01*
X19327Y11590D01*
X19436Y11326D01*
X19557Y11268D01*
X20056Y11767D01*
X20056Y11625D01*
X19628Y11197D01*
X19686Y11076D01*
X19985Y10960D01*
X20304Y10967D01*
X20568Y11076D01*
X20626Y11197D01*
X20626Y10172D01*
X20568Y10293D01*
X20269Y10409D01*
X19950Y10402D01*
X19686Y10293D01*
X19628Y10172D01*
X20127Y09673D01*
X20626Y10172D01*
X20626Y10030D01*
X20198Y09602D01*
X20697Y09103D01*
X20818Y09161D01*
X20895Y09360D01*
X20895Y07963D01*
X20626Y07963D01*
X20626Y09032D01*
X20127Y09531D01*
X20056Y09460D01*
X20056Y09602D01*
X19557Y10101D01*
X19436Y10043D01*
X19320Y09744D01*
X19327Y09425D01*
X19436Y09161D01*
X19557Y09103D01*
X20056Y09602D01*
X20056Y09460D01*
X19628Y09032D01*
X19686Y08911D01*
X19985Y08795D01*
X20304Y08802D01*
X20568Y08911D01*
X20626Y09032D01*
X20626Y07963D01*
X20580Y07963D01*
X20580Y04005D01*
X24675Y04005D01*
X24675Y01073D01*
G54D10*
G36*
X10895Y10876D02*
X10706Y10876D01*
X10706Y11197D01*
X10207Y11696D01*
X10136Y11625D01*
X10136Y11767D01*
X09637Y12266D01*
X09516Y12208D01*
X09400Y11909D01*
X09407Y11590D01*
X09516Y11326D01*
X09637Y11268D01*
X10136Y11767D01*
X10136Y11625D01*
X09708Y11197D01*
X09766Y11076D01*
X10065Y10960D01*
X10384Y10967D01*
X10648Y11076D01*
X10706Y11197D01*
X10706Y10876D01*
X09361Y10876D01*
X09361Y11625D01*
X09354Y11944D01*
X09245Y12208D01*
X09124Y12266D01*
X09053Y12195D01*
X09053Y12337D01*
X08995Y12458D01*
X08696Y12574D01*
X08377Y12567D01*
X08113Y12458D01*
X08055Y12337D01*
X08554Y11838D01*
X09053Y12337D01*
X09053Y12195D01*
X08625Y11767D01*
X09124Y11268D01*
X09245Y11326D01*
X09361Y11625D01*
X09361Y10876D01*
X09053Y10876D01*
X09053Y11197D01*
X08554Y11696D01*
X08483Y11625D01*
X08483Y11767D01*
X07984Y12266D01*
X07863Y12208D01*
X07747Y11909D01*
X07754Y11590D01*
X07863Y11326D01*
X07984Y11268D01*
X08483Y11767D01*
X08483Y11625D01*
X08055Y11197D01*
X08113Y11076D01*
X08412Y10960D01*
X08731Y10967D01*
X08995Y11076D01*
X09053Y11197D01*
X09053Y10876D01*
X07707Y10876D01*
X07707Y11625D01*
X07700Y11944D01*
X07591Y12208D01*
X07470Y12266D01*
X07399Y12195D01*
X07399Y12337D01*
X07341Y12458D01*
X07042Y12574D01*
X06723Y12567D01*
X06459Y12458D01*
X06401Y12337D01*
X06900Y11838D01*
X07399Y12337D01*
X07399Y12195D01*
X06971Y11767D01*
X07470Y11268D01*
X07591Y11326D01*
X07707Y11625D01*
X07707Y10876D01*
X07399Y10876D01*
X07399Y11197D01*
X06900Y11696D01*
X06829Y11625D01*
X06829Y11767D01*
X06330Y12266D01*
X06209Y12208D01*
X06093Y11909D01*
X06100Y11590D01*
X06209Y11326D01*
X06330Y11268D01*
X06829Y11767D01*
X06829Y11625D01*
X06401Y11197D01*
X06459Y11076D01*
X06758Y10960D01*
X07077Y10967D01*
X07341Y11076D01*
X07399Y11197D01*
X07399Y10876D01*
X06066Y10876D01*
X06066Y11603D01*
X06066Y11929D01*
X05942Y12230D01*
X05833Y12339D01*
X05833Y14318D01*
X05822Y14553D01*
X05753Y14719D01*
X05654Y14752D01*
X05583Y14681D01*
X05583Y14823D01*
X05550Y14922D01*
X05331Y15002D01*
X05096Y14991D01*
X04930Y14922D01*
X04897Y14823D01*
X05240Y14480D01*
X05583Y14823D01*
X05583Y14681D01*
X05311Y14409D01*
X05654Y14066D01*
X05753Y14099D01*
X05833Y14318D01*
X05833Y12339D01*
X05711Y12461D01*
X05583Y12515D01*
X05583Y13995D01*
X05240Y14338D01*
X05169Y14267D01*
X05169Y14409D01*
X04826Y14752D01*
X04727Y14719D01*
X04647Y14500D01*
X04658Y14265D01*
X04727Y14099D01*
X04826Y14066D01*
X05169Y14409D01*
X05169Y14267D01*
X04897Y13995D01*
X04930Y13896D01*
X05149Y13816D01*
X05384Y13827D01*
X05550Y13896D01*
X05583Y13995D01*
X05583Y12515D01*
X05410Y12587D01*
X05084Y12587D01*
X04783Y12463D01*
X04552Y12232D01*
X04426Y11931D01*
X04426Y11605D01*
X04550Y11304D01*
X04781Y11073D01*
X05082Y10947D01*
X05408Y10947D01*
X05709Y11071D01*
X05940Y11302D01*
X06066Y11603D01*
X06066Y10876D01*
X04302Y10876D01*
X04302Y15895D01*
X10895Y15895D01*
X10895Y12210D01*
X10777Y12266D01*
X10706Y12195D01*
X10706Y12337D01*
X10648Y12458D01*
X10349Y12574D01*
X10030Y12567D01*
X09766Y12458D01*
X09708Y12337D01*
X10207Y11838D01*
X10706Y12337D01*
X10706Y12195D01*
X10278Y11767D01*
X10777Y11268D01*
X10895Y11325D01*
X10895Y10876D01*
X10895Y10876D01*
G37*
G54D24*
X10895Y10876D02*
X10706Y10876D01*
X10706Y11197D01*
X10207Y11696D01*
X10136Y11625D01*
X10136Y11767D01*
X09637Y12266D01*
X09516Y12208D01*
X09400Y11909D01*
X09407Y11590D01*
X09516Y11326D01*
X09637Y11268D01*
X10136Y11767D01*
X10136Y11625D01*
X09708Y11197D01*
X09766Y11076D01*
X10065Y10960D01*
X10384Y10967D01*
X10648Y11076D01*
X10706Y11197D01*
X10706Y10876D01*
X09361Y10876D01*
X09361Y11625D01*
X09354Y11944D01*
X09245Y12208D01*
X09124Y12266D01*
X09053Y12195D01*
X09053Y12337D01*
X08995Y12458D01*
X08696Y12574D01*
X08377Y12567D01*
X08113Y12458D01*
X08055Y12337D01*
X08554Y11838D01*
X09053Y12337D01*
X09053Y12195D01*
X08625Y11767D01*
X09124Y11268D01*
X09245Y11326D01*
X09361Y11625D01*
X09361Y10876D01*
X09053Y10876D01*
X09053Y11197D01*
X08554Y11696D01*
X08483Y11625D01*
X08483Y11767D01*
X07984Y12266D01*
X07863Y12208D01*
X07747Y11909D01*
X07754Y11590D01*
X07863Y11326D01*
X07984Y11268D01*
X08483Y11767D01*
X08483Y11625D01*
X08055Y11197D01*
X08113Y11076D01*
X08412Y10960D01*
X08731Y10967D01*
X08995Y11076D01*
X09053Y11197D01*
X09053Y10876D01*
X07707Y10876D01*
X07707Y11625D01*
X07700Y11944D01*
X07591Y12208D01*
X07470Y12266D01*
X07399Y12195D01*
X07399Y12337D01*
X07341Y12458D01*
X07042Y12574D01*
X06723Y12567D01*
X06459Y12458D01*
X06401Y12337D01*
X06900Y11838D01*
X07399Y12337D01*
X07399Y12195D01*
X06971Y11767D01*
X07470Y11268D01*
X07591Y11326D01*
X07707Y11625D01*
X07707Y10876D01*
X07399Y10876D01*
X07399Y11197D01*
X06900Y11696D01*
X06829Y11625D01*
X06829Y11767D01*
X06330Y12266D01*
X06209Y12208D01*
X06093Y11909D01*
X06100Y11590D01*
X06209Y11326D01*
X06330Y11268D01*
X06829Y11767D01*
X06829Y11625D01*
X06401Y11197D01*
X06459Y11076D01*
X06758Y10960D01*
X07077Y10967D01*
X07341Y11076D01*
X07399Y11197D01*
X07399Y10876D01*
X06066Y10876D01*
X06066Y11603D01*
X06066Y11929D01*
X05942Y12230D01*
X05833Y12339D01*
X05833Y14318D01*
X05822Y14553D01*
X05753Y14719D01*
X05654Y14752D01*
X05583Y14681D01*
X05583Y14823D01*
X05550Y14922D01*
X05331Y15002D01*
X05096Y14991D01*
X04930Y14922D01*
X04897Y14823D01*
X05240Y14480D01*
X05583Y14823D01*
X05583Y14681D01*
X05311Y14409D01*
X05654Y14066D01*
X05753Y14099D01*
X05833Y14318D01*
X05833Y12339D01*
X05711Y12461D01*
X05583Y12515D01*
X05583Y13995D01*
X05240Y14338D01*
X05169Y14267D01*
X05169Y14409D01*
X04826Y14752D01*
X04727Y14719D01*
X04647Y14500D01*
X04658Y14265D01*
X04727Y14099D01*
X04826Y14066D01*
X05169Y14409D01*
X05169Y14267D01*
X04897Y13995D01*
X04930Y13896D01*
X05149Y13816D01*
X05384Y13827D01*
X05550Y13896D01*
X05583Y13995D01*
X05583Y12515D01*
X05410Y12587D01*
X05084Y12587D01*
X04783Y12463D01*
X04552Y12232D01*
X04426Y11931D01*
X04426Y11605D01*
X04550Y11304D01*
X04781Y11073D01*
X05082Y10947D01*
X05408Y10947D01*
X05709Y11071D01*
X05940Y11302D01*
X06066Y11603D01*
X06066Y10876D01*
X04302Y10876D01*
X04302Y15895D01*
X10895Y15895D01*
X10895Y12210D01*
X10777Y12266D01*
X10706Y12195D01*
X10706Y12337D01*
X10648Y12458D01*
X10349Y12574D01*
X10030Y12567D01*
X09766Y12458D01*
X09708Y12337D01*
X10207Y11838D01*
X10706Y12337D01*
X10706Y12195D01*
X10278Y11767D01*
X10777Y11268D01*
X10895Y11325D01*
X10895Y10876D01*
G54D10*
G36*
X09793Y04577D02*
X09361Y04577D01*
X09361Y09460D01*
X09354Y09779D01*
X09245Y10043D01*
X09124Y10101D01*
X09053Y10030D01*
X09053Y10172D01*
X08995Y10293D01*
X08696Y10409D01*
X08377Y10402D01*
X08113Y10293D01*
X08055Y10172D01*
X08554Y09673D01*
X09053Y10172D01*
X09053Y10030D01*
X08625Y09602D01*
X09124Y09103D01*
X09245Y09161D01*
X09361Y09460D01*
X09361Y04577D01*
X09053Y04577D01*
X09053Y09032D01*
X08554Y09531D01*
X08483Y09460D01*
X08483Y09602D01*
X07984Y10101D01*
X07863Y10043D01*
X07747Y09744D01*
X07754Y09425D01*
X07863Y09161D01*
X07984Y09103D01*
X08483Y09602D01*
X08483Y09460D01*
X08055Y09032D01*
X08113Y08911D01*
X08412Y08795D01*
X08731Y08802D01*
X08995Y08911D01*
X09053Y09032D01*
X09053Y04577D01*
X07707Y04577D01*
X07707Y09460D01*
X07700Y09779D01*
X07591Y10043D01*
X07470Y10101D01*
X07399Y10030D01*
X07399Y10172D01*
X07341Y10293D01*
X07042Y10409D01*
X06723Y10402D01*
X06459Y10293D01*
X06401Y10172D01*
X06900Y09673D01*
X07399Y10172D01*
X07399Y10030D01*
X06971Y09602D01*
X07470Y09103D01*
X07591Y09161D01*
X07707Y09460D01*
X07707Y04577D01*
X07399Y04577D01*
X07399Y09032D01*
X06900Y09531D01*
X06829Y09460D01*
X06829Y09602D01*
X06330Y10101D01*
X06209Y10043D01*
X06093Y09744D01*
X06100Y09425D01*
X06209Y09161D01*
X06330Y09103D01*
X06829Y09602D01*
X06829Y09460D01*
X06401Y09032D01*
X06459Y08911D01*
X06758Y08795D01*
X07077Y08802D01*
X07341Y08911D01*
X07399Y09032D01*
X07399Y04577D01*
X06746Y04577D01*
X06746Y05655D01*
X06746Y05879D01*
X06745Y06209D01*
X06707Y06301D01*
X06637Y06371D01*
X06546Y06409D01*
X06447Y06409D01*
X06215Y06410D01*
X06153Y06348D01*
X06153Y05817D01*
X06684Y05817D01*
X06746Y05879D01*
X06746Y05655D01*
X06684Y05717D01*
X06153Y05717D01*
X06153Y05186D01*
X06215Y05124D01*
X06447Y05125D01*
X06546Y05125D01*
X06637Y05163D01*
X06707Y05233D01*
X06745Y05325D01*
X06746Y05655D01*
X06746Y04577D01*
X06066Y04577D01*
X06066Y09438D01*
X06066Y09764D01*
X05942Y10065D01*
X05711Y10296D01*
X05410Y10422D01*
X05084Y10422D01*
X04783Y10298D01*
X04552Y10067D01*
X04426Y09766D01*
X04426Y09440D01*
X04550Y09139D01*
X04781Y08908D01*
X05082Y08782D01*
X05408Y08782D01*
X05709Y08906D01*
X05940Y09137D01*
X06066Y09438D01*
X06066Y04577D01*
X06053Y04577D01*
X06053Y05186D01*
X06053Y05717D01*
X06053Y05817D01*
X06053Y06348D01*
X05991Y06410D01*
X05759Y06409D01*
X05660Y06409D01*
X05569Y06371D01*
X05499Y06301D01*
X05461Y06209D01*
X05460Y05879D01*
X05522Y05817D01*
X06053Y05817D01*
X06053Y05717D01*
X05522Y05717D01*
X05460Y05655D01*
X05461Y05325D01*
X05499Y05233D01*
X05569Y05163D01*
X05660Y05125D01*
X05759Y05125D01*
X05991Y05124D01*
X06053Y05186D01*
X06053Y04577D01*
X04302Y04577D01*
X04302Y10461D01*
X09793Y10461D01*
X09793Y10319D01*
X09744Y10298D01*
X09513Y10067D01*
X09387Y09766D01*
X09387Y09440D01*
X09511Y09139D01*
X09742Y08908D01*
X09793Y08887D01*
X09793Y04577D01*
X09793Y04577D01*
G37*
G54D24*
X09793Y04577D02*
X09361Y04577D01*
X09361Y09460D01*
X09354Y09779D01*
X09245Y10043D01*
X09124Y10101D01*
X09053Y10030D01*
X09053Y10172D01*
X08995Y10293D01*
X08696Y10409D01*
X08377Y10402D01*
X08113Y10293D01*
X08055Y10172D01*
X08554Y09673D01*
X09053Y10172D01*
X09053Y10030D01*
X08625Y09602D01*
X09124Y09103D01*
X09245Y09161D01*
X09361Y09460D01*
X09361Y04577D01*
X09053Y04577D01*
X09053Y09032D01*
X08554Y09531D01*
X08483Y09460D01*
X08483Y09602D01*
X07984Y10101D01*
X07863Y10043D01*
X07747Y09744D01*
X07754Y09425D01*
X07863Y09161D01*
X07984Y09103D01*
X08483Y09602D01*
X08483Y09460D01*
X08055Y09032D01*
X08113Y08911D01*
X08412Y08795D01*
X08731Y08802D01*
X08995Y08911D01*
X09053Y09032D01*
X09053Y04577D01*
X07707Y04577D01*
X07707Y09460D01*
X07700Y09779D01*
X07591Y10043D01*
X07470Y10101D01*
X07399Y10030D01*
X07399Y10172D01*
X07341Y10293D01*
X07042Y10409D01*
X06723Y10402D01*
X06459Y10293D01*
X06401Y10172D01*
X06900Y09673D01*
X07399Y10172D01*
X07399Y10030D01*
X06971Y09602D01*
X07470Y09103D01*
X07591Y09161D01*
X07707Y09460D01*
X07707Y04577D01*
X07399Y04577D01*
X07399Y09032D01*
X06900Y09531D01*
X06829Y09460D01*
X06829Y09602D01*
X06330Y10101D01*
X06209Y10043D01*
X06093Y09744D01*
X06100Y09425D01*
X06209Y09161D01*
X06330Y09103D01*
X06829Y09602D01*
X06829Y09460D01*
X06401Y09032D01*
X06459Y08911D01*
X06758Y08795D01*
X07077Y08802D01*
X07341Y08911D01*
X07399Y09032D01*
X07399Y04577D01*
X06746Y04577D01*
X06746Y05655D01*
X06746Y05879D01*
X06745Y06209D01*
X06707Y06301D01*
X06637Y06371D01*
X06546Y06409D01*
X06447Y06409D01*
X06215Y06410D01*
X06153Y06348D01*
X06153Y05817D01*
X06684Y05817D01*
X06746Y05879D01*
X06746Y05655D01*
X06684Y05717D01*
X06153Y05717D01*
X06153Y05186D01*
X06215Y05124D01*
X06447Y05125D01*
X06546Y05125D01*
X06637Y05163D01*
X06707Y05233D01*
X06745Y05325D01*
X06746Y05655D01*
X06746Y04577D01*
X06066Y04577D01*
X06066Y09438D01*
X06066Y09764D01*
X05942Y10065D01*
X05711Y10296D01*
X05410Y10422D01*
X05084Y10422D01*
X04783Y10298D01*
X04552Y10067D01*
X04426Y09766D01*
X04426Y09440D01*
X04550Y09139D01*
X04781Y08908D01*
X05082Y08782D01*
X05408Y08782D01*
X05709Y08906D01*
X05940Y09137D01*
X06066Y09438D01*
X06066Y04577D01*
X06053Y04577D01*
X06053Y05186D01*
X06053Y05717D01*
X06053Y05817D01*
X06053Y06348D01*
X05991Y06410D01*
X05759Y06409D01*
X05660Y06409D01*
X05569Y06371D01*
X05499Y06301D01*
X05461Y06209D01*
X05460Y05879D01*
X05522Y05817D01*
X06053Y05817D01*
X06053Y05717D01*
X05522Y05717D01*
X05460Y05655D01*
X05461Y05325D01*
X05499Y05233D01*
X05569Y05163D01*
X05660Y05125D01*
X05759Y05125D01*
X05991Y05124D01*
X06053Y05186D01*
X06053Y04577D01*
X04302Y04577D01*
X04302Y10461D01*
X09793Y10461D01*
X09793Y10319D01*
X09744Y10298D01*
X09513Y10067D01*
X09387Y09766D01*
X09387Y09440D01*
X09511Y09139D01*
X09742Y08908D01*
X09793Y08887D01*
X09793Y04577D01*
G54D10*
G36*
X24675Y04380D02*
X24409Y04380D01*
X24409Y05040D01*
X24402Y05383D01*
X24284Y05671D01*
X24156Y05738D01*
X24086Y05668D01*
X24086Y05808D01*
X24019Y05936D01*
X23700Y06061D01*
X23357Y06054D01*
X23069Y05936D01*
X23002Y05808D01*
X23544Y05267D01*
X24086Y05808D01*
X24086Y05668D01*
X23615Y05196D01*
X24156Y04654D01*
X24284Y04721D01*
X24409Y05040D01*
X24409Y04380D01*
X23833Y04380D01*
X24019Y04456D01*
X24086Y04584D01*
X23544Y05125D01*
X23473Y05055D01*
X23473Y05196D01*
X22932Y05738D01*
X22804Y05671D01*
X22718Y05454D01*
X22630Y05671D01*
X22502Y05738D01*
X22432Y05668D01*
X22432Y05808D01*
X22365Y05936D01*
X22046Y06061D01*
X21703Y06054D01*
X21415Y05936D01*
X21348Y05808D01*
X21890Y05267D01*
X22432Y05808D01*
X22432Y05668D01*
X21961Y05196D01*
X22502Y04654D01*
X22630Y04721D01*
X22715Y04939D01*
X22804Y04721D01*
X22932Y04654D01*
X23473Y05196D01*
X23473Y05055D01*
X23002Y04584D01*
X23069Y04456D01*
X23262Y04380D01*
X22179Y04380D01*
X22365Y04456D01*
X22432Y04584D01*
X21890Y05125D01*
X21819Y05055D01*
X21819Y05196D01*
X21278Y05738D01*
X21150Y05671D01*
X21025Y05352D01*
X21032Y05009D01*
X21150Y04721D01*
X21278Y04654D01*
X21819Y05196D01*
X21819Y05055D01*
X21348Y04584D01*
X21415Y04456D01*
X21608Y04380D01*
X20995Y04380D01*
X20995Y07627D01*
X24675Y07627D01*
X24675Y04380D01*
X24675Y04380D01*
G37*
G54D24*
X24675Y04380D02*
X24409Y04380D01*
X24409Y05040D01*
X24402Y05383D01*
X24284Y05671D01*
X24156Y05738D01*
X24086Y05668D01*
X24086Y05808D01*
X24019Y05936D01*
X23700Y06061D01*
X23357Y06054D01*
X23069Y05936D01*
X23002Y05808D01*
X23544Y05267D01*
X24086Y05808D01*
X24086Y05668D01*
X23615Y05196D01*
X24156Y04654D01*
X24284Y04721D01*
X24409Y05040D01*
X24409Y04380D01*
X23833Y04380D01*
X24019Y04456D01*
X24086Y04584D01*
X23544Y05125D01*
X23473Y05055D01*
X23473Y05196D01*
X22932Y05738D01*
X22804Y05671D01*
X22718Y05454D01*
X22630Y05671D01*
X22502Y05738D01*
X22432Y05668D01*
X22432Y05808D01*
X22365Y05936D01*
X22046Y06061D01*
X21703Y06054D01*
X21415Y05936D01*
X21348Y05808D01*
X21890Y05267D01*
X22432Y05808D01*
X22432Y05668D01*
X21961Y05196D01*
X22502Y04654D01*
X22630Y04721D01*
X22715Y04939D01*
X22804Y04721D01*
X22932Y04654D01*
X23473Y05196D01*
X23473Y05055D01*
X23002Y04584D01*
X23069Y04456D01*
X23262Y04380D01*
X22179Y04380D01*
X22365Y04456D01*
X22432Y04584D01*
X21890Y05125D01*
X21819Y05055D01*
X21819Y05196D01*
X21278Y05738D01*
X21150Y05671D01*
X21025Y05352D01*
X21032Y05009D01*
X21150Y04721D01*
X21278Y04654D01*
X21819Y05196D01*
X21819Y05055D01*
X21348Y04584D01*
X21415Y04456D01*
X21608Y04380D01*
X20995Y04380D01*
X20995Y07627D01*
X24675Y07627D01*
X24675Y04380D01*
M02*
