G04 (created by PCBNEW-RS274X (2012-apr-16-27)-stable) date Fri 15 Nov 2013 10:07:24 GMT*
G01*
G70*
G90*
%MOIN*%
G04 Gerber Fmt 3.4, Leading zero omitted, Abs format*
%FSLAX34Y34*%
G04 APERTURE LIST*
%ADD10C,0.006000*%
%ADD11C,0.015000*%
%ADD12C,0.114100*%
%ADD13C,0.066000*%
G04 APERTURE END LIST*
G54D10*
G54D11*
X00394Y00748D02*
X28740Y00748D01*
X28347Y16496D02*
X28740Y16496D01*
X01181Y16496D02*
X00394Y16496D01*
X27953Y16496D02*
X28347Y16496D01*
X27953Y16496D02*
X27559Y16496D01*
X28740Y00749D02*
X28740Y16497D01*
X01181Y16496D02*
X27559Y16496D01*
X00394Y00747D02*
X00394Y16495D01*
G54D12*
X23434Y09602D03*
X21781Y09602D03*
X20127Y09602D03*
X18474Y09602D03*
X16820Y09602D03*
X15167Y09602D03*
X13514Y09602D03*
X11861Y09602D03*
X10207Y09602D03*
X08554Y09602D03*
X06900Y09602D03*
X05246Y09602D03*
X23434Y11767D03*
X21781Y11767D03*
X20127Y11767D03*
X18474Y11767D03*
X16820Y11767D03*
X15167Y11767D03*
X13514Y11767D03*
X11861Y11767D03*
X10207Y11767D03*
X08554Y11767D03*
X06900Y11767D03*
X05246Y11767D03*
G54D13*
X12638Y07035D03*
X12638Y06035D03*
X10433Y07074D03*
X10433Y06074D03*
M02*
