0
SECTION
2
HEADER
9
$ANGBASE
50
0.0
9
$ANGDIR
70
0
0
ENDSEC
0
SECTION
2
TABLES
0
TABLE
2
LTYPE
70
1
0
LTYPE
2
CONTINUOUS
70
0
3
Solid line
72
65
73
0
40
0.0
0
ENDTAB
0
TABLE
2
LAYER
70
24
0
LAYER
2
BLACK
70
0
62
1
6
CONTINUOUS
0
LAYER
2
BLUE
70
0
62
2
6
CONTINUOUS
0
LAYER
2
GREEN
70
0
62
3
6
CONTINUOUS
0
LAYER
2
CYAN
70
0
62
4
6
CONTINUOUS
0
LAYER
2
RED
70
0
62
5
6
CONTINUOUS
0
LAYER
2
MAGENTA
70
0
62
6
6
CONTINUOUS
0
LAYER
2
BROWN
70
0
62
7
6
CONTINUOUS
0
LAYER
2
GRAY
70
0
62
8
6
CONTINUOUS
0
LAYER
2
DARKGRAY
70
0
62
9
6
CONTINUOUS
0
LAYER
2
LIGHTBLUE
70
0
62
10
6
CONTINUOUS
0
LAYER
2
LIGHTGREEN
70
0
62
11
6
CONTINUOUS
0
LAYER
2
LIGHTCYAN
70
0
62
12
6
CONTINUOUS
0
LAYER
2
LIGHTRED
70
0
62
13
6
CONTINUOUS
0
LAYER
2
LIGHTMAGENTA
70
0
62
14
6
CONTINUOUS
0
LAYER
2
YELLOW
70
0
62
15
6
CONTINUOUS
0
LAYER
2
WHITE
70
0
62
16
6
CONTINUOUS
0
LAYER
2
DARKDARKGRAY
70
0
62
17
6
CONTINUOUS
0
LAYER
2
DARKBLUE
70
0
62
18
6
CONTINUOUS
0
LAYER
2
DARKGREEN
70
0
62
19
6
CONTINUOUS
0
LAYER
2
DARKCYAN
70
0
62
20
6
CONTINUOUS
0
LAYER
2
DARKRED
70
0
62
21
6
CONTINUOUS
0
LAYER
2
DARKMAGENTA
70
0
62
22
6
CONTINUOUS
0
LAYER
2
DARKBROWN
70
0
62
23
6
CONTINUOUS
0
LAYER
2
LIGHTYELLOW
70
0
62
24
6
CONTINUOUS
0
ENDTAB
0
ENDSEC
0
SECTION
2
ENTITIES
0
LINE
8
BLACK
10
39759.0
20
30442.0
11
68105.0
21
30442.0
0
LINE
8
BLACK
10
67712.0
20
46190.0
11
68105.0
21
46190.0
0
LINE
8
BLACK
10
40546.0
20
46190.0
11
39759.0
21
46190.0
0
LINE
8
BLACK
10
67318.0
20
46190.0
11
67712.0
21
46190.0
0
LINE
8
BLACK
10
67318.0
20
46190.0
11
66924.0
21
46190.0
0
LINE
8
BLACK
10
68105.0
20
30443.0
11
68105.0
21
46191.0
0
LINE
8
BLACK
10
40546.0
20
46190.0
11
66924.0
21
46190.0
0
LINE
8
BLACK
10
39759.0
20
30441.0
11
39759.0
21
46189.0
0
LINE
8
BLACK
10
53417.0
20
34666.0
11
53417.0
21
35666.0
0
LINE
8
BLACK
10
53417.0
20
35666.0
11
56417.0
21
35666.0
0
LINE
8
BLACK
10
56417.0
20
35666.0
11
56417.0
21
34666.0
0
LINE
8
BLACK
10
56417.0
20
34666.0
11
53417.0
21
34666.0
0
LINE
8
BLACK
10
54417.0
20
35666.0
11
54417.0
21
34666.0
0
LINE
8
BLACK
10
42762.0
20
39092.0
11
42762.0
21
40273.0
0
LINE
8
BLACK
10
42172.0
20
39682.0
11
43353.0
21
39682.0
0
CIRCLE
8
BLACK
10
42762.0
20
39682.0
40
417
0
LINE
8
BLACK
10
43549.0
20
42531.0
11
43549.0
21
37572.0
0
LINE
8
BLACK
10
43549.0
20
37572.0
11
43667.0
21
37572.0
0
LINE
8
BLACK
10
43667.0
20
37572.0
11
63941.0
21
37572.0
0
LINE
8
BLACK
10
63941.0
20
37572.0
11
63941.0
21
42531.0
0
LINE
8
BLACK
10
63941.0
20
42531.0
11
43549.0
21
42531.0
0
CIRCLE
8
BLACK
10
64966.0
20
39501.0
40
417
0
LINE
8
BLACK
10
64376.0
20
39501.0
11
65557.0
21
39501.0
0
LINE
8
BLACK
10
64966.0
20
38911.0
11
64966.0
21
40092.0
0
LINE
8
BLACK
10
50855.0
20
44103.0
11
51605.0
21
44103.0
0
LINE
8
BLACK
10
50855.0
20
43103.0
11
45355.0
21
43103.0
0
LINE
8
BLACK
10
45355.0
20
45103.0
11
50855.0
21
45103.0
0
LINE
8
BLACK
10
45355.0
20
44603.0
11
45855.0
21
45103.0
0
LINE
8
BLACK
10
50855.0
20
45103.0
11
50855.0
21
43103.0
0
LINE
8
BLACK
10
45355.0
20
45103.0
11
45355.0
21
43103.0
0
LINE
8
BLACK
10
44605.0
20
44103.0
11
45355.0
21
44103.0
0
LINE
8
BLACK
10
56497.0
20
44182.0
11
55747.0
21
44182.0
0
LINE
8
BLACK
10
56497.0
20
45182.0
11
61997.0
21
45182.0
0
LINE
8
BLACK
10
61997.0
20
43182.0
11
56497.0
21
43182.0
0
LINE
8
BLACK
10
61997.0
20
43682.0
11
61497.0
21
43182.0
0
LINE
8
BLACK
10
56497.0
20
43182.0
11
56497.0
21
45182.0
0
LINE
8
BLACK
10
61997.0
20
43182.0
11
61997.0
21
45182.0
0
LINE
8
BLACK
10
62747.0
20
44182.0
11
61997.0
21
44182.0
0
LINE
8
BLACK
10
52003.0
20
34737.0
11
52003.0
21
34537.0
0
LINE
8
BLACK
10
52003.0
20
31737.0
11
52003.0
21
31937.0
0
LINE
8
BLACK
10
52003.0
20
31937.0
11
52403.0
21
31937.0
0
LINE
8
BLACK
10
52403.0
20
31937.0
11
52403.0
21
34537.0
0
LINE
8
BLACK
10
52403.0
20
34537.0
11
51603.0
21
34537.0
0
LINE
8
BLACK
10
51603.0
20
34537.0
11
51603.0
21
31937.0
0
LINE
8
BLACK
10
51603.0
20
31937.0
11
52003.0
21
31937.0
0
LINE
8
BLACK
10
52203.0
20
34537.0
11
52403.0
21
34337.0
0
LINE
8
BLACK
10
49798.0
20
34737.0
11
49798.0
21
34537.0
0
LINE
8
BLACK
10
49798.0
20
31737.0
11
49798.0
21
31937.0
0
LINE
8
BLACK
10
49798.0
20
31937.0
11
50198.0
21
31937.0
0
LINE
8
BLACK
10
50198.0
20
31937.0
11
50198.0
21
34537.0
0
LINE
8
BLACK
10
50198.0
20
34537.0
11
49398.0
21
34537.0
0
LINE
8
BLACK
10
49398.0
20
34537.0
11
49398.0
21
31937.0
0
LINE
8
BLACK
10
49398.0
20
31937.0
11
49798.0
21
31937.0
0
LINE
8
BLACK
10
49998.0
20
34537.0
11
50198.0
21
34337.0
0
LINE
8
BLACK
10
51503.0
20
35509.0
11
52503.0
21
35509.0
0
ARC
8
BLACK
10
52003.0
20
36129.0
40
600.0
50
50.0
51
90.0
0
ARC
8
BLACK
10
52003.0
20
36129.0
40
599.0
50
90.0
51
131.0
0
ARC
8
BLACK
10
52003.0
20
36129.0
40
599.0
50
-90.0
51
-49.0
0
ARC
8
BLACK
10
52003.0
20
36129.0
40
600.0
50
-129.0
51
-90.0
0
ARC
8
BLACK
10
52003.0
20
36129.0
40
600.0
50
-54.0
51
0.0
0
ARC
8
BLACK
10
52003.0
20
36129.0
40
600.0
50
0.0
51
53.0
0
ARC
8
BLACK
10
52003.0
20
36129.0
40
599.0
50
-180.0
51
-127.0
0
ARC
8
BLACK
10
52003.0
20
36129.0
40
600.0
50
127.0
51
180.0
0
ARC
8
BLACK
10
52003.0
20
36129.0
40
250.0
50
0.0
51
90.0
0
ARC
8
BLACK
10
52003.0
20
36129.0
40
400.0
50
0.0
51
90.0
0
ARC
8
BLACK
10
52003.0
20
36129.0
40
250.0
50
-180.0
51
-90.0
0
ARC
8
BLACK
10
52003.0
20
36129.0
40
400.0
50
-180.0
51
-90.0
0
ARC
8
BLACK
10
52003.0
20
36129.0
40
800.0
50
-50.0
51
0.0
0
ARC
8
BLACK
10
52003.0
20
36129.0
40
799.0
50
0.0
51
61.0
0
ARC
8
BLACK
10
52003.0
20
36129.0
40
798.0
50
-179.0
51
-130.0
0
ARC
8
BLACK
10
52003.0
20
36129.0
40
800.0
50
119.0
51
180.0
0
ARC
8
BLACK
10
52003.0
20
36129.0
40
800.0
50
61.0
51
90.0
0
ARC
8
BLACK
10
52003.0
20
36129.0
40
799.0
50
90.0
51
121.0
0
LINE
8
BLACK
10
49298.0
20
35548.0
11
50298.0
21
35548.0
0
ARC
8
BLACK
10
49798.0
20
36168.0
40
600.0
50
50.0
51
90.0
0
ARC
8
BLACK
10
49798.0
20
36168.0
40
599.0
50
90.0
51
131.0
0
ARC
8
BLACK
10
49798.0
20
36168.0
40
599.0
50
-90.0
51
-49.0
0
ARC
8
BLACK
10
49798.0
20
36168.0
40
600.0
50
-129.0
51
-90.0
0
ARC
8
BLACK
10
49798.0
20
36168.0
40
600.0
50
-54.0
51
0.0
0
ARC
8
BLACK
10
49798.0
20
36168.0
40
600.0
50
0.0
51
53.0
0
ARC
8
BLACK
10
49798.0
20
36168.0
40
599.0
50
-180.0
51
-127.0
0
ARC
8
BLACK
10
49798.0
20
36168.0
40
600.0
50
127.0
51
180.0
0
ARC
8
BLACK
10
49798.0
20
36168.0
40
250.0
50
0.0
51
90.0
0
ARC
8
BLACK
10
49798.0
20
36168.0
40
400.0
50
0.0
51
90.0
0
ARC
8
BLACK
10
49798.0
20
36168.0
40
250.0
50
-180.0
51
-90.0
0
ARC
8
BLACK
10
49798.0
20
36168.0
40
400.0
50
-180.0
51
-90.0
0
ARC
8
BLACK
10
49798.0
20
36168.0
40
800.0
50
-50.0
51
0.0
0
ARC
8
BLACK
10
49798.0
20
36168.0
40
799.0
50
0.0
51
61.0
0
ARC
8
BLACK
10
49798.0
20
36168.0
40
798.0
50
-179.0
51
-130.0
0
ARC
8
BLACK
10
49798.0
20
36168.0
40
800.0
50
119.0
51
180.0
0
ARC
8
BLACK
10
49798.0
20
36168.0
40
800.0
50
61.0
51
90.0
0
ARC
8
BLACK
10
49798.0
20
36168.0
40
799.0
50
90.0
51
121.0
0
LINE
8
BLACK
10
44976.0
20
33099.0
11
45960.0
21
32016.0
0
LINE
8
BLACK
10
44976.0
20
36052.0
11
45960.0
21
34871.0
0
CIRCLE
8
BLACK
10
45468.0
20
32509.0
40
787
0
CIRCLE
8
BLACK
10
45468.0
20
35461.0
40
787
0
LINE
8
BLACK
10
47437.0
20
36938.0
11
47437.0
21
31032.0
0
LINE
8
BLACK
10
47437.0
20
31032.0
11
43499.0
21
31032.0
0
LINE
8
BLACK
10
43499.0
20
31032.0
11
43499.0
21
36938.0
0
LINE
8
BLACK
10
43499.0
20
36938.0
11
47437.0
21
36938.0
0
CIRCLE
8
BLACK
10
41728.0
20
42253.0
40
900
0
CIRCLE
8
BLACK
10
66137.0
20
34379.0
40
900
0
LINE
8
BLACK
10
60192.0
20
31662.0
11
60192.0
21
35953.0
0
LINE
8
BLACK
10
63972.0
20
31662.0
11
63972.0
21
35953.0
0
LINE
8
BLACK
10
60192.0
20
31662.0
11
63972.0
21
31662.0
0
LINE
8
BLACK
10
63972.0
20
35953.0
11
60192.0
21
35953.0
0
LINE
8
BLACK
10
53622.0
20
35804.0
11
53622.0
21
36204.0
0
LINE
8
BLACK
10
53851.0
20
35804.0
11
53679.0
21
36033.0
0
LINE
8
BLACK
10
53851.0
20
36204.0
11
53622.0
21
35976.0
0
LINE
8
BLACK
10
54232.0
20
35804.0
11
54003.0
21
35804.0
0
LINE
8
BLACK
10
54117.0
20
35804.0
11
54117.0
21
36204.0
0
LINE
8
BLACK
10
54117.0
20
36204.0
11
54079.0
21
36147.0
0
LINE
8
BLACK
10
54079.0
20
36147.0
11
54041.0
21
36109.0
0
LINE
8
BLACK
10
54041.0
20
36109.0
11
54003.0
21
36090.0
0
LINE
8
BLACK
10
43688.0
20
37669.0
11
43688.0
21
37311.0
0
LINE
8
BLACK
10
43688.0
20
37311.0
11
43664.0
21
37240.0
0
LINE
8
BLACK
10
43664.0
20
37240.0
11
43616.0
21
37192.0
0
LINE
8
BLACK
10
43616.0
20
37192.0
11
43545.0
21
37169.0
0
LINE
8
BLACK
10
43545.0
20
37169.0
11
43497.0
21
37169.0
0
LINE
8
BLACK
10
44188.0
20
37169.0
11
43902.0
21
37169.0
0
LINE
8
BLACK
10
44045.0
20
37169.0
11
44045.0
21
37669.0
0
LINE
8
BLACK
10
44045.0
20
37669.0
11
43997.0
21
37597.0
0
LINE
8
BLACK
10
43997.0
20
37597.0
11
43950.0
21
37550.0
0
LINE
8
BLACK
10
43950.0
20
37550.0
11
43902.0
21
37526.0
0
LINE
8
BLACK
10
61963.0
20
36917.0
11
62201.0
21
36917.0
0
LINE
8
BLACK
10
61916.0
20
36775.0
11
62082.0
21
37275.0
0
LINE
8
BLACK
10
62082.0
20
37275.0
11
62249.0
21
36775.0
0
LINE
8
BLACK
10
62345.0
20
37275.0
11
62630.0
21
37275.0
0
LINE
8
BLACK
10
62487.0
20
36775.0
11
62487.0
21
37275.0
0
LINE
8
BLACK
10
62749.0
20
37275.0
11
63083.0
21
36775.0
0
LINE
8
BLACK
10
63083.0
20
37275.0
11
62749.0
21
36775.0
0
LINE
8
BLACK
10
63249.0
20
37227.0
11
63273.0
21
37251.0
0
LINE
8
BLACK
10
63273.0
20
37251.0
11
63321.0
21
37275.0
0
LINE
8
BLACK
10
63321.0
20
37275.0
11
63440.0
21
37275.0
0
LINE
8
BLACK
10
63440.0
20
37275.0
11
63487.0
21
37251.0
0
LINE
8
BLACK
10
63487.0
20
37251.0
11
63511.0
21
37227.0
0
LINE
8
BLACK
10
63511.0
20
37227.0
11
63535.0
21
37179.0
0
LINE
8
BLACK
10
63535.0
20
37179.0
11
63535.0
21
37132.0
0
LINE
8
BLACK
10
63535.0
20
37132.0
11
63511.0
21
37060.0
0
LINE
8
BLACK
10
63511.0
20
37060.0
11
63225.0
21
36775.0
0
LINE
8
BLACK
10
63225.0
20
36775.0
11
63535.0
21
36775.0
0
LINE
8
BLACK
10
63963.0
20
37108.0
11
63963.0
21
36775.0
0
LINE
8
BLACK
10
63844.0
20
37298.0
11
63725.0
21
36941.0
0
LINE
8
BLACK
10
63725.0
20
36941.0
11
64035.0
21
36941.0
0
LINE
8
BLACK
10
51526.0
20
42738.0
11
51359.0
21
43000.0
0
LINE
8
BLACK
10
51240.0
20
42738.0
11
51240.0
21
43288.0
0
LINE
8
BLACK
10
51240.0
20
43288.0
11
51431.0
21
43288.0
0
LINE
8
BLACK
10
51431.0
20
43288.0
11
51478.0
21
43262.0
0
LINE
8
BLACK
10
51478.0
20
43262.0
11
51502.0
21
43236.0
0
LINE
8
BLACK
10
51502.0
20
43236.0
11
51526.0
21
43184.0
0
LINE
8
BLACK
10
51526.0
20
43184.0
11
51526.0
21
43105.0
0
LINE
8
BLACK
10
51526.0
20
43105.0
11
51502.0
21
43053.0
0
LINE
8
BLACK
10
51502.0
20
43053.0
11
51478.0
21
43026.0
0
LINE
8
BLACK
10
51478.0
20
43026.0
11
51431.0
21
43000.0
0
LINE
8
BLACK
10
51431.0
20
43000.0
11
51240.0
21
43000.0
0
LINE
8
BLACK
10
51692.0
20
43288.0
11
52002.0
21
43288.0
0
LINE
8
BLACK
10
52002.0
20
43288.0
11
51835.0
21
43079.0
0
LINE
8
BLACK
10
51835.0
20
43079.0
11
51907.0
21
43079.0
0
LINE
8
BLACK
10
51907.0
20
43079.0
11
51954.0
21
43053.0
0
LINE
8
BLACK
10
51954.0
20
43053.0
11
51978.0
21
43026.0
0
LINE
8
BLACK
10
51978.0
20
43026.0
11
52002.0
21
42974.0
0
LINE
8
BLACK
10
52002.0
20
42974.0
11
52002.0
21
42843.0
0
LINE
8
BLACK
10
52002.0
20
42843.0
11
51978.0
21
42791.0
0
LINE
8
BLACK
10
51978.0
20
42791.0
11
51954.0
21
42765.0
0
LINE
8
BLACK
10
51954.0
20
42765.0
11
51907.0
21
42738.0
0
LINE
8
BLACK
10
51907.0
20
42738.0
11
51764.0
21
42738.0
0
LINE
8
BLACK
10
51764.0
20
42738.0
11
51716.0
21
42765.0
0
LINE
8
BLACK
10
51716.0
20
42765.0
11
51692.0
21
42791.0
0
LINE
8
BLACK
10
51033.0
20
45690.0
11
51343.0
21
45690.0
0
LINE
8
BLACK
10
51343.0
20
45690.0
11
51176.0
21
45481.0
0
LINE
8
BLACK
10
51176.0
20
45481.0
11
51248.0
21
45481.0
0
LINE
8
BLACK
10
51248.0
20
45481.0
11
51295.0
21
45455.0
0
LINE
8
BLACK
10
51295.0
20
45455.0
11
51319.0
21
45428.0
0
LINE
8
BLACK
10
51319.0
20
45428.0
11
51343.0
21
45376.0
0
LINE
8
BLACK
10
51343.0
20
45376.0
11
51343.0
21
45245.0
0
LINE
8
BLACK
10
51343.0
20
45245.0
11
51319.0
21
45193.0
0
LINE
8
BLACK
10
51319.0
20
45193.0
11
51295.0
21
45167.0
0
LINE
8
BLACK
10
51295.0
20
45167.0
11
51248.0
21
45140.0
0
LINE
8
BLACK
10
51248.0
20
45140.0
11
51105.0
21
45140.0
0
LINE
8
BLACK
10
51105.0
20
45140.0
11
51057.0
21
45167.0
0
LINE
8
BLACK
10
51057.0
20
45167.0
11
51033.0
21
45193.0
0
LINE
8
BLACK
10
51652.0
20
45690.0
11
51700.0
21
45690.0
0
LINE
8
BLACK
10
51700.0
20
45690.0
11
51748.0
21
45664.0
0
LINE
8
BLACK
10
51748.0
20
45664.0
11
51771.0
21
45638.0
0
LINE
8
BLACK
10
51771.0
20
45638.0
11
51795.0
21
45586.0
0
LINE
8
BLACK
10
51795.0
20
45586.0
11
51819.0
21
45481.0
0
LINE
8
BLACK
10
51819.0
20
45481.0
11
51819.0
21
45350.0
0
LINE
8
BLACK
10
51819.0
20
45350.0
11
51795.0
21
45245.0
0
LINE
8
BLACK
10
51795.0
20
45245.0
11
51771.0
21
45193.0
0
LINE
8
BLACK
10
51771.0
20
45193.0
11
51748.0
21
45167.0
0
LINE
8
BLACK
10
51748.0
20
45167.0
11
51700.0
21
45140.0
0
LINE
8
BLACK
10
51700.0
20
45140.0
11
51652.0
21
45140.0
0
LINE
8
BLACK
10
51652.0
20
45140.0
11
51605.0
21
45167.0
0
LINE
8
BLACK
10
51605.0
20
45167.0
11
51581.0
21
45193.0
0
LINE
8
BLACK
10
51581.0
20
45193.0
11
51557.0
21
45245.0
0
LINE
8
BLACK
10
51557.0
20
45245.0
11
51533.0
21
45350.0
0
LINE
8
BLACK
10
51533.0
20
45350.0
11
51533.0
21
45481.0
0
LINE
8
BLACK
10
51533.0
20
45481.0
11
51557.0
21
45586.0
0
LINE
8
BLACK
10
51557.0
20
45586.0
11
51581.0
21
45638.0
0
LINE
8
BLACK
10
51581.0
20
45638.0
11
51605.0
21
45664.0
0
LINE
8
BLACK
10
51605.0
20
45664.0
11
51652.0
21
45690.0
0
LINE
8
BLACK
10
52319.0
20
45140.0
11
52152.0
21
45402.0
0
LINE
8
BLACK
10
52033.0
20
45140.0
11
52033.0
21
45690.0
0
LINE
8
BLACK
10
52033.0
20
45690.0
11
52224.0
21
45690.0
0
LINE
8
BLACK
10
52224.0
20
45690.0
11
52271.0
21
45664.0
0
LINE
8
BLACK
10
52271.0
20
45664.0
11
52295.0
21
45638.0
0
LINE
8
BLACK
10
52295.0
20
45638.0
11
52319.0
21
45586.0
0
LINE
8
BLACK
10
52319.0
20
45586.0
11
52319.0
21
45507.0
0
LINE
8
BLACK
10
52319.0
20
45507.0
11
52295.0
21
45455.0
0
LINE
8
BLACK
10
52295.0
20
45455.0
11
52271.0
21
45428.0
0
LINE
8
BLACK
10
52271.0
20
45428.0
11
52224.0
21
45402.0
0
LINE
8
BLACK
10
52224.0
20
45402.0
11
52033.0
21
45402.0
0
LINE
8
BLACK
10
62668.0
20
42778.0
11
62501.0
21
43040.0
0
LINE
8
BLACK
10
62382.0
20
42778.0
11
62382.0
21
43328.0
0
LINE
8
BLACK
10
62382.0
20
43328.0
11
62573.0
21
43328.0
0
LINE
8
BLACK
10
62573.0
20
43328.0
11
62620.0
21
43302.0
0
LINE
8
BLACK
10
62620.0
20
43302.0
11
62644.0
21
43276.0
0
LINE
8
BLACK
10
62644.0
20
43276.0
11
62668.0
21
43224.0
0
LINE
8
BLACK
10
62668.0
20
43224.0
11
62668.0
21
43145.0
0
LINE
8
BLACK
10
62668.0
20
43145.0
11
62644.0
21
43093.0
0
LINE
8
BLACK
10
62644.0
20
43093.0
11
62620.0
21
43066.0
0
LINE
8
BLACK
10
62620.0
20
43066.0
11
62573.0
21
43040.0
0
LINE
8
BLACK
10
62573.0
20
43040.0
11
62382.0
21
43040.0
0
LINE
8
BLACK
10
63096.0
20
43145.0
11
63096.0
21
42778.0
0
LINE
8
BLACK
10
62977.0
20
43355.0
11
62858.0
21
42962.0
0
LINE
8
BLACK
10
62858.0
20
42962.0
11
63168.0
21
42962.0
0
LINE
8
BLACK
10
62278.0
20
45599.0
11
62302.0
21
45625.0
0
LINE
8
BLACK
10
62302.0
20
45625.0
11
62350.0
21
45651.0
0
LINE
8
BLACK
10
62350.0
20
45651.0
11
62469.0
21
45651.0
0
LINE
8
BLACK
10
62469.0
20
45651.0
11
62516.0
21
45625.0
0
LINE
8
BLACK
10
62516.0
20
45625.0
11
62540.0
21
45599.0
0
LINE
8
BLACK
10
62540.0
20
45599.0
11
62564.0
21
45547.0
0
LINE
8
BLACK
10
62564.0
20
45547.0
11
62564.0
21
45494.0
0
LINE
8
BLACK
10
62564.0
20
45494.0
11
62540.0
21
45416.0
0
LINE
8
BLACK
10
62540.0
20
45416.0
11
62254.0
21
45101.0
0
LINE
8
BLACK
10
62254.0
20
45101.0
11
62564.0
21
45101.0
0
LINE
8
BLACK
10
62754.0
20
45599.0
11
62778.0
21
45625.0
0
LINE
8
BLACK
10
62778.0
20
45625.0
11
62826.0
21
45651.0
0
LINE
8
BLACK
10
62826.0
20
45651.0
11
62945.0
21
45651.0
0
LINE
8
BLACK
10
62945.0
20
45651.0
11
62992.0
21
45625.0
0
LINE
8
BLACK
10
62992.0
20
45625.0
11
63016.0
21
45599.0
0
LINE
8
BLACK
10
63016.0
20
45599.0
11
63040.0
21
45547.0
0
LINE
8
BLACK
10
63040.0
20
45547.0
11
63040.0
21
45494.0
0
LINE
8
BLACK
10
63040.0
20
45494.0
11
63016.0
21
45416.0
0
LINE
8
BLACK
10
63016.0
20
45416.0
11
62730.0
21
45101.0
0
LINE
8
BLACK
10
62730.0
20
45101.0
11
63040.0
21
45101.0
0
LINE
8
BLACK
10
63540.0
20
45101.0
11
63373.0
21
45363.0
0
LINE
8
BLACK
10
63254.0
20
45101.0
11
63254.0
21
45651.0
0
LINE
8
BLACK
10
63254.0
20
45651.0
11
63445.0
21
45651.0
0
LINE
8
BLACK
10
63445.0
20
45651.0
11
63492.0
21
45625.0
0
LINE
8
BLACK
10
63492.0
20
45625.0
11
63516.0
21
45599.0
0
LINE
8
BLACK
10
63516.0
20
45599.0
11
63540.0
21
45547.0
0
LINE
8
BLACK
10
63540.0
20
45547.0
11
63540.0
21
45468.0
0
LINE
8
BLACK
10
63540.0
20
45468.0
11
63516.0
21
45416.0
0
LINE
8
BLACK
10
63516.0
20
45416.0
11
63492.0
21
45389.0
0
LINE
8
BLACK
10
63492.0
20
45389.0
11
63445.0
21
45363.0
0
LINE
8
BLACK
10
63445.0
20
45363.0
11
63254.0
21
45363.0
0
LINE
8
BLACK
10
51478.0
20
34123.0
11
51478.0
21
33837.0
0
LINE
8
BLACK
10
51478.0
20
33980.0
11
50928.0
21
33980.0
0
LINE
8
BLACK
10
50928.0
20
33980.0
11
51006.0
21
33932.0
0
LINE
8
BLACK
10
51006.0
20
33932.0
11
51059.0
21
33885.0
0
LINE
8
BLACK
10
51059.0
20
33885.0
11
51085.0
21
33837.0
0
LINE
8
BLACK
10
51478.0
20
34337.0
11
50928.0
21
34337.0
0
LINE
8
BLACK
10
51268.0
20
34385.0
11
51478.0
21
34528.0
0
LINE
8
BLACK
10
51111.0
20
34528.0
11
51320.0
21
34337.0
0
LINE
8
BLACK
10
49273.0
20
34123.0
11
49273.0
21
33837.0
0
LINE
8
BLACK
10
49273.0
20
33980.0
11
48723.0
21
33980.0
0
LINE
8
BLACK
10
48723.0
20
33980.0
11
48801.0
21
33932.0
0
LINE
8
BLACK
10
48801.0
20
33932.0
11
48854.0
21
33885.0
0
LINE
8
BLACK
10
48854.0
20
33885.0
11
48880.0
21
33837.0
0
LINE
8
BLACK
10
49273.0
20
34337.0
11
48723.0
21
34337.0
0
LINE
8
BLACK
10
49063.0
20
34385.0
11
49273.0
21
34528.0
0
LINE
8
BLACK
10
48906.0
20
34528.0
11
49115.0
21
34337.0
0
LINE
8
BLACK
10
52494.0
20
35124.0
11
52351.0
21
35124.0
0
LINE
8
BLACK
10
52351.0
20
35124.0
11
52351.0
21
35424.0
0
LINE
8
BLACK
10
52594.0
20
35281.0
11
52694.0
21
35281.0
0
LINE
8
BLACK
10
52737.0
20
35124.0
11
52594.0
21
35124.0
0
LINE
8
BLACK
10
52594.0
20
35124.0
11
52594.0
21
35424.0
0
LINE
8
BLACK
10
52594.0
20
35424.0
11
52737.0
21
35424.0
0
LINE
8
BLACK
10
52865.0
20
35124.0
11
52865.0
21
35424.0
0
LINE
8
BLACK
10
52865.0
20
35424.0
11
52937.0
21
35424.0
0
LINE
8
BLACK
10
52937.0
20
35424.0
11
52980.0
21
35409.0
0
LINE
8
BLACK
10
52980.0
20
35409.0
11
53008.0
21
35381.0
0
LINE
8
BLACK
10
53008.0
20
35381.0
11
53023.0
21
35352.0
0
LINE
8
BLACK
10
53023.0
20
35352.0
11
53037.0
21
35295.0
0
LINE
8
BLACK
10
53037.0
20
35295.0
11
53037.0
21
35252.0
0
LINE
8
BLACK
10
53037.0
20
35252.0
11
53023.0
21
35195.0
0
LINE
8
BLACK
10
53023.0
20
35195.0
11
53008.0
21
35166.0
0
LINE
8
BLACK
10
53008.0
20
35166.0
11
52980.0
21
35138.0
0
LINE
8
BLACK
10
52980.0
20
35138.0
11
52937.0
21
35124.0
0
LINE
8
BLACK
10
52937.0
20
35124.0
11
52865.0
21
35124.0
0
LINE
8
BLACK
10
53323.0
20
35124.0
11
53151.0
21
35124.0
0
LINE
8
BLACK
10
53237.0
20
35124.0
11
53237.0
21
35424.0
0
LINE
8
BLACK
10
53237.0
20
35424.0
11
53208.0
21
35381.0
0
LINE
8
BLACK
10
53208.0
20
35381.0
11
53180.0
21
35352.0
0
LINE
8
BLACK
10
53180.0
20
35352.0
11
53151.0
21
35338.0
0
LINE
8
BLACK
10
51061.0
20
35683.0
11
50761.0
21
35683.0
0
LINE
8
BLACK
10
50761.0
20
35683.0
11
50761.0
21
35798.0
0
LINE
8
BLACK
10
50761.0
20
35798.0
11
50776.0
21
35826.0
0
LINE
8
BLACK
10
50776.0
20
35826.0
11
50790.0
21
35841.0
0
LINE
8
BLACK
10
50790.0
20
35841.0
11
50819.0
21
35855.0
0
LINE
8
BLACK
10
50819.0
20
35855.0
11
50861.0
21
35855.0
0
LINE
8
BLACK
10
50861.0
20
35855.0
11
50890.0
21
35841.0
0
LINE
8
BLACK
10
50890.0
20
35841.0
11
50904.0
21
35826.0
0
LINE
8
BLACK
10
50904.0
20
35826.0
11
50919.0
21
35798.0
0
LINE
8
BLACK
10
50919.0
20
35798.0
11
50919.0
21
35683.0
0
LINE
8
BLACK
10
50761.0
20
35955.0
11
51061.0
21
36026.0
0
LINE
8
BLACK
10
51061.0
20
36026.0
11
50847.0
21
36083.0
0
LINE
8
BLACK
10
50847.0
20
36083.0
11
51061.0
21
36141.0
0
LINE
8
BLACK
10
51061.0
20
36141.0
11
50761.0
21
36212.0
0
LINE
8
BLACK
10
51061.0
20
36498.0
11
50919.0
21
36398.0
0
LINE
8
BLACK
10
51061.0
20
36326.0
11
50761.0
21
36326.0
0
LINE
8
BLACK
10
50761.0
20
36326.0
11
50761.0
21
36441.0
0
LINE
8
BLACK
10
50761.0
20
36441.0
11
50776.0
21
36469.0
0
LINE
8
BLACK
10
50776.0
20
36469.0
11
50790.0
21
36484.0
0
LINE
8
BLACK
10
50790.0
20
36484.0
11
50819.0
21
36498.0
0
LINE
8
BLACK
10
50819.0
20
36498.0
11
50861.0
21
36498.0
0
LINE
8
BLACK
10
50861.0
20
36498.0
11
50890.0
21
36484.0
0
LINE
8
BLACK
10
50890.0
20
36484.0
11
50904.0
21
36469.0
0
LINE
8
BLACK
10
50904.0
20
36469.0
11
50919.0
21
36441.0
0
LINE
8
BLACK
10
50919.0
20
36441.0
11
50919.0
21
36326.0
0
LINE
8
BLACK
10
51090.0
20
36555.0
11
51090.0
21
36784.0
0
LINE
8
BLACK
10
50761.0
20
36913.0
11
50761.0
21
36970.0
0
LINE
8
BLACK
10
50761.0
20
36970.0
11
50776.0
21
36998.0
0
LINE
8
BLACK
10
50776.0
20
36998.0
11
50804.0
21
37027.0
0
LINE
8
BLACK
10
50804.0
20
37027.0
11
50861.0
21
37041.0
0
LINE
8
BLACK
10
50861.0
20
37041.0
11
50961.0
21
37041.0
0
LINE
8
BLACK
10
50961.0
20
37041.0
11
51019.0
21
37027.0
0
LINE
8
BLACK
10
51019.0
20
37027.0
11
51047.0
21
36998.0
0
LINE
8
BLACK
10
51047.0
20
36998.0
11
51061.0
21
36970.0
0
LINE
8
BLACK
10
51061.0
20
36970.0
11
51061.0
21
36913.0
0
LINE
8
BLACK
10
51061.0
20
36913.0
11
51047.0
21
36884.0
0
LINE
8
BLACK
10
51047.0
20
36884.0
11
51019.0
21
36855.0
0
LINE
8
BLACK
10
51019.0
20
36855.0
11
50961.0
21
36841.0
0
LINE
8
BLACK
10
50961.0
20
36841.0
11
50861.0
21
36841.0
0
LINE
8
BLACK
10
50861.0
20
36841.0
11
50804.0
21
36855.0
0
LINE
8
BLACK
10
50804.0
20
36855.0
11
50776.0
21
36884.0
0
LINE
8
BLACK
10
50776.0
20
36884.0
11
50761.0
21
36913.0
0
LINE
8
BLACK
10
51061.0
20
37169.0
11
50761.0
21
37169.0
0
LINE
8
BLACK
10
51061.0
20
37341.0
11
50890.0
21
37212.0
0
LINE
8
BLACK
10
50761.0
20
37341.0
11
50933.0
21
37169.0
0
LINE
8
BLACK
10
50210.0
20
35124.0
11
50067.0
21
35124.0
0
LINE
8
BLACK
10
50067.0
20
35124.0
11
50067.0
21
35424.0
0
LINE
8
BLACK
10
50310.0
20
35281.0
11
50410.0
21
35281.0
0
LINE
8
BLACK
10
50453.0
20
35124.0
11
50310.0
21
35124.0
0
LINE
8
BLACK
10
50310.0
20
35124.0
11
50310.0
21
35424.0
0
LINE
8
BLACK
10
50310.0
20
35424.0
11
50453.0
21
35424.0
0
LINE
8
BLACK
10
50581.0
20
35124.0
11
50581.0
21
35424.0
0
LINE
8
BLACK
10
50581.0
20
35424.0
11
50653.0
21
35424.0
0
LINE
8
BLACK
10
50653.0
20
35424.0
11
50696.0
21
35409.0
0
LINE
8
BLACK
10
50696.0
20
35409.0
11
50724.0
21
35381.0
0
LINE
8
BLACK
10
50724.0
20
35381.0
11
50739.0
21
35352.0
0
LINE
8
BLACK
10
50739.0
20
35352.0
11
50753.0
21
35295.0
0
LINE
8
BLACK
10
50753.0
20
35295.0
11
50753.0
21
35252.0
0
LINE
8
BLACK
10
50753.0
20
35252.0
11
50739.0
21
35195.0
0
LINE
8
BLACK
10
50739.0
20
35195.0
11
50724.0
21
35166.0
0
LINE
8
BLACK
10
50724.0
20
35166.0
11
50696.0
21
35138.0
0
LINE
8
BLACK
10
50696.0
20
35138.0
11
50653.0
21
35124.0
0
LINE
8
BLACK
10
50653.0
20
35124.0
11
50581.0
21
35124.0
0
LINE
8
BLACK
10
50867.0
20
35395.0
11
50881.0
21
35409.0
0
LINE
8
BLACK
10
50881.0
20
35409.0
11
50910.0
21
35424.0
0
LINE
8
BLACK
10
50910.0
20
35424.0
11
50981.0
21
35424.0
0
LINE
8
BLACK
10
50981.0
20
35424.0
11
51010.0
21
35409.0
0
LINE
8
BLACK
10
51010.0
20
35409.0
11
51024.0
21
35395.0
0
LINE
8
BLACK
10
51024.0
20
35395.0
11
51039.0
21
35366.0
0
LINE
8
BLACK
10
51039.0
20
35366.0
11
51039.0
21
35338.0
0
LINE
8
BLACK
10
51039.0
20
35338.0
11
51024.0
21
35295.0
0
LINE
8
BLACK
10
51024.0
20
35295.0
11
50853.0
21
35124.0
0
LINE
8
BLACK
10
50853.0
20
35124.0
11
51039.0
21
35124.0
0
LINE
8
BLACK
10
48635.0
20
36462.0
11
48635.0
21
36319.0
0
LINE
8
BLACK
10
48635.0
20
36319.0
11
48778.0
21
36305.0
0
LINE
8
BLACK
10
48778.0
20
36305.0
11
48764.0
21
36319.0
0
LINE
8
BLACK
10
48764.0
20
36319.0
11
48750.0
21
36348.0
0
LINE
8
BLACK
10
48750.0
20
36348.0
11
48750.0
21
36419.0
0
LINE
8
BLACK
10
48750.0
20
36419.0
11
48764.0
21
36448.0
0
LINE
8
BLACK
10
48764.0
20
36448.0
11
48778.0
21
36462.0
0
LINE
8
BLACK
10
48778.0
20
36462.0
11
48807.0
21
36477.0
0
LINE
8
BLACK
10
48807.0
20
36477.0
11
48878.0
21
36477.0
0
LINE
8
BLACK
10
48878.0
20
36477.0
11
48907.0
21
36462.0
0
LINE
8
BLACK
10
48907.0
20
36462.0
11
48921.0
21
36448.0
0
LINE
8
BLACK
10
48921.0
20
36448.0
11
48935.0
21
36419.0
0
LINE
8
BLACK
10
48935.0
20
36419.0
11
48935.0
21
36348.0
0
LINE
8
BLACK
10
48935.0
20
36348.0
11
48921.0
21
36319.0
0
LINE
8
BLACK
10
48921.0
20
36319.0
11
48907.0
21
36305.0
0
LINE
8
BLACK
10
48635.0
20
36563.0
11
48935.0
21
36663.0
0
LINE
8
BLACK
10
48935.0
20
36663.0
11
48635.0
21
36763.0
0
LINE
8
BLACK
10
48921.0
20
36848.0
11
48935.0
21
36891.0
0
LINE
8
BLACK
10
48935.0
20
36891.0
11
48935.0
21
36962.0
0
LINE
8
BLACK
10
48935.0
20
36962.0
11
48921.0
21
36991.0
0
LINE
8
BLACK
10
48921.0
20
36991.0
11
48907.0
21
37005.0
0
LINE
8
BLACK
10
48907.0
20
37005.0
11
48878.0
21
37020.0
0
LINE
8
BLACK
10
48878.0
20
37020.0
11
48850.0
21
37020.0
0
LINE
8
BLACK
10
48850.0
20
37020.0
11
48821.0
21
37005.0
0
LINE
8
BLACK
10
48821.0
20
37005.0
11
48807.0
21
36991.0
0
LINE
8
BLACK
10
48807.0
20
36991.0
11
48793.0
21
36962.0
0
LINE
8
BLACK
10
48793.0
20
36962.0
11
48778.0
21
36905.0
0
LINE
8
BLACK
10
48778.0
20
36905.0
11
48764.0
21
36877.0
0
LINE
8
BLACK
10
48764.0
20
36877.0
11
48750.0
21
36862.0
0
LINE
8
BLACK
10
48750.0
20
36862.0
11
48721.0
21
36848.0
0
LINE
8
BLACK
10
48721.0
20
36848.0
11
48693.0
21
36848.0
0
LINE
8
BLACK
10
48693.0
20
36848.0
11
48664.0
21
36862.0
0
LINE
8
BLACK
10
48664.0
20
36862.0
11
48650.0
21
36877.0
0
LINE
8
BLACK
10
48650.0
20
36877.0
11
48635.0
21
36905.0
0
LINE
8
BLACK
10
48635.0
20
36905.0
11
48635.0
21
36977.0
0
LINE
8
BLACK
10
48635.0
20
36977.0
11
48650.0
21
37020.0
0
LINE
8
BLACK
10
48348.0
20
31181.0
11
47748.0
21
31181.0
0
LINE
8
BLACK
10
47748.0
20
31181.0
11
47748.0
21
31409.0
0
LINE
8
BLACK
10
47748.0
20
31409.0
11
47776.0
21
31467.0
0
LINE
8
BLACK
10
47776.0
20
31467.0
11
47805.0
21
31495.0
0
LINE
8
BLACK
10
47805.0
20
31495.0
11
47862.0
21
31524.0
0
LINE
8
BLACK
10
47862.0
20
31524.0
11
47948.0
21
31524.0
0
LINE
8
BLACK
10
47948.0
20
31524.0
11
48005.0
21
31495.0
0
LINE
8
BLACK
10
48005.0
20
31495.0
11
48034.0
21
31467.0
0
LINE
8
BLACK
10
48034.0
20
31467.0
11
48062.0
21
31409.0
0
LINE
8
BLACK
10
48062.0
20
31409.0
11
48062.0
21
31181.0
0
LINE
8
BLACK
10
47748.0
20
31724.0
11
47748.0
21
32095.0
0
LINE
8
BLACK
10
47748.0
20
32095.0
11
47976.0
21
31895.0
0
LINE
8
BLACK
10
47976.0
20
31895.0
11
47976.0
21
31981.0
0
LINE
8
BLACK
10
47976.0
20
31981.0
11
48005.0
21
32038.0
0
LINE
8
BLACK
10
48005.0
20
32038.0
11
48034.0
21
32067.0
0
LINE
8
BLACK
10
48034.0
20
32067.0
11
48091.0
21
32095.0
0
LINE
8
BLACK
10
48091.0
20
32095.0
11
48234.0
21
32095.0
0
LINE
8
BLACK
10
48234.0
20
32095.0
11
48291.0
21
32067.0
0
LINE
8
BLACK
10
48291.0
20
32067.0
11
48319.0
21
32038.0
0
LINE
8
BLACK
10
48319.0
20
32038.0
11
48348.0
21
31981.0
0
LINE
8
BLACK
10
48348.0
20
31981.0
11
48348.0
21
31809.0
0
LINE
8
BLACK
10
48348.0
20
31809.0
11
48319.0
21
31752.0
0
LINE
8
BLACK
10
48319.0
20
31752.0
11
48291.0
21
31724.0
0
LINE
8
BLACK
10
42994.0
20
33398.0
11
42394.0
21
33398.0
0
LINE
8
BLACK
10
42394.0
20
33398.0
11
42394.0
21
33626.0
0
LINE
8
BLACK
10
42394.0
20
33626.0
11
42422.0
21
33684.0
0
LINE
8
BLACK
10
42422.0
20
33684.0
11
42451.0
21
33712.0
0
LINE
8
BLACK
10
42451.0
20
33712.0
11
42508.0
21
33741.0
0
LINE
8
BLACK
10
42508.0
20
33741.0
11
42594.0
21
33741.0
0
LINE
8
BLACK
10
42594.0
20
33741.0
11
42651.0
21
33712.0
0
LINE
8
BLACK
10
42651.0
20
33712.0
11
42680.0
21
33684.0
0
LINE
8
BLACK
10
42680.0
20
33684.0
11
42708.0
21
33626.0
0
LINE
8
BLACK
10
42708.0
20
33626.0
11
42708.0
21
33398.0
0
LINE
8
BLACK
10
42394.0
20
33941.0
11
42994.0
21
34084.0
0
LINE
8
BLACK
10
42994.0
20
34084.0
11
42565.0
21
34198.0
0
LINE
8
BLACK
10
42565.0
20
34198.0
11
42994.0
21
34312.0
0
LINE
8
BLACK
10
42994.0
20
34312.0
11
42394.0
21
34455.0
0
LINE
8
BLACK
10
42994.0
20
35027.0
11
42708.0
21
34827.0
0
LINE
8
BLACK
10
42994.0
20
34684.0
11
42394.0
21
34684.0
0
LINE
8
BLACK
10
42394.0
20
34684.0
11
42394.0
21
34912.0
0
LINE
8
BLACK
10
42394.0
20
34912.0
11
42422.0
21
34970.0
0
LINE
8
BLACK
10
42422.0
20
34970.0
11
42451.0
21
34998.0
0
LINE
8
BLACK
10
42451.0
20
34998.0
11
42508.0
21
35027.0
0
LINE
8
BLACK
10
42508.0
20
35027.0
11
42594.0
21
35027.0
0
LINE
8
BLACK
10
42594.0
20
35027.0
11
42651.0
21
34998.0
0
LINE
8
BLACK
10
42651.0
20
34998.0
11
42680.0
21
34970.0
0
LINE
8
BLACK
10
42680.0
20
34970.0
11
42708.0
21
34912.0
0
LINE
8
BLACK
10
42708.0
20
34912.0
11
42708.0
21
34684.0
0
LINE
8
BLACK
10
43051.0
20
35141.0
11
43051.0
21
35598.0
0
LINE
8
BLACK
10
42394.0
20
35855.0
11
42394.0
21
35969.0
0
LINE
8
BLACK
10
42394.0
20
35969.0
11
42422.0
21
36027.0
0
LINE
8
BLACK
10
42422.0
20
36027.0
11
42480.0
21
36084.0
0
LINE
8
BLACK
10
42480.0
20
36084.0
11
42594.0
21
36112.0
0
LINE
8
BLACK
10
42594.0
20
36112.0
11
42794.0
21
36112.0
0
LINE
8
BLACK
10
42794.0
20
36112.0
11
42908.0
21
36084.0
0
LINE
8
BLACK
10
42908.0
20
36084.0
11
42965.0
21
36027.0
0
LINE
8
BLACK
10
42965.0
20
36027.0
11
42994.0
21
35969.0
0
LINE
8
BLACK
10
42994.0
20
35969.0
11
42994.0
21
35855.0
0
LINE
8
BLACK
10
42994.0
20
35855.0
11
42965.0
21
35798.0
0
LINE
8
BLACK
10
42965.0
20
35798.0
11
42908.0
21
35741.0
0
LINE
8
BLACK
10
42908.0
20
35741.0
11
42794.0
21
35712.0
0
LINE
8
BLACK
10
42794.0
20
35712.0
11
42594.0
21
35712.0
0
LINE
8
BLACK
10
42594.0
20
35712.0
11
42480.0
21
35741.0
0
LINE
8
BLACK
10
42480.0
20
35741.0
11
42422.0
21
35798.0
0
LINE
8
BLACK
10
42422.0
20
35798.0
11
42394.0
21
35855.0
0
LINE
8
BLACK
10
42394.0
20
36370.0
11
42880.0
21
36370.0
0
LINE
8
BLACK
10
42880.0
20
36370.0
11
42937.0
21
36398.0
0
LINE
8
BLACK
10
42937.0
20
36398.0
11
42965.0
21
36427.0
0
LINE
8
BLACK
10
42965.0
20
36427.0
11
42994.0
21
36484.0
0
LINE
8
BLACK
10
42994.0
20
36484.0
11
42994.0
21
36598.0
0
LINE
8
BLACK
10
42994.0
20
36598.0
11
42965.0
21
36656.0
0
LINE
8
BLACK
10
42965.0
20
36656.0
11
42937.0
21
36684.0
0
LINE
8
BLACK
10
42937.0
20
36684.0
11
42880.0
21
36713.0
0
LINE
8
BLACK
10
42880.0
20
36713.0
11
42394.0
21
36713.0
0
LINE
8
BLACK
10
42394.0
20
36913.0
11
42394.0
21
37256.0
0
LINE
8
BLACK
10
42994.0
20
37085.0
11
42394.0
21
37085.0
0
LINE
8
BLACK
10
41404.0
20
43291.0
11
41404.0
21
43691.0
0
LINE
8
BLACK
10
41404.0
20
43691.0
11
41538.0
21
43405.0
0
LINE
8
BLACK
10
41538.0
20
43405.0
11
41671.0
21
43691.0
0
LINE
8
BLACK
10
41671.0
20
43691.0
11
41671.0
21
43291.0
0
LINE
8
BLACK
10
42033.0
20
43558.0
11
42033.0
21
43291.0
0
LINE
8
BLACK
10
41937.0
20
43710.0
11
41842.0
21
43424.0
0
LINE
8
BLACK
10
41842.0
20
43424.0
11
42090.0
21
43424.0
0
LINE
8
BLACK
10
65813.0
20
35417.0
11
65813.0
21
35817.0
0
LINE
8
BLACK
10
65813.0
20
35817.0
11
65947.0
21
35531.0
0
LINE
8
BLACK
10
65947.0
20
35531.0
11
66080.0
21
35817.0
0
LINE
8
BLACK
10
66080.0
20
35817.0
11
66080.0
21
35417.0
0
LINE
8
BLACK
10
66442.0
20
35684.0
11
66442.0
21
35417.0
0
LINE
8
BLACK
10
66346.0
20
35836.0
11
66251.0
21
35550.0
0
LINE
8
BLACK
10
66251.0
20
35550.0
11
66499.0
21
35550.0
0
LINE
8
BLACK
10
60960.0
20
33563.0
11
60960.0
21
33963.0
0
LINE
8
BLACK
10
60960.0
20
33963.0
11
61113.0
21
33963.0
0
LINE
8
BLACK
10
61113.0
20
33963.0
11
61151.0
21
33944.0
0
LINE
8
BLACK
10
61151.0
20
33944.0
11
61170.0
21
33925.0
0
LINE
8
BLACK
10
61170.0
20
33925.0
11
61189.0
21
33887.0
0
LINE
8
BLACK
10
61189.0
20
33887.0
11
61189.0
21
33830.0
0
LINE
8
BLACK
10
61189.0
20
33830.0
11
61170.0
21
33792.0
0
LINE
8
BLACK
10
61170.0
20
33792.0
11
61151.0
21
33773.0
0
LINE
8
BLACK
10
61151.0
20
33773.0
11
61113.0
21
33754.0
0
LINE
8
BLACK
10
61113.0
20
33754.0
11
60960.0
21
33754.0
0
LINE
8
BLACK
10
61341.0
20
33925.0
11
61360.0
21
33944.0
0
LINE
8
BLACK
10
61360.0
20
33944.0
11
61398.0
21
33963.0
0
LINE
8
BLACK
10
61398.0
20
33963.0
11
61494.0
21
33963.0
0
LINE
8
BLACK
10
61494.0
20
33963.0
11
61532.0
21
33944.0
0
LINE
8
BLACK
10
61532.0
20
33944.0
11
61551.0
21
33925.0
0
LINE
8
BLACK
10
61551.0
20
33925.0
11
61570.0
21
33887.0
0
LINE
8
BLACK
10
61570.0
20
33887.0
11
61570.0
21
33849.0
0
LINE
8
BLACK
10
61570.0
20
33849.0
11
61551.0
21
33792.0
0
LINE
8
BLACK
10
61551.0
20
33792.0
11
61322.0
21
33563.0
0
LINE
8
BLACK
10
61322.0
20
33563.0
11
61570.0
21
33563.0
0
ENDSEC
0
EOF
